<?xml version="1.0" encoding="utf-8"?>
<!-- Generator: Adobe Illustrator 27.2.0, SVG Export Plug-In . SVG Version: 6.00 Build 0)  -->
<svg version="1.1" id="Layer_1" xmlns="http://www.w3.org/2000/svg" xmlns:xlink="http://www.w3.org/1999/xlink" x="0px" y="0px"
	 viewBox="0 0 1433.5 577" style="enable-background:new 0 0 1433.5 577;" xml:space="preserve">
<style type="text/css">
	.st0{fill:#EBF7DE;}
	.st1{fill:none;stroke:#DDDDDD;stroke-miterlimit:10;}
	.st2{fill:none;stroke:#888888;stroke-miterlimit:10;}
	.st3{font-family:'Futura-Medium';}
	.st4{font-size:10px;}
	.st5{letter-spacing:-1;}
	.st6{font-family:'Futura-Bold';}
	.st7{font-size:12px;}
	.st8{fill:none;stroke:#888888;stroke-width:1.0496;stroke-miterlimit:10;}
	.st9{fill:none;}
	.st10{opacity:0.36;}
	.st11{fill:none;stroke:#C6EAE3;stroke-width:3.5;stroke-miterlimit:10;}
	.st12{fill:none;stroke:#C6EAE3;stroke-width:3.5;stroke-miterlimit:10;stroke-dasharray:11.9662,11.9662;}
	.st13{fill:none;stroke:#B3E2D8;stroke-width:3.5;stroke-miterlimit:10;}
	.st14{fill:none;stroke:#9EDACB;stroke-width:3.5;stroke-miterlimit:10;}
	.st15{fill:none;stroke:#9EDACB;stroke-width:3.5;stroke-miterlimit:10;stroke-dasharray:11.9679,11.9679;}
	.st16{fill:none;stroke:#89D1BC;stroke-width:3.5;stroke-miterlimit:10;}
	.st17{fill:none;stroke:#74C8AC;stroke-width:3.5;stroke-miterlimit:10;}
	.st18{fill:none;stroke:#74C8AC;stroke-width:3.5;stroke-miterlimit:10;stroke-dasharray:11.9727,11.9727;}
	.st19{fill:none;stroke:#61BF9A;stroke-width:3.5;stroke-miterlimit:10;}
	.st20{fill:none;stroke:#50B587;stroke-width:3.5;stroke-miterlimit:10;}
	.st21{fill:none;stroke:#50B587;stroke-width:3.5;stroke-miterlimit:10;stroke-dasharray:11.9847,11.9847;}
	.st22{fill:none;stroke:#41AA73;stroke-width:3.5;stroke-miterlimit:10;}
	.st23{fill:none;stroke:#329D5F;stroke-width:3.5;stroke-miterlimit:10;}
	.st24{fill:none;stroke:#329D5F;stroke-width:3.5;stroke-miterlimit:10;stroke-dasharray:12.0231,12.0231;}
	.st25{fill:none;stroke:#258F4D;stroke-width:3.5;stroke-miterlimit:10;}
	.st26{fill:none;stroke:#18813F;stroke-width:3.5;stroke-miterlimit:10;}
	.st27{fill:none;stroke:#18813F;stroke-width:3.5;stroke-miterlimit:10;stroke-dasharray:12.0863,12.0863;}
	.st28{fill:none;stroke:#0B7333;stroke-width:3.5;stroke-miterlimit:10;}
	.st29{enable-background:new    ;}
	.st30{font-size:13.3668px;}
</style>
<rect class="st0" width="1433.5" height="577"/>
<path class="st1" d="M112.2,87.5h1000v400h-1000L112.2,87.5L112.2,87.5z"/>
<g pointer-events="none">
	<line class="st2" x1="145.2" y1="487.5" x2="145.2" y2="492.5"/>
	<line class="st2" x1="212.2" y1="487.5" x2="212.2" y2="492.5"/>
	<line class="st2" x1="279.2" y1="487.5" x2="279.2" y2="492.5"/>
	<line class="st2" x1="345.2" y1="487.5" x2="345.2" y2="492.5"/>
	<line class="st2" x1="412.2" y1="487.5" x2="412.2" y2="492.5"/>
	<line class="st2" x1="479.2" y1="487.5" x2="479.2" y2="492.5"/>
	<line class="st2" x1="545.2" y1="487.5" x2="545.2" y2="492.5"/>
	<line class="st2" x1="612.2" y1="487.5" x2="612.2" y2="492.5"/>
	<line class="st2" x1="679.2" y1="487.5" x2="679.2" y2="492.5"/>
	<line class="st2" x1="745.2" y1="487.5" x2="745.2" y2="492.5"/>
	<line class="st2" x1="812.2" y1="487.5" x2="812.2" y2="492.5"/>
	<line class="st2" x1="879.2" y1="487.5" x2="879.2" y2="492.5"/>
	<line class="st2" x1="945.2" y1="487.5" x2="945.2" y2="492.5"/>
	<line class="st2" x1="1012.2" y1="487.5" x2="1012.2" y2="492.5"/>
	<line class="st2" x1="1079.2" y1="487.5" x2="1079.2" y2="492.5"/>
</g>
<g pointer-events="none">
	<text transform="matrix(6.123234e-17 -1 1 6.123234e-17 148.52 516.75)" class="st3 st4">2005</text>
	<text transform="matrix(6.123234e-17 -1 1 6.123234e-17 215.19 516.75)" class="st3 st4">2006</text>
	<text transform="matrix(6.123234e-17 -1 1 6.123234e-17 281.85 516.75)" class="st3 st4">20</text>
	<text transform="matrix(6.123234e-17 -1 1 6.123234e-17 281.85 504.4102)" class="st3 st4">0</text>
	<text transform="matrix(6.123234e-17 -1 1 6.123234e-17 281.85 498.5605)" class="st3 st4">7</text>
	<text transform="matrix(6.123234e-17 -1 1 6.123234e-17 348.52 516.75)" class="st3 st4">2008</text>
	<text transform="matrix(6.123234e-17 -1 1 6.123234e-17 415.19 516.75)" class="st3 st4">2009</text>
	<text transform="matrix(6.123234e-17 -1 1 6.123234e-17 481.85 516.75)" class="st3 st4">2</text>
	<text transform="matrix(6.123234e-17 -1 1 6.123234e-17 481.85 510.5801)" class="st3 st4">0</text>
	<text transform="matrix(6.123234e-17 -1 1 6.123234e-17 481.85 505.1797)" class="st3 st4">1</text>
	<text transform="matrix(6.123234e-17 -1 1 6.123234e-17 481.85 499.6094)" class="st3 st4">0</text>
	<text transform="matrix(6.123234e-17 -1 1 6.123234e-17 548.52 516.0098)" class="st3 st4">2</text>
	<text transform="matrix(6.123234e-17 -1 1 6.123234e-17 548.52 509.8398)" class="st3 st4">0</text>
	<text transform="matrix(6.123234e-17 -1 1 6.123234e-17 548.52 504.4395)" class="st3 st4 st5">1</text>
	<text transform="matrix(6.123234e-17 -1 1 6.123234e-17 548.52 499.7305)" class="st3 st4">1</text>
	<text transform="matrix(6.123234e-17 -1 1 6.123234e-17 615.19 516.75)" class="st3 st4">2</text>
	<text transform="matrix(6.123234e-17 -1 1 6.123234e-17 615.19 510.5801)" class="st3 st4">0</text>
	<text transform="matrix(6.123234e-17 -1 1 6.123234e-17 615.19 505.1797)" class="st3 st4">1</text>
	<text transform="matrix(6.123234e-17 -1 1 6.123234e-17 615.19 499.8008)" class="st3 st4">2</text>
	<text transform="matrix(6.123234e-17 -1 1 6.123234e-17 681.85 516.75)" class="st3 st4">2</text>
	<text transform="matrix(6.123234e-17 -1 1 6.123234e-17 681.85 510.5801)" class="st3 st4">0</text>
	<text transform="matrix(6.123234e-17 -1 1 6.123234e-17 681.85 505.1797)" class="st3 st4">1</text>
	<text transform="matrix(6.123234e-17 -1 1 6.123234e-17 681.85 499.7207)" class="st3 st4">3</text>
	<text transform="matrix(6.123234e-17 -1 1 6.123234e-17 748.52 516.75)" class="st3 st4">2</text>
	<text transform="matrix(6.123234e-17 -1 1 6.123234e-17 748.52 510.5801)" class="st3 st4">0</text>
	<text transform="matrix(6.123234e-17 -1 1 6.123234e-17 748.52 505.1797)" class="st3 st4">1</text>
	<text transform="matrix(6.123234e-17 -1 1 6.123234e-17 748.52 499.8008)" class="st3 st4">4</text>
	<text transform="matrix(6.123234e-17 -1 1 6.123234e-17 815.19 516.75)" class="st3 st4">2</text>
	<text transform="matrix(6.123234e-17 -1 1 6.123234e-17 815.19 510.5801)" class="st3 st4">0</text>
	<text transform="matrix(6.123234e-17 -1 1 6.123234e-17 815.19 505.1797)" class="st3 st4">1</text>
	<text transform="matrix(6.123234e-17 -1 1 6.123234e-17 815.19 499.8008)" class="st3 st4">5</text>
	<text transform="matrix(6.123234e-17 -1 1 6.123234e-17 881.85 516.75)" class="st3 st4">2</text>
	<text transform="matrix(6.123234e-17 -1 1 6.123234e-17 881.85 510.5801)" class="st3 st4">0</text>
	<text transform="matrix(6.123234e-17 -1 1 6.123234e-17 881.85 505.1797)" class="st3 st4">1</text>
	<text transform="matrix(6.123234e-17 -1 1 6.123234e-17 881.85 499.8809)" class="st3 st4">6</text>
	<text transform="matrix(6.123234e-17 -1 1 6.123234e-17 948.52 516.75)" class="st3 st4">2</text>
	<text transform="matrix(6.123234e-17 -1 1 6.123234e-17 948.52 510.5801)" class="st3 st4">0</text>
	<text transform="matrix(6.123234e-17 -1 1 6.123234e-17 948.52 505.1797)" class="st3 st4">1</text>
	<text transform="matrix(6.123234e-17 -1 1 6.123234e-17 948.52 499.9297)" class="st3 st4">7</text>
	<text transform="matrix(6.123234e-17 -1 1 6.123234e-17 1015.19 516.75)" class="st3 st4">2</text>
	<text transform="matrix(6.123234e-17 -1 1 6.123234e-17 1015.19 510.5801)" class="st3 st4">0</text>
	<text transform="matrix(6.123234e-17 -1 1 6.123234e-17 1015.19 505.1797)" class="st3 st4">1</text>
	<text transform="matrix(6.123234e-17 -1 1 6.123234e-17 1015.19 499.7598)" class="st3 st4">8</text>
	<text transform="matrix(6.123234e-17 -1 1 6.123234e-17 1081.85 516.75)" class="st3 st4">2</text>
	<text transform="matrix(6.123234e-17 -1 1 6.123234e-17 1081.85 510.5801)" class="st3 st4">0</text>
	<text transform="matrix(6.123234e-17 -1 1 6.123234e-17 1081.85 505.1797)" class="st3 st4">1</text>
	<text transform="matrix(6.123234e-17 -1 1 6.123234e-17 1081.85 499.8203)" class="st3 st4">9</text>
</g>
<g pointer-events="none">
	<line class="st2" x1="112.2" y1="487.5" x2="1112.2" y2="487.5"/>
</g>
<g pointer-events="none">
	<text transform="matrix(1 0 0 1 600.56 534.75)" class="st6 st7">Y</text>
	<text transform="matrix(1 0 0 1 608.26 534.75)" class="st6 st7">ear</text>
</g>
<line class="st2" x1="112.2" y1="487.5" x2="107.2" y2="487.5"/>
<line class="st2" x1="112.2" y1="437.5" x2="107.2" y2="437.5"/>
<line class="st2" x1="112.2" y1="387.5" x2="107.2" y2="387.5"/>
<line class="st2" x1="112.2" y1="337.5" x2="107.2" y2="337.5"/>
<line class="st2" x1="112.2" y1="287.5" x2="107.2" y2="287.5"/>
<line class="st2" x1="112.2" y1="237.5" x2="107.2" y2="237.5"/>
<line class="st2" x1="112.2" y1="187.5" x2="107.2" y2="187.5"/>
<line class="st2" x1="112.2" y1="137.5" x2="107.2" y2="137.5"/>
<line class="st8" x1="112.7" y1="87.5" x2="107.2" y2="87.5"/>
<g pointer-events="none">
	<text transform="matrix(1 0 0 1 99.62 490.5)" class="st3 st4">0</text>
	<text transform="matrix(1 0 0 1 74.6 440.5)" class="st3 st4">20,000</text>
	<text transform="matrix(1 0 0 1 74.6 390.5)" class="st3 st4">40,000</text>
	<text transform="matrix(1 0 0 1 74.6 340.5)" class="st3 st4">60,000</text>
	<text transform="matrix(1 0 0 1 74.6 290.5)" class="st3 st4">80,000</text>
	<text transform="matrix(1 0 0 1 69.04 240.5)" class="st3 st4">1</text>
	<text transform="matrix(1 0 0 1 74.61 240.5)" class="st3 st4">00,000</text>
	<text transform="matrix(1 0 0 1 69.04 190.5)" class="st3 st4">1</text>
	<text transform="matrix(1 0 0 1 74.42 190.5)" class="st3 st4">20,000</text>
	<text transform="matrix(1 0 0 1 69.04 140.5)" class="st3 st4">1</text>
	<text transform="matrix(1 0 0 1 74.42 140.5)" class="st3 st4">40,000</text>
	<text transform="matrix(1 0 0 1 69.04 90.5)" class="st3 st4">1</text>
	<text transform="matrix(1 0 0 1 74.33 90.5)" class="st3 st4">60,000</text>
</g>
<g pointer-events="none">
	<line class="st2" x1="112.2" y1="487.5" x2="112.2" y2="87.5"/>
</g>
<g pointer-events="none">
	<text transform="matrix(6.123234e-17 -1 1 6.123234e-17 57.04 323.5605)" class="st6 st7">Income (USD)</text>
</g>
<path class="st9" d="M111.7,87h1000v400h-1000L111.7,87L111.7,87z"/>
<g class="st10">
	<g>
		<line class="st11" x1="145" y1="480.5" x2="151" y2="480.5"/>
		<polyline class="st12" points="163,480.4 211.7,480.3 278.4,480.1 345,480 411.7,480.3 478.4,480.3 545,480 611.7,479.7 
			678.4,479.4 745,478.9 811.7,478.3 878.4,478 945.1,477.5 1011.7,477 1066.4,476.5 		"/>
		<line class="st11" x1="1072.4" y1="476.4" x2="1078.4" y2="476.4"/>
	</g>
</g>
<g>
	<path class="st9" d="M111.7,87h1000v400h-1000L111.7,87L111.7,87z"/>
	<path class="st13" d="M145,478.8h66.7h66.7h66.7l66.7,0.4l66.7,0.1l66.7-0.1l66.7-0.2l66.7-0.2l66.7-0.4l66.7-0.6l66.7-0.2
		l66.7-0.3l66.7-0.4l66.7-0.5"/>
</g>
<path class="st9" d="M111.7,87h1000v400h-1000L111.7,87L111.7,87z"/>
<g class="st10">
	<g>
		<line class="st14" x1="145" y1="462.9" x2="151" y2="462.8"/>
		<polyline class="st15" points="163,462.7 211.7,462.1 278.4,461.3 345,460.6 411.7,461.4 478.4,461.4 545,460.4 611.7,459.4 
			678.4,458.6 745,457.3 811.7,455.8 878.4,454.8 945.1,453.2 1011.7,451.2 1066.4,449.6 		"/>
		<line class="st14" x1="1072.4" y1="449.5" x2="1078.4" y2="449.3"/>
	</g>
</g>
<g>
	<path class="st9" d="M111.7,87h1000v400h-1000L111.7,87L111.7,87z"/>
	<path class="st16" d="M145,456.5l66.7-0.2l66.7-0.1H345l66.7,0.9l66.7,0.5l66.7-0.3l66.7-0.5l66.7-0.5l66.7-0.9l66.7-1.6l66.7-0.7
		l66.7-1.1l66.7-1.2l66.7-1.4"/>
</g>
<path class="st9" d="M111.7,87h1000v400h-1000L111.7,87L111.7,87z"/>
<g class="st10">
	<g>
		<line class="st17" x1="145" y1="425" x2="151" y2="424.7"/>
		<polyline class="st18" points="163,424.3 211.7,422.7 278.4,420.7 345,418.8 411.7,419.6 478.4,419.3 545,417.8 611.7,416.1 
			678.4,414.5 745,412.2 811.7,409.3 878.4,407.9 945.1,404.8 1011.7,401.4 1066.4,398.6 		"/>
		<line class="st17" x1="1072.4" y1="398.3" x2="1078.4" y2="397.9"/>
	</g>
</g>
<path class="st9" d="M111.7,87h1000v400h-1000L111.7,87L111.7,87z"/>
<path class="st19" d="M145,408.5l66.7-0.7l66.7-0.4l66.7,0.1l66.7,0.7l66.7,1l66.7,0.2l66.7-0.5l66.7-0.7l66.7-1.3L812,404l66.7-0.7
	l66.7-1.7l66.7-1.6l66.7-2.2"/>
<g class="st10">
	<g>
		<line class="st20" x1="145" y1="374" x2="151" y2="373.6"/>
		<polyline class="st21" points="163,372.8 211.7,369.6 278.4,365.6 345,361.6 411.7,361.6 478.4,360 545,357.1 611.7,354.4 
			678.4,351.8 745,347.9 811.7,343.3 878.4,341.5 945.1,336.9 1011.7,331.6 1066.4,327.3 		"/>
		<line class="st20" x1="1072.4" y1="326.8" x2="1078.4" y2="326.4"/>
	</g>
</g>
<path class="st22" d="M145,344l66.7-1.4l66.7-1.3l66.7-0.4l66.7-0.5l66.7,0.7l66.7,0.4l66.7-0.3l66.7-0.9l66.7-2l66.7-4.6l66.7-0.4
	l66.7-2l66.7-2.1l66.7-2.9"/>
<g class="st10">
	<g>
		<line class="st23" x1="145" y1="305" x2="151" y2="304.3"/>
		<polyline class="st24" points="162.9,302.9 211.7,297.2 278.4,289.8 345,282.6 411.7,281.9 478.4,278.2 545,271.9 611.7,266.8 
			678.4,262 745,255.2 811.7,247.5 878.4,244.3 945.1,237 1011.7,228.2 1066.5,221.3 		"/>
		<line class="st23" x1="1072.4" y1="220.5" x2="1078.4" y2="219.8"/>
	</g>
</g>
<path class="st25" d="M145,256.7l66.7-3.3l66.7-3.2l66.7-1.5l66.7-1.5h66.7l66.7-1.1l66.7-1.2l66.7-2l66.7-3.7l66.7-7.7l66.7-0.7
	l66.7-3l66.7-3.5l66.7-4.6"/>
<g class="st10">
	<g>
		<line class="st26" x1="145" y1="241.7" x2="150.9" y2="240.7"/>
		<polyline class="st27" points="162.9,238.7 211.7,230.5 278.4,219.2 345,209.8 411.7,209 478.4,202.2 545,192.2 611.7,185 
			678.4,177.8 745,167.8 811.7,156.8 878.4,152 945.1,141.8 1011.7,129.5 1066.6,119.4 		"/>
		<line class="st26" x1="1072.5" y1="118.3" x2="1078.4" y2="117.2"/>
	</g>
</g>
<path class="st9" d="M111.7,87h1000v400h-1000L111.7,87L111.7,87z"/>
<path class="st28" d="M145,176.6l66.7-5.3l66.7-5.6l66.7-1.8l66.7-1.8l66.7-2l66.7-3.1l66.7-1.9l66.7-3.4l66.7-5.7l66.7-11l66.7-1.5
	l66.7-4.3l66.7-4.9l66.7-6.9"/>
<g pointer-events="none">
	<g class="st29">
		<path d="M132.8,37.7V52h-3.7V37.7H132.8z"/>
		<path d="M135.8,52V37.7h3.7l6.9,8.8v-8.8h3.7V52h-3.7l-6.9-8.8V52H135.8z"/>
		<path d="M153.1,37.7h5.5c1,0,1.9,0.2,2.7,0.6c0.9,0.4,1.6,0.9,2.2,1.6c0.6,0.7,1.1,1.4,1.5,2.3c0.4,0.9,0.6,1.8,0.6,2.7
			c0,0.9-0.2,1.8-0.5,2.7c-0.4,0.9-0.9,1.6-1.5,2.3c-0.6,0.7-1.4,1.2-2.2,1.6s-1.8,0.6-2.8,0.6h-5.5V37.7z M156.8,48.8h0.9
			c0.6,0,1.2-0.1,1.7-0.3c0.5-0.2,0.9-0.5,1.3-0.8c0.3-0.4,0.6-0.8,0.8-1.3c0.2-0.5,0.3-1,0.3-1.6c0-0.6-0.1-1.1-0.3-1.6
			s-0.5-0.9-0.8-1.3c-0.3-0.4-0.8-0.6-1.3-0.8c-0.5-0.2-1.1-0.3-1.7-0.3h-0.9V48.8z"/>
		<path d="M171.7,37.7V52H168V37.7H171.7z"/>
		<path d="M177.3,37.7l3.5,8.7l3.5-8.7h4l-6,14.3h-3l-6-14.3H177.3z"/>
		<path d="M193.5,37.7V52h-3.7V37.7H193.5z"/>
		<path d="M196.5,37.7h5.5c1,0,1.9,0.2,2.7,0.6c0.9,0.4,1.6,0.9,2.2,1.6c0.6,0.7,1.1,1.4,1.5,2.3c0.4,0.9,0.6,1.8,0.6,2.7
			c0,0.9-0.2,1.8-0.5,2.7c-0.4,0.9-0.9,1.6-1.5,2.3c-0.6,0.7-1.4,1.2-2.2,1.6S203,52,202,52h-5.5V37.7z M200.2,48.8h0.9
			c0.6,0,1.2-0.1,1.7-0.3c0.5-0.2,0.9-0.5,1.3-0.8c0.3-0.4,0.6-0.8,0.8-1.3c0.2-0.5,0.3-1,0.3-1.6c0-0.6-0.1-1.1-0.3-1.6
			s-0.5-0.9-0.8-1.3c-0.3-0.4-0.8-0.6-1.3-0.8c-0.5-0.2-1.1-0.3-1.7-0.3h-0.9V48.8z"/>
	</g>
	<g class="st29">
		<path d="M215.2,37.7v7.8c0,0.4,0,0.8,0,1.3c0,0.4,0.1,0.8,0.3,1.2c0.2,0.4,0.4,0.6,0.8,0.9c0.3,0.2,0.8,0.3,1.4,0.3
			s1.1-0.1,1.4-0.3c0.3-0.2,0.6-0.5,0.8-0.9c0.2-0.4,0.3-0.8,0.3-1.2c0-0.4,0-0.9,0-1.3v-7.8h3.7V46c0,2.2-0.5,3.9-1.5,4.9
			c-1,1-2.6,1.5-4.7,1.5c-2.1,0-3.7-0.5-4.7-1.5c-1-1-1.5-2.7-1.5-4.9v-8.3H215.2z"/>
	</g>
	<g class="st29">
		<path d="M235.2,49.5h-5.3L229,52h-4l5.5-14.3h4.1L240,52h-4L235.2,49.5z M234.2,46.7l-1.7-4.8l-1.7,4.8H234.2z"/>
		<path d="M245.4,37.7v11.2h4.5V52h-8.2V37.7H245.4z"/>
		<path d="M262,37.7V52h-3.7V37.7H262z"/>
	</g>
	<g class="st29">
		<path d="M265,52V37.7h3.7l6.9,8.8v-8.8h3.7V52h-3.7l-6.9-8.8V52H265z"/>
	</g>
	<g class="st29">
		<path d="M292.8,42.5c-0.9-1.1-1.9-1.6-3.2-1.6c-0.6,0-1.1,0.1-1.5,0.3c-0.5,0.2-0.9,0.5-1.2,0.8c-0.3,0.3-0.6,0.8-0.8,1.2
			s-0.3,1-0.3,1.6c0,0.6,0.1,1.1,0.3,1.6c0.2,0.5,0.5,0.9,0.8,1.3c0.3,0.4,0.8,0.6,1.2,0.8c0.5,0.2,1,0.3,1.5,0.3
			c1.2,0,2.3-0.5,3.2-1.5v4.4l-0.4,0.1c-0.6,0.2-1.1,0.4-1.6,0.4c-0.5,0.1-1,0.1-1.5,0.1c-1,0-1.9-0.2-2.8-0.6
			c-0.9-0.4-1.7-0.9-2.4-1.6s-1.2-1.5-1.7-2.4s-0.6-1.9-0.6-3c0-1.1,0.2-2.1,0.6-3c0.4-0.9,1-1.7,1.7-2.4s1.5-1.2,2.4-1.6
			c0.9-0.4,1.9-0.6,2.9-0.6c0.6,0,1.1,0.1,1.7,0.2c0.6,0.1,1.1,0.3,1.7,0.6V42.5z"/>
	</g>
	<g class="st29">
		<path d="M294.7,44.8c0-1.1,0.2-2.1,0.6-3c0.4-0.9,0.9-1.7,1.6-2.4c0.7-0.7,1.5-1.2,2.5-1.6c1-0.4,2-0.6,3.2-0.6
			c1.2,0,2.2,0.2,3.2,0.6c1,0.4,1.8,0.9,2.5,1.6c0.7,0.7,1.3,1.5,1.6,2.4c0.4,0.9,0.6,1.9,0.6,3c0,1.1-0.2,2.1-0.6,3
			c-0.4,0.9-0.9,1.7-1.6,2.4c-0.7,0.7-1.5,1.2-2.5,1.6c-1,0.4-2,0.6-3.2,0.6c-1.2,0-2.2-0.2-3.2-0.6c-1-0.4-1.8-0.9-2.5-1.6
			c-0.7-0.7-1.2-1.5-1.6-2.4C294.9,46.9,294.7,45.9,294.7,44.8z M298.6,44.8c0,0.6,0.1,1.1,0.3,1.6c0.2,0.5,0.5,0.9,0.9,1.3
			c0.4,0.4,0.8,0.6,1.3,0.8c0.5,0.2,1,0.3,1.5,0.3s1.1-0.1,1.5-0.3c0.5-0.2,0.9-0.5,1.3-0.8c0.4-0.4,0.7-0.8,0.9-1.3s0.3-1,0.3-1.6
			s-0.1-1.1-0.3-1.6s-0.5-0.9-0.9-1.3c-0.4-0.4-0.8-0.6-1.3-0.8c-0.5-0.2-1-0.3-1.5-0.3s-1.1,0.1-1.5,0.3c-0.5,0.2-0.9,0.5-1.3,0.8
			c-0.4,0.4-0.7,0.8-0.9,1.3C298.7,43.7,298.6,44.3,298.6,44.8z"/>
		<path d="M312.3,52l2.4-14.3h3.7l2.9,7.6l2.9-7.6h3.7l2.4,14.3h-3.7l-1.2-8.2l-3.4,8.2h-1.5l-3.2-8.2L316,52H312.3z"/>
		<path d="M340.7,40.8h-4.4v2.4h4.2v3.2h-4.2v2.5h4.4V52h-8.2V37.7h8.2V40.8z"/>
	</g>
	<g class="st29">
		<path d="M349.2,44.8c0-1.1,0.2-2.1,0.6-3c0.4-0.9,0.9-1.7,1.6-2.4c0.7-0.7,1.5-1.2,2.5-1.6c1-0.4,2-0.6,3.2-0.6
			c1.2,0,2.2,0.2,3.2,0.6c1,0.4,1.8,0.9,2.5,1.6c0.7,0.7,1.3,1.5,1.6,2.4c0.4,0.9,0.6,1.9,0.6,3c0,1.1-0.2,2.1-0.6,3
			c-0.4,0.9-0.9,1.7-1.6,2.4c-0.7,0.7-1.5,1.2-2.5,1.6c-1,0.4-2,0.6-3.2,0.6c-1.2,0-2.2-0.2-3.2-0.6c-1-0.4-1.8-0.9-2.5-1.6
			c-0.7-0.7-1.2-1.5-1.6-2.4C349.4,46.9,349.2,45.9,349.2,44.8z M353.1,44.8c0,0.6,0.1,1.1,0.3,1.6c0.2,0.5,0.5,0.9,0.9,1.3
			c0.4,0.4,0.8,0.6,1.3,0.8c0.5,0.2,1,0.3,1.5,0.3s1.1-0.1,1.5-0.3c0.5-0.2,0.9-0.5,1.3-0.8c0.4-0.4,0.7-0.8,0.9-1.3s0.3-1,0.3-1.6
			s-0.1-1.1-0.3-1.6s-0.5-0.9-0.9-1.3c-0.4-0.4-0.8-0.6-1.3-0.8c-0.5-0.2-1-0.3-1.5-0.3s-1.1,0.1-1.5,0.3c-0.5,0.2-0.9,0.5-1.3,0.8
			c-0.4,0.4-0.7,0.8-0.9,1.3C353.2,43.7,353.1,44.3,353.1,44.8z"/>
	</g>
	<g class="st29">
		<path d="M369.3,37.7l3.5,8.7l3.5-8.7h4l-6,14.3h-3l-6-14.3H369.3z"/>
		<path d="M390,40.8h-4.4v2.4h4.2v3.2h-4.2v2.5h4.4V52h-8.2V37.7h8.2V40.8z"/>
		<path d="M404.6,52h-4.6l-3.6-5.5V52h-3.7V37.7h5.8c0.8,0,1.5,0.1,2.1,0.4c0.6,0.2,1.1,0.6,1.5,1s0.7,0.9,0.9,1.4
			c0.2,0.5,0.3,1.1,0.3,1.7c0,1.1-0.3,2-0.8,2.7c-0.5,0.7-1.3,1.1-2.3,1.4L404.6,52z M396.4,44.1h0.7c0.7,0,1.3-0.2,1.7-0.5
			c0.4-0.3,0.6-0.7,0.6-1.3c0-0.6-0.2-1-0.6-1.3c-0.4-0.3-1-0.5-1.7-0.5h-0.7V44.1z"/>
		<path d="M418,40.8V52h-3.7V40.8h-3.1v-3.2h9.8v3.2H418z"/>
		<path d="M426.5,37.7V52h-3.7V37.7H426.5z"/>
		<path d="M428.8,52l2.4-14.3h3.7l2.9,7.6l2.9-7.6h3.7l2.4,14.3h-3.7l-1.2-8.2l-3.4,8.2H437l-3.2-8.2l-1.2,8.2H428.8z"/>
		<path d="M457.3,40.8h-4.4v2.4h4.2v3.2h-4.2v2.5h4.4V52h-8.2V37.7h8.2V40.8z"/>
	</g>
	<g class="st29">
		<path d="M474.6,40.8h-4.5v2.4h4.1v3.2h-4.1V52h-3.7V37.7h8.2V40.8z"/>
	</g>
	<g class="st29">
		<path d="M476.2,44.8c0-1.1,0.2-2.1,0.6-3c0.4-0.9,0.9-1.7,1.6-2.4c0.7-0.7,1.5-1.2,2.5-1.6c1-0.4,2-0.6,3.2-0.6
			c1.2,0,2.2,0.2,3.2,0.6c1,0.4,1.8,0.9,2.5,1.6c0.7,0.7,1.3,1.5,1.6,2.4c0.4,0.9,0.6,1.9,0.6,3c0,1.1-0.2,2.1-0.6,3
			c-0.4,0.9-0.9,1.7-1.6,2.4c-0.7,0.7-1.5,1.2-2.5,1.6c-1,0.4-2,0.6-3.2,0.6c-1.2,0-2.2-0.2-3.2-0.6c-1-0.4-1.8-0.9-2.5-1.6
			c-0.7-0.7-1.2-1.5-1.6-2.4C476.4,46.9,476.2,45.9,476.2,44.8z M480.1,44.8c0,0.6,0.1,1.1,0.3,1.6c0.2,0.5,0.5,0.9,0.9,1.3
			c0.4,0.4,0.8,0.6,1.3,0.8c0.5,0.2,1,0.3,1.5,0.3s1.1-0.1,1.5-0.3c0.5-0.2,0.9-0.5,1.3-0.8c0.4-0.4,0.7-0.8,0.9-1.3s0.3-1,0.3-1.6
			s-0.1-1.1-0.3-1.6s-0.5-0.9-0.9-1.3c-0.4-0.4-0.8-0.6-1.3-0.8c-0.5-0.2-1-0.3-1.5-0.3s-1.1,0.1-1.5,0.3c-0.5,0.2-0.9,0.5-1.3,0.8
			c-0.4,0.4-0.7,0.8-0.9,1.3C480.2,43.7,480.1,44.3,480.1,44.8z"/>
		<path d="M506.3,52h-4.6l-3.6-5.5V52h-3.7V37.7h5.8c0.8,0,1.5,0.1,2.1,0.4c0.6,0.2,1.1,0.6,1.5,1s0.7,0.9,0.9,1.4
			c0.2,0.5,0.3,1.1,0.3,1.7c0,1.1-0.3,2-0.8,2.7c-0.5,0.7-1.3,1.1-2.3,1.4L506.3,52z M498.1,44.1h0.7c0.7,0,1.3-0.2,1.7-0.5
			c0.4-0.3,0.6-0.7,0.6-1.3c0-0.6-0.2-1-0.6-1.3c-0.4-0.3-1-0.5-1.7-0.5h-0.7V44.1z"/>
	</g>
	<g class="st29">
		<path d="M516.9,37.7l3.5,8.7l3.5-8.7h4l-6,14.3h-3l-6-14.3H516.9z"/>
	</g>
	<g class="st29">
		<path d="M537,49.5h-5.3l-0.9,2.5h-4l5.5-14.3h4.1l5.5,14.3h-4L537,49.5z M536,46.7l-1.7-4.8l-1.7,4.8H536z"/>
		<path d="M555.4,52h-4.6l-3.6-5.5V52h-3.7V37.7h5.8c0.8,0,1.5,0.1,2.1,0.4s1.1,0.6,1.5,1c0.4,0.4,0.7,0.9,0.9,1.4
			c0.2,0.5,0.3,1.1,0.3,1.7c0,1.1-0.3,2-0.8,2.7s-1.3,1.1-2.3,1.4L555.4,52z M547.2,44.1h0.7c0.7,0,1.3-0.2,1.7-0.5
			c0.4-0.3,0.6-0.7,0.6-1.3c0-0.6-0.2-1-0.6-1.3c-0.4-0.3-1-0.5-1.7-0.5h-0.7V44.1z"/>
		<path d="M560.7,37.7V52h-3.7V37.7H560.7z"/>
		<path d="M563,44.8c0-1.1,0.2-2.1,0.6-3c0.4-0.9,0.9-1.7,1.6-2.4s1.5-1.2,2.5-1.6c1-0.4,2-0.6,3.2-0.6c1.2,0,2.2,0.2,3.2,0.6
			c1,0.4,1.8,0.9,2.5,1.6c0.7,0.7,1.3,1.5,1.6,2.4c0.4,0.9,0.6,1.9,0.6,3c0,1.1-0.2,2.1-0.6,3c-0.4,0.9-0.9,1.7-1.6,2.4
			c-0.7,0.7-1.5,1.2-2.5,1.6c-1,0.4-2,0.6-3.2,0.6c-1.2,0-2.2-0.2-3.2-0.6c-1-0.4-1.8-0.9-2.5-1.6c-0.7-0.7-1.2-1.5-1.6-2.4
			C563.2,46.9,563,45.9,563,44.8z M566.9,44.8c0,0.6,0.1,1.1,0.3,1.6c0.2,0.5,0.5,0.9,0.9,1.3s0.8,0.6,1.3,0.8
			c0.5,0.2,1,0.3,1.5,0.3c0.5,0,1.1-0.1,1.5-0.3c0.5-0.2,0.9-0.5,1.3-0.8c0.4-0.4,0.7-0.8,0.9-1.3c0.2-0.5,0.3-1,0.3-1.6
			s-0.1-1.1-0.3-1.6c-0.2-0.5-0.5-0.9-0.9-1.3c-0.4-0.4-0.8-0.6-1.3-0.8c-0.5-0.2-1-0.3-1.5-0.3c-0.5,0-1.1,0.1-1.5,0.3
			s-0.9,0.5-1.3,0.8s-0.7,0.8-0.9,1.3C567,43.7,566.9,44.3,566.9,44.8z"/>
		<path d="M585,37.7v7.8c0,0.4,0,0.8,0,1.3c0,0.4,0.1,0.8,0.3,1.2c0.2,0.4,0.4,0.6,0.8,0.9s0.8,0.3,1.4,0.3c0.6,0,1.1-0.1,1.4-0.3
			c0.3-0.2,0.6-0.5,0.8-0.9c0.2-0.4,0.3-0.8,0.3-1.2c0-0.4,0-0.9,0-1.3v-7.8h3.7V46c0,2.2-0.5,3.9-1.5,4.9c-1,1-2.6,1.5-4.7,1.5
			c-2.1,0-3.7-0.5-4.7-1.5c-1-1-1.5-2.7-1.5-4.9v-8.3H585z"/>
		<path d="M604.6,41.3c-0.4-0.3-0.8-0.6-1.2-0.7s-0.8-0.2-1.2-0.2c-0.5,0-0.9,0.1-1.2,0.3c-0.3,0.2-0.5,0.5-0.5,0.9
			c0,0.3,0.1,0.5,0.2,0.6c0.2,0.2,0.4,0.3,0.6,0.4c0.2,0.1,0.5,0.2,0.8,0.3c0.3,0.1,0.6,0.2,0.9,0.3c1.2,0.4,2.1,0.9,2.7,1.6
			s0.8,1.6,0.8,2.7c0,0.7-0.1,1.4-0.4,2s-0.6,1.1-1.1,1.5c-0.5,0.4-1.1,0.8-1.7,1c-0.7,0.2-1.5,0.4-2.3,0.4c-1.8,0-3.5-0.5-5-1.6
			l1.6-3c0.6,0.5,1.1,0.9,1.7,1.1c0.5,0.2,1.1,0.4,1.6,0.4c0.6,0,1.1-0.1,1.4-0.4c0.3-0.3,0.4-0.6,0.4-1c0-0.2,0-0.4-0.1-0.6
			s-0.2-0.3-0.4-0.4c-0.2-0.1-0.4-0.3-0.7-0.4s-0.6-0.2-1-0.4c-0.5-0.2-1-0.3-1.4-0.5c-0.5-0.2-0.9-0.4-1.2-0.7
			c-0.4-0.3-0.7-0.7-0.9-1.1c-0.2-0.5-0.3-1-0.3-1.8c0-0.7,0.1-1.4,0.4-1.9s0.6-1.1,1-1.5c0.4-0.4,0.9-0.7,1.6-1
			c0.6-0.2,1.3-0.3,2.1-0.3c0.7,0,1.5,0.1,2.2,0.3s1.5,0.5,2.2,0.9L604.6,41.3z"/>
		<path d="M619.2,52h-3.7V37.7h5.9c1.6,0,2.8,0.4,3.7,1.3c0.9,0.8,1.3,2,1.3,3.5c0,1.5-0.4,2.7-1.3,3.5c-0.9,0.8-2.1,1.3-3.7,1.3
			h-2.2V52z M619.2,44.2h1.2c1.4,0,2.1-0.6,2.1-1.8s-0.7-1.8-2.1-1.8h-1.2V44.2z"/>
		<path d="M636.5,40.8h-4.4v2.4h4.2v3.2h-4.2v2.5h4.4V52h-8.2V37.7h8.2V40.8z"/>
	</g>
	<g class="st29">
		<path d="M651.1,52h-4.6l-3.6-5.5V52h-3.7V37.7h5.8c0.8,0,1.5,0.1,2.1,0.4c0.6,0.2,1.1,0.6,1.5,1s0.7,0.9,0.9,1.4
			c0.2,0.5,0.3,1.1,0.3,1.7c0,1.1-0.3,2-0.8,2.7c-0.5,0.7-1.3,1.1-2.3,1.4L651.1,52z M642.9,44.1h0.7c0.7,0,1.3-0.2,1.7-0.5
			c0.4-0.3,0.6-0.7,0.6-1.3c0-0.6-0.2-1-0.6-1.3c-0.4-0.3-1-0.5-1.7-0.5h-0.7V44.1z"/>
	</g>
	<g class="st29">
		<path d="M662.7,42.5c-0.9-1.1-1.9-1.6-3.2-1.6c-0.6,0-1.1,0.1-1.5,0.3c-0.5,0.2-0.9,0.5-1.2,0.8c-0.3,0.3-0.6,0.8-0.8,1.2
			s-0.3,1-0.3,1.6c0,0.6,0.1,1.1,0.3,1.6c0.2,0.5,0.5,0.9,0.8,1.3c0.3,0.4,0.8,0.6,1.2,0.8c0.5,0.2,1,0.3,1.5,0.3
			c1.2,0,2.3-0.5,3.2-1.5v4.4l-0.4,0.1c-0.6,0.2-1.1,0.4-1.6,0.4c-0.5,0.1-1,0.1-1.5,0.1c-1,0-1.9-0.2-2.8-0.6
			c-0.9-0.4-1.7-0.9-2.4-1.6s-1.2-1.5-1.7-2.4s-0.6-1.9-0.6-3c0-1.1,0.2-2.1,0.6-3c0.4-0.9,1-1.7,1.7-2.4s1.5-1.2,2.4-1.6
			c0.9-0.4,1.9-0.6,2.9-0.6c0.6,0,1.1,0.1,1.7,0.2c0.6,0.1,1.1,0.3,1.7,0.6V42.5z"/>
		<path d="M673.2,40.8h-4.4v2.4h4.2v3.2h-4.2v2.5h4.4V52H665V37.7h8.2V40.8z"/>
		<path d="M675.9,52V37.7h3.7l6.9,8.8v-8.8h3.7V52h-3.7l-6.9-8.8V52H675.9z"/>
		<path d="M698.6,40.8V52h-3.7V40.8h-3.1v-3.2h9.8v3.2H698.6z"/>
		<path d="M707,37.7V52h-3.7V37.7H707z"/>
		<path d="M713.8,37.7v11.2h4.5V52H710V37.7H713.8z"/>
		<path d="M728.3,40.8h-4.4v2.4h4.2v3.2h-4.2v2.5h4.4V52h-8.2V37.7h8.2V40.8z"/>
		<path d="M738.8,41.3c-0.4-0.3-0.8-0.6-1.2-0.7s-0.8-0.2-1.2-0.2c-0.5,0-0.9,0.1-1.2,0.3c-0.3,0.2-0.5,0.5-0.5,0.9
			c0,0.3,0.1,0.5,0.2,0.6c0.2,0.2,0.4,0.3,0.6,0.4c0.2,0.1,0.5,0.2,0.8,0.3c0.3,0.1,0.6,0.2,0.9,0.3c1.2,0.4,2.1,0.9,2.7,1.6
			s0.8,1.6,0.8,2.7c0,0.7-0.1,1.4-0.4,2s-0.6,1.1-1.1,1.5c-0.5,0.4-1.1,0.8-1.7,1c-0.7,0.2-1.5,0.4-2.3,0.4c-1.8,0-3.5-0.5-5-1.6
			l1.6-3c0.6,0.5,1.1,0.9,1.7,1.1c0.5,0.2,1.1,0.4,1.6,0.4c0.6,0,1.1-0.1,1.4-0.4s0.4-0.6,0.4-1c0-0.2,0-0.4-0.1-0.6
			c-0.1-0.2-0.2-0.3-0.4-0.4c-0.2-0.1-0.4-0.3-0.7-0.4s-0.6-0.2-1-0.4c-0.5-0.2-1-0.3-1.4-0.5c-0.5-0.2-0.9-0.4-1.2-0.7
			c-0.4-0.3-0.7-0.7-0.9-1.1c-0.2-0.5-0.3-1-0.3-1.8c0-0.7,0.1-1.4,0.4-1.9s0.6-1.1,1-1.5c0.4-0.4,0.9-0.7,1.6-1
			c0.6-0.2,1.3-0.3,2.1-0.3c0.7,0,1.5,0.1,2.2,0.3c0.8,0.2,1.5,0.5,2.2,0.9L738.8,41.3z"/>
		<path d="M754.5,36.8c-1.5,2.5-2.2,5.4-2.2,8.9c0,0.8,0.1,1.7,0.2,2.5c0.1,0.9,0.3,1.7,0.4,2.5c0.2,0.8,0.4,1.5,0.7,2.2
			c0.3,0.7,0.6,1.3,0.9,1.8l-2.1,1.2c-0.9-1.3-1.6-2.8-2-4.6s-0.7-3.7-0.7-5.7c0-0.9,0.1-1.8,0.2-2.7s0.3-1.8,0.5-2.7
			c0.2-0.9,0.5-1.7,0.9-2.4s0.7-1.5,1.2-2.1L754.5,36.8z"/>
		<path d="M765.8,49.5h-5.3l-0.9,2.5h-4l5.5-14.3h4.1l5.5,14.3h-4L765.8,49.5z M764.8,46.7l-1.7-4.8l-1.7,4.8H764.8z"/>
	</g>
	<g class="st29">
		<path d="M772.2,37.7h5.5c1,0,1.9,0.2,2.7,0.6c0.9,0.4,1.6,0.9,2.2,1.6c0.6,0.7,1.1,1.4,1.5,2.3c0.4,0.9,0.6,1.8,0.6,2.7
			c0,0.9-0.2,1.8-0.5,2.7c-0.4,0.9-0.9,1.6-1.5,2.3c-0.6,0.7-1.4,1.2-2.2,1.6c-0.9,0.4-1.8,0.6-2.8,0.6h-5.5V37.7z M775.9,48.8h0.9
			c0.6,0,1.2-0.1,1.7-0.3c0.5-0.2,0.9-0.5,1.3-0.8s0.6-0.8,0.8-1.3c0.2-0.5,0.3-1,0.3-1.6c0-0.6-0.1-1.1-0.3-1.6
			c-0.2-0.5-0.5-0.9-0.8-1.3c-0.3-0.4-0.8-0.6-1.3-0.8c-0.5-0.2-1.1-0.3-1.7-0.3h-0.9V48.8z"/>
	</g>
	<g class="st29">
		<path d="M793.4,37.7v9.9c0,0.4,0,0.8-0.1,1.2c0,0.4-0.1,0.7-0.2,0.9c-0.2,0.4-0.4,0.8-0.7,1.1c-0.3,0.3-0.6,0.6-1,0.9
			c-0.4,0.2-0.8,0.4-1.3,0.6c-0.5,0.1-0.9,0.2-1.5,0.2c-1.5,0-2.8-0.7-3.7-2.1l2.4-2.5c0.1,0.4,0.2,0.8,0.4,1
			c0.2,0.3,0.5,0.4,0.8,0.4c0.7,0,1-0.6,1-1.7v-9.9H793.4z"/>
		<path d="M800.1,37.7v7.8c0,0.4,0,0.8,0,1.3c0,0.4,0.1,0.8,0.3,1.2c0.2,0.4,0.4,0.6,0.8,0.9s0.8,0.3,1.4,0.3c0.6,0,1.1-0.1,1.4-0.3
			c0.3-0.2,0.6-0.5,0.8-0.9c0.2-0.4,0.3-0.8,0.3-1.2c0-0.4,0-0.9,0-1.3v-7.8h3.7V46c0,2.2-0.5,3.9-1.5,4.9c-1,1-2.6,1.5-4.7,1.5
			c-2.1,0-3.7-0.5-4.7-1.5c-1-1-1.5-2.7-1.5-4.9v-8.3H800.1z"/>
	</g>
	<g class="st29">
		<path d="M819.8,41.3c-0.4-0.3-0.8-0.6-1.2-0.7s-0.8-0.2-1.2-0.2c-0.5,0-0.9,0.1-1.2,0.3c-0.3,0.2-0.5,0.5-0.5,0.9
			c0,0.3,0.1,0.5,0.2,0.6c0.2,0.2,0.4,0.3,0.6,0.4c0.2,0.1,0.5,0.2,0.8,0.3c0.3,0.1,0.6,0.2,0.9,0.3c1.2,0.4,2.1,0.9,2.7,1.6
			s0.8,1.6,0.8,2.7c0,0.7-0.1,1.4-0.4,2s-0.6,1.1-1.1,1.5c-0.5,0.4-1.1,0.8-1.7,1c-0.7,0.2-1.5,0.4-2.3,0.4c-1.8,0-3.5-0.5-5-1.6
			l1.6-3c0.6,0.5,1.1,0.9,1.7,1.1c0.5,0.2,1.1,0.4,1.6,0.4c0.6,0,1.1-0.1,1.4-0.4s0.4-0.6,0.4-1c0-0.2,0-0.4-0.1-0.6
			c-0.1-0.2-0.2-0.3-0.4-0.4c-0.2-0.1-0.4-0.3-0.7-0.4s-0.6-0.2-1-0.4c-0.5-0.2-1-0.3-1.4-0.5c-0.5-0.2-0.9-0.4-1.2-0.7
			c-0.4-0.3-0.7-0.7-0.9-1.1c-0.2-0.5-0.3-1-0.3-1.8c0-0.7,0.1-1.4,0.4-1.9s0.6-1.1,1-1.5c0.4-0.4,0.9-0.7,1.6-1
			c0.6-0.2,1.3-0.3,2.1-0.3c0.7,0,1.5,0.1,2.2,0.3c0.8,0.2,1.5,0.5,2.2,0.9L819.8,41.3z"/>
	</g>
	<g class="st29">
		<path d="M829.7,40.8V52H826V40.8h-3.1v-3.2h9.8v3.2H829.7z"/>
		<path d="M842.6,40.8h-4.4v2.4h4.2v3.2h-4.2v2.5h4.4V52h-8.2V37.7h8.2V40.8z"/>
		<path d="M845.2,37.7h5.5c1,0,1.9,0.2,2.7,0.6c0.9,0.4,1.6,0.9,2.2,1.6c0.6,0.7,1.1,1.4,1.5,2.3c0.4,0.9,0.6,1.8,0.6,2.7
			c0,0.9-0.2,1.8-0.5,2.7c-0.4,0.9-0.9,1.6-1.5,2.3c-0.6,0.7-1.4,1.2-2.2,1.6c-0.9,0.4-1.8,0.6-2.8,0.6h-5.5V37.7z M849,48.8h0.9
			c0.6,0,1.2-0.1,1.7-0.3c0.5-0.2,0.9-0.5,1.3-0.8s0.6-0.8,0.8-1.3c0.2-0.5,0.3-1,0.3-1.6c0-0.6-0.1-1.1-0.3-1.6
			c-0.2-0.5-0.5-0.9-0.8-1.3c-0.3-0.4-0.8-0.6-1.3-0.8c-0.5-0.2-1.1-0.3-1.7-0.3H849V48.8z"/>
		<path d="M876.2,46.5c0.8-0.7,1.4-1.4,1.9-2.1l2.1,2c-0.2,0.3-0.5,0.6-0.7,0.9s-0.6,0.6-0.9,0.9l-0.3,0.3l3.2,3.4h-4.6l-1.3-1.3
			c-1.7,1.1-3.3,1.7-4.9,1.7c-0.7,0-1.3-0.1-1.8-0.3c-0.6-0.2-1-0.5-1.4-0.9c-0.4-0.4-0.7-0.8-1-1.3c-0.2-0.5-0.3-1-0.3-1.6
			c0-0.5,0.1-1,0.2-1.4c0.1-0.4,0.4-0.8,0.8-1.2c0.3-0.3,0.6-0.5,0.9-0.8c0.3-0.2,0.7-0.4,1.2-0.6l0.4-0.2l-0.2-0.3
			c-0.7-0.9-1.1-1.8-1.1-2.6c0-0.6,0.1-1.1,0.3-1.6s0.5-0.9,0.9-1.2s0.9-0.6,1.4-0.8c0.5-0.2,1.1-0.3,1.8-0.3c0.6,0,1.2,0.1,1.8,0.3
			c0.5,0.2,1,0.5,1.4,0.8s0.7,0.8,0.9,1.2c0.2,0.5,0.3,1,0.3,1.5c0,0.4,0,0.7-0.1,1s-0.2,0.6-0.4,0.9s-0.5,0.5-0.8,0.8
			c-0.3,0.2-0.8,0.5-1.2,0.8L876.2,46.5z M871.2,46c-0.9,0.6-1.3,1.1-1.3,1.7c0,0.2,0,0.4,0.1,0.6c0.1,0.2,0.2,0.3,0.4,0.4
			s0.3,0.2,0.5,0.3s0.4,0.1,0.6,0.1c0.6,0,1.3-0.2,2-0.6L871.2,46z M872.7,42.9c0.9-0.5,1.3-1.1,1.3-1.8c0-0.4-0.1-0.7-0.4-0.9
			c-0.2-0.3-0.5-0.4-0.9-0.4c-0.3,0-0.6,0.1-0.9,0.3c-0.2,0.2-0.3,0.5-0.3,0.9C871.6,41.5,872,42.1,872.7,42.9z"/>
		<path d="M893.1,37.7v7.8c0,0.4,0,0.8,0,1.3c0,0.4,0.1,0.8,0.3,1.2c0.2,0.4,0.4,0.6,0.8,0.9s0.8,0.3,1.4,0.3s1.1-0.1,1.4-0.3
			s0.6-0.5,0.8-0.9c0.2-0.4,0.3-0.8,0.3-1.2c0-0.4,0-0.9,0-1.3v-7.8h3.7V46c0,2.2-0.5,3.9-1.5,4.9c-1,1-2.6,1.5-4.7,1.5
			c-2.1,0-3.7-0.5-4.7-1.5c-1-1-1.5-2.7-1.5-4.9v-8.3H893.1z"/>
	</g>
	<g class="st29">
		<path d="M904.8,52V37.7h3.7l6.9,8.8v-8.8h3.7V52h-3.7l-6.9-8.8V52H904.8z"/>
	</g>
	<g class="st29">
		<path d="M931,49.5h-5.3l-0.9,2.5h-4l5.5-14.3h4.1l5.5,14.3h-4L931,49.5z M930,46.7l-1.7-4.8l-1.7,4.8H930z"/>
	</g>
	<g class="st29">
		<path d="M937.4,37.7h5.5c1,0,1.9,0.2,2.7,0.6c0.9,0.4,1.6,0.9,2.2,1.6c0.6,0.7,1.1,1.4,1.5,2.3c0.4,0.9,0.6,1.8,0.6,2.7
			c0,0.9-0.2,1.8-0.5,2.7c-0.4,0.9-0.9,1.6-1.5,2.3c-0.6,0.7-1.4,1.2-2.2,1.6c-0.9,0.4-1.8,0.6-2.8,0.6h-5.5V37.7z M941.1,48.8h0.9
			c0.6,0,1.2-0.1,1.7-0.3c0.5-0.2,0.9-0.5,1.3-0.8c0.3-0.4,0.6-0.8,0.8-1.3c0.2-0.5,0.3-1,0.3-1.6c0-0.6-0.1-1.1-0.3-1.6
			c-0.2-0.5-0.5-0.9-0.8-1.3c-0.3-0.4-0.8-0.6-1.3-0.8c-0.5-0.2-1.1-0.3-1.7-0.3h-0.9V48.8z"/>
	</g>
	<g class="st29">
		<path d="M958.6,37.7v9.9c0,0.4,0,0.8-0.1,1.2c0,0.4-0.1,0.7-0.2,0.9c-0.2,0.4-0.4,0.8-0.7,1.1c-0.3,0.3-0.6,0.6-1,0.9
			c-0.4,0.2-0.8,0.4-1.3,0.6c-0.5,0.1-0.9,0.2-1.5,0.2c-1.5,0-2.8-0.7-3.7-2.1l2.4-2.5c0.1,0.4,0.2,0.8,0.4,1
			c0.2,0.3,0.5,0.4,0.8,0.4c0.7,0,1-0.6,1-1.7v-9.9H958.6z"/>
		<path d="M965.3,37.7v7.8c0,0.4,0,0.8,0,1.3c0,0.4,0.1,0.8,0.3,1.2c0.2,0.4,0.4,0.6,0.8,0.9s0.8,0.3,1.4,0.3c0.6,0,1.1-0.1,1.4-0.3
			c0.3-0.2,0.6-0.5,0.8-0.9c0.2-0.4,0.3-0.8,0.3-1.2c0-0.4,0-0.9,0-1.3v-7.8h3.7V46c0,2.2-0.5,3.9-1.5,4.9c-1,1-2.6,1.5-4.7,1.5
			c-2.1,0-3.7-0.5-4.7-1.5c-1-1-1.5-2.7-1.5-4.9v-8.3H965.3z"/>
	</g>
	<g class="st29">
		<path d="M985,41.3c-0.4-0.3-0.8-0.6-1.2-0.7s-0.8-0.2-1.2-0.2c-0.5,0-0.9,0.1-1.2,0.3c-0.3,0.2-0.5,0.5-0.5,0.9
			c0,0.3,0.1,0.5,0.2,0.6c0.2,0.2,0.4,0.3,0.6,0.4c0.2,0.1,0.5,0.2,0.8,0.3c0.3,0.1,0.6,0.2,0.9,0.3c1.2,0.4,2.1,0.9,2.7,1.6
			s0.8,1.6,0.8,2.7c0,0.7-0.1,1.4-0.4,2s-0.6,1.1-1.1,1.5c-0.5,0.4-1.1,0.8-1.7,1c-0.7,0.2-1.5,0.4-2.3,0.4c-1.8,0-3.5-0.5-5-1.6
			l1.6-3c0.6,0.5,1.1,0.9,1.7,1.1c0.5,0.2,1.1,0.4,1.6,0.4c0.6,0,1.1-0.1,1.4-0.4s0.4-0.6,0.4-1c0-0.2,0-0.4-0.1-0.6
			c-0.1-0.2-0.2-0.3-0.4-0.4c-0.2-0.1-0.4-0.3-0.7-0.4s-0.6-0.2-1-0.4c-0.5-0.2-1-0.3-1.4-0.5c-0.5-0.2-0.9-0.4-1.2-0.7
			c-0.4-0.3-0.7-0.7-0.9-1.1c-0.2-0.5-0.3-1-0.3-1.8c0-0.7,0.1-1.4,0.4-1.9s0.6-1.1,1-1.5c0.4-0.4,0.9-0.7,1.6-1
			c0.6-0.2,1.3-0.3,2.1-0.3c0.7,0,1.5,0.1,2.2,0.3c0.8,0.2,1.5,0.5,2.2,0.9L985,41.3z"/>
	</g>
	<g class="st29">
		<path d="M994.9,40.8V52h-3.7V40.8h-3.1v-3.2h9.8v3.2H994.9z"/>
		<path d="M1007.8,40.8h-4.4v2.4h4.2v3.2h-4.2v2.5h4.4V52h-8.2V37.7h8.2V40.8z"/>
		<path d="M1010.4,37.7h5.5c1,0,1.9,0.2,2.7,0.6c0.9,0.4,1.6,0.9,2.2,1.6c0.6,0.7,1.1,1.4,1.5,2.3c0.4,0.9,0.6,1.8,0.6,2.7
			c0,0.9-0.2,1.8-0.5,2.7c-0.4,0.9-0.9,1.6-1.5,2.3c-0.6,0.7-1.4,1.2-2.2,1.6c-0.9,0.4-1.8,0.6-2.8,0.6h-5.5V37.7z M1014.2,48.8h0.9
			c0.6,0,1.2-0.1,1.7-0.3c0.5-0.2,0.9-0.5,1.3-0.8s0.6-0.8,0.8-1.3c0.2-0.5,0.3-1,0.3-1.6c0-0.6-0.1-1.1-0.3-1.6
			c-0.2-0.5-0.5-0.9-0.8-1.3c-0.3-0.4-0.8-0.6-1.3-0.8c-0.5-0.2-1.1-0.3-1.7-0.3h-0.9V48.8z"/>
		<path d="M1024.9,54.7c1.5-2.5,2.2-5.5,2.2-8.9c0-0.8-0.1-1.6-0.2-2.5c-0.1-0.9-0.3-1.7-0.5-2.5s-0.4-1.5-0.7-2.2
			c-0.3-0.7-0.6-1.3-0.9-1.8l2.1-1.2c0.9,1.3,1.6,2.8,2,4.6c0.5,1.7,0.7,3.7,0.7,5.7c0,0.9-0.1,1.8-0.2,2.7
			c-0.1,0.9-0.3,1.8-0.5,2.6s-0.5,1.7-0.9,2.4s-0.7,1.5-1.2,2.1L1024.9,54.7z"/>
	</g>
</g>
<rect x="1104.4" y="68.2" class="st0" width="27.8" height="435.5"/>
<rect x="112.7" y="83" class="st0" width="1042.5" height="12.8"/>
<g>
	<g class="st29">
		<path d="M1201.1,107v7.1h2.8v2h-5.2v-9H1201.1z"/>
		<path d="M1206.9,113.3c0,0.9,0.4,1.4,1.3,1.4c0.5,0,0.8-0.2,1.1-0.6h2.1c-0.4,1.4-1.5,2.1-3.2,2.1c-0.5,0-1-0.1-1.4-0.2
			c-0.4-0.2-0.8-0.4-1.1-0.7s-0.5-0.6-0.7-1c-0.2-0.4-0.3-0.8-0.3-1.3c0-0.5,0.1-1,0.2-1.4c0.2-0.4,0.4-0.8,0.7-1.1s0.7-0.5,1.1-0.7
			c0.4-0.2,0.9-0.2,1.4-0.2c0.5,0,1,0.1,1.4,0.2c0.4,0.2,0.8,0.4,1.1,0.7s0.5,0.7,0.7,1.1c0.2,0.4,0.2,0.9,0.2,1.4v0.2H1206.9z
			 M1209.5,112c-0.1-0.3-0.2-0.5-0.4-0.7c-0.2-0.2-0.5-0.3-0.8-0.3c-0.3,0-0.6,0.1-0.8,0.3c-0.2,0.2-0.3,0.4-0.4,0.7H1209.5z"/>
		<path d="M1219.6,109.9v5.7c0,0.3,0,0.7-0.1,0.9s-0.1,0.5-0.2,0.7c-0.1,0.3-0.2,0.5-0.5,0.7c-0.2,0.2-0.5,0.4-0.7,0.6
			c-0.3,0.2-0.6,0.3-1,0.4s-0.8,0.1-1.2,0.1c-0.5,0-0.9-0.1-1.3-0.2c-0.4-0.1-0.8-0.3-1-0.5s-0.5-0.5-0.7-0.7s-0.3-0.6-0.4-0.9h2.4
			c0.2,0.4,0.5,0.6,1,0.6c0.5,0,0.8-0.1,1.1-0.4c0.2-0.3,0.4-0.6,0.4-1.1v-0.6c-0.2,0.2-0.3,0.3-0.5,0.4c-0.1,0.1-0.3,0.2-0.5,0.2
			c-0.2,0.1-0.3,0.1-0.5,0.1c-0.2,0-0.4,0-0.6,0c-0.4,0-0.8-0.1-1.2-0.2c-0.4-0.2-0.7-0.4-1-0.6c-0.3-0.3-0.5-0.6-0.6-1
			c-0.1-0.4-0.2-0.8-0.2-1.3c0-0.5,0.1-0.9,0.2-1.3s0.4-0.8,0.7-1.1c0.3-0.3,0.6-0.5,1-0.7c0.4-0.2,0.8-0.3,1.2-0.3
			c0.7,0,1.3,0.3,1.8,0.8v-0.6H1219.6z M1214.7,112.9c0,0.2,0,0.4,0.1,0.6s0.2,0.3,0.3,0.5s0.3,0.2,0.4,0.3s0.4,0.1,0.6,0.1
			c0.2,0,0.4,0,0.5-0.1s0.3-0.2,0.4-0.3s0.2-0.3,0.3-0.5s0.1-0.4,0.1-0.5c0-0.2,0-0.4-0.1-0.6s-0.2-0.3-0.3-0.4s-0.3-0.2-0.5-0.3
			c-0.2-0.1-0.3-0.1-0.5-0.1c-0.2,0-0.4,0-0.5,0.1s-0.3,0.2-0.4,0.3c-0.1,0.1-0.2,0.3-0.3,0.4S1214.7,112.7,1214.7,112.9z"/>
		<path d="M1223.2,113.3c0,0.9,0.4,1.4,1.3,1.4c0.5,0,0.8-0.2,1.1-0.6h2.1c-0.4,1.4-1.5,2.1-3.2,2.1c-0.5,0-1-0.1-1.4-0.2
			c-0.4-0.2-0.8-0.4-1.1-0.7c-0.3-0.3-0.5-0.6-0.7-1c-0.2-0.4-0.3-0.8-0.3-1.3c0-0.5,0.1-1,0.2-1.4s0.4-0.8,0.7-1.1
			c0.3-0.3,0.7-0.5,1.1-0.7c0.4-0.2,0.9-0.2,1.4-0.2c0.5,0,1,0.1,1.4,0.2c0.4,0.2,0.8,0.4,1.1,0.7c0.3,0.3,0.5,0.7,0.7,1.1
			c0.2,0.4,0.2,0.9,0.2,1.4v0.2H1223.2z M1225.7,112c-0.1-0.3-0.2-0.5-0.4-0.7c-0.2-0.2-0.5-0.3-0.8-0.3c-0.3,0-0.6,0.1-0.8,0.3
			s-0.3,0.4-0.4,0.7H1225.7z"/>
		<path d="M1229,109.9h2.2v0.8c0.3-0.4,0.6-0.6,0.9-0.7c0.3-0.1,0.7-0.2,1.1-0.2c0.4,0,0.8,0.1,1.1,0.2c0.3,0.1,0.6,0.3,0.8,0.6
			c0.2,0.2,0.3,0.4,0.4,0.7c0.1,0.3,0.1,0.5,0.1,0.9v3.9h-2.2v-3.1c0-0.3,0-0.5-0.1-0.7c0-0.2-0.1-0.3-0.2-0.5
			c-0.1-0.1-0.2-0.2-0.3-0.2s-0.2-0.1-0.4-0.1c-0.4,0-0.7,0.1-0.8,0.3c-0.2,0.2-0.3,0.5-0.3,0.9v3.3h-2.2V109.9z"/>
		<path d="M1241.7,106.1h2.2v10h-2.2v-0.7c-0.5,0.6-1.1,0.9-1.9,0.9c-0.4,0-0.9-0.1-1.2-0.3s-0.7-0.4-1-0.7c-0.3-0.3-0.5-0.6-0.7-1
			s-0.2-0.8-0.2-1.3c0-0.4,0.1-0.9,0.2-1.3c0.1-0.4,0.4-0.7,0.6-1c0.3-0.3,0.6-0.5,1-0.7s0.8-0.3,1.3-0.3c0.8,0,1.4,0.3,1.9,0.8
			V106.1z M1239,112.9c0,0.2,0,0.4,0.1,0.6s0.2,0.3,0.3,0.5s0.3,0.2,0.4,0.3s0.4,0.1,0.6,0.1c0.2,0,0.4,0,0.5-0.1s0.3-0.2,0.4-0.3
			s0.2-0.3,0.3-0.4s0.1-0.3,0.1-0.5c0-0.2,0-0.4-0.1-0.5s-0.2-0.3-0.3-0.5c-0.1-0.1-0.3-0.2-0.4-0.3s-0.4-0.1-0.5-0.1
			c-0.2,0-0.4,0-0.5,0.1s-0.3,0.2-0.4,0.3c-0.1,0.1-0.2,0.3-0.3,0.4S1239,112.7,1239,112.9z"/>
	</g>
	<g>
		<rect x="1197.9" y="133.7" width="37.3" height="3"/>
	</g>
	<g>
		<path d="M1233.9,158.7h-12v-3h12V158.7z M1209.9,158.7h-12v-3h12V158.7z"/>
	</g>
	<g class="st29">
		<path d="M1251,136.1h-3.2l-0.8,1.8h-1.2l3.7-8l3.6,8h-1.2L1251,136.1z M1250.5,135.1l-1.1-2.6l-1.2,2.6H1250.5z"/>
		<path d="M1257.2,129.7h1.1v8.2h-1.1v-0.5c-0.4,0.4-0.9,0.6-1.5,0.6c-0.7,0-1.2-0.2-1.6-0.7c-0.4-0.5-0.6-1.1-0.6-1.8
			c0-0.7,0.2-1.3,0.6-1.8c0.4-0.5,1-0.7,1.6-0.7c0.6,0,1.1,0.2,1.5,0.7V129.7z M1254.6,135.6c0,0.5,0.1,0.8,0.4,1.1
			c0.2,0.3,0.6,0.4,0.9,0.4c0.4,0,0.7-0.1,1-0.4c0.2-0.3,0.4-0.7,0.4-1.1s-0.1-0.8-0.4-1.1c-0.3-0.3-0.6-0.4-1-0.4
			c-0.4,0-0.7,0.1-0.9,0.4C1254.7,134.8,1254.6,135.1,1254.6,135.6z"/>
		<path d="M1259.5,131.2c0-0.2,0.1-0.4,0.2-0.5c0.1-0.1,0.3-0.2,0.5-0.2c0.2,0,0.4,0.1,0.5,0.2c0.1,0.1,0.2,0.3,0.2,0.5
			s-0.1,0.4-0.2,0.5c-0.1,0.1-0.3,0.2-0.5,0.2c-0.2,0-0.4-0.1-0.5-0.2C1259.6,131.6,1259.5,131.4,1259.5,131.2z M1260.8,133.2v7.3
			h-1.1v-7.3H1260.8z"/>
		<path d="M1263.3,133.2v2.7c0,0.8,0.3,1.2,0.9,1.2c0.6,0,0.9-0.4,0.9-1.2v-2.7h1.1v2.8c0,0.4,0,0.7-0.1,1c-0.1,0.2-0.2,0.5-0.5,0.7
			c-0.4,0.3-0.8,0.5-1.4,0.5c-0.6,0-1-0.2-1.4-0.5c-0.2-0.2-0.4-0.4-0.5-0.7c-0.1-0.2-0.1-0.5-0.1-1v-2.8H1263.3z"/>
		<path d="M1270.4,134l-0.9,0.5c-0.1-0.3-0.3-0.4-0.5-0.4c-0.1,0-0.2,0-0.3,0.1c-0.1,0.1-0.1,0.2-0.1,0.3c0,0.2,0.2,0.4,0.6,0.5
			c0.6,0.3,1,0.5,1.2,0.7c0.2,0.2,0.3,0.5,0.3,0.9c0,0.5-0.2,0.8-0.5,1.2c-0.3,0.3-0.7,0.4-1.2,0.4c-0.8,0-1.4-0.4-1.7-1.2l0.9-0.4
			c0.1,0.2,0.2,0.4,0.3,0.4c0.1,0.1,0.3,0.2,0.5,0.2c0.4,0,0.6-0.2,0.6-0.5c0-0.2-0.1-0.4-0.4-0.5c-0.1-0.1-0.2-0.1-0.3-0.2
			c-0.1-0.1-0.2-0.1-0.3-0.2c-0.3-0.2-0.5-0.3-0.7-0.5c-0.2-0.2-0.2-0.5-0.2-0.8c0-0.4,0.1-0.8,0.4-1c0.3-0.3,0.6-0.4,1.1-0.4
			C1269.7,133.1,1270.1,133.4,1270.4,134z"/>
		<path d="M1272.8,134.2v3.7h-1.1v-3.7h-0.5v-1h0.5v-1.7h1.1v1.7h0.9v1H1272.8z"/>
		<path d="M1278.9,135.8h-3.4c0,0.4,0.2,0.7,0.4,0.9c0.2,0.2,0.5,0.3,0.9,0.3c0.3,0,0.5-0.1,0.7-0.2c0.2-0.1,0.4-0.4,0.6-0.7
			l0.9,0.5c-0.1,0.2-0.3,0.5-0.5,0.6c-0.2,0.2-0.3,0.3-0.5,0.4c-0.2,0.1-0.4,0.2-0.6,0.2c-0.2,0.1-0.4,0.1-0.7,0.1
			c-0.7,0-1.3-0.2-1.7-0.7c-0.4-0.5-0.6-1.1-0.6-1.8c0-0.8,0.2-1.4,0.6-1.8c0.4-0.5,1-0.7,1.7-0.7c0.7,0,1.3,0.2,1.7,0.7
			c0.4,0.4,0.6,1.1,0.6,1.8L1278.9,135.8z M1277.7,134.9c-0.2-0.6-0.5-0.9-1.1-0.9c-0.1,0-0.3,0-0.4,0.1c-0.1,0-0.2,0.1-0.3,0.2
			c-0.1,0.1-0.2,0.2-0.2,0.3s-0.1,0.2-0.2,0.4H1277.7z"/>
		<path d="M1283.6,129.7h1.1v8.2h-1.1v-0.5c-0.4,0.4-0.9,0.6-1.5,0.6c-0.7,0-1.2-0.2-1.6-0.7c-0.4-0.5-0.6-1.1-0.6-1.8
			c0-0.7,0.2-1.3,0.6-1.8c0.4-0.5,1-0.7,1.6-0.7c0.6,0,1.1,0.2,1.5,0.7V129.7z M1281,135.6c0,0.5,0.1,0.8,0.4,1.1
			c0.2,0.3,0.6,0.4,0.9,0.4c0.4,0,0.7-0.1,1-0.4c0.2-0.3,0.4-0.7,0.4-1.1s-0.1-0.8-0.4-1.1c-0.3-0.3-0.6-0.4-1-0.4
			c-0.4,0-0.7,0.1-0.9,0.4C1281.1,134.8,1281,135.1,1281,135.6z"/>
		<path d="M1293.1,131.5h-2.6v1.8h2.5v1.1h-2.5v3.6h-1.1v-7.5h3.8V131.5z"/>
		<path d="M1293.9,135.5c0-0.7,0.2-1.3,0.7-1.8c0.5-0.5,1.1-0.7,1.8-0.7c0.7,0,1.3,0.2,1.8,0.7c0.5,0.5,0.7,1.1,0.7,1.8
			c0,0.7-0.2,1.3-0.7,1.8c-0.5,0.5-1.1,0.7-1.8,0.7c-0.7,0-1.3-0.2-1.8-0.7C1294.2,136.9,1293.9,136.3,1293.9,135.5z M1295,135.6
			c0,0.5,0.1,0.9,0.4,1.1c0.3,0.3,0.6,0.4,1,0.4c0.4,0,0.8-0.1,1-0.4c0.3-0.3,0.4-0.6,0.4-1.1s-0.1-0.8-0.4-1.1
			c-0.3-0.3-0.6-0.4-1-0.4c-0.4,0-0.8,0.1-1,0.4C1295.2,134.8,1295,135.1,1295,135.6z"/>
		<path d="M1300.1,133.2h1.1v0.4c0.2-0.2,0.4-0.4,0.5-0.4c0.2-0.1,0.3-0.1,0.6-0.1c0.3,0,0.6,0.1,0.9,0.3l-0.5,1
			c-0.2-0.1-0.4-0.2-0.6-0.2c-0.6,0-0.9,0.5-0.9,1.4v2.5h-1.1V133.2z"/>
		<path d="M1308.3,130.4v7.5h-1.1v-7.5H1308.3z"/>
		<path d="M1309.9,133.2h1.1v0.4c0.4-0.4,0.8-0.6,1.3-0.6c0.6,0,1,0.2,1.3,0.5c0.3,0.3,0.4,0.8,0.4,1.5v2.9h-1.1v-2.7
			c0-0.5-0.1-0.8-0.2-1c-0.1-0.2-0.4-0.3-0.7-0.3c-0.4,0-0.6,0.1-0.8,0.4c-0.2,0.2-0.2,0.7-0.2,1.2v2.3h-1.1V133.2z"/>
		<path d="M1316.5,134.2v3.7h-1.1v-3.7h-0.4v-1h0.4v-1.8c0-0.6,0.1-1,0.3-1.3c0.3-0.3,0.7-0.5,1.2-0.5c0.2,0,0.4,0.1,0.7,0.2v1.1
			l-0.1-0.1c-0.2-0.1-0.4-0.2-0.6-0.2c-0.2,0-0.3,0.1-0.4,0.2c-0.1,0.1-0.1,0.4-0.1,0.8v1.6h1.2v1H1316.5z"/>
		<path d="M1319.6,129.7v8.2h-1.1v-8.2H1319.6z"/>
		<path d="M1324.5,133.2h1.1v4.8h-1.1v-0.5c-0.5,0.4-0.9,0.6-1.5,0.6c-0.7,0-1.2-0.2-1.6-0.7c-0.4-0.5-0.6-1.1-0.6-1.8
			c0-0.7,0.2-1.3,0.6-1.8c0.4-0.5,1-0.7,1.6-0.7c0.6,0,1,0.2,1.5,0.7V133.2z M1321.9,135.6c0,0.5,0.1,0.8,0.4,1.1
			c0.2,0.3,0.6,0.4,0.9,0.4c0.4,0,0.7-0.1,1-0.4c0.2-0.3,0.4-0.7,0.4-1.1s-0.1-0.8-0.4-1.1c-0.3-0.3-0.6-0.4-1-0.4
			c-0.4,0-0.7,0.1-0.9,0.4C1322,134.8,1321.9,135.1,1321.9,135.6z"/>
		<path d="M1328.2,134.2v3.7h-1.1v-3.7h-0.5v-1h0.5v-1.7h1.1v1.7h0.9v1H1328.2z"/>
		<path d="M1329.6,131.2c0-0.2,0.1-0.4,0.2-0.5c0.1-0.1,0.3-0.2,0.5-0.2c0.2,0,0.4,0.1,0.5,0.2c0.1,0.1,0.2,0.3,0.2,0.5
			s-0.1,0.4-0.2,0.5c-0.1,0.1-0.3,0.2-0.5,0.2c-0.2,0-0.4-0.1-0.5-0.2C1329.7,131.6,1329.6,131.4,1329.6,131.2z M1330.9,133.2v4.8
			h-1.1v-4.8H1330.9z"/>
		<path d="M1332,135.5c0-0.7,0.2-1.3,0.7-1.8c0.5-0.5,1.1-0.7,1.8-0.7c0.7,0,1.3,0.2,1.8,0.7c0.5,0.5,0.7,1.1,0.7,1.8
			c0,0.7-0.2,1.3-0.7,1.8c-0.5,0.5-1.1,0.7-1.8,0.7c-0.7,0-1.3-0.2-1.8-0.7C1332.3,136.9,1332,136.3,1332,135.5z M1333.1,135.6
			c0,0.5,0.1,0.9,0.4,1.1c0.3,0.3,0.6,0.4,1,0.4c0.4,0,0.8-0.1,1-0.4c0.3-0.3,0.4-0.6,0.4-1.1s-0.1-0.8-0.4-1.1
			c-0.3-0.3-0.6-0.4-1-0.4c-0.4,0-0.8,0.1-1,0.4C1333.3,134.8,1333.1,135.1,1333.1,135.6z"/>
		<path d="M1338.3,133.2h1.1v0.4c0.4-0.4,0.8-0.6,1.3-0.6c0.6,0,1,0.2,1.3,0.5c0.3,0.3,0.4,0.8,0.4,1.5v2.9h-1.1v-2.7
			c0-0.5-0.1-0.8-0.2-1c-0.1-0.2-0.4-0.3-0.7-0.3c-0.4,0-0.6,0.1-0.8,0.4c-0.2,0.2-0.2,0.7-0.2,1.2v2.3h-1.1V133.2z"/>
	</g>
	<g class="st29">
		<path d="M1247.7,152.7v4.5c0,0.6,0.1,1.1,0.3,1.4c0.3,0.4,0.8,0.6,1.3,0.6c0.6,0,1-0.2,1.3-0.6c0.2-0.3,0.3-0.8,0.3-1.4v-4.5h1.1
			v4.9c0,0.8-0.2,1.4-0.7,2c-0.6,0.6-1.2,0.9-2.1,0.9s-1.5-0.3-2-0.9c-0.5-0.5-0.7-1.2-0.7-2v-4.9H1247.7z"/>
		<path d="M1253.8,155.5h1.1v0.4c0.4-0.4,0.8-0.6,1.3-0.6c0.6,0,1,0.2,1.3,0.5c0.3,0.3,0.4,0.8,0.4,1.5v2.9h-1.1v-2.7
			c0-0.5-0.1-0.8-0.2-1c-0.1-0.2-0.4-0.3-0.7-0.3c-0.4,0-0.6,0.1-0.8,0.4c-0.1,0.2-0.2,0.7-0.2,1.2v2.3h-1.1V155.5z"/>
		<path d="M1262.8,155.5h1.1v4.8h-1.1v-0.5c-0.5,0.4-0.9,0.6-1.5,0.6c-0.7,0-1.2-0.2-1.6-0.7c-0.4-0.5-0.6-1.1-0.6-1.8
			c0-0.7,0.2-1.3,0.6-1.8c0.4-0.5,1-0.7,1.6-0.7c0.6,0,1,0.2,1.5,0.7V155.5z M1260.2,157.9c0,0.5,0.1,0.8,0.4,1.1
			c0.3,0.3,0.6,0.4,0.9,0.4c0.4,0,0.7-0.1,1-0.4c0.3-0.3,0.4-0.7,0.4-1.1s-0.1-0.8-0.4-1.1c-0.2-0.3-0.6-0.4-1-0.4
			c-0.4,0-0.7,0.1-0.9,0.4C1260.3,157.1,1260.2,157.5,1260.2,157.9z"/>
		<path d="M1268.8,152h1.1v8.2h-1.1v-0.5c-0.4,0.4-0.9,0.6-1.5,0.6c-0.7,0-1.2-0.2-1.6-0.7c-0.4-0.5-0.6-1.1-0.6-1.8
			c0-0.7,0.2-1.3,0.6-1.8c0.4-0.5,1-0.7,1.6-0.7c0.6,0,1.1,0.2,1.5,0.7V152z M1266.2,157.9c0,0.5,0.1,0.8,0.4,1.1
			c0.3,0.3,0.6,0.4,0.9,0.4c0.4,0,0.7-0.1,1-0.4c0.3-0.3,0.4-0.7,0.4-1.1s-0.1-0.8-0.4-1.1c-0.2-0.3-0.6-0.4-1-0.4
			c-0.4,0-0.7,0.1-0.9,0.4C1266.3,157.1,1266.2,157.5,1266.2,157.9z"/>
		<path d="M1271.1,153.6c0-0.2,0.1-0.4,0.2-0.5c0.1-0.1,0.3-0.2,0.5-0.2c0.2,0,0.4,0.1,0.5,0.2c0.1,0.1,0.2,0.3,0.2,0.5
			s-0.1,0.4-0.2,0.5c-0.1,0.1-0.3,0.2-0.5,0.2c-0.2,0-0.4-0.1-0.5-0.2C1271.2,153.9,1271.1,153.8,1271.1,153.6z M1272.4,155.5v7.3
			h-1.1v-7.3H1272.4z"/>
		<path d="M1274.9,155.5v2.7c0,0.8,0.3,1.2,0.9,1.2c0.6,0,0.9-0.4,0.9-1.2v-2.7h1.1v2.8c0,0.4,0,0.7-0.1,1c-0.1,0.2-0.2,0.5-0.5,0.7
			c-0.4,0.3-0.8,0.5-1.4,0.5c-0.6,0-1-0.2-1.4-0.5c-0.2-0.2-0.4-0.4-0.5-0.7c-0.1-0.2-0.1-0.5-0.1-1v-2.8H1274.9z"/>
		<path d="M1282,156.3l-0.9,0.5c-0.1-0.3-0.3-0.4-0.5-0.4c-0.1,0-0.2,0-0.3,0.1c-0.1,0.1-0.1,0.2-0.1,0.3c0,0.2,0.2,0.4,0.6,0.5
			c0.6,0.3,1,0.5,1.2,0.7c0.2,0.2,0.3,0.5,0.3,0.9c0,0.5-0.2,0.8-0.5,1.2c-0.3,0.3-0.7,0.4-1.2,0.4c-0.8,0-1.4-0.4-1.7-1.2l0.9-0.4
			c0.1,0.2,0.2,0.4,0.3,0.4c0.1,0.1,0.3,0.2,0.5,0.2c0.4,0,0.6-0.2,0.6-0.5c0-0.2-0.1-0.4-0.4-0.5c-0.1-0.1-0.2-0.1-0.3-0.2
			c-0.1-0.1-0.2-0.1-0.3-0.2c-0.3-0.2-0.5-0.3-0.7-0.5c-0.2-0.2-0.2-0.5-0.2-0.8c0-0.4,0.1-0.8,0.4-1c0.3-0.3,0.6-0.4,1.1-0.4
			C1281.2,155.4,1281.7,155.7,1282,156.3z"/>
		<path d="M1284.4,156.6v3.7h-1.1v-3.7h-0.5v-1h0.5v-1.7h1.1v1.7h0.9v1H1284.4z"/>
		<path d="M1290.4,158.2h-3.4c0,0.4,0.2,0.7,0.4,0.9c0.2,0.2,0.5,0.3,0.9,0.3c0.3,0,0.5-0.1,0.7-0.2c0.2-0.1,0.4-0.4,0.6-0.7
			l0.9,0.5c-0.1,0.2-0.3,0.5-0.5,0.6c-0.2,0.2-0.3,0.3-0.5,0.4c-0.2,0.1-0.4,0.2-0.6,0.2c-0.2,0.1-0.4,0.1-0.7,0.1
			c-0.7,0-1.3-0.2-1.7-0.7c-0.4-0.5-0.6-1.1-0.6-1.8c0-0.8,0.2-1.4,0.6-1.8c0.4-0.5,1-0.7,1.7-0.7c0.7,0,1.3,0.2,1.7,0.7
			c0.4,0.4,0.6,1.1,0.6,1.8L1290.4,158.2z M1289.3,157.3c-0.2-0.6-0.5-0.9-1.1-0.9c-0.1,0-0.3,0-0.4,0.1c-0.1,0-0.2,0.1-0.3,0.2
			c-0.1,0.1-0.2,0.2-0.2,0.3s-0.1,0.2-0.2,0.4H1289.3z"/>
		<path d="M1295.1,152h1.1v8.2h-1.1v-0.5c-0.4,0.4-0.9,0.6-1.5,0.6c-0.7,0-1.2-0.2-1.6-0.7c-0.4-0.5-0.6-1.1-0.6-1.8
			c0-0.7,0.2-1.3,0.6-1.8c0.4-0.5,1-0.7,1.6-0.7c0.6,0,1.1,0.2,1.5,0.7V152z M1292.5,157.9c0,0.5,0.1,0.8,0.4,1.1
			c0.3,0.3,0.6,0.4,0.9,0.4c0.4,0,0.7-0.1,1-0.4c0.3-0.3,0.4-0.7,0.4-1.1s-0.1-0.8-0.4-1.1c-0.2-0.3-0.6-0.4-1-0.4
			c-0.4,0-0.7,0.1-0.9,0.4C1292.7,157.1,1292.5,157.5,1292.5,157.9z"/>
	</g>
</g>
<text transform="matrix(1 0 0 1 1097.6512 117.26)" class="st3 st30">95th</text>
<text transform="matrix(1 0 0 1 1097.6509 224.2078)" class="st3 st30">90th</text>
<text transform="matrix(1 0 0 1 1097.651 330.9471)" class="st3 st30">75th</text>
<text transform="matrix(1 0 0 1 1097.6519 397.9496)" class="st3 st30">50th</text>
<text transform="matrix(1 0 0 1 1097.6519 449.2896)" class="st3 st30">25th</text>
<text transform="matrix(1 0 0 1 1097.6511 479.3297)" class="st3 st30">10th</text>
</svg>
