<?xml version="1.0" encoding="utf-8"?>
<!-- Generator: Adobe Illustrator 27.2.0, SVG Export Plug-In . SVG Version: 6.00 Build 0)  -->
<svg version="1.1" id="Layer_1" xmlns="http://www.w3.org/2000/svg" xmlns:xlink="http://www.w3.org/1999/xlink" x="0px" y="0px"
	 viewBox="0 0 1288.3 660" style="enable-background:new 0 0 1288.3 660;" xml:space="preserve">
<style type="text/css">
	.st0{fill:#EBF7DE;}
	.st1{font-family:'Futura-Bold';}
	.st2{font-size:12px;}
	.st3{fill:none;}
	.st4{fill:#167F3D;}
	.st5{enable-background:new    ;}
	.st6{fill:#2F995A;}
	.st7{fill:#4AB17E;}
	.st8{fill:#69C3A2;}
	.st9{fill:#8FD4C1;}
	.st10{fill:#B6E3DA;}
	.st11{fill:none;stroke:#DDDDDD;stroke-miterlimit:10;}
	.st12{fill:none;stroke:#000000;stroke-miterlimit:10;}
	.st13{fill:none;stroke:#888888;stroke-miterlimit:10;}
	.st14{font-family:'Futura-Medium';}
	.st15{font-size:10px;}
</style>
<rect class="st0" width="1288.3" height="660"/>
<g pointer-events="none">
	<text transform="matrix(1 0 0 1 539.09 622.24)" class="st1 st2">Sum of p</text>
	<text transform="matrix(1 0 0 1 596.44 622.24)" class="st1 st2">r</text>
	<text transform="matrix(1 0 0 1 602.08 622.24)" class="st1 st2">opo</text>
	<text transform="matrix(1 0 0 1 627.29 622.24)" class="st1 st2">r</text>
	<text transform="matrix(1 0 0 1 633.11 622.24)" class="st1 st2">t</text>
	<text transform="matrix(1 0 0 1 637.75 622.24)" class="st1 st2">ion</text>
</g>
<g pointer-events="none">
	<text transform="matrix(6.123234e-17 -1 1 6.123234e-17 75.19 347.8398)" class="st1 st2">St</text>
	<text transform="matrix(6.123234e-17 -1 1 6.123234e-17 75.19 335.3691)" class="st1 st2">a</text>
	<text transform="matrix(6.123234e-17 -1 1 6.123234e-17 75.19 326.9609)" class="st1 st2">t</text>
	<text transform="matrix(6.123234e-17 -1 1 6.123234e-17 75.19 322.3594)" class="st1 st2">e</text>
</g>
<g>
	<path pointer-events="none" class="st3" d="M1127.8,99.9h67.7v11h-67.7V99.9z"/>
</g>
<g pointer-events="none">
	<g>
		<path class="st4" d="M1128.8,100.9h10v10h-10V100.9z"/>
	</g>
</g>
<g class="st5">
	<path d="M1145.8,104.3h3.3v-2.9h1.1v7.5h-1.1v-3.5h-3.3v3.5h-1.1v-7.5h1.1V104.3z"/>
	<path d="M1151.7,102.2c0-0.2,0.1-0.4,0.2-0.5c0.1-0.1,0.3-0.2,0.5-0.2c0.2,0,0.4,0.1,0.5,0.2c0.1,0.1,0.2,0.3,0.2,0.5
		s-0.1,0.4-0.2,0.5c-0.1,0.1-0.3,0.2-0.5,0.2c-0.2,0-0.4-0.1-0.5-0.2C1151.7,102.5,1151.7,102.4,1151.7,102.2z M1152.9,104.1v4.8
		h-1.1v-4.8H1152.9z"/>
	<path d="M1157.1,104.9l-0.9,0.5c-0.1-0.3-0.3-0.4-0.5-0.4c-0.1,0-0.2,0-0.3,0.1c-0.1,0.1-0.1,0.2-0.1,0.3c0,0.2,0.2,0.4,0.6,0.5
		c0.6,0.3,1,0.5,1.2,0.7c0.2,0.2,0.3,0.5,0.3,0.9c0,0.5-0.2,0.8-0.5,1.2c-0.3,0.3-0.7,0.4-1.2,0.4c-0.8,0-1.4-0.4-1.7-1.2l0.9-0.4
		c0.1,0.2,0.2,0.4,0.3,0.4c0.1,0.1,0.3,0.2,0.5,0.2c0.4,0,0.6-0.2,0.6-0.5c0-0.2-0.1-0.4-0.4-0.5c-0.1-0.1-0.2-0.1-0.3-0.2
		c-0.1-0.1-0.2-0.1-0.3-0.2c-0.3-0.2-0.5-0.3-0.7-0.5c-0.2-0.2-0.2-0.5-0.2-0.8c0-0.4,0.1-0.8,0.4-1c0.3-0.3,0.6-0.4,1.1-0.4
		C1156.3,104,1156.8,104.3,1157.1,104.9z"/>
	<path d="M1159.5,111.5h-1.1v-7.3h1.1v0.5c0.4-0.4,0.9-0.6,1.5-0.6c0.7,0,1.2,0.2,1.6,0.7c0.4,0.5,0.6,1.1,0.6,1.8
		c0,0.7-0.2,1.3-0.6,1.8c-0.4,0.5-1,0.7-1.6,0.7c-0.6,0-1.1-0.2-1.5-0.7V111.5z M1162.1,106.5c0-0.5-0.1-0.8-0.4-1.1
		c-0.2-0.3-0.6-0.4-0.9-0.4c-0.4,0-0.7,0.1-1,0.4c-0.2,0.3-0.4,0.6-0.4,1.1c0,0.4,0.1,0.8,0.4,1.1c0.2,0.3,0.6,0.4,1,0.4
		c0.4,0,0.7-0.1,0.9-0.4C1162,107.3,1162.1,107,1162.1,106.5z"/>
	<path d="M1167.9,104.1h1.1v4.8h-1.1v-0.5c-0.5,0.4-0.9,0.6-1.5,0.6c-0.7,0-1.2-0.2-1.6-0.7c-0.4-0.5-0.6-1.1-0.6-1.8
		c0-0.7,0.2-1.3,0.6-1.8c0.4-0.5,1-0.7,1.6-0.7c0.6,0,1,0.2,1.5,0.7V104.1z M1165.3,106.5c0,0.5,0.1,0.8,0.4,1.1
		c0.3,0.3,0.6,0.4,0.9,0.4c0.4,0,0.7-0.1,1-0.4c0.3-0.3,0.4-0.7,0.4-1.1s-0.1-0.8-0.4-1.1c-0.2-0.3-0.6-0.4-1-0.4
		c-0.4,0-0.7,0.1-0.9,0.4C1165.4,105.7,1165.3,106.1,1165.3,106.5z"/>
	<path d="M1170.4,104.1h1.1v0.4c0.4-0.4,0.8-0.6,1.3-0.6c0.6,0,1,0.2,1.3,0.5c0.3,0.3,0.4,0.8,0.4,1.5v2.9h-1.1v-2.7
		c0-0.5-0.1-0.8-0.2-1c-0.1-0.2-0.4-0.3-0.7-0.3c-0.4,0-0.6,0.1-0.8,0.4c-0.1,0.2-0.2,0.7-0.2,1.2v2.3h-1.1V104.1z"/>
	<path d="M1175.7,102.2c0-0.2,0.1-0.4,0.2-0.5c0.1-0.1,0.3-0.2,0.5-0.2c0.2,0,0.4,0.1,0.5,0.2c0.1,0.1,0.2,0.3,0.2,0.5
		s-0.1,0.4-0.2,0.5c-0.1,0.1-0.3,0.2-0.5,0.2c-0.2,0-0.4-0.1-0.5-0.2C1175.8,102.5,1175.7,102.4,1175.7,102.2z M1176.9,104.1v4.8
		h-1.1v-4.8H1176.9z"/>
	<path d="M1182,104.3v1.5c-0.2-0.3-0.5-0.5-0.7-0.6c-0.2-0.1-0.4-0.2-0.7-0.2c-0.4,0-0.8,0.1-1,0.4s-0.4,0.7-0.4,1.1
		c0,0.4,0.1,0.8,0.4,1.1c0.3,0.3,0.6,0.4,1,0.4c0.3,0,0.5-0.1,0.7-0.2c0.2-0.1,0.4-0.3,0.7-0.6v1.5c-0.4,0.2-0.9,0.3-1.3,0.3
		c-0.7,0-1.4-0.2-1.8-0.7c-0.5-0.5-0.7-1.1-0.7-1.8s0.3-1.3,0.8-1.8c0.5-0.5,1.1-0.7,1.8-0.7C1181.2,104,1181.6,104.1,1182,104.3z"
		/>
</g>
<g>
	<path pointer-events="none" class="st3" d="M1127.8,112.9h67.7v11h-67.7V112.9z"/>
</g>
<g pointer-events="none">
	<g>
		<path class="st6" d="M1128.8,113.9h10v10h-10V113.9z"/>
	</g>
</g>
<g class="st5">
	<path d="M1144.7,121.9v-8.1l5.5,5.8v-5.2h1.1v8l-5.5-5.7v5.3H1144.7z"/>
	<path d="M1152.8,119.5c0-0.7,0.2-1.3,0.7-1.8c0.5-0.5,1.1-0.7,1.8-0.7c0.7,0,1.3,0.2,1.8,0.7c0.5,0.5,0.7,1.1,0.7,1.8
		c0,0.7-0.2,1.3-0.7,1.8c-0.5,0.5-1.1,0.7-1.8,0.7c-0.7,0-1.3-0.2-1.8-0.7C1153,120.8,1152.8,120.2,1152.8,119.5z M1153.9,119.5
		c0,0.5,0.1,0.9,0.4,1.1c0.3,0.3,0.6,0.4,1,0.4c0.4,0,0.8-0.1,1-0.4c0.3-0.3,0.4-0.6,0.4-1.1s-0.1-0.8-0.4-1.1
		c-0.3-0.3-0.6-0.4-1-0.4c-0.4,0-0.8,0.1-1,0.4C1154,118.7,1153.9,119.1,1153.9,119.5z"/>
	<path d="M1159,117.1h1.1v0.4c0.4-0.4,0.8-0.6,1.3-0.6c0.6,0,1,0.2,1.3,0.5c0.3,0.3,0.4,0.8,0.4,1.5v2.9h-1.1v-2.7
		c0-0.5-0.1-0.8-0.2-1c-0.1-0.2-0.4-0.3-0.7-0.3c-0.4,0-0.6,0.1-0.8,0.4c-0.1,0.2-0.2,0.7-0.2,1.2v2.3h-1.1V117.1z"/>
	<path d="M1163.8,119h2.2v1h-2.2V119z"/>
	<path d="M1168,117.3h3.3v-2.9h1.1v7.5h-1.1v-3.5h-3.3v3.5h-1.1v-7.5h1.1V117.3z"/>
	<path d="M1173.8,115.2c0-0.2,0.1-0.4,0.2-0.5c0.1-0.1,0.3-0.2,0.5-0.2c0.2,0,0.4,0.1,0.5,0.2c0.1,0.1,0.2,0.3,0.2,0.5
		s-0.1,0.4-0.2,0.5c-0.1,0.1-0.3,0.2-0.5,0.2c-0.2,0-0.4-0.1-0.5-0.2C1173.9,115.5,1173.8,115.4,1173.8,115.2z M1175.1,117.1v4.8
		h-1.1v-4.8H1175.1z"/>
	<path d="M1179.3,117.9l-0.9,0.5c-0.1-0.3-0.3-0.4-0.5-0.4c-0.1,0-0.2,0-0.3,0.1c-0.1,0.1-0.1,0.2-0.1,0.3c0,0.2,0.2,0.4,0.6,0.5
		c0.6,0.3,1,0.5,1.2,0.7c0.2,0.2,0.3,0.5,0.3,0.9c0,0.5-0.2,0.8-0.5,1.2c-0.3,0.3-0.7,0.4-1.2,0.4c-0.8,0-1.4-0.4-1.7-1.2l0.9-0.4
		c0.1,0.2,0.2,0.4,0.3,0.4c0.1,0.1,0.3,0.2,0.5,0.2c0.4,0,0.6-0.2,0.6-0.5c0-0.2-0.1-0.4-0.4-0.5c-0.1-0.1-0.2-0.1-0.3-0.2
		c-0.1-0.1-0.2-0.1-0.3-0.2c-0.3-0.2-0.5-0.3-0.7-0.5c-0.2-0.2-0.2-0.5-0.2-0.8c0-0.4,0.1-0.8,0.4-1c0.3-0.3,0.6-0.4,1.1-0.4
		C1178.5,117,1179,117.3,1179.3,117.9z"/>
	<path d="M1181.7,124.5h-1.1v-7.3h1.1v0.5c0.4-0.4,0.9-0.6,1.5-0.6c0.7,0,1.2,0.2,1.6,0.7c0.4,0.5,0.6,1.1,0.6,1.8
		c0,0.7-0.2,1.3-0.6,1.8c-0.4,0.5-1,0.7-1.6,0.7c-0.6,0-1.1-0.2-1.5-0.7V124.5z M1184.3,119.5c0-0.5-0.1-0.8-0.4-1.1
		c-0.2-0.3-0.6-0.4-0.9-0.4c-0.4,0-0.7,0.1-1,0.4c-0.2,0.3-0.4,0.6-0.4,1.1c0,0.4,0.1,0.8,0.4,1.1c0.2,0.3,0.6,0.4,1,0.4
		c0.4,0,0.7-0.1,0.9-0.4C1184.1,120.3,1184.3,120,1184.3,119.5z"/>
	<path d="M1190.1,117.1h1.1v4.8h-1.1v-0.5c-0.5,0.4-0.9,0.6-1.5,0.6c-0.7,0-1.2-0.2-1.6-0.7c-0.4-0.5-0.6-1.1-0.6-1.8
		c0-0.7,0.2-1.3,0.6-1.8c0.4-0.5,1-0.7,1.6-0.7c0.6,0,1,0.2,1.5,0.7V117.1z M1187.5,119.5c0,0.5,0.1,0.8,0.4,1.1
		c0.3,0.3,0.6,0.4,0.9,0.4c0.4,0,0.7-0.1,1-0.4c0.3-0.3,0.4-0.7,0.4-1.1s-0.1-0.8-0.4-1.1c-0.2-0.3-0.6-0.4-1-0.4
		c-0.4,0-0.7,0.1-0.9,0.4C1187.6,118.7,1187.5,119.1,1187.5,119.5z"/>
	<path d="M1192.5,117.1h1.1v0.4c0.4-0.4,0.8-0.6,1.3-0.6c0.6,0,1,0.2,1.3,0.5c0.3,0.3,0.4,0.8,0.4,1.5v2.9h-1.1v-2.7
		c0-0.5-0.1-0.8-0.2-1c-0.1-0.2-0.4-0.3-0.7-0.3c-0.4,0-0.6,0.1-0.8,0.4c-0.1,0.2-0.2,0.7-0.2,1.2v2.3h-1.1V117.1z"/>
	<path d="M1197.9,115.2c0-0.2,0.1-0.4,0.2-0.5c0.1-0.1,0.3-0.2,0.5-0.2c0.2,0,0.4,0.1,0.5,0.2c0.1,0.1,0.2,0.3,0.2,0.5
		s-0.1,0.4-0.2,0.5c-0.1,0.1-0.3,0.2-0.5,0.2c-0.2,0-0.4-0.1-0.5-0.2C1197.9,115.5,1197.9,115.4,1197.9,115.2z M1199.1,117.1v4.8
		h-1.1v-4.8H1199.1z"/>
	<path d="M1204.2,117.3v1.5c-0.2-0.3-0.5-0.5-0.7-0.6c-0.2-0.1-0.4-0.2-0.7-0.2c-0.4,0-0.8,0.1-1,0.4s-0.4,0.7-0.4,1.1
		c0,0.4,0.1,0.8,0.4,1.1c0.3,0.3,0.6,0.4,1,0.4c0.3,0,0.5-0.1,0.7-0.2c0.2-0.1,0.4-0.3,0.7-0.6v1.5c-0.4,0.2-0.9,0.3-1.3,0.3
		c-0.7,0-1.4-0.2-1.8-0.7c-0.5-0.5-0.7-1.1-0.7-1.8s0.3-1.3,0.8-1.8c0.5-0.5,1.1-0.7,1.8-0.7C1203.4,117,1203.8,117.1,1204.2,117.3z
		"/>
	<path d="M1213,120.1h-3.2l-0.8,1.8h-1.2l3.7-8l3.6,8h-1.2L1213,120.1z M1212.5,119l-1.1-2.6l-1.2,2.6H1212.5z"/>
	<path d="M1215.8,117.1h1.1v0.4c0.2-0.2,0.4-0.4,0.5-0.4c0.2-0.1,0.4-0.1,0.6-0.1c0.5,0,1,0.2,1.3,0.7c0.3-0.5,0.8-0.7,1.4-0.7
		c1.1,0,1.6,0.6,1.6,1.9v2.9h-1.1v-2.6c0-0.5-0.1-0.8-0.2-1c-0.1-0.2-0.3-0.3-0.6-0.3c-0.3,0-0.5,0.1-0.7,0.3
		c-0.1,0.2-0.2,0.6-0.2,1.1v2.5h-1.1v-2.6c0-0.8-0.2-1.3-0.7-1.3c-0.3,0-0.5,0.1-0.7,0.3s-0.2,0.6-0.2,1.1v2.5h-1.1V117.1z"/>
	<path d="M1228,119.8h-3.4c0,0.4,0.2,0.7,0.4,0.9c0.2,0.2,0.5,0.3,0.9,0.3c0.3,0,0.5-0.1,0.7-0.2c0.2-0.1,0.4-0.4,0.6-0.7l0.9,0.5
		c-0.1,0.2-0.3,0.5-0.5,0.6c-0.2,0.2-0.3,0.3-0.5,0.4c-0.2,0.1-0.4,0.2-0.6,0.2c-0.2,0.1-0.4,0.1-0.7,0.1c-0.7,0-1.3-0.2-1.7-0.7
		c-0.4-0.5-0.6-1.1-0.6-1.8c0-0.8,0.2-1.4,0.6-1.8c0.4-0.5,1-0.7,1.7-0.7c0.7,0,1.3,0.2,1.7,0.7c0.4,0.4,0.6,1.1,0.6,1.8L1228,119.8
		z M1226.9,118.9c-0.2-0.6-0.5-0.9-1.1-0.9c-0.1,0-0.3,0-0.4,0.1c-0.1,0-0.2,0.1-0.3,0.2c-0.1,0.1-0.2,0.2-0.2,0.3s-0.1,0.2-0.2,0.4
		H1226.9z"/>
	<path d="M1229.2,117.1h1.1v0.4c0.2-0.2,0.4-0.4,0.5-0.4c0.2-0.1,0.3-0.1,0.6-0.1c0.3,0,0.6,0.1,0.9,0.3l-0.5,1
		c-0.2-0.1-0.4-0.2-0.6-0.2c-0.6,0-0.9,0.5-0.9,1.4v2.5h-1.1V117.1z"/>
	<path d="M1233,115.2c0-0.2,0.1-0.4,0.2-0.5c0.1-0.1,0.3-0.2,0.5-0.2c0.2,0,0.4,0.1,0.5,0.2c0.1,0.1,0.2,0.3,0.2,0.5
		s-0.1,0.4-0.2,0.5c-0.1,0.1-0.3,0.2-0.5,0.2c-0.2,0-0.4-0.1-0.5-0.2C1233,115.5,1233,115.4,1233,115.2z M1234.2,117.1v4.8h-1.1
		v-4.8H1234.2z"/>
	<path d="M1239.3,117.3v1.5c-0.2-0.3-0.5-0.5-0.7-0.6c-0.2-0.1-0.4-0.2-0.7-0.2c-0.4,0-0.8,0.1-1,0.4s-0.4,0.7-0.4,1.1
		c0,0.4,0.1,0.8,0.4,1.1c0.3,0.3,0.6,0.4,1,0.4c0.3,0,0.5-0.1,0.7-0.2c0.2-0.1,0.4-0.3,0.7-0.6v1.5c-0.4,0.2-0.9,0.3-1.3,0.3
		c-0.7,0-1.4-0.2-1.8-0.7c-0.5-0.5-0.7-1.1-0.7-1.8s0.3-1.3,0.8-1.8c0.5-0.5,1.1-0.7,1.8-0.7C1238.4,117,1238.9,117.1,1239.3,117.3z
		"/>
	<path d="M1243.9,117.1h1.1v4.8h-1.1v-0.5c-0.5,0.4-0.9,0.6-1.5,0.6c-0.7,0-1.2-0.2-1.6-0.7c-0.4-0.5-0.6-1.1-0.6-1.8
		c0-0.7,0.2-1.3,0.6-1.8c0.4-0.5,1-0.7,1.6-0.7c0.6,0,1,0.2,1.5,0.7V117.1z M1241.3,119.5c0,0.5,0.1,0.8,0.4,1.1
		c0.3,0.3,0.6,0.4,0.9,0.4c0.4,0,0.7-0.1,1-0.4c0.3-0.3,0.4-0.7,0.4-1.1s-0.1-0.8-0.4-1.1c-0.2-0.3-0.6-0.4-1-0.4
		c-0.4,0-0.7,0.1-0.9,0.4C1241.4,118.7,1241.3,119.1,1241.3,119.5z"/>
	<path d="M1246.4,117.1h1.1v0.4c0.4-0.4,0.8-0.6,1.3-0.6c0.6,0,1,0.2,1.3,0.5c0.3,0.3,0.4,0.8,0.4,1.5v2.9h-1.1v-2.7
		c0-0.5-0.1-0.8-0.2-1c-0.1-0.2-0.4-0.3-0.7-0.3c-0.4,0-0.6,0.1-0.8,0.4c-0.1,0.2-0.2,0.7-0.2,1.2v2.3h-1.1V117.1z"/>
</g>
<g class="st5">
	<path d="M1145.8,125.4v7.5h-1.1v-7.5H1145.8z"/>
	<path d="M1147.4,128.1h1.1v0.4c0.4-0.4,0.8-0.6,1.3-0.6c0.6,0,1,0.2,1.3,0.5c0.3,0.3,0.4,0.8,0.4,1.5v2.9h-1.1v-2.7
		c0-0.5-0.1-0.8-0.2-1c-0.1-0.2-0.4-0.3-0.7-0.3c-0.4,0-0.6,0.1-0.8,0.4c-0.1,0.2-0.2,0.7-0.2,1.2v2.3h-1.1V128.1z"/>
	<path d="M1156.4,124.6h1.1v8.2h-1.1v-0.5c-0.4,0.4-0.9,0.6-1.5,0.6c-0.7,0-1.2-0.2-1.6-0.7c-0.4-0.5-0.6-1.1-0.6-1.8
		c0-0.7,0.2-1.3,0.6-1.8c0.4-0.5,1-0.7,1.6-0.7c0.6,0,1.1,0.2,1.5,0.7V124.6z M1153.8,130.5c0,0.5,0.1,0.8,0.4,1.1
		c0.3,0.3,0.6,0.4,0.9,0.4c0.4,0,0.7-0.1,1-0.4c0.3-0.3,0.4-0.7,0.4-1.1s-0.1-0.8-0.4-1.1c-0.2-0.3-0.6-0.4-1-0.4
		c-0.4,0-0.7,0.1-0.9,0.4C1154,129.7,1153.8,130.1,1153.8,130.5z"/>
	<path d="M1158.8,126.2c0-0.2,0.1-0.4,0.2-0.5c0.1-0.1,0.3-0.2,0.5-0.2c0.2,0,0.4,0.1,0.5,0.2c0.1,0.1,0.2,0.3,0.2,0.5
		s-0.1,0.4-0.2,0.5c-0.1,0.1-0.3,0.2-0.5,0.2c-0.2,0-0.4-0.1-0.5-0.2C1158.8,126.5,1158.8,126.4,1158.8,126.2z M1160,128.1v4.8h-1.1
		v-4.8H1160z"/>
	<path d="M1164.9,128.1h1.1v4.8h-1.1v-0.5c-0.5,0.4-0.9,0.6-1.5,0.6c-0.7,0-1.2-0.2-1.6-0.7c-0.4-0.5-0.6-1.1-0.6-1.8
		c0-0.7,0.2-1.3,0.6-1.8c0.4-0.5,1-0.7,1.6-0.7c0.6,0,1,0.2,1.5,0.7V128.1z M1162.3,130.5c0,0.5,0.1,0.8,0.4,1.1
		c0.3,0.3,0.6,0.4,0.9,0.4c0.4,0,0.7-0.1,1-0.4c0.3-0.3,0.4-0.7,0.4-1.1s-0.1-0.8-0.4-1.1c-0.2-0.3-0.6-0.4-1-0.4
		c-0.4,0-0.7,0.1-0.9,0.4C1162.4,129.7,1162.3,130.1,1162.3,130.5z"/>
	<path d="M1167.4,128.1h1.1v0.4c0.4-0.4,0.8-0.6,1.3-0.6c0.6,0,1,0.2,1.3,0.5c0.3,0.3,0.4,0.8,0.4,1.5v2.9h-1.1v-2.7
		c0-0.5-0.1-0.8-0.2-1c-0.1-0.2-0.4-0.3-0.7-0.3c-0.4,0-0.6,0.1-0.8,0.4c-0.1,0.2-0.2,0.7-0.2,1.2v2.3h-1.1V128.1z"/>
	<path d="M1176.4,124.6l0.9,0.4l-4.3,10l-0.9-0.4L1176.4,124.6z"/>
	<path d="M1182.7,131.1h-3.2l-0.8,1.8h-1.2l3.7-8l3.6,8h-1.2L1182.7,131.1z M1182.2,130l-1.1-2.6l-1.2,2.6H1182.2z"/>
	<path d="M1186.6,124.6v8.2h-1.1v-8.2H1186.6z"/>
	<path d="M1191.5,128.1h1.1v4.8h-1.1v-0.5c-0.5,0.4-0.9,0.6-1.5,0.6c-0.7,0-1.2-0.2-1.6-0.7c-0.4-0.5-0.6-1.1-0.6-1.8
		c0-0.7,0.2-1.3,0.6-1.8c0.4-0.5,1-0.7,1.6-0.7c0.6,0,1,0.2,1.5,0.7V128.1z M1188.9,130.5c0,0.5,0.1,0.8,0.4,1.1
		c0.3,0.3,0.6,0.4,0.9,0.4c0.4,0,0.7-0.1,1-0.4c0.3-0.3,0.4-0.7,0.4-1.1s-0.1-0.8-0.4-1.1c-0.2-0.3-0.6-0.4-1-0.4
		c-0.4,0-0.7,0.1-0.9,0.4C1189,129.7,1188.9,130.1,1188.9,130.5z"/>
	<path d="M1196.7,128.9l-0.9,0.5c-0.1-0.3-0.3-0.4-0.5-0.4c-0.1,0-0.2,0-0.3,0.1c-0.1,0.1-0.1,0.2-0.1,0.3c0,0.2,0.2,0.4,0.6,0.5
		c0.6,0.3,1,0.5,1.2,0.7c0.2,0.2,0.3,0.5,0.3,0.9c0,0.5-0.2,0.8-0.5,1.2c-0.3,0.3-0.7,0.4-1.2,0.4c-0.8,0-1.4-0.4-1.7-1.2l0.9-0.4
		c0.1,0.2,0.2,0.4,0.3,0.4c0.1,0.1,0.3,0.2,0.5,0.2c0.4,0,0.6-0.2,0.6-0.5c0-0.2-0.1-0.4-0.4-0.5c-0.1-0.1-0.2-0.1-0.3-0.2
		c-0.1-0.1-0.2-0.1-0.3-0.2c-0.3-0.2-0.5-0.3-0.7-0.5c-0.2-0.2-0.2-0.5-0.2-0.8c0-0.4,0.1-0.8,0.4-1c0.3-0.3,0.6-0.4,1.1-0.4
		C1196,128,1196.4,128.3,1196.7,128.9z"/>
	<path d="M1199.1,124.6v5l1.5-1.5h1.5l-2.1,2l2.2,2.8h-1.4l-1.6-2l-0.2,0.2v1.8h-1.1v-8.2H1199.1z"/>
	<path d="M1206.3,128.1h1.1v4.8h-1.1v-0.5c-0.5,0.4-0.9,0.6-1.5,0.6c-0.7,0-1.2-0.2-1.6-0.7c-0.4-0.5-0.6-1.1-0.6-1.8
		c0-0.7,0.2-1.3,0.6-1.8c0.4-0.5,1-0.7,1.6-0.7c0.6,0,1,0.2,1.5,0.7V128.1z M1203.7,130.5c0,0.5,0.1,0.8,0.4,1.1
		c0.3,0.3,0.6,0.4,0.9,0.4c0.4,0,0.7-0.1,1-0.4c0.3-0.3,0.4-0.7,0.4-1.1s-0.1-0.8-0.4-1.1c-0.2-0.3-0.6-0.4-1-0.4
		c-0.4,0-0.7,0.1-0.9,0.4C1203.9,129.7,1203.7,130.1,1203.7,130.5z"/>
	<path d="M1212.1,132.9v-8.1l5.5,5.8v-5.2h1.1v8l-5.5-5.7v5.3H1212.1z"/>
	<path d="M1224,128.1h1.1v4.8h-1.1v-0.5c-0.5,0.4-0.9,0.6-1.5,0.6c-0.7,0-1.2-0.2-1.6-0.7c-0.4-0.5-0.6-1.1-0.6-1.8
		c0-0.7,0.2-1.3,0.6-1.8c0.4-0.5,1-0.7,1.6-0.7c0.6,0,1,0.2,1.5,0.7V128.1z M1221.4,130.5c0,0.5,0.1,0.8,0.4,1.1
		c0.3,0.3,0.6,0.4,0.9,0.4c0.4,0,0.7-0.1,1-0.4c0.3-0.3,0.4-0.7,0.4-1.1s-0.1-0.8-0.4-1.1c-0.2-0.3-0.6-0.4-1-0.4
		c-0.4,0-0.7,0.1-0.9,0.4C1221.5,129.7,1221.4,130.1,1221.4,130.5z"/>
	<path d="M1227.6,129.2v3.7h-1.1v-3.7h-0.5v-1h0.5v-1.7h1.1v1.7h0.9v1H1227.6z"/>
	<path d="M1229,126.2c0-0.2,0.1-0.4,0.2-0.5c0.1-0.1,0.3-0.2,0.5-0.2c0.2,0,0.4,0.1,0.5,0.2c0.1,0.1,0.2,0.3,0.2,0.5
		s-0.1,0.4-0.2,0.5c-0.1,0.1-0.3,0.2-0.5,0.2c-0.2,0-0.4-0.1-0.5-0.2C1229.1,126.5,1229,126.4,1229,126.2z M1230.3,128.1v4.8h-1.1
		v-4.8H1230.3z"/>
	<path d="M1232.3,128.1l1.2,2.7l1.2-2.7h1.2l-2.5,5.1l-2.5-5.1H1232.3z"/>
	<path d="M1240.9,130.8h-3.4c0,0.4,0.2,0.7,0.4,0.9c0.2,0.2,0.5,0.3,0.9,0.3c0.3,0,0.5-0.1,0.7-0.2c0.2-0.1,0.4-0.4,0.6-0.7l0.9,0.5
		c-0.1,0.2-0.3,0.5-0.5,0.6c-0.2,0.2-0.3,0.3-0.5,0.4c-0.2,0.1-0.4,0.2-0.6,0.2c-0.2,0.1-0.4,0.1-0.7,0.1c-0.7,0-1.3-0.2-1.7-0.7
		c-0.4-0.5-0.6-1.1-0.6-1.8c0-0.8,0.2-1.4,0.6-1.8c0.4-0.5,1-0.7,1.7-0.7c0.7,0,1.3,0.2,1.7,0.7c0.4,0.4,0.6,1.1,0.6,1.8
		L1240.9,130.8z M1239.7,129.9c-0.2-0.6-0.5-0.9-1.1-0.9c-0.1,0-0.3,0-0.4,0.1c-0.1,0-0.2,0.1-0.3,0.2c-0.1,0.1-0.2,0.2-0.2,0.3
		s-0.1,0.2-0.2,0.4H1239.7z"/>
</g>
<g>
	<path pointer-events="none" class="st3" d="M1127.8,138.9h67.7v11h-67.7V138.9z"/>
</g>
<g pointer-events="none">
	<g>
		<path class="st7" d="M1128.8,139.9h10v10h-10V139.9z"/>
	</g>
</g>
<g class="st5">
	<path d="M1144.7,147.9v-8.1l5.5,5.8v-5.2h1.1v8l-5.5-5.7v5.3H1144.7z"/>
	<path d="M1152.8,145.5c0-0.7,0.2-1.3,0.7-1.8c0.5-0.5,1.1-0.7,1.8-0.7c0.7,0,1.3,0.2,1.8,0.7c0.5,0.5,0.7,1.1,0.7,1.8
		c0,0.7-0.2,1.3-0.7,1.8c-0.5,0.5-1.1,0.7-1.8,0.7c-0.7,0-1.3-0.2-1.8-0.7C1153,146.8,1152.8,146.2,1152.8,145.5z M1153.9,145.5
		c0,0.5,0.1,0.9,0.4,1.1c0.3,0.3,0.6,0.4,1,0.4c0.4,0,0.8-0.1,1-0.4c0.3-0.3,0.4-0.6,0.4-1.1s-0.1-0.8-0.4-1.1
		c-0.3-0.3-0.6-0.4-1-0.4c-0.4,0-0.8,0.1-1,0.4C1154,144.7,1153.9,145.1,1153.9,145.5z"/>
	<path d="M1159,143.1h1.1v0.4c0.4-0.4,0.8-0.6,1.3-0.6c0.6,0,1,0.2,1.3,0.5c0.3,0.3,0.4,0.8,0.4,1.5v2.9h-1.1v-2.7
		c0-0.5-0.1-0.8-0.2-1c-0.1-0.2-0.4-0.3-0.7-0.3c-0.4,0-0.6,0.1-0.8,0.4c-0.1,0.2-0.2,0.7-0.2,1.2v2.3h-1.1V143.1z"/>
	<path d="M1163.8,145h2.2v1h-2.2V145z"/>
	<path d="M1168,143.3h3.3v-2.9h1.1v7.5h-1.1v-3.5h-3.3v3.5h-1.1v-7.5h1.1V143.3z"/>
	<path d="M1173.8,141.2c0-0.2,0.1-0.4,0.2-0.5c0.1-0.1,0.3-0.2,0.5-0.2c0.2,0,0.4,0.1,0.5,0.2c0.1,0.1,0.2,0.3,0.2,0.5
		s-0.1,0.4-0.2,0.5c-0.1,0.1-0.3,0.2-0.5,0.2c-0.2,0-0.4-0.1-0.5-0.2C1173.9,141.5,1173.8,141.4,1173.8,141.2z M1175.1,143.1v4.8
		h-1.1v-4.8H1175.1z"/>
	<path d="M1179.3,143.9l-0.9,0.5c-0.1-0.3-0.3-0.4-0.5-0.4c-0.1,0-0.2,0-0.3,0.1c-0.1,0.1-0.1,0.2-0.1,0.3c0,0.2,0.2,0.4,0.6,0.5
		c0.6,0.3,1,0.5,1.2,0.7c0.2,0.2,0.3,0.5,0.3,0.9c0,0.5-0.2,0.8-0.5,1.2c-0.3,0.3-0.7,0.4-1.2,0.4c-0.8,0-1.4-0.4-1.7-1.2l0.9-0.4
		c0.1,0.2,0.2,0.4,0.3,0.4c0.1,0.1,0.3,0.2,0.5,0.2c0.4,0,0.6-0.2,0.6-0.5c0-0.2-0.1-0.4-0.4-0.5c-0.1-0.1-0.2-0.1-0.3-0.2
		c-0.1-0.1-0.2-0.1-0.3-0.2c-0.3-0.2-0.5-0.3-0.7-0.5c-0.2-0.2-0.2-0.5-0.2-0.8c0-0.4,0.1-0.8,0.4-1c0.3-0.3,0.6-0.4,1.1-0.4
		C1178.5,143,1179,143.3,1179.3,143.9z"/>
	<path d="M1181.7,150.5h-1.1v-7.3h1.1v0.5c0.4-0.4,0.9-0.6,1.5-0.6c0.7,0,1.2,0.2,1.6,0.7c0.4,0.5,0.6,1.1,0.6,1.8
		c0,0.7-0.2,1.3-0.6,1.8c-0.4,0.5-1,0.7-1.6,0.7c-0.6,0-1.1-0.2-1.5-0.7V150.5z M1184.3,145.5c0-0.5-0.1-0.8-0.4-1.1
		c-0.2-0.3-0.6-0.4-0.9-0.4c-0.4,0-0.7,0.1-1,0.4c-0.2,0.3-0.4,0.6-0.4,1.1c0,0.4,0.1,0.8,0.4,1.1c0.2,0.3,0.6,0.4,1,0.4
		c0.4,0,0.7-0.1,0.9-0.4C1184.1,146.3,1184.3,146,1184.3,145.5z"/>
	<path d="M1190.1,143.1h1.1v4.8h-1.1v-0.5c-0.5,0.4-0.9,0.6-1.5,0.6c-0.7,0-1.2-0.2-1.6-0.7c-0.4-0.5-0.6-1.1-0.6-1.8
		c0-0.7,0.2-1.3,0.6-1.8c0.4-0.5,1-0.7,1.6-0.7c0.6,0,1,0.2,1.5,0.7V143.1z M1187.5,145.5c0,0.5,0.1,0.8,0.4,1.1
		c0.3,0.3,0.6,0.4,0.9,0.4c0.4,0,0.7-0.1,1-0.4c0.3-0.3,0.4-0.7,0.4-1.1s-0.1-0.8-0.4-1.1c-0.2-0.3-0.6-0.4-1-0.4
		c-0.4,0-0.7,0.1-0.9,0.4C1187.6,144.7,1187.5,145.1,1187.5,145.5z"/>
	<path d="M1192.5,143.1h1.1v0.4c0.4-0.4,0.8-0.6,1.3-0.6c0.6,0,1,0.2,1.3,0.5c0.3,0.3,0.4,0.8,0.4,1.5v2.9h-1.1v-2.7
		c0-0.5-0.1-0.8-0.2-1c-0.1-0.2-0.4-0.3-0.7-0.3c-0.4,0-0.6,0.1-0.8,0.4c-0.1,0.2-0.2,0.7-0.2,1.2v2.3h-1.1V143.1z"/>
	<path d="M1197.9,141.2c0-0.2,0.1-0.4,0.2-0.5c0.1-0.1,0.3-0.2,0.5-0.2c0.2,0,0.4,0.1,0.5,0.2c0.1,0.1,0.2,0.3,0.2,0.5
		s-0.1,0.4-0.2,0.5c-0.1,0.1-0.3,0.2-0.5,0.2c-0.2,0-0.4-0.1-0.5-0.2C1197.9,141.5,1197.9,141.4,1197.9,141.2z M1199.1,143.1v4.8
		h-1.1v-4.8H1199.1z"/>
	<path d="M1204.2,143.3v1.5c-0.2-0.3-0.5-0.5-0.7-0.6c-0.2-0.1-0.4-0.2-0.7-0.2c-0.4,0-0.8,0.1-1,0.4s-0.4,0.7-0.4,1.1
		c0,0.4,0.1,0.8,0.4,1.1c0.3,0.3,0.6,0.4,1,0.4c0.3,0,0.5-0.1,0.7-0.2c0.2-0.1,0.4-0.3,0.7-0.6v1.5c-0.4,0.2-0.9,0.3-1.3,0.3
		c-0.7,0-1.4-0.2-1.8-0.7c-0.5-0.5-0.7-1.1-0.7-1.8s0.3-1.3,0.8-1.8c0.5-0.5,1.1-0.7,1.8-0.7C1203.4,143,1203.8,143.1,1204.2,143.3z
		"/>
	<path d="M1213,146.1h-3.2l-0.8,1.8h-1.2l3.7-8l3.6,8h-1.2L1213,146.1z M1212.5,145l-1.1-2.6l-1.2,2.6H1212.5z"/>
	<path d="M1218.5,143.9l-0.9,0.5c-0.1-0.3-0.3-0.4-0.5-0.4c-0.1,0-0.2,0-0.3,0.1c-0.1,0.1-0.1,0.2-0.1,0.3c0,0.2,0.2,0.4,0.6,0.5
		c0.6,0.3,1,0.5,1.2,0.7c0.2,0.2,0.3,0.5,0.3,0.9c0,0.5-0.2,0.8-0.5,1.2c-0.3,0.3-0.7,0.4-1.2,0.4c-0.8,0-1.4-0.4-1.7-1.2l0.9-0.4
		c0.1,0.2,0.2,0.4,0.3,0.4c0.1,0.1,0.3,0.2,0.5,0.2c0.4,0,0.6-0.2,0.6-0.5c0-0.2-0.1-0.4-0.4-0.5c-0.1-0.1-0.2-0.1-0.3-0.2
		c-0.1-0.1-0.2-0.1-0.3-0.2c-0.3-0.2-0.5-0.3-0.7-0.5c-0.2-0.2-0.2-0.5-0.2-0.8c0-0.4,0.1-0.8,0.4-1c0.3-0.3,0.6-0.4,1.1-0.4
		C1217.8,143,1218.2,143.3,1218.5,143.9z"/>
	<path d="M1219.7,141.2c0-0.2,0.1-0.4,0.2-0.5c0.1-0.1,0.3-0.2,0.5-0.2c0.2,0,0.4,0.1,0.5,0.2c0.1,0.1,0.2,0.3,0.2,0.5
		s-0.1,0.4-0.2,0.5c-0.1,0.1-0.3,0.2-0.5,0.2c-0.2,0-0.4-0.1-0.5-0.2C1219.7,141.5,1219.7,141.4,1219.7,141.2z M1220.9,143.1v4.8
		h-1.1v-4.8H1220.9z"/>
	<path d="M1225.8,143.1h1.1v4.8h-1.1v-0.5c-0.5,0.4-0.9,0.6-1.5,0.6c-0.7,0-1.2-0.2-1.6-0.7c-0.4-0.5-0.6-1.1-0.6-1.8
		c0-0.7,0.2-1.3,0.6-1.8c0.4-0.5,1-0.7,1.6-0.7c0.6,0,1,0.2,1.5,0.7V143.1z M1223.2,145.5c0,0.5,0.1,0.8,0.4,1.1
		c0.3,0.3,0.6,0.4,0.9,0.4c0.4,0,0.7-0.1,1-0.4c0.3-0.3,0.4-0.7,0.4-1.1s-0.1-0.8-0.4-1.1c-0.2-0.3-0.6-0.4-1-0.4
		c-0.4,0-0.7,0.1-0.9,0.4C1223.4,144.7,1223.2,145.1,1223.2,145.5z"/>
	<path d="M1228.3,143.1h1.1v0.4c0.4-0.4,0.8-0.6,1.3-0.6c0.6,0,1,0.2,1.3,0.5c0.3,0.3,0.4,0.8,0.4,1.5v2.9h-1.1v-2.7
		c0-0.5-0.1-0.8-0.2-1c-0.1-0.2-0.4-0.3-0.7-0.3c-0.4,0-0.6,0.1-0.8,0.4c-0.1,0.2-0.2,0.7-0.2,1.2v2.3h-1.1V143.1z"/>
</g>
<g>
	<path pointer-events="none" class="st3" d="M1127.8,151.9h67.7v11h-67.7V151.9z"/>
</g>
<g pointer-events="none">
	<g>
		<path class="st8" d="M1128.8,152.9h10v10h-10V152.9z"/>
	</g>
</g>
<g class="st5">
	<path d="M1144.7,160.9v-8.1l5.5,5.8v-5.2h1.1v8l-5.5-5.7v5.3H1144.7z"/>
	<path d="M1152.8,158.5c0-0.7,0.2-1.3,0.7-1.8c0.5-0.5,1.1-0.7,1.8-0.7c0.7,0,1.3,0.2,1.8,0.7c0.5,0.5,0.7,1.1,0.7,1.8
		c0,0.7-0.2,1.3-0.7,1.8c-0.5,0.5-1.1,0.7-1.8,0.7c-0.7,0-1.3-0.2-1.8-0.7C1153,159.8,1152.8,159.2,1152.8,158.5z M1153.9,158.5
		c0,0.5,0.1,0.9,0.4,1.1c0.3,0.3,0.6,0.4,1,0.4c0.4,0,0.8-0.1,1-0.4c0.3-0.3,0.4-0.6,0.4-1.1s-0.1-0.8-0.4-1.1
		c-0.3-0.3-0.6-0.4-1-0.4c-0.4,0-0.8,0.1-1,0.4C1154,157.7,1153.9,158.1,1153.9,158.5z"/>
	<path d="M1159,156.1h1.1v0.4c0.4-0.4,0.8-0.6,1.3-0.6c0.6,0,1,0.2,1.3,0.5c0.3,0.3,0.4,0.8,0.4,1.5v2.9h-1.1v-2.7
		c0-0.5-0.1-0.8-0.2-1c-0.1-0.2-0.4-0.3-0.7-0.3c-0.4,0-0.6,0.1-0.8,0.4c-0.1,0.2-0.2,0.7-0.2,1.2v2.3h-1.1V156.1z"/>
	<path d="M1163.8,158h2.2v1h-2.2V158z"/>
	<path d="M1168,156.3h3.3v-2.9h1.1v7.5h-1.1v-3.5h-3.3v3.5h-1.1v-7.5h1.1V156.3z"/>
	<path d="M1173.8,154.2c0-0.2,0.1-0.4,0.2-0.5c0.1-0.1,0.3-0.2,0.5-0.2c0.2,0,0.4,0.1,0.5,0.2c0.1,0.1,0.2,0.3,0.2,0.5
		s-0.1,0.4-0.2,0.5c-0.1,0.1-0.3,0.2-0.5,0.2c-0.2,0-0.4-0.1-0.5-0.2C1173.9,154.5,1173.8,154.4,1173.8,154.2z M1175.1,156.1v4.8
		h-1.1v-4.8H1175.1z"/>
	<path d="M1179.3,156.9l-0.9,0.5c-0.1-0.3-0.3-0.4-0.5-0.4c-0.1,0-0.2,0-0.3,0.1c-0.1,0.1-0.1,0.2-0.1,0.3c0,0.2,0.2,0.4,0.6,0.5
		c0.6,0.3,1,0.5,1.2,0.7c0.2,0.2,0.3,0.5,0.3,0.9c0,0.5-0.2,0.8-0.5,1.2c-0.3,0.3-0.7,0.4-1.2,0.4c-0.8,0-1.4-0.4-1.7-1.2l0.9-0.4
		c0.1,0.2,0.2,0.4,0.3,0.4c0.1,0.1,0.3,0.2,0.5,0.2c0.4,0,0.6-0.2,0.6-0.5c0-0.2-0.1-0.4-0.4-0.5c-0.1-0.1-0.2-0.1-0.3-0.2
		c-0.1-0.1-0.2-0.1-0.3-0.2c-0.3-0.2-0.5-0.3-0.7-0.5c-0.2-0.2-0.2-0.5-0.2-0.8c0-0.4,0.1-0.8,0.4-1c0.3-0.3,0.6-0.4,1.1-0.4
		C1178.5,156,1179,156.3,1179.3,156.9z"/>
	<path d="M1181.7,163.5h-1.1v-7.3h1.1v0.5c0.4-0.4,0.9-0.6,1.5-0.6c0.7,0,1.2,0.2,1.6,0.7c0.4,0.5,0.6,1.1,0.6,1.8
		c0,0.7-0.2,1.3-0.6,1.8c-0.4,0.5-1,0.7-1.6,0.7c-0.6,0-1.1-0.2-1.5-0.7V163.5z M1184.3,158.5c0-0.5-0.1-0.8-0.4-1.1
		c-0.2-0.3-0.6-0.4-0.9-0.4c-0.4,0-0.7,0.1-1,0.4c-0.2,0.3-0.4,0.6-0.4,1.1c0,0.4,0.1,0.8,0.4,1.1c0.2,0.3,0.6,0.4,1,0.4
		c0.4,0,0.7-0.1,0.9-0.4C1184.1,159.3,1184.3,159,1184.3,158.5z"/>
	<path d="M1190.1,156.1h1.1v4.8h-1.1v-0.5c-0.5,0.4-0.9,0.6-1.5,0.6c-0.7,0-1.2-0.2-1.6-0.7c-0.4-0.5-0.6-1.1-0.6-1.8
		c0-0.7,0.2-1.3,0.6-1.8c0.4-0.5,1-0.7,1.6-0.7c0.6,0,1,0.2,1.5,0.7V156.1z M1187.5,158.5c0,0.5,0.1,0.8,0.4,1.1
		c0.3,0.3,0.6,0.4,0.9,0.4c0.4,0,0.7-0.1,1-0.4c0.3-0.3,0.4-0.7,0.4-1.1s-0.1-0.8-0.4-1.1c-0.2-0.3-0.6-0.4-1-0.4
		c-0.4,0-0.7,0.1-0.9,0.4C1187.6,157.7,1187.5,158.1,1187.5,158.5z"/>
	<path d="M1192.5,156.1h1.1v0.4c0.4-0.4,0.8-0.6,1.3-0.6c0.6,0,1,0.2,1.3,0.5c0.3,0.3,0.4,0.8,0.4,1.5v2.9h-1.1v-2.7
		c0-0.5-0.1-0.8-0.2-1c-0.1-0.2-0.4-0.3-0.7-0.3c-0.4,0-0.6,0.1-0.8,0.4c-0.1,0.2-0.2,0.7-0.2,1.2v2.3h-1.1V156.1z"/>
	<path d="M1197.9,154.2c0-0.2,0.1-0.4,0.2-0.5c0.1-0.1,0.3-0.2,0.5-0.2c0.2,0,0.4,0.1,0.5,0.2c0.1,0.1,0.2,0.3,0.2,0.5
		s-0.1,0.4-0.2,0.5c-0.1,0.1-0.3,0.2-0.5,0.2c-0.2,0-0.4-0.1-0.5-0.2C1197.9,154.5,1197.9,154.4,1197.9,154.2z M1199.1,156.1v4.8
		h-1.1v-4.8H1199.1z"/>
	<path d="M1204.2,156.3v1.5c-0.2-0.3-0.5-0.5-0.7-0.6c-0.2-0.1-0.4-0.2-0.7-0.2c-0.4,0-0.8,0.1-1,0.4s-0.4,0.7-0.4,1.1
		c0,0.4,0.1,0.8,0.4,1.1c0.3,0.3,0.6,0.4,1,0.4c0.3,0,0.5-0.1,0.7-0.2c0.2-0.1,0.4-0.3,0.7-0.6v1.5c-0.4,0.2-0.9,0.3-1.3,0.3
		c-0.7,0-1.4-0.2-1.8-0.7c-0.5-0.5-0.7-1.1-0.7-1.8s0.3-1.3,0.8-1.8c0.5-0.5,1.1-0.7,1.8-0.7C1203.4,156,1203.8,156.1,1204.2,156.3z
		"/>
	<path d="M1208.6,160.9v-7.5h1.1c0.5,0,0.9,0,1.2,0.1c0.3,0.1,0.6,0.2,0.8,0.4c0.2,0.2,0.4,0.4,0.5,0.7c0.1,0.3,0.2,0.6,0.2,0.9
		c0,0.5-0.2,1-0.6,1.4c0.4,0.1,0.7,0.4,0.9,0.7c0.2,0.3,0.4,0.7,0.4,1.2c0,0.6-0.2,1.1-0.6,1.5c-0.2,0.3-0.5,0.4-0.8,0.5
		c-0.3,0.1-0.8,0.1-1.3,0.1H1208.6z M1209.7,156.6h0.4c0.4,0,0.7-0.1,0.9-0.3c0.2-0.2,0.3-0.5,0.3-0.8c0-0.4-0.1-0.6-0.3-0.8
		c-0.2-0.2-0.5-0.3-0.9-0.3h-0.4V156.6z M1209.7,159.8h0.7c0.5,0,0.9-0.1,1.1-0.3c0.3-0.2,0.4-0.5,0.4-0.8c0-0.3-0.1-0.6-0.4-0.8
		c-0.2-0.2-0.7-0.3-1.3-0.3h-0.6V159.8z"/>
	<path d="M1215.4,152.6v8.2h-1.1v-8.2H1215.4z"/>
	<path d="M1220.3,156.1h1.1v4.8h-1.1v-0.5c-0.5,0.4-0.9,0.6-1.5,0.6c-0.7,0-1.2-0.2-1.6-0.7c-0.4-0.5-0.6-1.1-0.6-1.8
		c0-0.7,0.2-1.3,0.6-1.8c0.4-0.5,1-0.7,1.6-0.7c0.6,0,1,0.2,1.5,0.7V156.1z M1217.7,158.5c0,0.5,0.1,0.8,0.4,1.1
		c0.3,0.3,0.6,0.4,0.9,0.4c0.4,0,0.7-0.1,1-0.4c0.3-0.3,0.4-0.7,0.4-1.1s-0.1-0.8-0.4-1.1c-0.2-0.3-0.6-0.4-1-0.4
		c-0.4,0-0.7,0.1-0.9,0.4C1217.8,157.7,1217.7,158.1,1217.7,158.5z"/>
	<path d="M1226.5,156.3v1.5c-0.2-0.3-0.5-0.5-0.7-0.6c-0.2-0.1-0.4-0.2-0.7-0.2c-0.4,0-0.8,0.1-1,0.4s-0.4,0.7-0.4,1.1
		c0,0.4,0.1,0.8,0.4,1.1c0.3,0.3,0.6,0.4,1,0.4c0.3,0,0.5-0.1,0.7-0.2c0.2-0.1,0.4-0.3,0.7-0.6v1.5c-0.4,0.2-0.9,0.3-1.3,0.3
		c-0.7,0-1.4-0.2-1.8-0.7c-0.5-0.5-0.7-1.1-0.7-1.8s0.3-1.3,0.8-1.8c0.5-0.5,1.1-0.7,1.8-0.7C1225.6,156,1226.1,156.1,1226.5,156.3z
		"/>
	<path d="M1228.9,152.6v5l1.5-1.5h1.5l-2.1,2l2.2,2.8h-1.4l-1.6-2l-0.2,0.2v1.8h-1.1v-8.2H1228.9z"/>
</g>
<g>
	<path pointer-events="none" class="st3" d="M1127.8,164.9h67.7v11h-67.7V164.9z"/>
</g>
<g pointer-events="none">
	<g>
		<path class="st9" d="M1128.8,165.9h10v10h-10V165.9z"/>
	</g>
</g>
<g class="st5">
	<path d="M1144.7,173.9v-8.1l5.5,5.8v-5.2h1.1v8l-5.5-5.7v5.3H1144.7z"/>
	<path d="M1152.8,171.5c0-0.7,0.2-1.3,0.7-1.8c0.5-0.5,1.1-0.7,1.8-0.7c0.7,0,1.3,0.2,1.8,0.7c0.5,0.5,0.7,1.1,0.7,1.8
		c0,0.7-0.2,1.3-0.7,1.8c-0.5,0.5-1.1,0.7-1.8,0.7c-0.7,0-1.3-0.2-1.8-0.7C1153,172.8,1152.8,172.2,1152.8,171.5z M1153.9,171.5
		c0,0.5,0.1,0.9,0.4,1.1c0.3,0.3,0.6,0.4,1,0.4c0.4,0,0.8-0.1,1-0.4c0.3-0.3,0.4-0.6,0.4-1.1s-0.1-0.8-0.4-1.1
		c-0.3-0.3-0.6-0.4-1-0.4c-0.4,0-0.8,0.1-1,0.4C1154,170.7,1153.9,171.1,1153.9,171.5z"/>
	<path d="M1159,169.1h1.1v0.4c0.4-0.4,0.8-0.6,1.3-0.6c0.6,0,1,0.2,1.3,0.5c0.3,0.3,0.4,0.8,0.4,1.5v2.9h-1.1v-2.7
		c0-0.5-0.1-0.8-0.2-1c-0.1-0.2-0.4-0.3-0.7-0.3c-0.4,0-0.6,0.1-0.8,0.4c-0.1,0.2-0.2,0.7-0.2,1.2v2.3h-1.1V169.1z"/>
	<path d="M1163.8,171h2.2v1h-2.2V171z"/>
	<path d="M1168,169.3h3.3v-2.9h1.1v7.5h-1.1v-3.5h-3.3v3.5h-1.1v-7.5h1.1V169.3z"/>
	<path d="M1173.8,167.2c0-0.2,0.1-0.4,0.2-0.5c0.1-0.1,0.3-0.2,0.5-0.2c0.2,0,0.4,0.1,0.5,0.2c0.1,0.1,0.2,0.3,0.2,0.5
		s-0.1,0.4-0.2,0.5c-0.1,0.1-0.3,0.2-0.5,0.2c-0.2,0-0.4-0.1-0.5-0.2C1173.9,167.5,1173.8,167.4,1173.8,167.2z M1175.1,169.1v4.8
		h-1.1v-4.8H1175.1z"/>
	<path d="M1179.3,169.9l-0.9,0.5c-0.1-0.3-0.3-0.4-0.5-0.4c-0.1,0-0.2,0-0.3,0.1c-0.1,0.1-0.1,0.2-0.1,0.3c0,0.2,0.2,0.4,0.6,0.5
		c0.6,0.3,1,0.5,1.2,0.7c0.2,0.2,0.3,0.5,0.3,0.9c0,0.5-0.2,0.8-0.5,1.2c-0.3,0.3-0.7,0.4-1.2,0.4c-0.8,0-1.4-0.4-1.7-1.2l0.9-0.4
		c0.1,0.2,0.2,0.4,0.3,0.4c0.1,0.1,0.3,0.2,0.5,0.2c0.4,0,0.6-0.2,0.6-0.5c0-0.2-0.1-0.4-0.4-0.5c-0.1-0.1-0.2-0.1-0.3-0.2
		c-0.1-0.1-0.2-0.1-0.3-0.2c-0.3-0.2-0.5-0.3-0.7-0.5c-0.2-0.2-0.2-0.5-0.2-0.8c0-0.4,0.1-0.8,0.4-1c0.3-0.3,0.6-0.4,1.1-0.4
		C1178.5,169,1179,169.3,1179.3,169.9z"/>
	<path d="M1181.7,176.5h-1.1v-7.3h1.1v0.5c0.4-0.4,0.9-0.6,1.5-0.6c0.7,0,1.2,0.2,1.6,0.7c0.4,0.5,0.6,1.1,0.6,1.8
		c0,0.7-0.2,1.3-0.6,1.8c-0.4,0.5-1,0.7-1.6,0.7c-0.6,0-1.1-0.2-1.5-0.7V176.5z M1184.3,171.5c0-0.5-0.1-0.8-0.4-1.1
		c-0.2-0.3-0.6-0.4-0.9-0.4c-0.4,0-0.7,0.1-1,0.4c-0.2,0.3-0.4,0.6-0.4,1.1c0,0.4,0.1,0.8,0.4,1.1c0.2,0.3,0.6,0.4,1,0.4
		c0.4,0,0.7-0.1,0.9-0.4C1184.1,172.3,1184.3,172,1184.3,171.5z"/>
	<path d="M1190.1,169.1h1.1v4.8h-1.1v-0.5c-0.5,0.4-0.9,0.6-1.5,0.6c-0.7,0-1.2-0.2-1.6-0.7c-0.4-0.5-0.6-1.1-0.6-1.8
		c0-0.7,0.2-1.3,0.6-1.8c0.4-0.5,1-0.7,1.6-0.7c0.6,0,1,0.2,1.5,0.7V169.1z M1187.5,171.5c0,0.5,0.1,0.8,0.4,1.1
		c0.3,0.3,0.6,0.4,0.9,0.4c0.4,0,0.7-0.1,1-0.4c0.3-0.3,0.4-0.7,0.4-1.1s-0.1-0.8-0.4-1.1c-0.2-0.3-0.6-0.4-1-0.4
		c-0.4,0-0.7,0.1-0.9,0.4C1187.6,170.7,1187.5,171.1,1187.5,171.5z"/>
	<path d="M1192.5,169.1h1.1v0.4c0.4-0.4,0.8-0.6,1.3-0.6c0.6,0,1,0.2,1.3,0.5c0.3,0.3,0.4,0.8,0.4,1.5v2.9h-1.1v-2.7
		c0-0.5-0.1-0.8-0.2-1c-0.1-0.2-0.4-0.3-0.7-0.3c-0.4,0-0.6,0.1-0.8,0.4c-0.1,0.2-0.2,0.7-0.2,1.2v2.3h-1.1V169.1z"/>
	<path d="M1197.9,167.2c0-0.2,0.1-0.4,0.2-0.5c0.1-0.1,0.3-0.2,0.5-0.2c0.2,0,0.4,0.1,0.5,0.2c0.1,0.1,0.2,0.3,0.2,0.5
		s-0.1,0.4-0.2,0.5c-0.1,0.1-0.3,0.2-0.5,0.2c-0.2,0-0.4-0.1-0.5-0.2C1197.9,167.5,1197.9,167.4,1197.9,167.2z M1199.1,169.1v4.8
		h-1.1v-4.8H1199.1z"/>
	<path d="M1204.2,169.3v1.5c-0.2-0.3-0.5-0.5-0.7-0.6c-0.2-0.1-0.4-0.2-0.7-0.2c-0.4,0-0.8,0.1-1,0.4s-0.4,0.7-0.4,1.1
		c0,0.4,0.1,0.8,0.4,1.1c0.3,0.3,0.6,0.4,1,0.4c0.3,0,0.5-0.1,0.7-0.2c0.2-0.1,0.4-0.3,0.7-0.6v1.5c-0.4,0.2-0.9,0.3-1.3,0.3
		c-0.7,0-1.4-0.2-1.8-0.7c-0.5-0.5-0.7-1.1-0.7-1.8s0.3-1.3,0.8-1.8c0.5-0.5,1.1-0.7,1.8-0.7C1203.4,169,1203.8,169.1,1204.2,169.3z
		"/>
	<path d="M1208.6,173.9v-8.1l5.5,5.8v-5.2h1.1v8l-5.5-5.7v5.3H1208.6z"/>
	<path d="M1220.4,169.1h1.1v4.8h-1.1v-0.5c-0.5,0.4-0.9,0.6-1.5,0.6c-0.7,0-1.2-0.2-1.6-0.7c-0.4-0.5-0.6-1.1-0.6-1.8
		c0-0.7,0.2-1.3,0.6-1.8c0.4-0.5,1-0.7,1.6-0.7c0.6,0,1,0.2,1.5,0.7V169.1z M1217.8,171.5c0,0.5,0.1,0.8,0.4,1.1
		c0.3,0.3,0.6,0.4,0.9,0.4c0.4,0,0.7-0.1,1-0.4c0.3-0.3,0.4-0.7,0.4-1.1s-0.1-0.8-0.4-1.1c-0.2-0.3-0.6-0.4-1-0.4
		c-0.4,0-0.7,0.1-0.9,0.4C1217.9,170.7,1217.8,171.1,1217.8,171.5z"/>
	<path d="M1224,170.2v3.7h-1.1v-3.7h-0.5v-1h0.5v-1.7h1.1v1.7h0.9v1H1224z"/>
	<path d="M1225.5,167.2c0-0.2,0.1-0.4,0.2-0.5c0.1-0.1,0.3-0.2,0.5-0.2c0.2,0,0.4,0.1,0.5,0.2c0.1,0.1,0.2,0.3,0.2,0.5
		s-0.1,0.4-0.2,0.5c-0.1,0.1-0.3,0.2-0.5,0.2c-0.2,0-0.4-0.1-0.5-0.2C1225.5,167.5,1225.5,167.4,1225.5,167.2z M1226.7,169.1v4.8
		h-1.1v-4.8H1226.7z"/>
	<path d="M1228.7,169.1l1.2,2.7l1.2-2.7h1.2l-2.5,5.1l-2.5-5.1H1228.7z"/>
	<path d="M1237.3,171.8h-3.4c0,0.4,0.2,0.7,0.4,0.9c0.2,0.2,0.5,0.3,0.9,0.3c0.3,0,0.5-0.1,0.7-0.2c0.2-0.1,0.4-0.4,0.6-0.7l0.9,0.5
		c-0.1,0.2-0.3,0.5-0.5,0.6c-0.2,0.2-0.3,0.3-0.5,0.4c-0.2,0.1-0.4,0.2-0.6,0.2c-0.2,0.1-0.4,0.1-0.7,0.1c-0.7,0-1.3-0.2-1.7-0.7
		c-0.4-0.5-0.6-1.1-0.6-1.8c0-0.8,0.2-1.4,0.6-1.8c0.4-0.5,1-0.7,1.7-0.7c0.7,0,1.3,0.2,1.7,0.7c0.4,0.4,0.6,1.1,0.6,1.8
		L1237.3,171.8z M1236.2,170.9c-0.2-0.6-0.5-0.9-1.1-0.9c-0.1,0-0.3,0-0.4,0.1c-0.1,0-0.2,0.1-0.3,0.2c-0.1,0.1-0.2,0.2-0.2,0.3
		s-0.1,0.2-0.2,0.4H1236.2z"/>
</g>
<g class="st5">
	<path d="M1145.8,180.3h3.3v-2.9h1.1v7.5h-1.1v-3.5h-3.3v3.5h-1.1v-7.5h1.1V180.3z"/>
	<path d="M1155.3,180.1h1.1v4.8h-1.1v-0.5c-0.5,0.4-0.9,0.6-1.5,0.6c-0.7,0-1.2-0.2-1.6-0.7c-0.4-0.5-0.6-1.1-0.6-1.8
		c0-0.7,0.2-1.3,0.6-1.8c0.4-0.5,1-0.7,1.6-0.7c0.6,0,1,0.2,1.5,0.7V180.1z M1152.7,182.5c0,0.5,0.1,0.8,0.4,1.1
		c0.3,0.3,0.6,0.4,0.9,0.4c0.4,0,0.7-0.1,1-0.4c0.3-0.3,0.4-0.7,0.4-1.1s-0.1-0.8-0.4-1.1c-0.2-0.3-0.6-0.4-1-0.4
		c-0.4,0-0.7,0.1-0.9,0.4C1152.9,181.7,1152.7,182.1,1152.7,182.5z"/>
	<path d="M1158.5,180.1l1.2,2.7l1.3-3.1l1.4,3.1l1.2-2.7h1.2l-2.5,5.1l-1.3-3.1l-1.3,3.1l-2.5-5.1H1158.5z"/>
	<path d="M1169,180.1h1.1v4.8h-1.1v-0.5c-0.5,0.4-0.9,0.6-1.5,0.6c-0.7,0-1.2-0.2-1.6-0.7c-0.4-0.5-0.6-1.1-0.6-1.8
		c0-0.7,0.2-1.3,0.6-1.8c0.4-0.5,1-0.7,1.6-0.7c0.6,0,1,0.2,1.5,0.7V180.1z M1166.4,182.5c0,0.5,0.1,0.8,0.4,1.1
		c0.3,0.3,0.6,0.4,0.9,0.4c0.4,0,0.7-0.1,1-0.4c0.3-0.3,0.4-0.7,0.4-1.1s-0.1-0.8-0.4-1.1c-0.2-0.3-0.6-0.4-1-0.4
		c-0.4,0-0.7,0.1-0.9,0.4C1166.5,181.7,1166.4,182.1,1166.4,182.5z"/>
	<path d="M1171.3,178.2c0-0.2,0.1-0.4,0.2-0.5c0.1-0.1,0.3-0.2,0.5-0.2c0.2,0,0.4,0.1,0.5,0.2c0.1,0.1,0.2,0.3,0.2,0.5
		s-0.1,0.4-0.2,0.5c-0.1,0.1-0.3,0.2-0.5,0.2c-0.2,0-0.4-0.1-0.5-0.2C1171.4,178.5,1171.3,178.4,1171.3,178.2z M1172.6,180.1v4.8
		h-1.1v-4.8H1172.6z"/>
	<path d="M1173.8,178.2c0-0.2,0.1-0.4,0.2-0.5c0.1-0.1,0.3-0.2,0.5-0.2c0.2,0,0.4,0.1,0.5,0.2c0.1,0.1,0.2,0.3,0.2,0.5
		s-0.1,0.4-0.2,0.5c-0.1,0.1-0.3,0.2-0.5,0.2c-0.2,0-0.4-0.1-0.5-0.2C1173.9,178.5,1173.8,178.4,1173.8,178.2z M1175.1,180.1v4.8
		h-1.1v-4.8H1175.1z"/>
	<path d="M1180,180.1h1.1v4.8h-1.1v-0.5c-0.5,0.4-0.9,0.6-1.5,0.6c-0.7,0-1.2-0.2-1.6-0.7c-0.4-0.5-0.6-1.1-0.6-1.8
		c0-0.7,0.2-1.3,0.6-1.8c0.4-0.5,1-0.7,1.6-0.7c0.6,0,1,0.2,1.5,0.7V180.1z M1177.4,182.5c0,0.5,0.1,0.8,0.4,1.1
		c0.3,0.3,0.6,0.4,0.9,0.4c0.4,0,0.7-0.1,1-0.4c0.3-0.3,0.4-0.7,0.4-1.1s-0.1-0.8-0.4-1.1c-0.2-0.3-0.6-0.4-1-0.4
		c-0.4,0-0.7,0.1-0.9,0.4C1177.5,181.7,1177.4,182.1,1177.4,182.5z"/>
	<path d="M1182.5,180.1h1.1v0.4c0.4-0.4,0.8-0.6,1.3-0.6c0.6,0,1,0.2,1.3,0.5c0.3,0.3,0.4,0.8,0.4,1.5v2.9h-1.1v-2.7
		c0-0.5-0.1-0.8-0.2-1c-0.1-0.2-0.4-0.3-0.7-0.3c-0.4,0-0.6,0.1-0.8,0.4c-0.1,0.2-0.2,0.7-0.2,1.2v2.3h-1.1V180.1z"/>
	<path d="M1191.5,176.6l0.9,0.4l-4.3,10l-0.9-0.4L1191.5,176.6z"/>
	<path d="M1194.5,181.8v3.1h-1.1v-7.5h1.3c0.6,0,1.1,0,1.4,0.1c0.3,0.1,0.6,0.3,0.9,0.5c0.4,0.4,0.6,1,0.6,1.6
		c0,0.7-0.2,1.2-0.7,1.6c-0.5,0.4-1.1,0.6-1.9,0.6H1194.5z M1194.5,180.8h0.4c1,0,1.6-0.4,1.6-1.2c0-0.8-0.5-1.2-1.6-1.2h-0.4V180.8
		z"/>
	<path d="M1201.8,180.1h1.1v4.8h-1.1v-0.5c-0.5,0.4-0.9,0.6-1.5,0.6c-0.7,0-1.2-0.2-1.6-0.7c-0.4-0.5-0.6-1.1-0.6-1.8
		c0-0.7,0.2-1.3,0.6-1.8c0.4-0.5,1-0.7,1.6-0.7c0.6,0,1,0.2,1.5,0.7V180.1z M1199.2,182.5c0,0.5,0.1,0.8,0.4,1.1
		c0.3,0.3,0.6,0.4,0.9,0.4c0.4,0,0.7-0.1,1-0.4c0.3-0.3,0.4-0.7,0.4-1.1s-0.1-0.8-0.4-1.1c-0.2-0.3-0.6-0.4-1-0.4
		c-0.4,0-0.7,0.1-0.9,0.4C1199.3,181.7,1199.2,182.1,1199.2,182.5z"/>
	<path d="M1208,180.3v1.5c-0.2-0.3-0.5-0.5-0.7-0.6c-0.2-0.1-0.4-0.2-0.7-0.2c-0.4,0-0.8,0.1-1,0.4s-0.4,0.7-0.4,1.1
		c0,0.4,0.1,0.8,0.4,1.1c0.3,0.3,0.6,0.4,1,0.4c0.3,0,0.5-0.1,0.7-0.2c0.2-0.1,0.4-0.3,0.7-0.6v1.5c-0.4,0.2-0.9,0.3-1.3,0.3
		c-0.7,0-1.4-0.2-1.8-0.7c-0.5-0.5-0.7-1.1-0.7-1.8s0.3-1.3,0.8-1.8c0.5-0.5,1.1-0.7,1.8-0.7C1207.1,180,1207.5,180.1,1208,180.3z"
		/>
	<path d="M1208.9,178.2c0-0.2,0.1-0.4,0.2-0.5c0.1-0.1,0.3-0.2,0.5-0.2c0.2,0,0.4,0.1,0.5,0.2c0.1,0.1,0.2,0.3,0.2,0.5
		s-0.1,0.4-0.2,0.5c-0.1,0.1-0.3,0.2-0.5,0.2c-0.2,0-0.4-0.1-0.5-0.2C1208.9,178.5,1208.9,178.4,1208.9,178.2z M1210.1,180.1v4.8
		h-1.1v-4.8H1210.1z"/>
	<path d="M1212.6,181.2v3.7h-1.1v-3.7h-0.4v-1h0.4v-1.8c0-0.6,0.1-1,0.3-1.3c0.3-0.3,0.7-0.5,1.2-0.5c0.2,0,0.4,0.1,0.7,0.2v1.1
		l-0.1-0.1c-0.2-0.1-0.4-0.2-0.6-0.2c-0.2,0-0.3,0.1-0.4,0.2c-0.1,0.1-0.1,0.4-0.1,0.8v1.6h1.2v1H1212.6z"/>
	<path d="M1214.5,178.2c0-0.2,0.1-0.4,0.2-0.5c0.1-0.1,0.3-0.2,0.5-0.2c0.2,0,0.4,0.1,0.5,0.2c0.1,0.1,0.2,0.3,0.2,0.5
		s-0.1,0.4-0.2,0.5c-0.1,0.1-0.3,0.2-0.5,0.2c-0.2,0-0.4-0.1-0.5-0.2C1214.6,178.5,1214.5,178.4,1214.5,178.2z M1215.8,180.1v4.8
		h-1.1v-4.8H1215.8z"/>
	<path d="M1220.9,180.3v1.5c-0.2-0.3-0.5-0.5-0.7-0.6c-0.2-0.1-0.4-0.2-0.7-0.2c-0.4,0-0.8,0.1-1,0.4s-0.4,0.7-0.4,1.1
		c0,0.4,0.1,0.8,0.4,1.1c0.3,0.3,0.6,0.4,1,0.4c0.3,0,0.5-0.1,0.7-0.2c0.2-0.1,0.4-0.3,0.7-0.6v1.5c-0.4,0.2-0.9,0.3-1.3,0.3
		c-0.7,0-1.4-0.2-1.8-0.7c-0.5-0.5-0.7-1.1-0.7-1.8s0.3-1.3,0.8-1.8c0.5-0.5,1.1-0.7,1.8-0.7C1220,180,1220.5,180.1,1220.9,180.3z"
		/>
	<path d="M1226.4,177.4v7.5h-1.1v-7.5H1226.4z"/>
	<path d="M1230.7,180.9l-0.9,0.5c-0.1-0.3-0.3-0.4-0.5-0.4c-0.1,0-0.2,0-0.3,0.1c-0.1,0.1-0.1,0.2-0.1,0.3c0,0.2,0.2,0.4,0.6,0.5
		c0.6,0.3,1,0.5,1.2,0.7c0.2,0.2,0.3,0.5,0.3,0.9c0,0.5-0.2,0.8-0.5,1.2c-0.3,0.3-0.7,0.4-1.2,0.4c-0.8,0-1.4-0.4-1.7-1.2l0.9-0.4
		c0.1,0.2,0.2,0.4,0.3,0.4c0.1,0.1,0.3,0.2,0.5,0.2c0.4,0,0.6-0.2,0.6-0.5c0-0.2-0.1-0.4-0.4-0.5c-0.1-0.1-0.2-0.1-0.3-0.2
		c-0.1-0.1-0.2-0.1-0.3-0.2c-0.3-0.2-0.5-0.3-0.7-0.5c-0.2-0.2-0.2-0.5-0.2-0.8c0-0.4,0.1-0.8,0.4-1c0.3-0.3,0.6-0.4,1.1-0.4
		C1230,180,1230.4,180.3,1230.7,180.9z"/>
	<path d="M1233.1,176.6v8.2h-1.1v-8.2H1233.1z"/>
	<path d="M1238,180.1h1.1v4.8h-1.1v-0.5c-0.5,0.4-0.9,0.6-1.5,0.6c-0.7,0-1.2-0.2-1.6-0.7c-0.4-0.5-0.6-1.1-0.6-1.8
		c0-0.7,0.2-1.3,0.6-1.8c0.4-0.5,1-0.7,1.6-0.7c0.6,0,1,0.2,1.5,0.7V180.1z M1235.4,182.5c0,0.5,0.1,0.8,0.4,1.1
		c0.3,0.3,0.6,0.4,0.9,0.4c0.4,0,0.7-0.1,1-0.4c0.3-0.3,0.4-0.7,0.4-1.1s-0.1-0.8-0.4-1.1c-0.2-0.3-0.6-0.4-1-0.4
		c-0.4,0-0.7,0.1-0.9,0.4C1235.6,181.7,1235.4,182.1,1235.4,182.5z"/>
	<path d="M1240.5,180.1h1.1v0.4c0.4-0.4,0.8-0.6,1.3-0.6c0.6,0,1,0.2,1.3,0.5c0.3,0.3,0.4,0.8,0.4,1.5v2.9h-1.1v-2.7
		c0-0.5-0.1-0.8-0.2-1c-0.1-0.2-0.4-0.3-0.7-0.3c-0.4,0-0.6,0.1-0.8,0.4c-0.1,0.2-0.2,0.7-0.2,1.2v2.3h-1.1V180.1z"/>
	<path d="M1249.5,176.6h1.1v8.2h-1.1v-0.5c-0.4,0.4-0.9,0.6-1.5,0.6c-0.7,0-1.2-0.2-1.6-0.7c-0.4-0.5-0.6-1.1-0.6-1.8
		c0-0.7,0.2-1.3,0.6-1.8c0.4-0.5,1-0.7,1.6-0.7c0.6,0,1.1,0.2,1.5,0.7V176.6z M1246.9,182.5c0,0.5,0.1,0.8,0.4,1.1
		c0.3,0.3,0.6,0.4,0.9,0.4c0.4,0,0.7-0.1,1-0.4c0.3-0.3,0.4-0.7,0.4-1.1s-0.1-0.8-0.4-1.1c-0.3-0.3-0.6-0.4-1-0.4
		c-0.4,0-0.7,0.1-0.9,0.4C1247,181.7,1246.9,182.1,1246.9,182.5z"/>
</g>
<g>
	<path pointer-events="none" class="st3" d="M1127.8,187.9h67.7v11h-67.7V187.9z"/>
</g>
<g pointer-events="none">
	<g>
		<path class="st10" d="M1128.8,188.9h10v10h-10V188.9z"/>
	</g>
</g>
<g class="st5">
	<path d="M1144.7,197.9v-8.1l5.5,5.8v-5.2h1.1v8l-5.5-5.7v5.3H1144.7z"/>
	<path d="M1152.8,195.5c0-0.7,0.2-1.3,0.7-1.8c0.5-0.5,1.1-0.7,1.8-0.7c0.7,0,1.3,0.2,1.8,0.7c0.5,0.5,0.7,1.1,0.7,1.8
		c0,0.7-0.2,1.3-0.7,1.8c-0.5,0.5-1.1,0.7-1.8,0.7c-0.7,0-1.3-0.2-1.8-0.7C1153,196.8,1152.8,196.2,1152.8,195.5z M1153.9,195.5
		c0,0.5,0.1,0.9,0.4,1.1c0.3,0.3,0.6,0.4,1,0.4c0.4,0,0.8-0.1,1-0.4c0.3-0.3,0.4-0.6,0.4-1.1s-0.1-0.8-0.4-1.1
		c-0.3-0.3-0.6-0.4-1-0.4c-0.4,0-0.8,0.1-1,0.4C1154,194.7,1153.9,195.1,1153.9,195.5z"/>
	<path d="M1159,193.1h1.1v0.4c0.4-0.4,0.8-0.6,1.3-0.6c0.6,0,1,0.2,1.3,0.5c0.3,0.3,0.4,0.8,0.4,1.5v2.9h-1.1v-2.7
		c0-0.5-0.1-0.8-0.2-1c-0.1-0.2-0.4-0.3-0.7-0.3c-0.4,0-0.6,0.1-0.8,0.4c-0.1,0.2-0.2,0.7-0.2,1.2v2.3h-1.1V193.1z"/>
	<path d="M1163.8,195h2.2v1h-2.2V195z"/>
	<path d="M1168,193.3h3.3v-2.9h1.1v7.5h-1.1v-3.5h-3.3v3.5h-1.1v-7.5h1.1V193.3z"/>
	<path d="M1173.8,191.2c0-0.2,0.1-0.4,0.2-0.5c0.1-0.1,0.3-0.2,0.5-0.2c0.2,0,0.4,0.1,0.5,0.2c0.1,0.1,0.2,0.3,0.2,0.5
		s-0.1,0.4-0.2,0.5c-0.1,0.1-0.3,0.2-0.5,0.2c-0.2,0-0.4-0.1-0.5-0.2C1173.9,191.5,1173.8,191.4,1173.8,191.2z M1175.1,193.1v4.8
		h-1.1v-4.8H1175.1z"/>
	<path d="M1179.3,193.9l-0.9,0.5c-0.1-0.3-0.3-0.4-0.5-0.4c-0.1,0-0.2,0-0.3,0.1c-0.1,0.1-0.1,0.2-0.1,0.3c0,0.2,0.2,0.4,0.6,0.5
		c0.6,0.3,1,0.5,1.2,0.7c0.2,0.2,0.3,0.5,0.3,0.9c0,0.5-0.2,0.8-0.5,1.2c-0.3,0.3-0.7,0.4-1.2,0.4c-0.8,0-1.4-0.4-1.7-1.2l0.9-0.4
		c0.1,0.2,0.2,0.4,0.3,0.4c0.1,0.1,0.3,0.2,0.5,0.2c0.4,0,0.6-0.2,0.6-0.5c0-0.2-0.1-0.4-0.4-0.5c-0.1-0.1-0.2-0.1-0.3-0.2
		c-0.1-0.1-0.2-0.1-0.3-0.2c-0.3-0.2-0.5-0.3-0.7-0.5c-0.2-0.2-0.2-0.5-0.2-0.8c0-0.4,0.1-0.8,0.4-1c0.3-0.3,0.6-0.4,1.1-0.4
		C1178.5,193,1179,193.3,1179.3,193.9z"/>
	<path d="M1181.7,200.5h-1.1v-7.3h1.1v0.5c0.4-0.4,0.9-0.6,1.5-0.6c0.7,0,1.2,0.2,1.6,0.7c0.4,0.5,0.6,1.1,0.6,1.8
		c0,0.7-0.2,1.3-0.6,1.8c-0.4,0.5-1,0.7-1.6,0.7c-0.6,0-1.1-0.2-1.5-0.7V200.5z M1184.3,195.5c0-0.5-0.1-0.8-0.4-1.1
		c-0.2-0.3-0.6-0.4-0.9-0.4c-0.4,0-0.7,0.1-1,0.4c-0.2,0.3-0.4,0.6-0.4,1.1c0,0.4,0.1,0.8,0.4,1.1c0.2,0.3,0.6,0.4,1,0.4
		c0.4,0,0.7-0.1,0.9-0.4C1184.1,196.3,1184.3,196,1184.3,195.5z"/>
	<path d="M1190.1,193.1h1.1v4.8h-1.1v-0.5c-0.5,0.4-0.9,0.6-1.5,0.6c-0.7,0-1.2-0.2-1.6-0.7c-0.4-0.5-0.6-1.1-0.6-1.8
		c0-0.7,0.2-1.3,0.6-1.8c0.4-0.5,1-0.7,1.6-0.7c0.6,0,1,0.2,1.5,0.7V193.1z M1187.5,195.5c0,0.5,0.1,0.8,0.4,1.1
		c0.3,0.3,0.6,0.4,0.9,0.4c0.4,0,0.7-0.1,1-0.4c0.3-0.3,0.4-0.7,0.4-1.1s-0.1-0.8-0.4-1.1c-0.2-0.3-0.6-0.4-1-0.4
		c-0.4,0-0.7,0.1-0.9,0.4C1187.6,194.7,1187.5,195.1,1187.5,195.5z"/>
	<path d="M1192.5,193.1h1.1v0.4c0.4-0.4,0.8-0.6,1.3-0.6c0.6,0,1,0.2,1.3,0.5c0.3,0.3,0.4,0.8,0.4,1.5v2.9h-1.1v-2.7
		c0-0.5-0.1-0.8-0.2-1c-0.1-0.2-0.4-0.3-0.7-0.3c-0.4,0-0.6,0.1-0.8,0.4c-0.1,0.2-0.2,0.7-0.2,1.2v2.3h-1.1V193.1z"/>
	<path d="M1197.9,191.2c0-0.2,0.1-0.4,0.2-0.5c0.1-0.1,0.3-0.2,0.5-0.2c0.2,0,0.4,0.1,0.5,0.2c0.1,0.1,0.2,0.3,0.2,0.5
		s-0.1,0.4-0.2,0.5c-0.1,0.1-0.3,0.2-0.5,0.2c-0.2,0-0.4-0.1-0.5-0.2C1197.9,191.5,1197.9,191.4,1197.9,191.2z M1199.1,193.1v4.8
		h-1.1v-4.8H1199.1z"/>
	<path d="M1204.2,193.3v1.5c-0.2-0.3-0.5-0.5-0.7-0.6c-0.2-0.1-0.4-0.2-0.7-0.2c-0.4,0-0.8,0.1-1,0.4s-0.4,0.7-0.4,1.1
		c0,0.4,0.1,0.8,0.4,1.1c0.3,0.3,0.6,0.4,1,0.4c0.3,0,0.5-0.1,0.7-0.2c0.2-0.1,0.4-0.3,0.7-0.6v1.5c-0.4,0.2-0.9,0.3-1.3,0.3
		c-0.7,0-1.4-0.2-1.8-0.7c-0.5-0.5-0.7-1.1-0.7-1.8s0.3-1.3,0.8-1.8c0.5-0.5,1.1-0.7,1.8-0.7C1203.4,193,1203.8,193.1,1204.2,193.3z
		"/>
	<path d="M1209,190.4l2,5l2.1-5.4l2,5.4l2.1-5h1.2l-3.4,8l-1.9-5.3l-2,5.3l-3.2-8H1209z"/>
	<path d="M1219,189.6h1.1v3.9c0.4-0.4,0.8-0.5,1.3-0.5c0.5,0,1,0.2,1.3,0.5c0.3,0.3,0.4,0.8,0.4,1.5v2.9h-1.1v-2.8
		c0-0.4-0.1-0.7-0.2-0.8c-0.1-0.2-0.4-0.3-0.7-0.3c-0.4,0-0.7,0.1-0.8,0.4c-0.2,0.2-0.2,0.7-0.2,1.2v2.3h-1.1V189.6z"/>
	<path d="M1224.3,191.2c0-0.2,0.1-0.4,0.2-0.5c0.1-0.1,0.3-0.2,0.5-0.2c0.2,0,0.4,0.1,0.5,0.2c0.1,0.1,0.2,0.3,0.2,0.5
		s-0.1,0.4-0.2,0.5c-0.1,0.1-0.3,0.2-0.5,0.2c-0.2,0-0.4-0.1-0.5-0.2C1224.4,191.5,1224.3,191.4,1224.3,191.2z M1225.6,193.1v4.8
		h-1.1v-4.8H1225.6z"/>
	<path d="M1228.1,194.2v3.7h-1.1v-3.7h-0.5v-1h0.5v-1.7h1.1v1.7h0.9v1H1228.1z"/>
	<path d="M1234.1,195.8h-3.4c0,0.4,0.2,0.7,0.4,0.9c0.2,0.2,0.5,0.3,0.9,0.3c0.3,0,0.5-0.1,0.7-0.2c0.2-0.1,0.4-0.4,0.6-0.7l0.9,0.5
		c-0.1,0.2-0.3,0.5-0.5,0.6c-0.2,0.2-0.3,0.3-0.5,0.4c-0.2,0.1-0.4,0.2-0.6,0.2c-0.2,0.1-0.4,0.1-0.7,0.1c-0.7,0-1.3-0.2-1.7-0.7
		c-0.4-0.5-0.6-1.1-0.6-1.8c0-0.8,0.2-1.4,0.6-1.8c0.4-0.5,1-0.7,1.7-0.7c0.7,0,1.3,0.2,1.7,0.7c0.4,0.4,0.6,1.1,0.6,1.8
		L1234.1,195.8z M1233,194.9c-0.2-0.6-0.5-0.9-1.1-0.9c-0.1,0-0.3,0-0.4,0.1c-0.1,0-0.2,0.1-0.3,0.2c-0.1,0.1-0.2,0.2-0.2,0.3
		s-0.1,0.2-0.2,0.4H1233z"/>
</g>
<path class="st11" d="M109.2,83.2h1000v500h-1000L109.2,83.2L109.2,83.2z"/>
<g pointer-events="none">
	<line class="st12" x1="109.2" y1="583.2" x2="109.2" y2="83.2"/>
	<line class="st12" x1="159.2" y1="583.2" x2="159.2" y2="83.2"/>
	<line class="st12" x1="209.2" y1="583.2" x2="209.2" y2="83.2"/>
	<line class="st12" x1="259.2" y1="583.2" x2="259.2" y2="83.2"/>
	<line class="st12" x1="309.2" y1="583.2" x2="309.2" y2="83.2"/>
	<line class="st12" x1="359.2" y1="583.2" x2="359.2" y2="83.2"/>
	<line class="st12" x1="409.2" y1="583.2" x2="409.2" y2="83.2"/>
	<line class="st12" x1="459.2" y1="583.2" x2="459.2" y2="83.2"/>
	<line class="st12" x1="509.2" y1="583.2" x2="509.2" y2="83.2"/>
	<line class="st12" x1="559.2" y1="583.2" x2="559.2" y2="83.2"/>
	<line class="st12" x1="609.2" y1="583.2" x2="609.2" y2="83.2"/>
	<line class="st12" x1="659.2" y1="583.2" x2="659.2" y2="83.2"/>
	<line class="st12" x1="709.2" y1="583.2" x2="709.2" y2="83.2"/>
	<line class="st12" x1="759.2" y1="583.2" x2="759.2" y2="83.2"/>
	<line class="st12" x1="809.2" y1="583.2" x2="809.2" y2="83.2"/>
	<line class="st12" x1="859.2" y1="583.2" x2="859.2" y2="83.2"/>
	<line class="st12" x1="909.2" y1="583.2" x2="909.2" y2="83.2"/>
	<line class="st12" x1="959.2" y1="583.2" x2="959.2" y2="83.2"/>
	<line class="st12" x1="1009.2" y1="583.2" x2="1009.2" y2="83.2"/>
	<line class="st12" x1="1059.2" y1="583.2" x2="1059.2" y2="83.2"/>
	<line class="st12" x1="1109.2" y1="583.2" x2="1109.2" y2="83.2"/>
</g>
<g pointer-events="none">
	<line class="st13" x1="109.2" y1="583.2" x2="109.2" y2="588.2"/>
	<line class="st13" x1="159.2" y1="583.2" x2="159.2" y2="588.2"/>
	<line class="st13" x1="209.2" y1="583.2" x2="209.2" y2="588.2"/>
	<line class="st13" x1="259.2" y1="583.2" x2="259.2" y2="588.2"/>
	<line class="st13" x1="309.2" y1="583.2" x2="309.2" y2="588.2"/>
	<line class="st13" x1="359.2" y1="583.2" x2="359.2" y2="588.2"/>
	<line class="st13" x1="409.2" y1="583.2" x2="409.2" y2="588.2"/>
	<line class="st13" x1="459.2" y1="583.2" x2="459.2" y2="588.2"/>
	<line class="st13" x1="509.2" y1="583.2" x2="509.2" y2="588.2"/>
	<line class="st13" x1="559.2" y1="583.2" x2="559.2" y2="588.2"/>
	<line class="st13" x1="609.2" y1="583.2" x2="609.2" y2="588.2"/>
	<line class="st13" x1="659.2" y1="583.2" x2="659.2" y2="588.2"/>
	<line class="st13" x1="709.2" y1="583.2" x2="709.2" y2="588.2"/>
	<line class="st13" x1="759.2" y1="583.2" x2="759.2" y2="588.2"/>
	<line class="st13" x1="809.2" y1="583.2" x2="809.2" y2="588.2"/>
	<line class="st13" x1="859.2" y1="583.2" x2="859.2" y2="588.2"/>
	<line class="st13" x1="909.2" y1="583.2" x2="909.2" y2="588.2"/>
	<line class="st13" x1="959.2" y1="583.2" x2="959.2" y2="588.2"/>
	<line class="st13" x1="1009.2" y1="583.2" x2="1009.2" y2="588.2"/>
	<line class="st13" x1="1059.2" y1="583.2" x2="1059.2" y2="588.2"/>
	<line class="st13" x1="1109.2" y1="583.2" x2="1109.2" y2="588.2"/>
</g>
<g pointer-events="none">
	<text transform="matrix(1 0 0 1 109.24 598.24)" class="st14 st15">0%</text>
	<text transform="matrix(1 0 0 1 152.02 598.24)" class="st14 st15">5%</text>
	<text transform="matrix(1 0 0 1 199.24 598.24)" class="st14 st15">1</text>
	<text transform="matrix(1 0 0 1 204.81 598.24)" class="st14 st15">0%</text>
	<text transform="matrix(1 0 0 1 249.24 598.24)" class="st14 st15">1</text>
	<text transform="matrix(1 0 0 1 254.62 598.24)" class="st14 st15">5%</text>
	<text transform="matrix(1 0 0 1 299.24 598.24)" class="st14 st15">20%</text>
	<text transform="matrix(1 0 0 1 349.24 598.24)" class="st14 st15">25%</text>
	<text transform="matrix(1 0 0 1 399.24 598.24)" class="st14 st15">30%</text>
	<text transform="matrix(1 0 0 1 449.24 598.24)" class="st14 st15">35%</text>
	<text transform="matrix(1 0 0 1 499.24 598.24)" class="st14 st15">40%</text>
	<text transform="matrix(1 0 0 1 549.24 598.24)" class="st14 st15">45%</text>
	<text transform="matrix(1 0 0 1 599.24 598.24)" class="st14 st15">50%</text>
	<text transform="matrix(1 0 0 1 649.24 598.24)" class="st14 st15">55%</text>
	<text transform="matrix(1 0 0 1 699.24 598.24)" class="st14 st15">60%</text>
	<text transform="matrix(1 0 0 1 749.24 598.24)" class="st14 st15">65%</text>
	<text transform="matrix(1 0 0 1 799.24 598.24)" class="st14 st15">70%</text>
	<text transform="matrix(1 0 0 1 849.24 598.24)" class="st14 st15">75%</text>
	<text transform="matrix(1 0 0 1 899.24 598.24)" class="st14 st15">80%</text>
	<text transform="matrix(1 0 0 1 949.24 598.24)" class="st14 st15">85%</text>
	<text transform="matrix(1 0 0 1 999.24 598.24)" class="st14 st15">90%</text>
	<text transform="matrix(1 0 0 1 1049.24 598.24)" class="st14 st15">95%</text>
	<text transform="matrix(1 0 0 1 1083.67 598.24)" class="st14 st15">1</text>
	<text transform="matrix(1 0 0 1 1089.24 598.24)" class="st14 st15">00%</text>
</g>
<g pointer-events="none">
	<line class="st13" x1="109.2" y1="583.2" x2="1109.2" y2="583.2"/>
</g>
<g pointer-events="none">
	<line class="st13" x1="109.2" y1="87.2" x2="104.2" y2="87.2"/>
	<line class="st13" x1="109.2" y1="97.2" x2="104.2" y2="97.2"/>
	<line class="st13" x1="109.2" y1="107.2" x2="104.2" y2="107.2"/>
	<line class="st13" x1="109.2" y1="117.2" x2="104.2" y2="117.2"/>
	<line class="st13" x1="109.2" y1="127.2" x2="104.2" y2="127.2"/>
	<line class="st13" x1="109.2" y1="136.2" x2="104.2" y2="136.2"/>
	<line class="st13" x1="109.2" y1="146.2" x2="104.2" y2="146.2"/>
	<line class="st13" x1="109.2" y1="156.2" x2="104.2" y2="156.2"/>
	<line class="st13" x1="109.2" y1="166.2" x2="104.2" y2="166.2"/>
	<line class="st13" x1="109.2" y1="176.2" x2="104.2" y2="176.2"/>
	<line class="st13" x1="109.2" y1="185.2" x2="104.2" y2="185.2"/>
	<line class="st13" x1="109.2" y1="195.2" x2="104.2" y2="195.2"/>
	<line class="st13" x1="109.2" y1="205.2" x2="104.2" y2="205.2"/>
	<line class="st13" x1="109.2" y1="215.2" x2="104.2" y2="215.2"/>
	<line class="st13" x1="109.2" y1="225.2" x2="104.2" y2="225.2"/>
	<line class="st13" x1="109.2" y1="234.2" x2="104.2" y2="234.2"/>
	<line class="st13" x1="109.2" y1="244.2" x2="104.2" y2="244.2"/>
	<line class="st13" x1="109.2" y1="254.2" x2="104.2" y2="254.2"/>
	<line class="st13" x1="109.2" y1="264.2" x2="104.2" y2="264.2"/>
	<line class="st13" x1="109.2" y1="274.2" x2="104.2" y2="274.2"/>
	<line class="st13" x1="109.2" y1="283.2" x2="104.2" y2="283.2"/>
	<line class="st13" x1="109.2" y1="293.2" x2="104.2" y2="293.2"/>
	<line class="st13" x1="109.2" y1="303.2" x2="104.2" y2="303.2"/>
	<line class="st13" x1="109.2" y1="313.2" x2="104.2" y2="313.2"/>
	<line class="st13" x1="109.2" y1="323.2" x2="104.2" y2="323.2"/>
	<line class="st13" x1="109.2" y1="333.2" x2="104.2" y2="333.2"/>
	<line class="st13" x1="109.2" y1="342.2" x2="104.2" y2="342.2"/>
	<line class="st13" x1="109.2" y1="352.2" x2="104.2" y2="352.2"/>
	<line class="st13" x1="109.2" y1="362.2" x2="104.2" y2="362.2"/>
	<line class="st13" x1="109.2" y1="372.2" x2="104.2" y2="372.2"/>
	<line class="st13" x1="109.2" y1="382.2" x2="104.2" y2="382.2"/>
	<line class="st13" x1="109.2" y1="391.2" x2="104.2" y2="391.2"/>
	<line class="st13" x1="109.2" y1="401.2" x2="104.2" y2="401.2"/>
	<line class="st13" x1="109.2" y1="411.2" x2="104.2" y2="411.2"/>
	<line class="st13" x1="109.2" y1="421.2" x2="104.2" y2="421.2"/>
	<line class="st13" x1="109.2" y1="431.2" x2="104.2" y2="431.2"/>
	<line class="st13" x1="109.2" y1="440.2" x2="104.2" y2="440.2"/>
	<line class="st13" x1="109.2" y1="450.2" x2="104.2" y2="450.2"/>
	<line class="st13" x1="109.2" y1="460.2" x2="104.2" y2="460.2"/>
	<line class="st13" x1="109.2" y1="470.2" x2="104.2" y2="470.2"/>
	<line class="st13" x1="109.2" y1="480.2" x2="104.2" y2="480.2"/>
	<line class="st13" x1="109.2" y1="489.2" x2="104.2" y2="489.2"/>
	<line class="st13" x1="109.2" y1="499.2" x2="104.2" y2="499.2"/>
	<line class="st13" x1="109.2" y1="509.2" x2="104.2" y2="509.2"/>
	<line class="st13" x1="109.2" y1="519.2" x2="104.2" y2="519.2"/>
	<line class="st13" x1="109.2" y1="529.2" x2="104.2" y2="529.2"/>
	<line class="st13" x1="109.2" y1="538.2" x2="104.2" y2="538.2"/>
	<line class="st13" x1="109.2" y1="548.2" x2="104.2" y2="548.2"/>
	<line class="st13" x1="109.2" y1="558.2" x2="104.2" y2="558.2"/>
	<line class="st13" x1="109.2" y1="568.2" x2="104.2" y2="568.2"/>
	<line class="st13" x1="109.2" y1="578.2" x2="104.2" y2="578.2"/>
</g>
<text transform="matrix(1 0 0 1 87.6466 90.65)" class="st14 st15">AK</text>
<text transform="matrix(1 0 0 1 89.8391 100.45)" class="st14 st15">AL</text>
<text transform="matrix(1 0 0 1 88.2519 110.25)" class="st14 st15">AR</text>
<text transform="matrix(1 0 0 1 88.0225 120.06)" class="st14 st15">AZ</text>
<text transform="matrix(1 0 0 1 87.0824 129.86)" class="st14 st15">C</text>
<text transform="matrix(1 0 0 1 94.2724 129.86)" class="st14 st15">A</text>
<text transform="matrix(1 0 0 1 85.7839 139.66)" class="st14 st15">C</text>
<text transform="matrix(1 0 0 1 92.744 139.66)" class="st14 st15">O</text>
<text transform="matrix(1 0 0 1 89.8485 149.47)" class="st14 st15">CT</text>
<text transform="matrix(1 0 0 1 87.4123 159.27)" class="st14 st15">DC</text>
<text transform="matrix(1 0 0 1 88.7646 169.08)" class="st14 st15">DE</text>
<text transform="matrix(1 0 0 1 92.1633 178.88)" class="st14 st15">FL</text>
<text transform="matrix(1 0 0 1 86.1924 188.68)" class="st14 st15">G</text>
<text transform="matrix(1 0 0 1 94.2723 188.68)" class="st14 st15">A</text>
<text transform="matrix(1 0 0 1 91.3962 198.49)" class="st14 st15">HI</text>
<text transform="matrix(1 0 0 1 91.3232 208.29)" class="st14 st15">IA</text>
<text transform="matrix(1 0 0 1 91.4695 218.1)" class="st14 st15">ID</text>
<text transform="matrix(1 0 0 1 94.297 227.9)" class="st14 st15">IL</text>
<text transform="matrix(1 0 0 1 90.2878 237.7)" class="st14 st15">IN</text>
<text transform="matrix(1 0 0 1 89.4996 247.51)" class="st14 st15">K</text>
<text transform="matrix(1 0 0 1 95.8496 247.51)" class="st14 st15">S</text>
<text transform="matrix(1 0 0 1 89.0186 257.31)" class="st14 st15">KY</text>
<text transform="matrix(1 0 0 1 89.4226 267.12)" class="st14 st15">L</text>
<text transform="matrix(1 0 0 1 94.2726 267.12)" class="st14 st15">A</text>
<text transform="matrix(1 0 0 1 84.658 276.92)" class="st14 st15">MA</text>
<text transform="matrix(1 0 0 1 84.8047 286.72)" class="st14 st15">MD</text>
<text transform="matrix(1 0 0 1 86.4109 296.53)" class="st14 st15">ME</text>
<text transform="matrix(1 0 0 1 89.1163 306.33)" class="st14 st15">MI</text>
<text transform="matrix(1 0 0 1 83.6231 316.14)" class="st14 st15">MN</text>
<text transform="matrix(1 0 0 1 83.13 325.94)" class="st14 st15">MO</text>
<text transform="matrix(1 0 0 1 86.2351 335.74)" class="st14 st15">MS</text>
<text transform="matrix(1 0 0 1 87.2414 345.55)" class="st14 st15">MT</text>
<text transform="matrix(1 0 0 1 86.1628 355.35)" class="st14 st15">N</text>
<text transform="matrix(1 0 0 1 94.6728 355.35)" class="st14 st15">C</text>
<text transform="matrix(1 0 0 1 85.9767 365.16)" class="st14 st15">ND</text>
<text transform="matrix(1 0 0 1 87.5829 374.96)" class="st14 st15">NE</text>
<text transform="matrix(1 0 0 1 85.9035 384.76)" class="st14 st15">NH</text>
<text transform="matrix(1 0 0 1 89.1357 394.57)" class="st14 st15">NJ</text>
<text transform="matrix(1 0 0 1 83.6231 404.37)" class="st14 st15">NM</text>
<text transform="matrix(1 0 0 1 86.4745 414.17)" class="st14 st15">NV</text>
<text transform="matrix(1 0 0 1 87.2021 423.98)" class="st14 st15">NY</text>
<text transform="matrix(1 0 0 1 85.4099 433.78)" class="st14 st15">OH</text>
<text transform="matrix(1 0 0 1 86.1181 443.59)" class="st14 st15">OK</text>
<text transform="matrix(1 0 0 1 86.7234 453.39)" class="st14 st15">OR</text>
<text transform="matrix(1 0 0 1 89.4227 463.19)" class="st14 st15">P</text>
<text transform="matrix(1 0 0 1 94.2727 463.19)" class="st14 st15">A</text>
<text transform="matrix(1 0 0 1 92.7097 473)" class="st14 st15">RI</text>
<text transform="matrix(1 0 0 1 88.8427 482.8)" class="st14 st15">SC</text>
<text transform="matrix(1 0 0 1 88.5888 492.61)" class="st14 st15">SD</text>
<text transform="matrix(1 0 0 1 88.4129 502.41)" class="st14 st15">TN</text>
<text transform="matrix(1 0 0 1 90.6787 512.21)" class="st14 st15">TX</text>
<text transform="matrix(1 0 0 1 89.4676 522.02)" class="st14 st15">UT</text>
<text transform="matrix(1 0 0 1 88.1425 531.82)" class="st14 st15">V</text>
<text transform="matrix(1 0 0 1 94.2724 531.82)" class="st14 st15">A</text>
<text transform="matrix(1 0 0 1 89.6455 541.63)" class="st14 st15">V</text>
<text transform="matrix(1 0 0 1 96.8555 541.63)" class="st14 st15">T</text>
<text transform="matrix(1 0 0 1 84.3022 551.43)" class="st14 st15">W</text>
<text transform="matrix(1 0 0 1 94.2722 551.43)" class="st14 st15">A</text>
<text transform="matrix(1 0 0 1 88.1252 561.23)" class="st14 st15">WI</text>
<text transform="matrix(1 0 0 1 84.3116 571.04)" class="st14 st15">WV</text>
<text transform="matrix(1 0 0 1 85.0392 580.84)" class="st14 st15">WY</text>
<g pointer-events="none">
	<line class="st13" x1="109.2" y1="83.2" x2="109.2" y2="583.2"/>
</g>
<g>
	<path class="st4" d="M108.7,93h20.1v8.8h-20.1C108.7,101.9,108.7,93,108.7,93z"/>
	<path class="st6" d="M128.9,93h3.7v8.8h-3.7V93z"/>
	<path class="st7" d="M132.6,93h24.3v8.8h-24.3V93z"/>
	<path class="st8" d="M156.9,93h71.2v8.8h-71.2V93z"/>
	<path class="st9" d="M228.1,93h0.7v8.8h-0.7V93z"/>
	<path class="st10" d="M228.9,93h879.9v8.8H228.9V93z"/>
	<path class="st4" d="M108.7,83.2h32.1V92h-32.1C108.7,92.1,108.7,83.2,108.7,83.2z"/>
	<path class="st6" d="M140.8,83.2h124.8V92H140.8V83.2L140.8,83.2z"/>
	<path class="st7" d="M265.6,83.2h21.9V92h-21.9V83.2z"/>
	<path class="st8" d="M287.5,83.2h11.9V92h-11.9V83.2z"/>
	<path class="st9" d="M299.4,83.2h2.5V92h-2.5V83.2z"/>
	<path class="st10" d="M301.9,83.2h806.8V92H301.9V83.2z"/>
	<path class="st4" d="M108.7,112.7h92v8.8h-92V112.7z"/>
	<path class="st6" d="M200.8,112.7h9v8.8h-9V112.7z"/>
	<path class="st7" d="M209.8,112.7h72.7v8.8h-72.7V112.7L209.8,112.7z"/>
	<path class="st8" d="M282.5,112.7h24.1v8.8h-24.1V112.7z"/>
	<path class="st9" d="M306.6,112.7h1.3v8.8h-1.3V112.7z"/>
	<path class="st10" d="M307.9,112.7h800.8v8.8H307.9V112.7z"/>
	<path class="st4" d="M108.7,102.8h27v8.8h-27.1C108.7,111.7,108.7,102.8,108.7,102.8z"/>
	<path class="st6" d="M135.8,102.8h7.9v8.8h-7.9V102.8z"/>
	<path class="st7" d="M143.7,102.8H173v8.8h-29.3V102.8z"/>
	<path class="st8" d="M172.9,102.8h42v8.8h-42V102.8L172.9,102.8z"/>
	<path class="st9" d="M214.9,102.8h1.1v8.8h-1.1V102.8z"/>
	<path class="st10" d="M216,102.8h892.8v8.8H216V102.8z"/>
	<path class="st4" d="M108.7,122.4h79.6v8.8h-79.6C108.7,131.3,108.7,122.4,108.7,122.4z"/>
	<path class="st6" d="M188.3,122.4h2.6v8.8h-2.6C188.3,131.3,188.3,122.4,188.3,122.4z"/>
	<path class="st7" d="M190.9,122.4h270.4v8.8H190.9C190.9,131.3,190.9,122.4,190.9,122.4z"/>
	<path class="st8" d="M461.4,122.4h25.2v8.8h-25.2C461.4,131.3,461.4,122.4,461.4,122.4z"/>
	<path class="st9" d="M486.6,122.4h1.6v8.8h-1.6C486.6,131.3,486.6,122.4,486.6,122.4z"/>
	<path class="st10" d="M488.2,122.4h620.6v8.8H488.2C488.2,131.3,488.2,122.4,488.2,122.4z"/>
	<path class="st4" d="M108.7,132.2h49v8.8h-49C108.7,141.1,108.7,132.2,108.7,132.2z"/>
	<path class="st6" d="M157.8,132.2h3v8.8h-3V132.2z"/>
	<path class="st7" d="M160.8,132.2h40.4v8.8h-40.4L160.8,132.2L160.8,132.2z"/>
	<path class="st8" d="M201.1,132.2h12.1v8.8h-12.1V132.2z"/>
	<path class="st9" d="M213.1,132.2h0.6v8.8h-0.6V132.2z"/>
	<path class="st10" d="M213.8,132.2h894.9v8.8H213.8V132.2z"/>
	<path class="st4" d="M108.7,142.1H142v8.8h-33.3C108.7,150.9,108.7,142.1,108.7,142.1z"/>
	<path class="st6" d="M142.1,142.1h1.6v8.8h-1.6V142.1z"/>
	<path class="st7" d="M143.6,142.1h71.5v8.8h-71.5V142.1L143.6,142.1z"/>
	<path class="st8" d="M215.1,142.1h21.4v8.8h-21.4V142.1z"/>
	<path class="st9" d="M236.5,142.1h0.4v8.8h-0.4V142.1z"/>
	<path class="st10" d="M236.9,142.1h871.9v8.8H236.9V142.1z"/>
	<path class="st4" d="M108.7,161.7h30v8.8h-30V161.7z"/>
	<path class="st6" d="M138.8,161.7h1.8v8.8h-1.8V161.7z"/>
	<path class="st7" d="M140.5,161.7h91.7v8.8h-91.7V161.7z"/>
	<path class="st8" d="M232.2,161.7h87.4v8.8h-87.4L232.2,161.7L232.2,161.7z"/>
	<path class="st10" d="M319.7,161.7h789.1v8.8H319.7V161.7z"/>
	<path class="st4" d="M108.7,151.9h48.6v8.8h-48.6L108.7,151.9L108.7,151.9z"/>
	<path class="st7" d="M157.3,151.9h69.9v8.8h-69.9L157.3,151.9L157.3,151.9z"/>
	<path class="st8" d="M227.2,151.9h87.6v8.8h-87.6L227.2,151.9L227.2,151.9z"/>
	<path class="st10" d="M314.8,151.9h793.9v8.8H314.8V151.9L314.8,151.9z"/>
	<path class="st4" d="M108.7,171.5h155.7v8.8H108.7V171.5z"/>
	<path class="st6" d="M264.4,171.5h2.1v8.8h-2.1V171.5z"/>
	<path class="st7" d="M266.6,171.5h48.6v8.8h-48.6V171.5z"/>
	<path class="st8" d="M315.2,171.5h45v8.8h-45V171.5z"/>
	<path class="st9" d="M360.1,171.5h0.6v8.8h-0.6V171.5z"/>
	<path class="st10" d="M360.7,171.5h748v8.8h-748L360.7,171.5L360.7,171.5z"/>
	<path class="st4" d="M108.7,181.3h35.6v8.8h-35.6L108.7,181.3L108.7,181.3z"/>
	<path class="st6" d="M144.4,181.3h2v8.8h-2V181.3L144.4,181.3z"/>
	<path class="st7" d="M146.4,181.3H225v8.8h-78.7L146.4,181.3L146.4,181.3z"/>
	<path class="st8" d="M225,181.3h105.3v8.8H225V181.3L225,181.3z"/>
	<path class="st9" d="M330.4,181.3h0.6v8.8h-0.6V181.3L330.4,181.3z"/>
	<path class="st10" d="M331,181.3h777.8v8.8H331V181.3L331,181.3z"/>
	<path class="st4" d="M108.7,191.1h61.2v8.8h-61.2V191.1L108.7,191.1z"/>
	<path class="st6" d="M169.9,191.1h3.4v8.8h-3.4V191.1L169.9,191.1z"/>
	<path class="st7" d="M173.4,191.1h440.8v8.8H173.4V191.1L173.4,191.1z"/>
	<path class="st8" d="M614.2,191.1h14.5v8.8h-14.5V191.1L614.2,191.1z"/>
	<path class="st9" d="M628.7,191.1h42.6v8.8h-42.6V191.1L628.7,191.1z"/>
	<path class="st10" d="M671.3,191.1h437.4v8.8H671.3V191.1L671.3,191.1z"/>
	<path class="st4" d="M108.7,210.7H144v8.8h-35.3V210.7z"/>
	<path class="st6" d="M144.1,210.7h6.6v8.8h-6.6V210.7z"/>
	<path class="st7" d="M150.6,210.7h24.8v8.8h-24.8V210.7z"/>
	<path class="st8" d="M175.4,210.7h3.6v8.8h-3.6V210.7z"/>
	<path class="st9" d="M178.9,210.7h1.3v8.8h-1.3V210.7z"/>
	<path class="st10" d="M180.2,210.7h928.5v8.8H180.2V210.7z"/>
	<path class="st4" d="M108.7,220.5h40v8.8h-40V220.5L108.7,220.5z"/>
	<path class="st6" d="M148.7,220.5h1.6v8.8h-1.6V220.5L148.7,220.5z"/>
	<path class="st7" d="M150.3,220.5h100v8.8h-100V220.5L150.3,220.5z"/>
	<path class="st8" d="M250.3,220.5h35.3v8.8h-35.3V220.5L250.3,220.5z"/>
	<path class="st9" d="M285.6,220.5h0.4v8.8h-0.4V220.5L285.6,220.5z"/>
	<path class="st10" d="M286,220.5h822.8v8.8H286V220.5L286,220.5z"/>
	<path class="st4" d="M108.7,230.3H139v8.8h-30.3V230.3L108.7,230.3z"/>
	<path class="st6" d="M139,230.3h1.9v8.8H139V230.3L139,230.3z"/>
	<path class="st7" d="M140.9,230.3h42.3v8.8h-42.3V230.3L140.9,230.3z"/>
	<path class="st8" d="M183.2,230.3H219v8.8h-35.8V230.3L183.2,230.3z"/>
	<path class="st9" d="M219,230.3h0.7v8.8H219V230.3L219,230.3z"/>
	<path class="st10" d="M219.7,230.3h889.1v8.8H219.7V230.3L219.7,230.3z"/>
	<path class="st4" d="M108.7,200.9h16.8v8.8h-16.8V200.9z"/>
	<path class="st6" d="M125.5,200.9h1.6v8.8h-1.6V200.9z"/>
	<path class="st7" d="M127.1,200.9h31.4v8.8h-31.4V200.9z"/>
	<path class="st8" d="M158.5,200.9h9.7v8.8h-9.7V200.9z"/>
	<path class="st9" d="M168.2,200.9h0.5v8.8h-0.5V200.9z"/>
	<path class="st10" d="M168.7,200.9h940v8.8h-940L168.7,200.9L168.7,200.9z"/>
	<path class="st4" d="M108.7,240.1h31.2v8.8h-31.2C108.7,248.9,108.7,240.1,108.7,240.1z"/>
	<path class="st6" d="M139.9,240.1h4.7v8.8h-4.7V240.1z"/>
	<path class="st7" d="M144.6,240.1H188v8.8h-43.4V240.1z"/>
	<path class="st8" d="M188,240.1h19.1v8.8H188V240.1z"/>
	<path class="st9" d="M207.1,240.1h1v8.8h-1V240.1z"/>
	<path class="st10" d="M208.1,240.1h900.7v8.8H208.1V240.1z"/>
	<path class="st4" d="M108.7,249.9h17.5v8.8h-17.5V249.9z"/>
	<path class="st6" d="M126.2,249.9h1.9v8.8h-1.9C126.2,258.7,126.2,249.9,126.2,249.9z"/>
	<path class="st7" d="M128.1,249.9h29.2v8.8h-29.2V249.9z"/>
	<path class="st8" d="M157.3,249.9h29.5v8.8h-29.5V249.9z"/>
	<path class="st9" d="M186.8,249.9h0.9v8.8h-0.9V249.9z"/>
	<path class="st10" d="M187.7,249.9h921.1v8.8H187.7V249.9z"/>
	<path class="st4" d="M108.7,259.7h31.4v8.8h-31.4C108.7,268.5,108.7,259.7,108.7,259.7z"/>
	<path class="st6" d="M140.1,259.7h4.9v8.8h-4.9V259.7z"/>
	<path class="st7" d="M145,259.7h23.1v8.8H145V259.7z"/>
	<path class="st8" d="M168.1,259.7h80.4v8.8h-80.4V259.7z"/>
	<path class="st9" d="M248.5,259.7h0.6v8.8h-0.6V259.7z"/>
	<path class="st10" d="M249.1,259.7h859.7v8.8H249.1V259.7z"/>
	<path class="st4" d="M108.7,289.1h13.2v8.8h-13.2V289.1z"/>
	<path class="st6" d="M121.9,289.1h1.9v8.8h-1.9V289.1z"/>
	<path class="st7" d="M123.9,289.1h17.3v8.8h-17.3C123.9,297.9,123.9,289.1,123.9,289.1z"/>
	<path class="st8" d="M141.2,289.1h5.3v8.8h-5.3V289.1z"/>
	<path class="st10" d="M146.5,289.1h962.2v8.8H146.5V289.1z"/>
	<path class="st4" d="M108.7,279.3h33.8v8.8h-33.8V279.3z"/>
	<path class="st6" d="M142.6,279.3h2.3v8.8h-2.3V279.3z"/>
	<path class="st7" d="M144.9,279.3h96v8.8h-96V279.3z"/>
	<path class="st8" d="M240.8,279.3H361v8.8H240.8V279.3z"/>
	<path class="st9" d="M361,279.3h0.6v8.8H361V279.3z"/>
	<path class="st10" d="M361.6,279.3h747.2v8.8H361.6V279.3z"/>
	<path class="st4" d="M108.7,269.5h25.1v8.8h-25.1C108.7,278.3,108.7,269.5,108.7,269.5z"/>
	<path class="st6" d="M133.9,269.5h1.1v8.8h-1.1V269.5z"/>
	<path class="st7" d="M134.9,269.5h101.5v8.8H134.9V269.5z"/>
	<path class="st8" d="M236.5,269.5h14.9v8.8h-14.9V269.5z"/>
	<path class="st9" d="M251.4,269.5h0.3v8.8h-0.3V269.5z"/>
	<path class="st10" d="M251.8,269.5h857v8.8h-857L251.8,269.5L251.8,269.5z"/>
	<path class="st4" d="M108.7,298.9h22.6v8.8h-22.6C108.7,307.7,108.7,298.9,108.7,298.9z"/>
	<path class="st6" d="M131.3,298.9h2.7v8.8h-2.7V298.9z"/>
	<path class="st7" d="M134,298.9h67.8v8.8H134V298.9z"/>
	<path class="st8" d="M201.8,298.9h41v8.8h-41V298.9z"/>
	<path class="st9" d="M242.8,298.9h0.5v8.8h-0.5V298.9z"/>
	<path class="st10" d="M243.3,298.9h865.4v8.8H243.3V298.9z"/>
	<path class="st4" d="M108.7,308.7h17v8.8h-17V308.7z"/>
	<path class="st6" d="M125.7,308.7h2.8v8.8h-2.8V308.7z"/>
	<path class="st7" d="M128.6,308.7H179v8.8h-50.4V308.7z"/>
	<path class="st8" d="M179,308.7h14.9v8.8H179V308.7z"/>
	<path class="st9" d="M193.9,308.7h0.4v8.8h-0.4V308.7z"/>
	<path class="st10" d="M194.3,308.7h914.5v8.8H194.3V308.7z"/>
	<path class="st4" d="M108.7,328.3h16.9v8.8h-16.9V328.3z"/>
	<path class="st6" d="M125.6,328.3h3.4v8.8h-3.4C125.6,337.1,125.6,328.3,125.6,328.3z"/>
	<path class="st7" d="M129,328.3h14.6v8.8H129V328.3z"/>
	<path class="st8" d="M143.6,328.3h110.7v8.8H143.6V328.3z"/>
	<path class="st9" d="M254.3,328.3h0.6v8.8h-0.6V328.3z"/>
	<path class="st10" d="M254.8,328.3h853.9v8.8H254.8V328.3z"/>
	<path class="st4" d="M108.7,318.5h21.5v8.8h-21.5C108.7,327.4,108.7,318.5,108.7,318.5z"/>
	<path class="st6" d="M130.3,318.5h2.9v8.8h-2.9V318.5z"/>
	<path class="st7" d="M133.2,318.5h41.2v8.8h-41.2V318.5z"/>
	<path class="st8" d="M174.3,318.5h34.1v8.8h-34.1L174.3,318.5L174.3,318.5z"/>
	<path class="st9" d="M208.5,318.5h0.6v8.8h-0.6V318.5z"/>
	<path class="st10" d="M209.1,318.5h899.7v8.8H209.1V318.5z"/>
	<path class="st4" d="M108.7,338.1H130v8.8h-21.2C108.7,347,108.7,338.1,108.7,338.1z"/>
	<path class="st6" d="M130,338.1h19.8v8.8H130V338.1z"/>
	<path class="st7" d="M149.8,338.1h7.4v8.8h-7.4V338.1z"/>
	<path class="st8" d="M157.2,338.1h2.9v8.8h-2.9V338.1z"/>
	<path class="st10" d="M160.1,338.1h948.6v8.8H160.1V338.1z"/>
	<path class="st4" d="M108.7,367.5h24.7v8.8h-24.7C108.7,376.4,108.7,367.5,108.7,367.5z"/>
	<path class="st6" d="M133.4,367.5h2.5v8.8h-2.5V367.5z"/>
	<path class="st7" d="M135.9,367.5h27.2v8.8h-27.2V367.5z"/>
	<path class="st8" d="M163.1,367.5h14.7v8.8h-14.7V367.5z"/>
	<path class="st9" d="M177.8,367.5h0.7v8.8h-0.7V367.5z"/>
	<path class="st10" d="M178.5,367.5h930.3v8.8H178.5V367.5z"/>
	<path class="st4" d="M108.7,406.8h91.7v8.8h-91.7C108.7,415.6,108.7,406.8,108.7,406.8z"/>
	<path class="st6" d="M200.4,406.8h6.2v8.8h-6.2V406.8z"/>
	<path class="st7" d="M206.6,406.8h91.1v8.8h-91.1V406.8L206.6,406.8z"/>
	<path class="st8" d="M297.7,406.8H335v8.8h-37.3V406.8z"/>
	<path class="st9" d="M335.1,406.8h3.3v8.8h-3.3V406.8z"/>
	<path class="st10" d="M338.3,406.8h770.4v8.8H338.3V406.8z"/>
	<path class="st4" d="M108.7,377.4h17v8.8h-17C108.7,386.2,108.7,377.4,108.7,377.4z"/>
	<path class="st6" d="M125.7,377.4h1.9v8.8h-1.9V377.4z"/>
	<path class="st7" d="M127.7,377.4h41.7v8.8h-41.7V377.4z"/>
	<path class="st8" d="M169.4,377.4h6v8.8h-6V377.4z"/>
	<path class="st10" d="M175.4,377.4h933.3v8.8H175.4V377.4z"/>
	<path class="st4" d="M108.7,387.2h47.9v8.8h-47.9C108.7,396,108.7,387.2,108.7,387.2z"/>
	<path class="st6" d="M156.6,387.2h1.5v8.8h-1.5V387.2z"/>
	<path class="st7" d="M158.1,387.2H332v8.8H158.1V387.2L158.1,387.2z"/>
	<path class="st8" d="M332.1,387.2h33.1v8.8h-33.1V387.2z"/>
	<path class="st9" d="M365.2,387.2h0.4v8.8h-0.4V387.2z"/>
	<path class="st10" d="M365.6,387.2h743.2v8.8H365.6V387.2z"/>
	<path class="st4" d="M108.7,397h242.5v8.8H108.7V397z"/>
	<path class="st6" d="M351.2,397h23.5v8.8h-23.5V397z"/>
	<path class="st7" d="M374.8,397h37.4v8.8h-37.4V397z"/>
	<path class="st8" d="M412.1,397h17v8.8h-17V397z"/>
	<path class="st9" d="M429.2,397h1.1v8.8h-1.1V397z"/>
	<path class="st10" d="M430.3,397h678.5v8.8H430.3V397z"/>
	<path class="st4" d="M108.7,416.6h55.9v8.8h-55.9C108.7,425.4,108.7,416.6,108.7,416.6z"/>
	<path class="st6" d="M164.7,416.6h1.6v8.8h-1.6V416.6z"/>
	<path class="st7" d="M166.3,416.6H284v8.8H166.3V416.6L166.3,416.6z"/>
	<path class="st8" d="M284,416.6h42.3v8.8H284V416.6z"/>
	<path class="st9" d="M326.3,416.6h0.3v8.8h-0.3V416.6z"/>
	<path class="st10" d="M326.6,416.6h782.1v8.8H326.6V416.6z"/>
	<path class="st4" d="M108.7,347.9h28.9v8.8h-28.9C108.7,356.8,108.7,347.9,108.7,347.9z"/>
	<path class="st6" d="M137.7,347.9h3.2v8.8h-3.2V347.9z"/>
	<path class="st7" d="M140.9,347.9h67.4v8.8h-67.4V347.9z"/>
	<path class="st8" d="M208.3,347.9h55.4v8.8h-55.4L208.3,347.9L208.3,347.9z"/>
	<path class="st9" d="M263.7,347.9h0.5v8.8h-0.5V347.9z"/>
	<path class="st10" d="M264.2,347.9h844.5v8.8H264.2V347.9z"/>
	<path class="st4" d="M108.7,357.7h21.7v8.8h-21.7C108.7,366.6,108.7,357.7,108.7,357.7z"/>
	<path class="st6" d="M130.5,357.7h20.2v8.8h-20.2V357.7z"/>
	<path class="st7" d="M150.7,357.7h16v8.8h-16V357.7z"/>
	<path class="st8" d="M166.7,357.7h8.8v8.8h-8.8V357.7z"/>
	<path class="st10" d="M175.5,357.7h933.3v8.8H175.5V357.7z"/>
	<path class="st4" d="M108.7,426.4h19.6v8.8h-19.6C108.7,435.2,108.7,426.4,108.7,426.4z"/>
	<path class="st6" d="M128.4,426.4h1.7v8.8h-1.7V426.4z"/>
	<path class="st7" d="M130.1,426.4H180v8.8h-49.9V426.4z"/>
	<path class="st8" d="M180,426.4h32v8.8h-32V426.4z"/>
	<path class="st9" d="M211.9,426.4h0.6v8.8h-0.6V426.4z"/>
	<path class="st10" d="M212.5,426.4h896.2v8.8H212.5V426.4z"/>
	<path class="st4" d="M108.7,436.2h35.6v8.8h-35.6C108.7,445,108.7,436.2,108.7,436.2z"/>
	<path class="st6" d="M144.3,436.2h64.4v8.8h-64.4L144.3,436.2L144.3,436.2z"/>
	<path class="st7" d="M208.7,436.2h31.2v8.8h-31.2V436.2z"/>
	<path class="st8" d="M239.9,436.2h22.5v8.8h-22.5V436.2z"/>
	<path class="st9" d="M262.4,436.2h1.1v8.8h-1.1V436.2z"/>
	<path class="st10" d="M263.5,436.2h845.2v8.8H263.5V436.2z"/>
	<path class="st4" d="M108.7,446h37.4v8.8h-37.4C108.7,454.8,108.7,446,108.7,446z"/>
	<path class="st6" d="M146.1,446h5.7v8.8h-5.7V446z"/>
	<path class="st7" d="M151.8,446h99.5v8.8h-99.5V446L151.8,446z"/>
	<path class="st8" d="M251.3,446h13.8v8.8h-13.8V446L251.3,446z"/>
	<path class="st9" d="M265.1,446h1.4v8.8h-1.4V446z"/>
	<path class="st10" d="M266.5,446h842.3v8.8H266.5V446z"/>
	<path class="st4" d="M108.7,455.8h23v8.8h-22.9C108.7,464.6,108.7,455.8,108.7,455.8z"/>
	<path class="st6" d="M131.7,455.8h1.4v8.8h-1.4V455.8z"/>
	<path class="st7" d="M133,455.8h69v8.8h-69V455.8L133,455.8z"/>
	<path class="st8" d="M202,455.8h29.5v8.8H202V455.8z"/>
	<path class="st9" d="M231.5,455.8h0.4v8.8h-0.4V455.8z"/>
	<path class="st10" d="M231.9,455.8h876.8v8.8H231.9V455.8z"/>
	<path class="st4" d="M108.7,465.6H136v8.8h-27.3V465.6z"/>
	<path class="st7" d="M136.1,465.6h37.3v8.8h-37.3V465.6z"/>
	<path class="st8" d="M173.4,465.6h17.8v8.8h-17.8V465.6z"/>
	<path class="st10" d="M191.1,465.6h917.6v8.8H191.1V465.6z"/>
	<path class="st4" d="M108.7,475.4H133v8.8h-24.3V475.4z"/>
	<path class="st6" d="M133.1,475.4h2.7v8.8h-2.7V475.4z"/>
	<path class="st7" d="M135.8,475.4h27.7v8.8h-27.7V475.4z"/>
	<path class="st8" d="M163.4,475.4h55.3v8.8h-55.3V475.4L163.4,475.4z"/>
	<path class="st9" d="M218.7,475.4h0.5v8.8h-0.5V475.4z"/>
	<path class="st10" d="M219.3,475.4h889.5v8.8H219.3V475.4z"/>
	<path class="st4" d="M108.7,485.2h14.6v8.8h-14.6V485.2z"/>
	<path class="st6" d="M123.3,485.2h15.5v8.8h-15.5V485.2z"/>
	<path class="st7" d="M138.8,485.2h15.4v8.8h-15.4V485.2z"/>
	<path class="st8" d="M154.2,485.2h5.2v8.8h-5.2V485.2z"/>
	<path class="st10" d="M159.5,485.2h949.2v8.8H159.5V485.2z"/>
	<path class="st4" d="M108.7,495h22.7v8.8h-22.7V495z"/>
	<path class="st6" d="M131.4,495h2.4v8.8h-2.4V495z"/>
	<path class="st7" d="M133.8,495h33.9v8.8h-33.9L133.8,495L133.8,495z"/>
	<path class="st8" d="M167.7,495h51.2v8.8h-51.2V495z"/>
	<path class="st9" d="M218.9,495h0.8v8.8h-0.8V495z"/>
	<path class="st10" d="M219.6,495h889.1v8.8H219.6V495z"/>
	<path class="st4" d="M108.7,504.8h112.6v8.8H108.7V504.8z"/>
	<path class="st6" d="M221.4,504.8h3.7v8.8h-3.7V504.8z"/>
	<path class="st7" d="M225,504.8h100.8v8.8H225V504.8L225,504.8z"/>
	<path class="st8" d="M325.9,504.8H370v8.8h-44.1V504.8z"/>
	<path class="st9" d="M370,504.8h0.8v8.8H370V504.8z"/>
	<path class="st10" d="M370.8,504.8h738v8.8h-738L370.8,504.8L370.8,504.8z"/>
	<path class="st4" d="M108.7,514.6h31.9v8.8h-31.9C108.7,523.4,108.7,514.6,108.7,514.6z"/>
	<path class="st6" d="M140.7,514.6h2.6v8.8h-2.6V514.6z"/>
	<path class="st7" d="M143.2,514.6h27.7v8.8h-27.7V514.6z"/>
	<path class="st8" d="M170.9,514.6h4.5v8.8h-4.5V514.6z"/>
	<path class="st9" d="M175.4,514.6h3.3v8.8h-3.3V514.6z"/>
	<path class="st10" d="M178.7,514.6h930v8.8h-930L178.7,514.6L178.7,514.6z"/>
	<path class="st4" d="M108.7,534.2h14.7v8.8h-14.7V534.2z"/>
	<path class="st6" d="M123.5,534.2h2.2v8.8h-2.2V534.2z"/>
	<path class="st7" d="M125.6,534.2h18.9v8.8h-18.9V534.2z"/>
	<path class="st8" d="M144.6,534.2h6.2v8.8h-6.2V534.2z"/>
	<path class="st10" d="M150.8,534.2h958v8.8h-958L150.8,534.2L150.8,534.2z"/>
	<path class="st4" d="M108.7,524.4h37.4v8.8h-37.4C108.7,533.2,108.7,524.4,108.7,524.4z"/>
	<path class="st6" d="M146.2,524.4h2.2v8.8h-2.2V524.4z"/>
	<path class="st7" d="M148.3,524.4h111.4v8.8H148.3V524.4L148.3,524.4z"/>
	<path class="st8" d="M259.8,524.4h54.4v8.8h-54.4V524.4L259.8,524.4z"/>
	<path class="st9" d="M314.2,524.4h0.8v8.8h-0.8V524.4z"/>
	<path class="st10" d="M315,524.4h793.8v8.8H315V524.4z"/>
	<path class="st4" d="M108.7,544h37.7v8.8h-37.7V544z"/>
	<path class="st6" d="M146.4,544h4.8v8.8h-4.8V544z"/>
	<path class="st7" d="M151.3,544h181.1v8.8H151.3V544z"/>
	<path class="st8" d="M332.3,544h17.1v8.8h-17.1V544z"/>
	<path class="st9" d="M349.4,544h1.5v8.8h-1.5V544z"/>
	<path class="st10" d="M351,544h757.8v8.8H351V544z"/>
	<path class="st4" d="M108.7,563.6h15.7v8.8h-15.7V563.6z"/>
	<path class="st6" d="M124.4,563.6h2.1v8.8h-2.1V563.6z"/>
	<path class="st7" d="M126.5,563.6h20.9v8.8h-20.9C126.5,572.4,126.5,563.6,126.5,563.6z"/>
	<path class="st8" d="M147.3,563.6h19.2v8.8h-19.2V563.6z"/>
	<path class="st10" d="M166.5,563.6h942.2v8.8H166.5V563.6z"/>
	<path class="st4" d="M108.7,553.8h19.4v8.8h-19.4C108.7,562.6,108.7,553.8,108.7,553.8z"/>
	<path class="st6" d="M128.1,553.8h3.1v8.8h-3.1V553.8z"/>
	<path class="st7" d="M131.3,553.8h36.6v8.8h-36.6L131.3,553.8L131.3,553.8z"/>
	<path class="st8" d="M167.9,553.8h12.9v8.8h-12.9V553.8z"/>
	<path class="st9" d="M180.8,553.8h0.5v8.8h-0.5V553.8z"/>
	<path class="st10" d="M181.3,553.8h927.4v8.8H181.3V553.8z"/>
	<path class="st4" d="M108.7,573.4h49.2v8.8h-49.2V573.4z"/>
	<path class="st6" d="M157.9,573.4h9.5v8.8h-9.5V573.4z"/>
	<path class="st7" d="M167.5,573.4h9.1v8.8h-9.1V573.4z"/>
	<path class="st8" d="M176.5,573.4h4.6v8.8h-4.6V573.4z"/>
	<path class="st10" d="M181.1,573.4h927.7v8.8H181.1V573.4z"/>
</g>
<g class="st5">
	<path d="M188.4,50.7h-3.7V36.4h5.9c1.6,0,2.8,0.4,3.7,1.3s1.3,2,1.3,3.5c0,1.5-0.4,2.7-1.3,3.5s-2.1,1.3-3.7,1.3h-2.2V50.7z
		 M188.4,42.9h1.2c1.4,0,2.1-0.6,2.1-1.8s-0.7-1.8-2.1-1.8h-1.2V42.9z"/>
	<path d="M209.5,50.7h-4.6l-3.6-5.5v5.5h-3.7V36.4h5.8c0.8,0,1.5,0.1,2.1,0.4c0.6,0.2,1.1,0.6,1.5,1s0.7,0.9,0.9,1.4
		c0.2,0.5,0.3,1.1,0.3,1.7c0,1.1-0.3,2-0.8,2.7c-0.5,0.7-1.3,1.1-2.3,1.4L209.5,50.7z M201.3,42.8h0.7c0.7,0,1.3-0.2,1.7-0.5
		c0.4-0.3,0.6-0.7,0.6-1.3c0-0.6-0.2-1-0.6-1.3c-0.4-0.3-1-0.5-1.7-0.5h-0.7V42.8z"/>
	<path d="M210.2,43.5c0-1.1,0.2-2.1,0.6-3c0.4-0.9,0.9-1.7,1.6-2.4c0.7-0.7,1.5-1.2,2.5-1.6c1-0.4,2-0.6,3.2-0.6
		c1.2,0,2.2,0.2,3.2,0.6c1,0.4,1.8,0.9,2.5,1.6c0.7,0.7,1.3,1.5,1.6,2.4c0.4,0.9,0.6,1.9,0.6,3c0,1.1-0.2,2.1-0.6,3
		c-0.4,0.9-0.9,1.7-1.6,2.4c-0.7,0.7-1.5,1.2-2.5,1.6c-1,0.4-2,0.6-3.2,0.6c-1.2,0-2.2-0.2-3.2-0.6c-1-0.4-1.8-0.9-2.5-1.6
		c-0.7-0.7-1.2-1.5-1.6-2.4C210.3,45.6,210.2,44.6,210.2,43.5z M214,43.5c0,0.6,0.1,1.1,0.3,1.6c0.2,0.5,0.5,0.9,0.9,1.3
		c0.4,0.4,0.8,0.6,1.3,0.8c0.5,0.2,1,0.3,1.5,0.3s1.1-0.1,1.5-0.3c0.5-0.2,0.9-0.5,1.3-0.8c0.4-0.4,0.7-0.8,0.9-1.3s0.3-1,0.3-1.6
		s-0.1-1.1-0.3-1.6s-0.5-0.9-0.9-1.3c-0.4-0.4-0.8-0.6-1.3-0.8c-0.5-0.2-1-0.3-1.5-0.3s-1.1,0.1-1.5,0.3c-0.5,0.2-0.9,0.5-1.3,0.8
		c-0.4,0.4-0.7,0.8-0.9,1.3C214.2,42.4,214,43,214,43.5z"/>
	<path d="M232.1,50.7h-3.7V36.4h5.9c1.6,0,2.8,0.4,3.7,1.3s1.3,2,1.3,3.5c0,1.5-0.4,2.7-1.3,3.5s-2.1,1.3-3.7,1.3h-2.2V50.7z
		 M232.1,42.9h1.2c1.4,0,2.1-0.6,2.1-1.8s-0.7-1.8-2.1-1.8h-1.2V42.9z"/>
	<path d="M240.6,43.5c0-1.1,0.2-2.1,0.6-3c0.4-0.9,0.9-1.7,1.6-2.4c0.7-0.7,1.5-1.2,2.5-1.6c1-0.4,2-0.6,3.2-0.6
		c1.2,0,2.2,0.2,3.2,0.6c1,0.4,1.8,0.9,2.5,1.6c0.7,0.7,1.3,1.5,1.6,2.4c0.4,0.9,0.6,1.9,0.6,3c0,1.1-0.2,2.1-0.6,3
		c-0.4,0.9-0.9,1.7-1.6,2.4c-0.7,0.7-1.5,1.2-2.5,1.6c-1,0.4-2,0.6-3.2,0.6c-1.2,0-2.2-0.2-3.2-0.6c-1-0.4-1.8-0.9-2.5-1.6
		c-0.7-0.7-1.2-1.5-1.6-2.4C240.8,45.6,240.6,44.6,240.6,43.5z M244.5,43.5c0,0.6,0.1,1.1,0.3,1.6c0.2,0.5,0.5,0.9,0.9,1.3
		c0.4,0.4,0.8,0.6,1.3,0.8c0.5,0.2,1,0.3,1.5,0.3s1.1-0.1,1.5-0.3c0.5-0.2,0.9-0.5,1.3-0.8c0.4-0.4,0.7-0.8,0.9-1.3s0.3-1,0.3-1.6
		s-0.1-1.1-0.3-1.6s-0.5-0.9-0.9-1.3c-0.4-0.4-0.8-0.6-1.3-0.8c-0.5-0.2-1-0.3-1.5-0.3s-1.1,0.1-1.5,0.3c-0.5,0.2-0.9,0.5-1.3,0.8
		c-0.4,0.4-0.7,0.8-0.9,1.3C244.6,42.4,244.5,43,244.5,43.5z"/>
	<path d="M270.7,50.7h-4.6l-3.6-5.5v5.5h-3.7V36.4h5.8c0.8,0,1.5,0.1,2.1,0.4c0.6,0.2,1.1,0.6,1.5,1s0.7,0.9,0.9,1.4
		c0.2,0.5,0.3,1.1,0.3,1.7c0,1.1-0.3,2-0.8,2.7c-0.5,0.7-1.3,1.1-2.3,1.4L270.7,50.7z M262.6,42.8h0.7c0.7,0,1.3-0.2,1.7-0.5
		c0.4-0.3,0.6-0.7,0.6-1.3c0-0.6-0.2-1-0.6-1.3c-0.4-0.3-1-0.5-1.7-0.5h-0.7V42.8z"/>
	<path d="M277.8,39.5v11.2H274V39.5H271v-3.2h9.8v3.2H277.8z"/>
	<path d="M286.2,36.4v14.3h-3.7V36.4H286.2z"/>
	<path d="M288.5,43.5c0-1.1,0.2-2.1,0.6-3c0.4-0.9,0.9-1.7,1.6-2.4c0.7-0.7,1.5-1.2,2.5-1.6c1-0.4,2-0.6,3.2-0.6
		c1.2,0,2.2,0.2,3.2,0.6c1,0.4,1.8,0.9,2.5,1.6s1.3,1.5,1.6,2.4c0.4,0.9,0.6,1.9,0.6,3c0,1.1-0.2,2.1-0.6,3
		c-0.4,0.9-0.9,1.7-1.6,2.4c-0.7,0.7-1.5,1.2-2.5,1.6c-1,0.4-2,0.6-3.2,0.6c-1.2,0-2.2-0.2-3.2-0.6c-1-0.4-1.8-0.9-2.5-1.6
		c-0.7-0.7-1.2-1.5-1.6-2.4C288.7,45.6,288.5,44.6,288.5,43.5z M292.4,43.5c0,0.6,0.1,1.1,0.3,1.6c0.2,0.5,0.5,0.9,0.9,1.3
		c0.4,0.4,0.8,0.6,1.3,0.8c0.5,0.2,1,0.3,1.5,0.3c0.5,0,1.1-0.1,1.5-0.3c0.5-0.2,0.9-0.5,1.3-0.8c0.4-0.4,0.7-0.8,0.9-1.3
		c0.2-0.5,0.3-1,0.3-1.6s-0.1-1.1-0.3-1.6c-0.2-0.5-0.5-0.9-0.9-1.3c-0.4-0.4-0.8-0.6-1.3-0.8c-0.5-0.2-1-0.3-1.5-0.3
		c-0.5,0-1.1,0.1-1.5,0.3s-0.9,0.5-1.3,0.8c-0.4,0.4-0.7,0.8-0.9,1.3C292.5,42.4,292.4,43,292.4,43.5z"/>
	<path d="M306.8,50.7V36.4h3.7l6.9,8.8v-8.8h3.7v14.3h-3.7l-6.9-8.8v8.8H306.8z"/>
	<path d="M331.7,50.7l4.1-4.7h-0.1c-0.4,0.2-0.6,0.3-0.9,0.4c-0.2,0-0.4,0.1-0.6,0.1c-0.7,0-1.3-0.1-1.9-0.4
		c-0.6-0.3-1.1-0.6-1.5-1.1c-0.4-0.5-0.8-1-1-1.6c-0.2-0.6-0.4-1.3-0.4-2c0-0.8,0.1-1.5,0.4-2.1s0.7-1.2,1.2-1.7
		c0.5-0.5,1.2-0.9,1.9-1.1c0.7-0.3,1.6-0.4,2.5-0.4c0.9,0,1.8,0.1,2.5,0.4c0.7,0.3,1.4,0.7,1.9,1.1s0.9,1,1.2,1.7
		c0.3,0.6,0.4,1.3,0.4,2c0,0.8-0.2,1.7-0.5,2.6s-0.9,1.9-1.7,2.8l-3.3,4H331.7z M337.9,41.3c0-0.3-0.1-0.6-0.2-0.9
		c-0.1-0.3-0.3-0.5-0.5-0.8c-0.2-0.2-0.5-0.4-0.8-0.5c-0.3-0.1-0.6-0.2-0.9-0.2s-0.6,0.1-0.9,0.2c-0.3,0.1-0.5,0.3-0.8,0.5
		c-0.2,0.2-0.4,0.5-0.5,0.8c-0.1,0.3-0.2,0.6-0.2,0.9c0,0.3,0.1,0.6,0.2,0.9c0.1,0.3,0.3,0.5,0.5,0.8c0.2,0.2,0.5,0.4,0.8,0.5
		c0.3,0.1,0.6,0.2,0.9,0.2s0.6-0.1,0.9-0.2c0.3-0.1,0.5-0.3,0.8-0.5c0.2-0.2,0.4-0.5,0.5-0.8C337.8,41.9,337.9,41.6,337.9,41.3z"/>
	<path d="M352.6,39.5h-5l-0.2,1.6c0.2,0,0.4,0,0.6-0.1c0.2,0,0.4,0,0.6,0c0.7,0,1.4,0.1,2,0.4c0.6,0.3,1.2,0.6,1.6,1s0.8,1,1,1.6
		c0.3,0.6,0.4,1.3,0.4,2c0,0.8-0.1,1.5-0.4,2.1c-0.3,0.6-0.7,1.1-1.2,1.6c-0.5,0.4-1.2,0.8-1.9,1c-0.7,0.2-1.6,0.4-2.5,0.4
		c-0.9,0-1.7-0.1-2.5-0.3c-0.8-0.2-1.5-0.5-2.2-1l0.6-3.5c0.6,0.5,1.3,1,1.9,1.2c0.7,0.3,1.3,0.4,1.9,0.4c0.8,0,1.4-0.2,1.8-0.6
		c0.4-0.4,0.7-0.9,0.7-1.5c0-0.7-0.3-1.3-0.9-1.7c-0.6-0.4-1.4-0.7-2.3-0.7c-0.4,0-0.9,0-1.3,0.1c-0.5,0.1-0.9,0.2-1.3,0.4l1.2-7.7
		h7.5V39.5z"/>
	<path d="M361.8,39.5v11.2h-3.7V39.5H355v-3.2h9.8v3.2H361.8z"/>
	<path d="M370.2,41.9h5.4v-5.5h3.7v14.3h-3.7v-5.9h-5.4v5.9h-3.7V36.4h3.7V41.9z"/>
	<path d="M392.5,50.7h-3.7V36.4h5.9c1.6,0,2.8,0.4,3.7,1.3c0.9,0.8,1.3,2,1.3,3.5c0,1.5-0.4,2.7-1.3,3.5c-0.9,0.8-2.1,1.3-3.7,1.3
		h-2.2V50.7z M392.5,42.9h1.2c1.4,0,2.1-0.6,2.1-1.8s-0.7-1.8-2.1-1.8h-1.2V42.9z"/>
	<path d="M409.8,39.5h-4.4v2.4h4.2v3.2h-4.2v2.5h4.4v3.2h-8.2V36.4h8.2V39.5z"/>
	<path d="M424.4,50.7h-4.6l-3.6-5.5v5.5h-3.7V36.4h5.8c0.8,0,1.5,0.1,2.1,0.4s1.1,0.6,1.5,1s0.7,0.9,0.9,1.4
		c0.2,0.5,0.3,1.1,0.3,1.7c0,1.1-0.3,2-0.8,2.7s-1.3,1.1-2.3,1.4L424.4,50.7z M416.2,42.8h0.7c0.7,0,1.3-0.2,1.7-0.5
		s0.6-0.7,0.6-1.3c0-0.6-0.2-1-0.6-1.3s-1-0.5-1.7-0.5h-0.7V42.8z"/>
	<path d="M436,41.2c-0.9-1.1-1.9-1.6-3.2-1.6c-0.6,0-1.1,0.1-1.5,0.3c-0.5,0.2-0.9,0.5-1.2,0.8c-0.3,0.3-0.6,0.8-0.8,1.2
		c-0.2,0.5-0.3,1-0.3,1.6c0,0.6,0.1,1.1,0.3,1.6c0.2,0.5,0.5,0.9,0.8,1.3s0.8,0.6,1.2,0.8c0.5,0.2,1,0.3,1.5,0.3
		c1.2,0,2.3-0.5,3.2-1.5v4.4l-0.4,0.1c-0.6,0.2-1.1,0.4-1.6,0.4c-0.5,0.1-1,0.1-1.5,0.1c-1,0-1.9-0.2-2.8-0.6
		c-0.9-0.4-1.7-0.9-2.4-1.6s-1.2-1.5-1.7-2.4s-0.6-1.9-0.6-3c0-1.1,0.2-2.1,0.6-3c0.4-0.9,1-1.7,1.7-2.4c0.7-0.7,1.5-1.2,2.4-1.6
		c0.9-0.4,1.9-0.6,2.9-0.6c0.6,0,1.1,0.1,1.7,0.2c0.6,0.1,1.1,0.3,1.7,0.6V41.2z"/>
	<path d="M446.5,39.5h-4.4v2.4h4.2v3.2h-4.2v2.5h4.4v3.2h-8.2V36.4h8.2V39.5z"/>
	<path d="M449.2,50.7V36.4h3.7l6.9,8.8v-8.8h3.7v14.3h-3.7l-6.9-8.8v8.8H449.2z"/>
	<path d="M472,39.5v11.2h-3.7V39.5h-3.1v-3.2h9.8v3.2H472z"/>
	<path d="M480.4,36.4v14.3h-3.7V36.4H480.4z"/>
	<path d="M487.1,36.4v11.2h4.5v3.2h-8.2V36.4H487.1z"/>
	<path d="M501.7,39.5h-4.4v2.4h4.2v3.2h-4.2v2.5h4.4v3.2h-8.2V36.4h8.2V39.5z"/>
	<path d="M514.5,36.4v14.3h-3.7V36.4H514.5z"/>
	<path d="M517.5,50.7V36.4h3.7l6.9,8.8v-8.8h3.7v14.3h-3.7l-6.9-8.8v8.8H517.5z"/>
	<path d="M545.3,41.2c-0.9-1.1-1.9-1.6-3.2-1.6c-0.6,0-1.1,0.1-1.5,0.3c-0.5,0.2-0.9,0.5-1.2,0.8c-0.3,0.3-0.6,0.8-0.8,1.2
		c-0.2,0.5-0.3,1-0.3,1.6c0,0.6,0.1,1.1,0.3,1.6c0.2,0.5,0.5,0.9,0.8,1.3s0.8,0.6,1.2,0.8c0.5,0.2,1,0.3,1.5,0.3
		c1.2,0,2.3-0.5,3.2-1.5v4.4l-0.4,0.1c-0.6,0.2-1.1,0.4-1.6,0.4c-0.5,0.1-1,0.1-1.5,0.1c-1,0-1.9-0.2-2.8-0.6
		c-0.9-0.4-1.7-0.9-2.4-1.6s-1.2-1.5-1.7-2.4s-0.6-1.9-0.6-3c0-1.1,0.2-2.1,0.6-3c0.4-0.9,1-1.7,1.7-2.4c0.7-0.7,1.5-1.2,2.4-1.6
		c0.9-0.4,1.9-0.6,2.9-0.6c0.6,0,1.1,0.1,1.7,0.2c0.6,0.1,1.1,0.3,1.7,0.6V41.2z"/>
	<path d="M547.3,43.5c0-1.1,0.2-2.1,0.6-3c0.4-0.9,0.9-1.7,1.6-2.4c0.7-0.7,1.5-1.2,2.5-1.6c1-0.4,2-0.6,3.2-0.6
		c1.2,0,2.2,0.2,3.2,0.6c1,0.4,1.8,0.9,2.5,1.6s1.3,1.5,1.6,2.4c0.4,0.9,0.6,1.9,0.6,3c0,1.1-0.2,2.1-0.6,3
		c-0.4,0.9-0.9,1.7-1.6,2.4c-0.7,0.7-1.5,1.2-2.5,1.6c-1,0.4-2,0.6-3.2,0.6c-1.2,0-2.2-0.2-3.2-0.6c-1-0.4-1.8-0.9-2.5-1.6
		c-0.7-0.7-1.2-1.5-1.6-2.4C547.5,45.6,547.3,44.6,547.3,43.5z M551.2,43.5c0,0.6,0.1,1.1,0.3,1.6c0.2,0.5,0.5,0.9,0.9,1.3
		c0.4,0.4,0.8,0.6,1.3,0.8c0.5,0.2,1,0.3,1.5,0.3c0.5,0,1.1-0.1,1.5-0.3c0.5-0.2,0.9-0.5,1.3-0.8c0.4-0.4,0.7-0.8,0.9-1.3
		c0.2-0.5,0.3-1,0.3-1.6s-0.1-1.1-0.3-1.6c-0.2-0.5-0.5-0.9-0.9-1.3c-0.4-0.4-0.8-0.6-1.3-0.8c-0.5-0.2-1-0.3-1.5-0.3
		c-0.5,0-1.1,0.1-1.5,0.3s-0.9,0.5-1.3,0.8c-0.4,0.4-0.7,0.8-0.9,1.3C551.3,42.4,551.2,43,551.2,43.5z"/>
	<path d="M564.8,50.7l2.4-14.3h3.7l2.9,7.6l2.9-7.6h3.7l2.4,14.3h-3.7l-1.2-8.2l-3.4,8.2H573l-3.2-8.2l-1.2,8.2H564.8z"/>
	<path d="M593.3,39.5h-4.4v2.4h4.2v3.2h-4.2v2.5h4.4v3.2h-8.2V36.4h8.2V39.5z"/>
	<path d="M610.6,39.5h-4.4v2.4h4.2v3.2h-4.2v2.5h4.4v3.2h-8.2V36.4h8.2V39.5z"/>
	<path d="M622,48.2h-5.3l-0.9,2.5h-4l5.5-14.3h4.1l5.5,14.3h-4L622,48.2z M621.1,45.4l-1.7-4.8l-1.7,4.8H621.1z"/>
	<path d="M640.4,50.7h-4.6l-3.6-5.5v5.5h-3.7V36.4h5.8c0.8,0,1.5,0.1,2.1,0.4s1.1,0.6,1.5,1s0.7,0.9,0.9,1.4
		c0.2,0.5,0.3,1.1,0.3,1.7c0,1.1-0.3,2-0.8,2.7s-1.3,1.1-2.3,1.4L640.4,50.7z M632.2,42.8h0.7c0.7,0,1.3-0.2,1.7-0.5
		s0.6-0.7,0.6-1.3c0-0.6-0.2-1-0.6-1.3s-1-0.5-1.7-0.5h-0.7V42.8z"/>
	<path d="M642,50.7V36.4h3.7l6.9,8.8v-8.8h3.7v14.3h-3.7l-6.9-8.8v8.8H642z"/>
	<path d="M667.4,39.5H663v2.4h4.2v3.2H663v2.5h4.4v3.2h-8.2V36.4h8.2V39.5z"/>
	<path d="M682,50.7h-4.6l-3.6-5.5v5.5h-3.7V36.4h5.8c0.8,0,1.5,0.1,2.1,0.4s1.1,0.6,1.5,1s0.7,0.9,0.9,1.4c0.2,0.5,0.3,1.1,0.3,1.7
		c0,1.1-0.3,2-0.8,2.7s-1.3,1.1-2.3,1.4L682,50.7z M673.8,42.8h0.7c0.7,0,1.3-0.2,1.7-0.5s0.6-0.7,0.6-1.3c0-0.6-0.2-1-0.6-1.3
		s-1-0.5-1.7-0.5h-0.7V42.8z"/>
	<path d="M691.5,40c-0.4-0.3-0.8-0.6-1.2-0.7c-0.4-0.2-0.8-0.2-1.2-0.2c-0.5,0-0.9,0.1-1.2,0.3c-0.3,0.2-0.5,0.5-0.5,0.9
		c0,0.3,0.1,0.5,0.2,0.6c0.2,0.2,0.4,0.3,0.6,0.4c0.2,0.1,0.5,0.2,0.8,0.3c0.3,0.1,0.6,0.2,0.9,0.3c1.2,0.4,2.1,0.9,2.7,1.6
		c0.6,0.7,0.8,1.6,0.8,2.7c0,0.7-0.1,1.4-0.4,2s-0.6,1.1-1.1,1.5c-0.5,0.4-1.1,0.8-1.7,1c-0.7,0.2-1.5,0.4-2.3,0.4
		c-1.8,0-3.5-0.5-5-1.6l1.6-3c0.6,0.5,1.1,0.9,1.7,1.1c0.5,0.2,1.1,0.4,1.6,0.4c0.6,0,1.1-0.1,1.4-0.4s0.4-0.6,0.4-1
		c0-0.2,0-0.4-0.1-0.6s-0.2-0.3-0.4-0.4c-0.2-0.1-0.4-0.3-0.7-0.4c-0.3-0.1-0.6-0.2-1-0.4c-0.5-0.2-1-0.3-1.4-0.5
		c-0.5-0.2-0.9-0.4-1.2-0.7c-0.4-0.3-0.7-0.7-0.9-1.1c-0.2-0.5-0.3-1-0.3-1.8c0-0.7,0.1-1.4,0.4-1.9c0.2-0.6,0.6-1.1,1-1.5
		c0.4-0.4,0.9-0.7,1.6-1c0.6-0.2,1.3-0.3,2.1-0.3c0.7,0,1.5,0.1,2.2,0.3s1.5,0.5,2.2,0.9L691.5,40z"/>
	<path d="M702.3,36.4h5.5c1.3,0,2.3,0.3,3,1c0.7,0.6,1,1.5,1,2.7c0,0.7-0.1,1.3-0.4,1.8c-0.3,0.5-0.7,0.9-1.2,1.2
		c0.5,0.1,1,0.3,1.4,0.5s0.7,0.5,0.9,0.8c0.2,0.3,0.4,0.6,0.5,1c0.1,0.4,0.2,0.8,0.2,1.2c0,0.7-0.1,1.3-0.4,1.8s-0.6,1-1,1.3
		c-0.4,0.4-0.9,0.6-1.5,0.8c-0.6,0.2-1.3,0.3-2.1,0.3h-6V36.4z M706,42h0.7c1.2,0,1.7-0.5,1.7-1.4s-0.6-1.4-1.7-1.4H706V42z
		 M706,47.8h0.8c0.9,0,1.6-0.1,2-0.4c0.4-0.2,0.6-0.6,0.6-1.2s-0.2-0.9-0.6-1.2c-0.4-0.2-1.1-0.4-2-0.4H706V47.8z"/>
	<path d="M718.1,43.8l-5.2-7.4h4.4l2.7,3.9l2.6-3.9h4.4l-5.2,7.4v6.9h-3.7V43.8z"/>
	<path d="M742.7,40c-0.4-0.3-0.8-0.6-1.2-0.7c-0.4-0.2-0.8-0.2-1.2-0.2c-0.5,0-0.9,0.1-1.2,0.3c-0.3,0.2-0.5,0.5-0.5,0.9
		c0,0.3,0.1,0.5,0.2,0.6c0.2,0.2,0.4,0.3,0.6,0.4c0.2,0.1,0.5,0.2,0.8,0.3c0.3,0.1,0.6,0.2,0.9,0.3c1.2,0.4,2.1,0.9,2.7,1.6
		c0.6,0.7,0.8,1.6,0.8,2.7c0,0.7-0.1,1.4-0.4,2s-0.6,1.1-1.1,1.5c-0.5,0.4-1.1,0.8-1.7,1c-0.7,0.2-1.5,0.4-2.3,0.4
		c-1.8,0-3.5-0.5-5-1.6l1.6-3c0.6,0.5,1.1,0.9,1.7,1.1c0.5,0.2,1.1,0.4,1.6,0.4c0.6,0,1.1-0.1,1.4-0.4s0.4-0.6,0.4-1
		c0-0.2,0-0.4-0.1-0.6s-0.2-0.3-0.4-0.4c-0.2-0.1-0.4-0.3-0.7-0.4c-0.3-0.1-0.6-0.2-1-0.4c-0.5-0.2-1-0.3-1.4-0.5
		c-0.5-0.2-0.9-0.4-1.2-0.7c-0.4-0.3-0.7-0.7-0.9-1.1c-0.2-0.5-0.3-1-0.3-1.8c0-0.7,0.1-1.4,0.4-1.9c0.2-0.6,0.6-1.1,1-1.5
		c0.4-0.4,0.9-0.7,1.6-1c0.6-0.2,1.3-0.3,2.1-0.3c0.7,0,1.5,0.1,2.2,0.3s1.5,0.5,2.2,0.9L742.7,40z"/>
	<path d="M752.6,39.5v11.2h-3.7V39.5h-3.1v-3.2h9.8v3.2H752.6z"/>
	<path d="M765.4,48.2h-5.3l-0.9,2.5h-4l5.5-14.3h4.1l5.5,14.3h-4L765.4,48.2z M764.5,45.4l-1.7-4.8l-1.7,4.8H764.5z"/>
	<path d="M776.7,39.5v11.2H773V39.5h-3.1v-3.2h9.8v3.2H776.7z"/>
	<path d="M789.6,39.5h-4.4v2.4h4.2v3.2h-4.2v2.5h4.4v3.2h-8.2V36.4h8.2V39.5z"/>
	<path d="M807.5,48.2h-5.3l-0.9,2.5h-4l5.5-14.3h4.1l5.5,14.3h-4L807.5,48.2z M806.5,45.4l-1.7-4.8l-1.7,4.8H806.5z"/>
	<path d="M813.9,50.7V36.4h3.7l6.9,8.8v-8.8h3.7v14.3h-3.7l-6.9-8.8v8.8H813.9z"/>
	<path d="M831.3,36.4h5.5c1,0,1.9,0.2,2.7,0.6c0.9,0.4,1.6,0.9,2.2,1.6c0.6,0.7,1.1,1.4,1.5,2.3c0.4,0.9,0.6,1.8,0.6,2.7
		c0,0.9-0.2,1.8-0.5,2.7c-0.4,0.9-0.9,1.6-1.5,2.3c-0.6,0.7-1.4,1.2-2.2,1.6c-0.9,0.4-1.8,0.6-2.8,0.6h-5.5V36.4z M835,47.5h0.9
		c0.6,0,1.2-0.1,1.7-0.3c0.5-0.2,0.9-0.5,1.3-0.8c0.3-0.4,0.6-0.8,0.8-1.3c0.2-0.5,0.3-1,0.3-1.6c0-0.6-0.1-1.1-0.3-1.6
		c-0.2-0.5-0.5-0.9-0.8-1.3c-0.3-0.4-0.8-0.6-1.3-0.8c-0.5-0.2-1.1-0.3-1.7-0.3H835V47.5z"/>
	<path d="M860.8,39.5h-4.4v2.4h4.2v3.2h-4.2v2.5h4.4v3.2h-8.2V36.4h8.2V39.5z"/>
	<path d="M868.9,39.5v11.2h-3.7V39.5h-3.1v-3.2h9.8v3.2H868.9z"/>
	<path d="M877.3,41.9h5.4v-5.5h3.7v14.3h-3.7v-5.9h-5.4v5.9h-3.7V36.4h3.7V41.9z"/>
	<path d="M889.5,50.7V36.4h3.7l6.9,8.8v-8.8h3.7v14.3h-3.7l-6.9-8.8v8.8H889.5z"/>
	<path d="M910.5,36.4v14.3h-3.7V36.4H910.5z"/>
	<path d="M923.8,41.2c-0.9-1.1-1.9-1.6-3.2-1.6c-0.6,0-1.1,0.1-1.5,0.3c-0.5,0.2-0.9,0.5-1.2,0.8c-0.3,0.3-0.6,0.8-0.8,1.2
		c-0.2,0.5-0.3,1-0.3,1.6c0,0.6,0.1,1.1,0.3,1.6c0.2,0.5,0.5,0.9,0.8,1.3s0.8,0.6,1.2,0.8c0.5,0.2,1,0.3,1.5,0.3
		c1.2,0,2.3-0.5,3.2-1.5v4.4l-0.4,0.1c-0.6,0.2-1.1,0.4-1.6,0.4c-0.5,0.1-1,0.1-1.5,0.1c-1,0-1.9-0.2-2.8-0.6
		c-0.9-0.4-1.7-0.9-2.4-1.6s-1.2-1.5-1.7-2.4s-0.6-1.9-0.6-3c0-1.1,0.2-2.1,0.6-3c0.4-0.9,1-1.7,1.7-2.4c0.7-0.7,1.5-1.2,2.4-1.6
		c0.9-0.4,1.9-0.6,2.9-0.6c0.6,0,1.1,0.1,1.7,0.2c0.6,0.1,1.1,0.3,1.7,0.6V41.2z"/>
	<path d="M929.9,36.4v14.3h-3.7V36.4H929.9z"/>
	<path d="M938.3,39.5v11.2h-3.7V39.5h-3.1v-3.2h9.8v3.2H938.3z"/>
	<path d="M947.4,43.8l-5.2-7.4h4.4l2.7,3.9l2.6-3.9h4.4l-5.2,7.4v6.9h-3.7V43.8z"/>
	<path d="M964,34.9h2.7L958.9,54h-2.7L964,34.9z"/>
	<path d="M980.3,50.7h-4.6l-3.6-5.5v5.5h-3.7V36.4h5.8c0.8,0,1.5,0.1,2.1,0.4s1.1,0.6,1.5,1s0.7,0.9,0.9,1.4
		c0.2,0.5,0.3,1.1,0.3,1.7c0,1.1-0.3,2-0.8,2.7s-1.3,1.1-2.3,1.4L980.3,50.7z M972.1,42.8h0.7c0.7,0,1.3-0.2,1.7-0.5
		s0.6-0.7,0.6-1.3c0-0.6-0.2-1-0.6-1.3s-1-0.5-1.7-0.5h-0.7V42.8z"/>
	<path d="M990.6,48.2h-5.3l-0.9,2.5h-4l5.5-14.3h4.1l5.5,14.3h-4L990.6,48.2z M989.6,45.4l-1.7-4.8l-1.7,4.8H989.6z"/>
	<path d="M1006.8,41.2c-0.9-1.1-1.9-1.6-3.2-1.6c-0.6,0-1.1,0.1-1.5,0.3c-0.5,0.2-0.9,0.5-1.2,0.8c-0.3,0.3-0.6,0.8-0.8,1.2
		c-0.2,0.5-0.3,1-0.3,1.6c0,0.6,0.1,1.1,0.3,1.6c0.2,0.5,0.5,0.9,0.8,1.3s0.8,0.6,1.2,0.8c0.5,0.2,1,0.3,1.5,0.3
		c1.2,0,2.3-0.5,3.2-1.5v4.4l-0.4,0.1c-0.6,0.2-1.1,0.4-1.6,0.4c-0.5,0.1-1,0.1-1.5,0.1c-1,0-1.9-0.2-2.8-0.6
		c-0.9-0.4-1.7-0.9-2.4-1.6s-1.2-1.5-1.7-2.4s-0.6-1.9-0.6-3c0-1.1,0.2-2.1,0.6-3c0.4-0.9,1-1.7,1.7-2.4c0.7-0.7,1.5-1.2,2.4-1.6
		c0.9-0.4,1.9-0.6,2.9-0.6c0.6,0,1.1,0.1,1.7,0.2c0.6,0.1,1.1,0.3,1.7,0.6V41.2z"/>
	<path d="M1017.3,39.5h-4.4v2.4h4.2v3.2h-4.2v2.5h4.4v3.2h-8.2V36.4h8.2V39.5z"/>
	<path d="M1030.2,36.4v14.3h-3.7V36.4H1030.2z"/>
	<path d="M1033.2,50.7V36.4h3.7l6.9,8.8v-8.8h3.7v14.3h-3.7l-6.9-8.8v8.8H1033.2z"/>
	<path d="M1067.5,50.7H1056l3.6-3.7c0.9-1,1.7-1.8,2.2-2.5s0.9-1.3,1.2-1.7s0.4-0.8,0.5-1.1c0.1-0.3,0.1-0.5,0.1-0.7
		c0-0.2,0-0.4-0.1-0.6c-0.1-0.2-0.2-0.4-0.3-0.5s-0.3-0.3-0.5-0.4c-0.2-0.1-0.4-0.1-0.7-0.1c-0.5,0-0.9,0.2-1.2,0.5
		c-0.3,0.3-0.4,0.7-0.4,1.2c0,0.1,0,0.3,0.1,0.6h-4.1c0-0.8,0.1-1.6,0.4-2.3c0.3-0.7,0.7-1.3,1.1-1.8s1.1-0.9,1.8-1.1
		c0.7-0.3,1.4-0.4,2.2-0.4c0.8,0,1.5,0.1,2.2,0.4c0.7,0.3,1.3,0.6,1.8,1.1s0.9,1,1.2,1.6c0.3,0.6,0.4,1.3,0.4,2
		c0,0.8-0.2,1.5-0.5,2.2c-0.3,0.7-0.9,1.3-1.6,2l-2.4,2.2h4.6V50.7z"/>
	<path d="M1068.8,43.5c0-1.1,0.1-2.2,0.4-3.1c0.3-0.9,0.7-1.7,1.3-2.4c0.5-0.7,1.2-1.2,1.9-1.5c0.7-0.4,1.6-0.5,2.5-0.5
		c0.9,0,1.7,0.2,2.5,0.5c0.7,0.4,1.4,0.9,1.9,1.5s0.9,1.5,1.2,2.4c0.3,0.9,0.4,2,0.4,3.1c0,1.1-0.1,2.2-0.4,3.1
		c-0.3,0.9-0.7,1.7-1.2,2.4s-1.2,1.2-1.9,1.5c-0.7,0.4-1.6,0.5-2.5,0.5c-0.9,0-1.7-0.2-2.5-0.5c-0.7-0.4-1.4-0.9-1.9-1.5
		c-0.5-0.7-1-1.5-1.3-2.4C1068.9,45.7,1068.8,44.6,1068.8,43.5z M1072.5,43.5c0,0.6,0.1,1.2,0.2,1.7c0.1,0.5,0.3,1,0.5,1.3
		c0.2,0.4,0.5,0.7,0.8,0.9c0.3,0.2,0.6,0.3,1,0.3c0.4,0,0.7-0.1,1-0.3s0.5-0.5,0.8-0.9c0.2-0.4,0.4-0.8,0.5-1.3s0.2-1.1,0.2-1.7
		c0-0.6-0.1-1.2-0.2-1.7s-0.3-1-0.5-1.3c-0.2-0.4-0.5-0.7-0.8-0.9c-0.3-0.2-0.6-0.3-1-0.3c-0.4,0-0.7,0.1-1,0.3
		c-0.3,0.2-0.5,0.5-0.8,0.9c-0.2,0.4-0.4,0.8-0.5,1.3C1072.5,42.3,1072.5,42.9,1072.5,43.5z"/>
	<path d="M1085.4,39.5h-2.1v-3.2h5.8v14.3h-3.7V39.5z"/>
	<path d="M1094.9,50.7l4.1-4.7h-0.1c-0.4,0.2-0.6,0.3-0.9,0.4c-0.2,0-0.4,0.1-0.6,0.1c-0.7,0-1.3-0.1-1.9-0.4
		c-0.6-0.3-1.1-0.6-1.5-1.1c-0.4-0.5-0.8-1-1-1.6c-0.2-0.6-0.4-1.3-0.4-2c0-0.8,0.1-1.5,0.4-2.1s0.7-1.2,1.2-1.7
		c0.5-0.5,1.2-0.9,1.9-1.1c0.7-0.3,1.6-0.4,2.5-0.4c0.9,0,1.8,0.1,2.5,0.4c0.7,0.3,1.4,0.7,1.9,1.1s0.9,1,1.2,1.7
		c0.3,0.6,0.4,1.3,0.4,2c0,0.8-0.2,1.7-0.5,2.6s-0.9,1.9-1.7,2.8l-3.3,4H1094.9z M1101.1,41.3c0-0.3-0.1-0.6-0.2-0.9
		c-0.1-0.3-0.3-0.5-0.5-0.8c-0.2-0.2-0.5-0.4-0.8-0.5c-0.3-0.1-0.6-0.2-0.9-0.2s-0.6,0.1-0.9,0.2c-0.3,0.1-0.5,0.3-0.8,0.5
		c-0.2,0.2-0.4,0.5-0.5,0.8c-0.1,0.3-0.2,0.6-0.2,0.9c0,0.3,0.1,0.6,0.2,0.9c0.1,0.3,0.3,0.5,0.5,0.8c0.2,0.2,0.5,0.4,0.8,0.5
		c0.3,0.1,0.6,0.2,0.9,0.2s0.6-0.1,0.9-0.2c0.3-0.1,0.5-0.3,0.8-0.5c0.2-0.2,0.4-0.5,0.5-0.8C1101,41.9,1101.1,41.6,1101.1,41.3z"/>
</g>
<g class="st5">
	<path d="M1133.9,86h-2.8v1.5h2.6v2h-2.6V91h2.8v2h-5.1v-9h5.1V86z"/>
	<path d="M1137.8,88.7V93h-2.2v-4.3h-0.7v-1.8h0.7V85h2.2v1.8h1.2v1.8H1137.8z"/>
	<path d="M1140.1,83.1h2.2v4.6c0.3-0.4,0.6-0.6,0.9-0.7c0.3-0.1,0.7-0.2,1.1-0.2c0.8,0,1.4,0.2,1.8,0.6c0.4,0.4,0.6,1,0.6,1.7V93
		h-2.2v-3.1c0-0.3,0-0.6-0.1-0.8c0-0.2-0.1-0.3-0.2-0.4c-0.2-0.2-0.4-0.3-0.7-0.3c-0.4,0-0.7,0.1-0.8,0.3c-0.2,0.2-0.3,0.5-0.3,0.9
		V93h-2.2V83.1z"/>
	<path d="M1148.1,86.9h2.2v0.8c0.3-0.4,0.6-0.6,0.9-0.7c0.3-0.1,0.7-0.2,1.1-0.2c0.4,0,0.8,0.1,1.1,0.2c0.3,0.1,0.6,0.3,0.8,0.6
		c0.2,0.2,0.3,0.4,0.4,0.7c0.1,0.3,0.1,0.5,0.1,0.9V93h-2.2v-3.1c0-0.3,0-0.5-0.1-0.7c0-0.2-0.1-0.3-0.2-0.5
		c-0.1-0.1-0.2-0.2-0.3-0.2s-0.2-0.1-0.4-0.1c-0.4,0-0.7,0.1-0.8,0.3c-0.2,0.2-0.3,0.5-0.3,0.9V93h-2.2V86.9z"/>
	<path d="M1155.9,84.5c0-0.2,0-0.3,0.1-0.5c0.1-0.1,0.2-0.3,0.3-0.4s0.2-0.2,0.4-0.3c0.1-0.1,0.3-0.1,0.5-0.1s0.3,0,0.5,0.1
		c0.1,0.1,0.3,0.2,0.4,0.3c0.1,0.1,0.2,0.2,0.3,0.4c0.1,0.1,0.1,0.3,0.1,0.5c0,0.2,0,0.3-0.1,0.5s-0.2,0.3-0.3,0.4
		c-0.1,0.1-0.2,0.2-0.4,0.3c-0.1,0.1-0.3,0.1-0.5,0.1s-0.3,0-0.5-0.1c-0.1-0.1-0.3-0.2-0.4-0.3c-0.1-0.1-0.2-0.2-0.3-0.4
		C1156,84.8,1155.9,84.7,1155.9,84.5z M1158.2,86.9V93h-2.2v-6.2H1158.2z"/>
	<path d="M1164.4,88.9c-0.4-0.3-0.8-0.4-1.1-0.4c-0.2,0-0.4,0-0.6,0.1c-0.2,0.1-0.3,0.2-0.5,0.3c-0.1,0.1-0.2,0.3-0.3,0.5
		s-0.1,0.4-0.1,0.6c0,0.2,0,0.4,0.1,0.6c0.1,0.2,0.2,0.3,0.3,0.5s0.3,0.2,0.5,0.3c0.2,0.1,0.4,0.1,0.6,0.1c0.4,0,0.8-0.1,1.1-0.4
		v1.8c-0.5,0.2-1,0.3-1.5,0.3c-0.4,0-0.9-0.1-1.3-0.2c-0.4-0.2-0.8-0.4-1.1-0.7c-0.3-0.3-0.6-0.6-0.7-1c-0.2-0.4-0.3-0.8-0.3-1.3
		c0-0.5,0.1-0.9,0.3-1.3c0.2-0.4,0.4-0.8,0.7-1s0.7-0.5,1.1-0.7s0.9-0.2,1.3-0.2c0.5,0,1,0.1,1.5,0.3V88.9z"/>
	<path d="M1169.8,83.1h1.7l-4.9,12h-1.7L1169.8,83.1z"/>
	<path d="M1180.1,93h-2.9l-2.2-3.5V93h-2.4v-9h3.7c0.5,0,0.9,0.1,1.3,0.2c0.4,0.1,0.7,0.4,0.9,0.6s0.4,0.6,0.6,0.9s0.2,0.7,0.2,1.1
		c0,0.7-0.2,1.2-0.5,1.7c-0.3,0.4-0.8,0.7-1.5,0.9L1180.1,93z M1174.9,88h0.4c0.5,0,0.8-0.1,1.1-0.3s0.4-0.5,0.4-0.8
		s-0.1-0.6-0.4-0.8c-0.2-0.2-0.6-0.3-1.1-0.3h-0.4V88z"/>
	<path d="M1185.4,86.9h2.2V93h-2.2v-0.7c-0.5,0.6-1.1,0.9-1.9,0.9c-0.4,0-0.9-0.1-1.2-0.2s-0.7-0.4-1-0.7c-0.3-0.3-0.5-0.6-0.7-1
		c-0.2-0.4-0.2-0.8-0.2-1.3c0-0.4,0.1-0.9,0.2-1.3c0.2-0.4,0.4-0.7,0.6-1c0.3-0.3,0.6-0.5,1-0.7s0.8-0.3,1.2-0.3
		c0.8,0,1.4,0.3,1.9,0.8V86.9z M1182.7,89.9c0,0.2,0,0.4,0.1,0.6s0.2,0.3,0.3,0.5s0.3,0.2,0.4,0.3s0.4,0.1,0.6,0.1
		c0.2,0,0.4,0,0.5-0.1s0.3-0.2,0.4-0.3s0.2-0.3,0.3-0.4s0.1-0.3,0.1-0.5c0-0.2,0-0.4-0.1-0.5s-0.2-0.3-0.3-0.5
		c-0.1-0.1-0.3-0.2-0.4-0.3s-0.4-0.1-0.5-0.1c-0.2,0-0.4,0-0.6,0.1s-0.3,0.2-0.4,0.3c-0.1,0.1-0.2,0.3-0.3,0.4
		S1182.7,89.8,1182.7,89.9z"/>
	<path d="M1193.8,88.9c-0.4-0.3-0.8-0.4-1.1-0.4c-0.2,0-0.4,0-0.6,0.1c-0.2,0.1-0.3,0.2-0.5,0.3c-0.1,0.1-0.2,0.3-0.3,0.5
		c-0.1,0.2-0.1,0.4-0.1,0.6c0,0.2,0,0.4,0.1,0.6c0.1,0.2,0.2,0.3,0.3,0.5s0.3,0.2,0.5,0.3c0.2,0.1,0.4,0.1,0.6,0.1
		c0.4,0,0.8-0.1,1.1-0.4v1.8c-0.5,0.2-1,0.3-1.5,0.3c-0.4,0-0.9-0.1-1.3-0.2c-0.4-0.2-0.8-0.4-1.1-0.7c-0.3-0.3-0.6-0.6-0.7-1
		c-0.2-0.4-0.3-0.8-0.3-1.3c0-0.5,0.1-0.9,0.3-1.3s0.4-0.8,0.7-1c0.3-0.3,0.7-0.5,1.1-0.7c0.4-0.2,0.9-0.2,1.3-0.2
		c0.5,0,1,0.1,1.5,0.3V88.9z"/>
	<path d="M1194.8,84.5c0-0.2,0-0.3,0.1-0.5c0.1-0.1,0.2-0.3,0.3-0.4c0.1-0.1,0.2-0.2,0.4-0.3c0.1-0.1,0.3-0.1,0.5-0.1
		c0.2,0,0.3,0,0.5,0.1c0.1,0.1,0.3,0.2,0.4,0.3s0.2,0.2,0.3,0.4c0.1,0.1,0.1,0.3,0.1,0.5c0,0.2,0,0.3-0.1,0.5
		c-0.1,0.1-0.2,0.3-0.3,0.4c-0.1,0.1-0.2,0.2-0.4,0.3c-0.1,0.1-0.3,0.1-0.5,0.1c-0.2,0-0.3,0-0.5-0.1c-0.1-0.1-0.3-0.2-0.4-0.3
		c-0.1-0.1-0.2-0.2-0.3-0.4C1194.9,84.8,1194.8,84.7,1194.8,84.5z M1197.2,86.9V93h-2.2v-6.2H1197.2z"/>
	<path d="M1203.4,86.9h2.2V93h-2.2v-0.7c-0.5,0.6-1.1,0.9-1.9,0.9c-0.4,0-0.9-0.1-1.2-0.2s-0.7-0.4-1-0.7s-0.5-0.6-0.7-1
		c-0.2-0.4-0.2-0.8-0.2-1.3c0-0.4,0.1-0.9,0.2-1.3c0.2-0.4,0.4-0.7,0.6-1c0.3-0.3,0.6-0.5,1-0.7s0.8-0.3,1.2-0.3
		c0.8,0,1.4,0.3,1.9,0.8V86.9z M1200.7,89.9c0,0.2,0,0.4,0.1,0.6c0.1,0.2,0.2,0.3,0.3,0.5s0.3,0.2,0.4,0.3s0.4,0.1,0.6,0.1
		c0.2,0,0.4,0,0.5-0.1s0.3-0.2,0.4-0.3s0.2-0.3,0.3-0.4c0.1-0.2,0.1-0.3,0.1-0.5c0-0.2,0-0.4-0.1-0.5c-0.1-0.2-0.2-0.3-0.3-0.5
		c-0.1-0.1-0.3-0.2-0.4-0.3s-0.4-0.1-0.5-0.1c-0.2,0-0.4,0-0.6,0.1s-0.3,0.2-0.4,0.3c-0.1,0.1-0.2,0.3-0.3,0.4
		C1200.7,89.6,1200.7,89.8,1200.7,89.9z"/>
	<path d="M1209.2,83.1v10h-2.2v-10H1209.2z"/>
	<path d="M1219.4,88h4.7c0,0.5,0,0.9-0.1,1.3s-0.1,0.8-0.2,1.1c-0.2,0.5-0.4,0.9-0.7,1.3s-0.6,0.7-1,0.9c-0.4,0.2-0.8,0.4-1.3,0.6
		c-0.5,0.1-1,0.2-1.5,0.2c-0.7,0-1.3-0.1-1.9-0.3c-0.6-0.2-1.1-0.6-1.5-1s-0.7-0.9-1-1.5s-0.3-1.2-0.3-2c0-0.7,0.1-1.3,0.3-1.9
		c0.2-0.6,0.6-1.1,1-1.5c0.4-0.4,0.9-0.7,1.5-1c0.6-0.2,1.3-0.3,2-0.3c0.9,0,1.8,0.2,2.5,0.6c0.7,0.4,1.3,1,1.7,1.9l-2.2,0.9
		c-0.2-0.5-0.5-0.9-0.8-1.1c-0.3-0.2-0.7-0.3-1.1-0.3c-0.4,0-0.7,0.1-1,0.2c-0.3,0.1-0.5,0.3-0.7,0.6c-0.2,0.2-0.4,0.5-0.5,0.9
		c-0.1,0.3-0.2,0.7-0.2,1.2c0,0.4,0,0.7,0.1,1.1c0.1,0.3,0.2,0.6,0.5,0.9s0.4,0.4,0.7,0.6c0.3,0.1,0.6,0.2,1,0.2
		c0.2,0,0.5,0,0.7-0.1c0.2-0.1,0.4-0.1,0.6-0.3c0.2-0.1,0.3-0.3,0.4-0.5c0.1-0.2,0.2-0.4,0.2-0.7h-1.9V88z"/>
	<path d="M1225.4,86.9h2.2v1c0.2-0.4,0.5-0.6,0.9-0.8c0.3-0.2,0.7-0.3,1.2-0.3c0.1,0,0.1,0,0.2,0s0.1,0,0.2,0v2.1
		c-0.3-0.1-0.6-0.2-0.9-0.2c-0.5,0-0.9,0.2-1.1,0.5s-0.4,0.7-0.4,1.3V93h-2.2V86.9z"/>
	<path d="M1230.8,89.9c0-0.5,0.1-0.9,0.3-1.3c0.2-0.4,0.4-0.7,0.8-1c0.3-0.3,0.7-0.5,1.2-0.7s0.9-0.3,1.5-0.3c0.5,0,1,0.1,1.5,0.2
		s0.8,0.4,1.2,0.7s0.6,0.6,0.8,1c0.2,0.4,0.3,0.9,0.3,1.3c0,0.5-0.1,0.9-0.3,1.3c-0.2,0.4-0.4,0.8-0.8,1c-0.3,0.3-0.7,0.5-1.2,0.7
		c-0.5,0.2-1,0.2-1.5,0.2c-0.5,0-1-0.1-1.5-0.2c-0.4-0.2-0.8-0.4-1.2-0.7s-0.6-0.6-0.8-1.1C1230.8,90.9,1230.8,90.4,1230.8,89.9z
		 M1233,89.9c0,0.2,0,0.4,0.1,0.6s0.2,0.3,0.3,0.5s0.3,0.2,0.4,0.3c0.2,0.1,0.4,0.1,0.5,0.1c0.2,0,0.4,0,0.5-0.1s0.3-0.2,0.4-0.3
		c0.1-0.1,0.2-0.3,0.3-0.5s0.1-0.4,0.1-0.6c0-0.2,0-0.4-0.1-0.5s-0.2-0.3-0.3-0.5c-0.1-0.1-0.3-0.2-0.4-0.3
		c-0.2-0.1-0.4-0.1-0.5-0.1c-0.2,0-0.4,0-0.5,0.1c-0.2,0.1-0.3,0.2-0.4,0.3s-0.2,0.3-0.3,0.4S1233,89.7,1233,89.9z"/>
	<path d="M1241.6,86.9v3.5c0,0.8,0.4,1.1,1.1,1.1c0.7,0,1.1-0.4,1.1-1.1v-3.5h2.2v3.9c0,0.8-0.3,1.5-0.8,1.9
		c-0.5,0.4-1.4,0.6-2.5,0.6s-1.9-0.2-2.5-0.6c-0.5-0.4-0.8-1-0.8-1.9v-3.9H1241.6z"/>
	<path d="M1249.6,96.1h-2.2v-9.2h2.2v0.7c0.5-0.6,1.1-0.9,1.9-0.9c0.4,0,0.9,0.1,1.2,0.3s0.7,0.4,1,0.7c0.3,0.3,0.5,0.6,0.7,1
		c0.2,0.4,0.2,0.8,0.2,1.3s-0.1,0.9-0.2,1.3c-0.2,0.4-0.4,0.7-0.6,1s-0.6,0.5-1,0.7s-0.8,0.3-1.2,0.3c-0.8,0-1.4-0.3-1.9-0.8V96.1z
		 M1252.3,90c0-0.2,0-0.4-0.1-0.5c-0.1-0.2-0.2-0.3-0.3-0.4s-0.3-0.2-0.5-0.3c-0.2-0.1-0.4-0.1-0.6-0.1c-0.2,0-0.4,0-0.5,0.1
		s-0.3,0.2-0.4,0.3c-0.1,0.1-0.2,0.3-0.3,0.5s-0.1,0.4-0.1,0.5c0,0.2,0,0.4,0.1,0.5s0.2,0.3,0.3,0.4s0.3,0.2,0.5,0.3
		s0.4,0.1,0.5,0.1c0.2,0,0.4,0,0.5-0.1s0.3-0.2,0.4-0.3s0.2-0.3,0.3-0.4S1252.3,90.2,1252.3,90z"/>
</g>
</svg>
