<?xml version="1.0" encoding="UTF-8"?>
<svg id="Layer_1" data-name="Layer 1" xmlns="http://www.w3.org/2000/svg" viewBox="0 0 1181 559">
  <defs>
    <style>
      .cls-1 {
        letter-spacing: -.07em;
      }

      .cls-2 {
        letter-spacing: -.08em;
      }

      .cls-3 {
        letter-spacing: -.09em;
      }

      .cls-4 {
        letter-spacing: -.15em;
      }

      .cls-5 {
        letter-spacing: -.08em;
      }

      .cls-6 {
        letter-spacing: 0em;
      }

      .cls-7 {
        letter-spacing: -.08em;
      }

      .cls-8 {
        fill: green;
      }

      .cls-9 {
        fill: #ebf7de;
      }

      .cls-10 {
        letter-spacing: -.06em;
      }

      .cls-11 {
        letter-spacing: .01em;
      }

      .cls-12 {
        letter-spacing: -.09em;
      }

      .cls-13 {
        letter-spacing: -.02em;
      }

      .cls-14 {
        letter-spacing: 0em;
      }

      .cls-15 {
        letter-spacing: 0em;
      }

      .cls-16 {
        letter-spacing: 0em;
      }

      .cls-17 {
        letter-spacing: .01em;
      }

      .cls-18 {
        letter-spacing: 0em;
      }

      .cls-19 {
        fill: #fff;
      }

      .cls-19, .cls-20 {
        opacity: .7;
      }

      .cls-19, .cls-20, .cls-21, .cls-22, .cls-23, .cls-24 {
        isolation: isolate;
      }

      .cls-25 {
        letter-spacing: -.08em;
      }

      .cls-26 {
        letter-spacing: -.03em;
      }

      .cls-27 {
        letter-spacing: 0em;
      }

      .cls-28, .cls-29, .cls-30, .cls-20, .cls-31 {
        fill: none;
        stroke-miterlimit: 10;
      }

      .cls-28, .cls-20 {
        stroke: green;
      }

      .cls-29 {
        stroke: #888;
      }

      .cls-30 {
        stroke: #ddd;
      }

      .cls-32 {
        letter-spacing: 0em;
      }

      .cls-33 {
        opacity: .43;
      }

      .cls-34 {
        letter-spacing: -.04em;
      }

      .cls-35 {
        letter-spacing: -.04em;
      }

      .cls-36 {
        letter-spacing: -.02em;
      }

      .cls-37 {
        letter-spacing: -.08em;
      }

      .cls-20 {
        stroke-width: 2px;
      }

      .cls-38 {
        letter-spacing: -.03em;
      }

      .cls-21, .cls-23 {
        font-family: Futura-Medium, Futura;
        font-size: 10px;
        font-weight: 500;
      }

      .cls-39 {
        letter-spacing: -.03em;
      }

      .cls-22 {
        font-size: 12px;
      }

      .cls-22, .cls-24 {
        font-family: Futura-Bold, Futura;
        font-weight: 700;
      }

      .cls-40 {
        letter-spacing: -.03em;
      }

      .cls-23 {
        opacity: 0;
      }

      .cls-24 {
        font-size: 19px;
      }

      .cls-31 {
        stroke: #000;
        stroke-width: .5px;
      }
    </style>
  </defs>
  <rect class="cls-9" x="4.25" width="1176.75" height="559"/>
  <g pointer-events="none">
    <text class="cls-24" transform="translate(341.41 51)"><tspan class="cls-16" x="0" y="0">B</tspan><tspan class="cls-35" x="13.03" y="0">O</tspan><tspan x="29.89" y="0">XP</tspan><tspan class="cls-36" x="58.04" y="0">L</tspan><tspan class="cls-27" x="67.87" y="0">O</tspan><tspan x="85.29" y="0">T OF </tspan><tspan class="cls-32" x="136.36" y="0">S</tspan><tspan class="cls-40" x="148.73" y="0">T</tspan><tspan class="cls-39" x="158.21" y="0">A</tspan><tspan class="cls-6" x="172.82" y="0">TES&apos; MEDIAN I</tspan><tspan class="cls-11" x="315.23" y="0">N</tspan><tspan class="cls-17" x="332.72" y="0">C</tspan><tspan x="345.61" y="0">OMES </tspan><tspan class="cls-34" x="412.41" y="0">B</tspan><tspan class="cls-18" x="424.7" y="0">Y YEAR</tspan></text>
  </g>
  <g>
    <path class="cls-30" d="m117.1,82.5h1000v400H117.1V82.5Z"/>
    <g class="cls-33">
      <g pointer-events="none">
        <line class="cls-31" x1="117.1" y1="482.5" x2="117.1" y2="82.5"/>
        <line class="cls-31" x1="150.1" y1="482.5" x2="150.1" y2="82.5"/>
        <line class="cls-31" x1="184.1" y1="482.5" x2="184.1" y2="82.5"/>
        <line class="cls-31" x1="217.1" y1="482.5" x2="217.1" y2="82.5"/>
        <line class="cls-31" x1="250.1" y1="482.5" x2="250.1" y2="82.5"/>
        <line class="cls-31" x1="284.1" y1="482.5" x2="284.1" y2="82.5"/>
        <line class="cls-31" x1="317.1" y1="482.5" x2="317.1" y2="82.5"/>
        <line class="cls-31" x1="350.1" y1="482.5" x2="350.1" y2="82.5"/>
        <line class="cls-31" x1="384.1" y1="482.5" x2="384.1" y2="82.5"/>
        <line class="cls-31" x1="417.1" y1="482.5" x2="417.1" y2="82.5"/>
        <line class="cls-31" x1="450.1" y1="482.5" x2="450.1" y2="82.5"/>
        <line class="cls-31" x1="484.1" y1="482.5" x2="484.1" y2="82.5"/>
        <line class="cls-31" x1="517.1" y1="482.5" x2="517.1" y2="82.5"/>
        <line class="cls-31" x1="550.1" y1="482.5" x2="550.1" y2="82.5"/>
        <line class="cls-31" x1="584.1" y1="482.5" x2="584.1" y2="82.5"/>
        <line class="cls-31" x1="617.1" y1="482.5" x2="617.1" y2="82.5"/>
        <line class="cls-31" x1="650.1" y1="482.5" x2="650.1" y2="82.5"/>
        <line class="cls-31" x1="684.1" y1="482.5" x2="684.1" y2="82.5"/>
        <line class="cls-31" x1="717.1" y1="482.5" x2="717.1" y2="82.5"/>
        <line class="cls-31" x1="750.1" y1="482.5" x2="750.1" y2="82.5"/>
        <line class="cls-31" x1="784.1" y1="482.5" x2="784.1" y2="82.5"/>
        <line class="cls-31" x1="817.1" y1="482.5" x2="817.1" y2="82.5"/>
        <line class="cls-31" x1="850.1" y1="482.5" x2="850.1" y2="82.5"/>
        <line class="cls-31" x1="884.1" y1="482.5" x2="884.1" y2="82.5"/>
        <line class="cls-31" x1="917.1" y1="482.5" x2="917.1" y2="82.5"/>
        <line class="cls-31" x1="950.1" y1="482.5" x2="950.1" y2="82.5"/>
        <line class="cls-31" x1="984.1" y1="482.5" x2="984.1" y2="82.5"/>
        <line class="cls-31" x1="1017.1" y1="482.5" x2="1017.1" y2="82.5"/>
        <line class="cls-31" x1="1050.1" y1="482.5" x2="1050.1" y2="82.5"/>
        <line class="cls-31" x1="1084.1" y1="482.5" x2="1084.1" y2="82.5"/>
        <line class="cls-31" x1="1117.1" y1="482.5" x2="1117.1" y2="82.5"/>
      </g>
    </g>
    <g pointer-events="none">
      <line class="cls-29" x1="117.1" y1="482.5" x2="117.1" y2="487.5"/>
      <line class="cls-29" x1="150.1" y1="482.5" x2="150.1" y2="487.5"/>
      <line class="cls-29" x1="184.1" y1="482.5" x2="184.1" y2="487.5"/>
      <line class="cls-29" x1="217.1" y1="482.5" x2="217.1" y2="487.5"/>
      <line class="cls-29" x1="250.1" y1="482.5" x2="250.1" y2="487.5"/>
      <line class="cls-29" x1="284.1" y1="482.5" x2="284.1" y2="487.5"/>
      <line class="cls-29" x1="317.1" y1="482.5" x2="317.1" y2="487.5"/>
      <line class="cls-29" x1="350.1" y1="482.5" x2="350.1" y2="487.5"/>
      <line class="cls-29" x1="384.1" y1="482.5" x2="384.1" y2="487.5"/>
      <line class="cls-29" x1="417.1" y1="482.5" x2="417.1" y2="487.5"/>
      <line class="cls-29" x1="450.1" y1="482.5" x2="450.1" y2="487.5"/>
      <line class="cls-29" x1="484.1" y1="482.5" x2="484.1" y2="487.5"/>
      <line class="cls-29" x1="517.1" y1="482.5" x2="517.1" y2="487.5"/>
      <line class="cls-29" x1="550.1" y1="482.5" x2="550.1" y2="487.5"/>
      <line class="cls-29" x1="584.1" y1="482.5" x2="584.1" y2="487.5"/>
      <line class="cls-29" x1="617.1" y1="482.5" x2="617.1" y2="487.5"/>
      <line class="cls-29" x1="650.1" y1="482.5" x2="650.1" y2="487.5"/>
      <line class="cls-29" x1="684.1" y1="482.5" x2="684.1" y2="487.5"/>
      <line class="cls-29" x1="717.1" y1="482.5" x2="717.1" y2="487.5"/>
      <line class="cls-29" x1="750.1" y1="482.5" x2="750.1" y2="487.5"/>
      <line class="cls-29" x1="784.1" y1="482.5" x2="784.1" y2="487.5"/>
      <line class="cls-29" x1="817.1" y1="482.5" x2="817.1" y2="487.5"/>
      <line class="cls-29" x1="850.1" y1="482.5" x2="850.1" y2="487.5"/>
      <line class="cls-29" x1="884.1" y1="482.5" x2="884.1" y2="487.5"/>
      <line class="cls-29" x1="917.1" y1="482.5" x2="917.1" y2="487.5"/>
      <line class="cls-29" x1="950.1" y1="482.5" x2="950.1" y2="487.5"/>
      <line class="cls-29" x1="984.1" y1="482.5" x2="984.1" y2="487.5"/>
      <line class="cls-29" x1="1017.1" y1="482.5" x2="1017.1" y2="487.5"/>
      <line class="cls-29" x1="1050.1" y1="482.5" x2="1050.1" y2="487.5"/>
      <line class="cls-29" x1="1084.1" y1="482.5" x2="1084.1" y2="487.5"/>
      <line class="cls-29" x1="1117.1" y1="482.5" x2="1117.1" y2="487.5"/>
    </g>
    <g pointer-events="none">
      <text class="cls-21" transform="translate(117.1 497.5)"><tspan x="0" y="0">0</tspan></text>
      <text class="cls-23" transform="translate(137.92 497.5)"><tspan x="0" y="0">2,000</tspan></text>
      <text class="cls-21" transform="translate(171.25 497.5)"><tspan x="0" y="0">4,000</tspan></text>
      <text class="cls-23" transform="translate(204.58 497.5)"><tspan x="0" y="0">6,000</tspan></text>
      <text class="cls-21" transform="translate(237.92 497.5)"><tspan x="0" y="0">8,000</tspan></text>
      <text class="cls-23" transform="translate(268.47 497.5)"><tspan class="cls-10" x="0" y="0">1</tspan><tspan x="5.57" y="0">0,000</tspan></text>
      <text class="cls-21" transform="translate(301.8 497.5)"><tspan class="cls-2" x="0" y="0">1</tspan><tspan x="5.38" y="0">2,000</tspan></text>
      <text class="cls-23" transform="translate(335.14 497.5)"><tspan class="cls-2" x="0" y="0">1</tspan><tspan x="5.38" y="0">4,000</tspan></text>
      <text class="cls-21" transform="translate(368.47 497.5)"><tspan class="cls-12" x="0" y="0">1</tspan><tspan x="5.29" y="0">6,000</tspan></text>
      <text class="cls-23" transform="translate(401.8 497.5)"><tspan class="cls-25" x="0" y="0">1</tspan><tspan x="5.42" y="0">8,000</tspan></text>
      <text class="cls-21" transform="translate(435.14 497.5)"><tspan x="0" y="0">20,000</tspan></text>
      <text class="cls-23" transform="translate(468.47 497.5)"><tspan x="0" y="0">22,000</tspan></text>
      <text class="cls-21" transform="translate(501.8 497.5)"><tspan class="cls-14" x="0" y="0">2</tspan><tspan x="6.1" y="0">4,000</tspan></text>
      <text class="cls-23" transform="translate(535.14 497.5)"><tspan x="0" y="0">26,000</tspan></text>
      <text class="cls-21" transform="translate(568.47 497.5)"><tspan x="0" y="0">28,000</tspan></text>
      <text class="cls-23" transform="translate(601.8 497.5)"><tspan x="0" y="0">30,000</tspan></text>
      <text class="cls-21" transform="translate(635.14 497.5)"><tspan x="0" y="0">32,000</tspan></text>
      <text class="cls-23" transform="translate(668.47 497.5)"><tspan class="cls-13" x="0" y="0">3</tspan><tspan x="5.94" y="0">4,000</tspan></text>
      <text class="cls-21" transform="translate(701.8 497.5)"><tspan x="0" y="0">36,000</tspan></text>
      <text class="cls-23" transform="translate(735.14 497.5)"><tspan x="0" y="0">38,000</tspan></text>
      <text class="cls-21" transform="translate(768.47 497.5)"><tspan x="0" y="0">40,000</tspan></text>
      <text class="cls-23" transform="translate(801.8 497.5)"><tspan x="0" y="0">42,000</tspan></text>
      <text class="cls-21" transform="translate(835.14 497.5)"><tspan x="0" y="0">44,000</tspan></text>
      <text class="cls-23" transform="translate(868.47 497.5)"><tspan x="0" y="0">46,000</tspan></text>
      <text class="cls-21" transform="translate(901.8 497.5)"><tspan x="0" y="0">48,000</tspan></text>
      <text class="cls-23" transform="translate(935.14 497.5)"><tspan x="0" y="0">50,000</tspan></text>
      <text class="cls-21" transform="translate(968.47 497.5)"><tspan x="0" y="0">52,000</tspan></text>
      <text class="cls-23" transform="translate(1001.8 497.5)"><tspan class="cls-13" x="0" y="0">5</tspan><tspan x="5.94" y="0">4,000</tspan></text>
      <text class="cls-21" transform="translate(1035.14 497.5)"><tspan x="0" y="0">56,000</tspan></text>
      <text class="cls-23" transform="translate(1068.47 497.5)"><tspan x="0" y="0">58,000</tspan></text>
      <text class="cls-21" transform="translate(1086.51 497.5)"><tspan x="0" y="0">60,000</tspan></text>
    </g>
    <g pointer-events="none">
      <line class="cls-29" x1="117.1" y1="482.5" x2="1117.1" y2="482.5"/>
    </g>
    <g pointer-events="none">
      <line class="cls-29" x1="117.1" y1="95.5" x2="112.1" y2="95.5"/>
      <line class="cls-29" x1="117.1" y1="122.5" x2="112.1" y2="122.5"/>
      <line class="cls-29" x1="117.1" y1="148.5" x2="112.1" y2="148.5"/>
      <line class="cls-29" x1="117.1" y1="175.5" x2="112.1" y2="175.5"/>
      <line class="cls-29" x1="117.1" y1="202.5" x2="112.1" y2="202.5"/>
      <line class="cls-29" x1="117.1" y1="228.5" x2="112.1" y2="228.5"/>
      <line class="cls-29" x1="117.1" y1="255.5" x2="112.1" y2="255.5"/>
      <line class="cls-29" x1="117.1" y1="282.5" x2="112.1" y2="282.5"/>
      <line class="cls-29" x1="117.1" y1="308.5" x2="112.1" y2="308.5"/>
      <line class="cls-29" x1="117.1" y1="335.5" x2="112.1" y2="335.5"/>
      <line class="cls-29" x1="117.1" y1="362.5" x2="112.1" y2="362.5"/>
      <line class="cls-29" x1="117.1" y1="388.5" x2="112.1" y2="388.5"/>
      <line class="cls-29" x1="117.1" y1="415.5" x2="112.1" y2="415.5"/>
      <line class="cls-29" x1="117.1" y1="442.5" x2="112.1" y2="442.5"/>
      <line class="cls-29" x1="117.1" y1="468.5" x2="112.1" y2="468.5"/>
    </g>
    <g pointer-events="none">
      <text class="cls-21" transform="translate(87.85 98.33)"><tspan x="0" y="0">2005</tspan></text>
      <text class="cls-21" transform="translate(87.85 125)"><tspan x="0" y="0">2006</tspan></text>
      <text class="cls-21" transform="translate(87.85 151.67)"><tspan x="0" y="0">20</tspan><tspan class="cls-38" x="12.34" y="0">0</tspan><tspan x="18.19" y="0">7</tspan></text>
      <text class="cls-21" transform="translate(87.85 178.33)"><tspan x="0" y="0">2008</tspan></text>
      <text class="cls-21" transform="translate(87.85 205)"><tspan x="0" y="0">2009</tspan></text>
      <text class="cls-21" transform="translate(87.85 231.67)"><tspan x="0" y="0">2</tspan><tspan class="cls-37" x="6.17" y="0">0</tspan><tspan class="cls-10" x="11.57" y="0">1</tspan><tspan x="17.14" y="0">0</tspan></text>
      <text class="cls-21" transform="translate(88.59 258.33)"><tspan x="0" y="0">2</tspan><tspan class="cls-37" x="6.17" y="0">0</tspan><tspan class="cls-4" x="11.57" y="0">1</tspan><tspan x="16.28" y="0">1</tspan></text>
      <text class="cls-21" transform="translate(87.85 285)"><tspan x="0" y="0">2</tspan><tspan class="cls-37" x="6.17" y="0">0</tspan><tspan class="cls-2" x="11.57" y="0">1</tspan><tspan x="16.95" y="0">2</tspan></text>
      <text class="cls-21" transform="translate(87.85 311.67)"><tspan x="0" y="0">2</tspan><tspan class="cls-37" x="6.17" y="0">0</tspan><tspan class="cls-1" x="11.57" y="0">1</tspan><tspan x="17.03" y="0">3</tspan></text>
      <text class="cls-21" transform="translate(87.85 338.33)"><tspan x="0" y="0">2</tspan><tspan class="cls-37" x="6.17" y="0">0</tspan><tspan class="cls-2" x="11.57" y="0">1</tspan><tspan x="16.95" y="0">4</tspan></text>
      <text class="cls-21" transform="translate(87.85 365)"><tspan x="0" y="0">2</tspan><tspan class="cls-37" x="6.17" y="0">0</tspan><tspan class="cls-2" x="11.57" y="0">1</tspan><tspan x="16.95" y="0">5</tspan></text>
      <text class="cls-21" transform="translate(87.85 391.67)"><tspan x="0" y="0">2</tspan><tspan class="cls-37" x="6.17" y="0">0</tspan><tspan class="cls-12" x="11.57" y="0">1</tspan><tspan x="16.87" y="0">6</tspan></text>
      <text class="cls-21" transform="translate(87.85 418.33)"><tspan x="0" y="0">2</tspan><tspan class="cls-37" x="6.17" y="0">0</tspan><tspan class="cls-3" x="11.57" y="0">1</tspan><tspan x="16.82" y="0">7</tspan></text>
      <text class="cls-21" transform="translate(87.85 445)"><tspan x="0" y="0">2</tspan><tspan class="cls-37" x="6.17" y="0">0</tspan><tspan class="cls-25" x="11.57" y="0">1</tspan><tspan x="16.99" y="0">8</tspan></text>
      <text class="cls-21" transform="translate(87.85 471.67)"><tspan x="0" y="0">2</tspan><tspan class="cls-37" x="6.17" y="0">0</tspan><tspan class="cls-5" x="11.57" y="0">1</tspan><tspan x="16.93" y="0">9</tspan></text>
    </g>
    <g pointer-events="none">
      <line class="cls-29" x1="117.1" y1="82.5" x2="117.1" y2="482.5"/>
    </g>
    <g>
      <path class="cls-20" d="m748.84,202c0,1.51-1.23,2.74-2.74,2.74s-2.74-1.23-2.74-2.74,1.23-2.74,2.74-2.74,2.74,1.23,2.74,2.74"/>
      <path class="cls-20" d="m771.67,228.67c0,1.51-1.23,2.74-2.74,2.74s-2.74-1.23-2.74-2.74,1.23-2.74,2.74-2.74,2.74,1.23,2.74,2.74"/>
      <path class="cls-20" d="m800.5,255.33c0,1.51-1.23,2.74-2.74,2.74s-2.74-1.23-2.74-2.74,1.23-2.74,2.74-2.74,2.74,1.23,2.74,2.74"/>
      <path class="cls-20" d="m823.17,282c0,1.51-1.23,2.74-2.74,2.74s-2.74-1.23-2.74-2.74,1.23-2.74,2.74-2.74,2.74,1.23,2.74,2.74"/>
      <path class="cls-20" d="m836,308.67c0,1.51-1.23,2.74-2.74,2.74s-2.74-1.23-2.74-2.74,1.23-2.74,2.74-2.74,2.74,1.23,2.74,2.74"/>
      <path class="cls-20" d="m862.17,335.33c0,1.51-1.23,2.74-2.74,2.74s-2.74-1.23-2.74-2.74,1.23-2.74,2.74-2.74,2.74,1.23,2.74,2.74"/>
      <path class="cls-20" d="m896.84,362c0,1.51-1.23,2.74-2.74,2.74s-2.74-1.23-2.74-2.74,1.23-2.74,2.74-2.74,2.74,1.23,2.74,2.74"/>
      <path class="cls-20" d="m924.84,388.67c0,1.51-1.23,2.74-2.74,2.74s-2.74-1.23-2.74-2.74,1.23-2.74,2.74-2.74,2.74,1.23,2.74,2.74"/>
      <path class="cls-20" d="m962.84,415.33c0,1.51-1.23,2.74-2.74,2.74s-2.74-1.23-2.74-2.74,1.23-2.74,2.74-2.74,2.74,1.23,2.74,2.74"/>
      <path class="cls-20" d="m1013.67,442c0,1.51-1.23,2.74-2.74,2.74s-2.74-1.23-2.74-2.74,1.23-2.74,2.74-2.74,2.74,1.23,2.74,2.74"/>
      <path class="cls-20" d="m1054,468.67c0,1.51-1.23,2.74-2.74,2.74s-2.74-1.23-2.74-2.74,1.23-2.74,2.74-2.74,2.74,1.23,2.74,2.74"/>
    </g>
    <g>
      <line class="cls-28" x1="428.1" y1="95.33" x2="478.18" y2="95.33"/>
      <line class="cls-28" x1="446.6" y1="122" x2="495.68" y2="122"/>
      <line class="cls-28" x1="462.6" y1="148.67" x2="506.35" y2="148.67"/>
      <line class="cls-28" x1="475.43" y1="175.33" x2="518.85" y2="175.33"/>
      <line class="cls-28" x1="471.6" y1="202" x2="519.35" y2="202"/>
      <line class="cls-28" x1="473.93" y1="228.67" x2="522.68" y2="228.67"/>
      <line class="cls-28" x1="483.76" y1="255.33" x2="530.85" y2="255.33"/>
      <line class="cls-28" x1="498.93" y1="282" x2="541.26" y2="282"/>
      <line class="cls-28" x1="511.43" y1="308.67" x2="552.6" y2="308.67"/>
      <line class="cls-28" x1="520.6" y1="335.33" x2="568.18" y2="335.33"/>
      <line class="cls-28" x1="530.43" y1="362" x2="584.85" y2="362"/>
      <line class="cls-28" x1="536.1" y1="388.67" x2="594.35" y2="388.67"/>
      <line class="cls-28" x1="546.93" y1="415.33" x2="612.76" y2="415.33"/>
      <line class="cls-28" x1="560.76" y1="442" x2="631.93" y2="442"/>
      <line class="cls-28" x1="576.43" y1="468.67" x2="652.76" y2="468.67"/>
    </g>
    <g>
      <line class="cls-28" x1="562.68" y1="95.33" x2="647.6" y2="95.33"/>
      <line class="cls-28" x1="578.01" y1="122" x2="671.26" y2="122"/>
      <line class="cls-28" x1="591.6" y1="148.67" x2="704.76" y2="148.67"/>
      <line class="cls-28" x1="608.18" y1="175.33" x2="726.76" y2="175.33"/>
      <line class="cls-28" x1="600.76" y1="202" x2="710.93" y2="202"/>
      <line class="cls-28" x1="600.01" y1="228.67" x2="715.1" y2="228.67"/>
      <line class="cls-28" x1="612.93" y1="255.33" x2="725.43" y2="255.33"/>
      <line class="cls-28" x1="625.1" y1="282" x2="733.1" y2="282"/>
      <line class="cls-28" x1="636.26" y1="308.67" x2="742.26" y2="308.67"/>
      <line class="cls-28" x1="652.26" y1="335.33" x2="755.93" y2="335.33"/>
      <line class="cls-28" x1="677.85" y1="362" x2="779.1" y2="362"/>
      <line class="cls-28" x1="690.6" y1="388.67" x2="789.26" y2="388.67"/>
      <line class="cls-28" x1="709.68" y1="415.33" x2="813.76" y2="415.33"/>
      <line class="cls-28" x1="734.6" y1="442" x2="834.93" y2="442"/>
      <line class="cls-28" x1="759.93" y1="468.67" x2="869.26" y2="468.67"/>
    </g>
    <g>
      <path class="cls-8" d="m478.18,88.33h84.5v14h-84.5v-14Z"/>
      <path class="cls-8" d="m495.68,115h82.33v14h-82.33v-14Z"/>
      <path class="cls-8" d="m506.35,141.67h85.25v14h-85.25v-14Z"/>
      <path class="cls-8" d="m518.85,168.33h89.33v14h-89.33v-14Z"/>
      <path class="cls-8" d="m519.35,195h81.42v14h-81.42v-14Z"/>
      <path class="cls-8" d="m522.68,221.67h77.33v14h-77.33v-14Z"/>
      <path class="cls-8" d="m530.85,248.33h82.08v14h-82.08v-14Z"/>
      <path class="cls-8" d="m541.26,275h83.83v14h-83.83v-14Z"/>
      <path class="cls-8" d="m552.6,301.67h83.67v14h-83.67v-14Z"/>
      <path class="cls-8" d="m568.18,328.33h84.08v14h-84.08v-14Z"/>
      <path class="cls-8" d="m584.85,355h93v14h-93v-14Z"/>
      <path class="cls-8" d="m594.35,381.67h96.25v14h-96.25v-14Z"/>
      <path class="cls-8" d="m612.76,408.33h96.92v14h-96.92v-14Z"/>
      <path class="cls-8" d="m631.93,435h102.67v14h-102.67v-14Z"/>
      <path class="cls-8" d="m652.76,461.67h107.17v14h-107.17v-14Z"/>
    </g>
    <g>
      <path class="cls-19" d="m512.26,88.33h1v14h-1v-14Z"/>
      <path class="cls-19" d="m522.43,115h1v14h-1v-14Z"/>
      <path class="cls-19" d="m534.6,141.67h1v14h-1v-14Z"/>
      <path class="cls-19" d="m547.76,168.33h1v14h-1v-14Z"/>
      <path class="cls-19" d="m545.26,195h1v14h-1v-14Z"/>
      <path class="cls-19" d="m548.93,221.67h1v14h-1v-14Z"/>
      <path class="cls-19" d="m558.43,248.33h1v14h-1v-14Z"/>
      <path class="cls-19" d="m573.93,275h1v14h-1v-14Z"/>
      <path class="cls-19" d="m587.6,301.67h1v14h-1v-14Z"/>
      <path class="cls-19" d="m604.43,328.33h1v14h-1v-14Z"/>
      <path class="cls-19" d="m625.1,355h1v14h-1v-14Z"/>
      <path class="cls-19" d="m630.93,381.67h1v14h-1v-14Z"/>
      <path class="cls-19" d="m650.93,408.33h1v14h-1v-14Z"/>
      <path class="cls-19" d="m673.76,435h1v14h-1v-14Z"/>
      <path class="cls-19" d="m691.93,461.67h1v14h-1v-14Z"/>
    </g>
    <g pointer-events="none">
      <text class="cls-22" transform="translate(553.2 521.5)"><tspan class="cls-26" x="0" y="0">M</tspan><tspan class="cls-15" x="12.1" y="0">edian Income</tspan></text>
    </g>
    <g pointer-events="none">
      <text class="cls-22" transform="translate(71.07 294.12) rotate(-90)"><tspan class="cls-7" x="0" y="0">Y</tspan><tspan x="7.7" y="0">ear</tspan></text>
    </g>
  </g>
</svg>