<?xml version="1.0" encoding="UTF-8"?>
<svg id="Layer_1" data-name="Layer 1" xmlns="http://www.w3.org/2000/svg" viewBox="0 0 1158 577">
  <defs>
    <style>
      .cls-1 {
        letter-spacing: -.07em;
      }

      .cls-2 {
        letter-spacing: -.08em;
      }

      .cls-3 {
        letter-spacing: -.09em;
      }

      .cls-4 {
        letter-spacing: -.15em;
      }

      .cls-5 {
        letter-spacing: -.08em;
      }

      .cls-6 {
        letter-spacing: .01em;
      }

      .cls-7 {
        letter-spacing: 0em;
      }

      .cls-8 {
        letter-spacing: -.08em;
      }

      .cls-9 {
        letter-spacing: 0em;
      }

      .cls-10 {
        fill: #ebf7de;
      }

      .cls-11 {
        letter-spacing: -.06em;
      }

      .cls-12 {
        opacity: .43;
        stroke: #000;
        stroke-width: .5px;
      }

      .cls-12, .cls-13, .cls-14, .cls-15 {
        fill: none;
        stroke-miterlimit: 10;
      }

      .cls-16 {
        letter-spacing: .01em;
      }

      .cls-17 {
        letter-spacing: -.09em;
      }

      .cls-18 {
        letter-spacing: -.03em;
      }

      .cls-19 {
        letter-spacing: 0em;
      }

      .cls-20 {
        letter-spacing: -.08em;
      }

      .cls-13 {
        stroke: #888;
      }

      .cls-14 {
        stroke: #ddd;
      }

      .cls-21 {
        letter-spacing: 0em;
      }

      .cls-22 {
        letter-spacing: 0em;
      }

      .cls-23 {
        letter-spacing: -.08em;
      }

      .cls-24 {
        letter-spacing: -.03em;
      }

      .cls-15 {
        stroke: green;
        stroke-width: 3.5px;
      }

      .cls-25 {
        font-family: Futura-Medium, Futura;
        font-size: 10px;
        font-weight: 500;
      }

      .cls-25, .cls-26, .cls-27 {
        isolation: isolate;
      }

      .cls-28 {
        letter-spacing: -.04em;
      }

      .cls-26 {
        font-size: 12px;
      }

      .cls-26, .cls-27 {
        font-family: Futura-Bold, Futura;
        font-weight: 700;
      }

      .cls-27 {
        font-size: 19px;
      }
    </style>
  </defs>
  <rect class="cls-10" width="1158" height="577"/>
  <g>
    <path class="cls-14" d="m110.56,87.5h1000v400H110.56V87.5Z"/>
    <line class="cls-12" x1="110.56" y1="437.5" x2="1110.56" y2="437.5"/>
    <line class="cls-12" x1="110.56" y1="387.5" x2="1110.56" y2="387.5"/>
    <line class="cls-12" x1="110.56" y1="337.5" x2="1110.56" y2="337.5"/>
    <line class="cls-12" x1="110.56" y1="287.5" x2="1110.56" y2="287.5"/>
    <line class="cls-12" x1="110.56" y1="237.5" x2="1110.56" y2="237.5"/>
    <line class="cls-12" x1="110.56" y1="187.5" x2="1110.56" y2="187.5"/>
    <line class="cls-12" x1="110.56" y1="137.5" x2="1110.56" y2="137.5"/>
    <line class="cls-12" x1="110.56" y1="87.5" x2="1110.56" y2="87.5"/>
    <line class="cls-13" x1="143.56" y1="487.5" x2="143.56" y2="492.5"/>
    <line class="cls-13" x1="210.56" y1="487.5" x2="210.56" y2="492.5"/>
    <line class="cls-13" x1="277.56" y1="487.5" x2="277.56" y2="492.5"/>
    <line class="cls-13" x1="343.56" y1="487.5" x2="343.56" y2="492.5"/>
    <line class="cls-13" x1="410.56" y1="487.5" x2="410.56" y2="492.5"/>
    <line class="cls-13" x1="477.56" y1="487.5" x2="477.56" y2="492.5"/>
    <line class="cls-13" x1="543.56" y1="487.5" x2="543.56" y2="492.5"/>
    <line class="cls-13" x1="610.56" y1="487.5" x2="610.56" y2="492.5"/>
    <line class="cls-13" x1="677.56" y1="487.5" x2="677.56" y2="492.5"/>
    <line class="cls-13" x1="743.56" y1="487.5" x2="743.56" y2="492.5"/>
    <line class="cls-13" x1="810.56" y1="487.5" x2="810.56" y2="492.5"/>
    <line class="cls-13" x1="877.56" y1="487.5" x2="877.56" y2="492.5"/>
    <line class="cls-13" x1="943.56" y1="487.5" x2="943.56" y2="492.5"/>
    <line class="cls-13" x1="1010.56" y1="487.5" x2="1010.56" y2="492.5"/>
    <line class="cls-13" x1="1077.56" y1="487.5" x2="1077.56" y2="492.5"/>
    <text class="cls-25" transform="translate(146.89 516.75) rotate(-90)"><tspan x="0" y="0">2005</tspan></text>
    <text class="cls-25" transform="translate(213.56 516.75) rotate(-90)"><tspan x="0" y="0">2006</tspan></text>
    <text class="cls-25" transform="translate(280.22 516.75) rotate(-90)"><tspan x="0" y="0">20</tspan><tspan class="cls-24" x="12.34" y="0">0</tspan><tspan x="18.19" y="0">7</tspan></text>
    <text class="cls-25" transform="translate(346.89 516.75) rotate(-90)"><tspan x="0" y="0">2008</tspan></text>
    <text class="cls-25" transform="translate(413.56 516.75) rotate(-90)"><tspan x="0" y="0">2009</tspan></text>
    <text class="cls-25" transform="translate(480.22 516.75) rotate(-90)"><tspan x="0" y="0">2</tspan><tspan class="cls-23" x="6.17" y="0">0</tspan><tspan class="cls-11" x="11.57" y="0">1</tspan><tspan x="17.14" y="0">0</tspan></text>
    <text class="cls-25" transform="translate(546.89 516.01) rotate(-90)"><tspan x="0" y="0">2</tspan><tspan class="cls-23" x="6.17" y="0">0</tspan><tspan class="cls-4" x="11.57" y="0">1</tspan><tspan x="16.28" y="0">1</tspan></text>
    <text class="cls-25" transform="translate(613.56 516.75) rotate(-90)"><tspan x="0" y="0">2</tspan><tspan class="cls-23" x="6.17" y="0">0</tspan><tspan class="cls-2" x="11.57" y="0">1</tspan><tspan x="16.95" y="0">2</tspan></text>
    <text class="cls-25" transform="translate(680.22 516.75) rotate(-90)"><tspan x="0" y="0">2</tspan><tspan class="cls-23" x="6.17" y="0">0</tspan><tspan class="cls-1" x="11.57" y="0">1</tspan><tspan x="17.03" y="0">3</tspan></text>
    <text class="cls-25" transform="translate(746.89 516.75) rotate(-90)"><tspan x="0" y="0">2</tspan><tspan class="cls-23" x="6.17" y="0">0</tspan><tspan class="cls-2" x="11.57" y="0">1</tspan><tspan x="16.95" y="0">4</tspan></text>
    <text class="cls-25" transform="translate(813.56 516.75) rotate(-90)"><tspan x="0" y="0">2</tspan><tspan class="cls-23" x="6.17" y="0">0</tspan><tspan class="cls-2" x="11.57" y="0">1</tspan><tspan x="16.95" y="0">5</tspan></text>
    <text class="cls-25" transform="translate(880.22 516.75) rotate(-90)"><tspan x="0" y="0">2</tspan><tspan class="cls-23" x="6.17" y="0">0</tspan><tspan class="cls-17" x="11.57" y="0">1</tspan><tspan x="16.87" y="0">6</tspan></text>
    <text class="cls-25" transform="translate(946.89 516.75) rotate(-90)"><tspan x="0" y="0">2</tspan><tspan class="cls-23" x="6.17" y="0">0</tspan><tspan class="cls-3" x="11.57" y="0">1</tspan><tspan x="16.82" y="0">7</tspan></text>
    <text class="cls-25" transform="translate(1013.56 516.75) rotate(-90)"><tspan x="0" y="0">2</tspan><tspan class="cls-23" x="6.17" y="0">0</tspan><tspan class="cls-20" x="11.57" y="0">1</tspan><tspan x="16.99" y="0">8</tspan></text>
    <text class="cls-25" transform="translate(1080.22 516.75) rotate(-90)"><tspan x="0" y="0">2</tspan><tspan class="cls-23" x="6.17" y="0">0</tspan><tspan class="cls-5" x="11.57" y="0">1</tspan><tspan x="16.93" y="0">9</tspan></text>
    <text class="cls-26" transform="translate(598.93 538.75)"><tspan class="cls-8" x="0" y="0">Y</tspan><tspan x="7.7" y="0">ear</tspan></text>
    <line class="cls-13" x1="110.56" y1="487.5" x2="105.56" y2="487.5"/>
    <line class="cls-13" x1="110.56" y1="437.5" x2="105.56" y2="437.5"/>
    <line class="cls-13" x1="110.56" y1="387.5" x2="105.56" y2="387.5"/>
    <line class="cls-13" x1="110.56" y1="337.5" x2="105.56" y2="337.5"/>
    <line class="cls-13" x1="110.56" y1="287.5" x2="105.56" y2="287.5"/>
    <line class="cls-13" x1="110.56" y1="237.5" x2="105.56" y2="237.5"/>
    <line class="cls-13" x1="110.56" y1="187.5" x2="105.56" y2="187.5"/>
    <line class="cls-13" x1="110.56" y1="137.5" x2="105.56" y2="137.5"/>
    <line class="cls-13" x1="110.56" y1="87.5" x2="105.56" y2="87.5"/>
    <text class="cls-25" transform="translate(97.99 490.5)"><tspan x="0" y="0">0</tspan></text>
    <text class="cls-25" transform="translate(78.53 440.5)"><tspan x="0" y="0">5,000</tspan></text>
    <text class="cls-25" transform="translate(72.97 390.5)"><tspan class="cls-11" x="0" y="0">1</tspan><tspan x="5.57" y="0">0,000</tspan></text>
    <text class="cls-25" transform="translate(72.97 340.5)"><tspan class="cls-2" x="0" y="0">1</tspan><tspan x="5.38" y="0">5,000</tspan></text>
    <text class="cls-25" transform="translate(72.97 290.5)"><tspan x="0" y="0">20,000</tspan></text>
    <text class="cls-25" transform="translate(72.97 240.5)"><tspan x="0" y="0">25,000</tspan></text>
    <text class="cls-25" transform="translate(72.97 190.5)"><tspan x="0" y="0">30,000</tspan></text>
    <text class="cls-25" transform="translate(72.97 140.5)"><tspan x="0" y="0">35,000</tspan></text>
    <text class="cls-25" transform="translate(72.97 90.5)"><tspan x="0" y="0">40,000</tspan></text>
    <line class="cls-13" x1="110.56" y1="487.5" x2="110.56" y2="87.5"/>
    <text class="cls-26" transform="translate(57.97 323.56) rotate(-90)"><tspan x="0" y="0">Income (USD)</tspan></text>
    <path class="cls-15" d="m143.39,238.8l66.67-9.2,66.67-7.9,66.67-7.4,66.67,3.2,66.67-1.2,66.67-6,66.67-6.9,66.67-6.4,66.67-9.2,66.67-11.4,66.67-5.9,66.67-12.3,66.67-13.5,66.67-13.8"/>
    <text class="cls-27" transform="translate(292.89 51)"><tspan x="0" y="0">INDIVID</tspan><tspan class="cls-18" x="82.38" y="0">U</tspan><tspan class="cls-22" x="97.39" y="0">AL MEDIAN I</tspan><tspan class="cls-16" x="227.08" y="0">N</tspan><tspan class="cls-6" x="244.58" y="0">C</tspan><tspan class="cls-19" x="257.47" y="0">OME </tspan><tspan class="cls-28" x="312" y="0">O</tspan><tspan class="cls-7" x="328.9" y="0">VER TIME (</tspan><tspan class="cls-21" x="435.78" y="0">N</tspan><tspan x="453.26" y="0">OMI</tspan><tspan class="cls-9" x="497.22" y="0">N</tspan><tspan x="514.57" y="0">AL USD)</tspan></text>
  </g>
</svg>