<?xml version="1.0" encoding="UTF-8"?>
<svg id="Layer_1" data-name="Layer 1" xmlns="http://www.w3.org/2000/svg" viewBox="0 0 1181 559">
  <defs>
    <style>
      .cls-1 {
        letter-spacing: -.07em;
      }

      .cls-2 {
        letter-spacing: -.08em;
      }

      .cls-3 {
        letter-spacing: -.09em;
      }

      .cls-4 {
        letter-spacing: -.15em;
      }

      .cls-5 {
        letter-spacing: -.08em;
      }

      .cls-6 {
        letter-spacing: .01em;
      }

      .cls-7 {
        letter-spacing: 0em;
      }

      .cls-8 {
        letter-spacing: -.08em;
      }

      .cls-9 {
        fill: green;
      }

      .cls-10 {
        fill: #ebf7de;
      }

      .cls-11 {
        letter-spacing: -.06em;
      }

      .cls-12 {
        letter-spacing: .01em;
      }

      .cls-13 {
        letter-spacing: -.09em;
      }

      .cls-14 {
        letter-spacing: -.01em;
      }

      .cls-15 {
        letter-spacing: 0em;
      }

      .cls-16 {
        letter-spacing: 0em;
      }

      .cls-17 {
        letter-spacing: 0em;
      }

      .cls-18 {
        fill: #fff;
      }

      .cls-18, .cls-19 {
        opacity: .7;
      }

      .cls-18, .cls-19, .cls-20, .cls-21, .cls-22, .cls-23 {
        isolation: isolate;
      }

      .cls-24 {
        letter-spacing: -.08em;
      }

      .cls-25 {
        letter-spacing: -.01em;
      }

      .cls-26 {
        letter-spacing: 0em;
      }

      .cls-27, .cls-28, .cls-29, .cls-19, .cls-30 {
        fill: none;
        stroke-miterlimit: 10;
      }

      .cls-27, .cls-19 {
        stroke: green;
      }

      .cls-28 {
        stroke: #888;
      }

      .cls-29 {
        stroke: #ddd;
      }

      .cls-31 {
        letter-spacing: 0em;
      }

      .cls-32 {
        letter-spacing: .02em;
      }

      .cls-33 {
        opacity: .43;
      }

      .cls-34 {
        letter-spacing: -.04em;
      }

      .cls-35 {
        letter-spacing: -.04em;
      }

      .cls-36 {
        letter-spacing: .01em;
      }

      .cls-37 {
        letter-spacing: -.02em;
      }

      .cls-38 {
        letter-spacing: -.08em;
      }

      .cls-19 {
        stroke-width: 2px;
      }

      .cls-39 {
        letter-spacing: -.03em;
      }

      .cls-20, .cls-22 {
        font-family: Futura-Medium, Futura;
        font-size: 10px;
        font-weight: 500;
      }

      .cls-40 {
        letter-spacing: -.03em;
      }

      .cls-21 {
        font-size: 12px;
      }

      .cls-21, .cls-23 {
        font-family: Futura-Bold, Futura;
        font-weight: 700;
      }

      .cls-41 {
        letter-spacing: -.03em;
      }

      .cls-22 {
        opacity: 0;
      }

      .cls-23 {
        font-size: 19px;
      }

      .cls-30 {
        stroke: #000;
        stroke-width: .5px;
      }
    </style>
  </defs>
  <rect class="cls-10" width="1181" height="559"/>
  <path class="cls-29" d="m115.34,82.5h1000v400H115.34V82.5Z"/>
  <g class="cls-33">
    <g pointer-events="none">
      <line class="cls-30" x1="115.34" y1="482.5" x2="115.34" y2="82.5"/>
      <line class="cls-30" x1="146.34" y1="482.5" x2="146.34" y2="82.5"/>
      <line class="cls-30" x1="178.34" y1="482.5" x2="178.34" y2="82.5"/>
      <line class="cls-30" x1="209.34" y1="482.5" x2="209.34" y2="82.5"/>
      <line class="cls-30" x1="240.34" y1="482.5" x2="240.34" y2="82.5"/>
      <line class="cls-30" x1="271.34" y1="482.5" x2="271.34" y2="82.5"/>
      <line class="cls-30" x1="303.34" y1="482.5" x2="303.34" y2="82.5"/>
      <line class="cls-30" x1="334.34" y1="482.5" x2="334.34" y2="82.5"/>
      <line class="cls-30" x1="365.34" y1="482.5" x2="365.34" y2="82.5"/>
      <line class="cls-30" x1="396.34" y1="482.5" x2="396.34" y2="82.5"/>
      <line class="cls-30" x1="428.34" y1="482.5" x2="428.34" y2="82.5"/>
      <line class="cls-30" x1="459.34" y1="482.5" x2="459.34" y2="82.5"/>
      <line class="cls-30" x1="490.34" y1="482.5" x2="490.34" y2="82.5"/>
      <line class="cls-30" x1="521.34" y1="482.5" x2="521.34" y2="82.5"/>
      <line class="cls-30" x1="553.34" y1="482.5" x2="553.34" y2="82.5"/>
      <line class="cls-30" x1="584.34" y1="482.5" x2="584.34" y2="82.5"/>
      <line class="cls-30" x1="615.34" y1="482.5" x2="615.34" y2="82.5"/>
      <line class="cls-30" x1="646.34" y1="482.5" x2="646.34" y2="82.5"/>
      <line class="cls-30" x1="678.34" y1="482.5" x2="678.34" y2="82.5"/>
      <line class="cls-30" x1="709.34" y1="482.5" x2="709.34" y2="82.5"/>
      <line class="cls-30" x1="740.34" y1="482.5" x2="740.34" y2="82.5"/>
      <line class="cls-30" x1="771.34" y1="482.5" x2="771.34" y2="82.5"/>
      <line class="cls-30" x1="803.34" y1="482.5" x2="803.34" y2="82.5"/>
      <line class="cls-30" x1="834.34" y1="482.5" x2="834.34" y2="82.5"/>
      <line class="cls-30" x1="865.34" y1="482.5" x2="865.34" y2="82.5"/>
      <line class="cls-30" x1="896.34" y1="482.5" x2="896.34" y2="82.5"/>
      <line class="cls-30" x1="928.34" y1="482.5" x2="928.34" y2="82.5"/>
      <line class="cls-30" x1="959.34" y1="482.5" x2="959.34" y2="82.5"/>
      <line class="cls-30" x1="990.34" y1="482.5" x2="990.34" y2="82.5"/>
      <line class="cls-30" x1="1021.34" y1="482.5" x2="1021.34" y2="82.5"/>
      <line class="cls-30" x1="1053.34" y1="482.5" x2="1053.34" y2="82.5"/>
      <line class="cls-30" x1="1084.34" y1="482.5" x2="1084.34" y2="82.5"/>
      <line class="cls-30" x1="1115.34" y1="482.5" x2="1115.34" y2="82.5"/>
    </g>
  </g>
  <g pointer-events="none">
    <line class="cls-28" x1="115.34" y1="482.5" x2="115.34" y2="487.5"/>
    <line class="cls-28" x1="146.34" y1="482.5" x2="146.34" y2="487.5"/>
    <line class="cls-28" x1="178.34" y1="482.5" x2="178.34" y2="487.5"/>
    <line class="cls-28" x1="209.34" y1="482.5" x2="209.34" y2="487.5"/>
    <line class="cls-28" x1="240.34" y1="482.5" x2="240.34" y2="487.5"/>
    <line class="cls-28" x1="271.34" y1="482.5" x2="271.34" y2="487.5"/>
    <line class="cls-28" x1="303.34" y1="482.5" x2="303.34" y2="487.5"/>
    <line class="cls-28" x1="334.34" y1="482.5" x2="334.34" y2="487.5"/>
    <line class="cls-28" x1="365.34" y1="482.5" x2="365.34" y2="487.5"/>
    <line class="cls-28" x1="396.34" y1="482.5" x2="396.34" y2="487.5"/>
    <line class="cls-28" x1="428.34" y1="482.5" x2="428.34" y2="487.5"/>
    <line class="cls-28" x1="459.34" y1="482.5" x2="459.34" y2="487.5"/>
    <line class="cls-28" x1="490.34" y1="482.5" x2="490.34" y2="487.5"/>
    <line class="cls-28" x1="521.34" y1="482.5" x2="521.34" y2="487.5"/>
    <line class="cls-28" x1="553.34" y1="482.5" x2="553.34" y2="487.5"/>
    <line class="cls-28" x1="584.34" y1="482.5" x2="584.34" y2="487.5"/>
    <line class="cls-28" x1="615.34" y1="482.5" x2="615.34" y2="487.5"/>
    <line class="cls-28" x1="646.34" y1="482.5" x2="646.34" y2="487.5"/>
    <line class="cls-28" x1="678.34" y1="482.5" x2="678.34" y2="487.5"/>
    <line class="cls-28" x1="709.34" y1="482.5" x2="709.34" y2="487.5"/>
    <line class="cls-28" x1="740.34" y1="482.5" x2="740.34" y2="487.5"/>
    <line class="cls-28" x1="771.34" y1="482.5" x2="771.34" y2="487.5"/>
    <line class="cls-28" x1="803.34" y1="482.5" x2="803.34" y2="487.5"/>
    <line class="cls-28" x1="834.34" y1="482.5" x2="834.34" y2="487.5"/>
    <line class="cls-28" x1="865.34" y1="482.5" x2="865.34" y2="487.5"/>
    <line class="cls-28" x1="896.34" y1="482.5" x2="896.34" y2="487.5"/>
    <line class="cls-28" x1="928.34" y1="482.5" x2="928.34" y2="487.5"/>
    <line class="cls-28" x1="959.34" y1="482.5" x2="959.34" y2="487.5"/>
    <line class="cls-28" x1="990.34" y1="482.5" x2="990.34" y2="487.5"/>
    <line class="cls-28" x1="1021.34" y1="482.5" x2="1021.34" y2="487.5"/>
    <line class="cls-28" x1="1053.34" y1="482.5" x2="1053.34" y2="487.5"/>
    <line class="cls-28" x1="1084.34" y1="482.5" x2="1084.34" y2="487.5"/>
    <line class="cls-28" x1="1115.34" y1="482.5" x2="1115.34" y2="487.5"/>
  </g>
  <g pointer-events="none">
    <text class="cls-20" transform="translate(115.34 497.5)"><tspan x="0" y="0">0</tspan></text>
    <text class="cls-22" transform="translate(134.08 497.5)"><tspan x="0" y="0">5,000</tspan></text>
    <text class="cls-20" transform="translate(162.55 497.5)"><tspan class="cls-11" x="0" y="0">1</tspan><tspan x="5.57" y="0">0,000</tspan></text>
    <text class="cls-22" transform="translate(193.8 497.5)"><tspan class="cls-2" x="0" y="0">1</tspan><tspan x="5.38" y="0">5,000</tspan></text>
    <text class="cls-20" transform="translate(225.05 497.5)"><tspan x="0" y="0">20,000</tspan></text>
    <text class="cls-22" transform="translate(256.3 497.5)"><tspan x="0" y="0">25,000</tspan></text>
    <text class="cls-20" transform="translate(287.55 497.5)"><tspan x="0" y="0">30,000</tspan></text>
    <text class="cls-22" transform="translate(318.8 497.5)"><tspan x="0" y="0">35,000</tspan></text>
    <text class="cls-20" transform="translate(350.05 497.5)"><tspan x="0" y="0">40,000</tspan></text>
    <text class="cls-22" transform="translate(381.3 497.5)"><tspan x="0" y="0">45,000</tspan></text>
    <text class="cls-20" transform="translate(412.55 497.5)"><tspan x="0" y="0">50,000</tspan></text>
    <text class="cls-22" transform="translate(443.8 497.5)"><tspan x="0" y="0">55,000</tspan></text>
    <text class="cls-20" transform="translate(475.05 497.5)"><tspan x="0" y="0">60,000</tspan></text>
    <text class="cls-22" transform="translate(506.3 497.5)"><tspan x="0" y="0">65,000</tspan></text>
    <text class="cls-20" transform="translate(537.55 497.5)"><tspan x="0" y="0">70,000</tspan></text>
    <text class="cls-22" transform="translate(568.8 497.5)"><tspan x="0" y="0">75,000</tspan></text>
    <text class="cls-20" transform="translate(600.05 497.5)"><tspan x="0" y="0">80,000</tspan></text>
    <text class="cls-22" transform="translate(631.3 497.5)"><tspan x="0" y="0">85,000</tspan></text>
    <text class="cls-20" transform="translate(662.55 497.5)"><tspan x="0" y="0">90,000</tspan></text>
    <text class="cls-22" transform="translate(693.8 497.5)"><tspan x="0" y="0">95,000</tspan></text>
    <text class="cls-20" transform="translate(722.27 497.5)"><tspan class="cls-11" x="0" y="0">1</tspan><tspan x="5.57" y="0">00,000</tspan></text>
    <text class="cls-22" transform="translate(753.52 497.5)"><tspan class="cls-11" x="0" y="0">1</tspan><tspan x="5.57" y="0">05,000</tspan></text>
    <text class="cls-20" transform="translate(785.13 497.5)"><tspan class="cls-4" x="0" y="0">1</tspan><tspan class="cls-11" x="4.71" y="0">1</tspan><tspan x="10.28" y="0">0,000</tspan></text>
    <text class="cls-22" transform="translate(816.38 497.5)"><tspan class="cls-4" x="0" y="0">1</tspan><tspan class="cls-2" x="4.71" y="0">1</tspan><tspan x="10.09" y="0">5,000</tspan></text>
    <text class="cls-20" transform="translate(847.27 497.5)"><tspan class="cls-2" x="0" y="0">1</tspan><tspan x="5.38" y="0">20,000</tspan></text>
    <text class="cls-22" transform="translate(878.52 497.5)"><tspan class="cls-2" x="0" y="0">1</tspan><tspan x="5.38" y="0">25,000</tspan></text>
    <text class="cls-20" transform="translate(909.77 497.5)"><tspan class="cls-1" x="0" y="0">1</tspan><tspan x="5.45" y="0">30,000</tspan></text>
    <text class="cls-22" transform="translate(941.02 497.5)"><tspan class="cls-1" x="0" y="0">1</tspan><tspan x="5.45" y="0">35,000</tspan></text>
    <text class="cls-20" transform="translate(972.27 497.5)"><tspan class="cls-2" x="0" y="0">1</tspan><tspan x="5.38" y="0">40,000</tspan></text>
    <text class="cls-22" transform="translate(1003.52 497.5)"><tspan class="cls-2" x="0" y="0">1</tspan><tspan x="5.38" y="0">45,000</tspan></text>
    <text class="cls-20" transform="translate(1034.77 497.5)"><tspan class="cls-2" x="0" y="0">1</tspan><tspan x="5.38" y="0">50,000</tspan></text>
    <text class="cls-22" transform="translate(1066.02 497.5)"><tspan class="cls-2" x="0" y="0">1</tspan><tspan x="5.38" y="0">55,000</tspan></text>
    <text class="cls-20" transform="translate(1079.19 497.5)"><tspan class="cls-13" x="0" y="0">1</tspan><tspan x="5.29" y="0">60,000</tspan></text>
  </g>
  <g pointer-events="none">
    <line class="cls-28" x1="115.34" y1="482.5" x2="1115.34" y2="482.5"/>
  </g>
  <g pointer-events="none">
    <text class="cls-21" transform="translate(517.45 521.5)"><tspan x="0" y="0">90</tspan><tspan class="cls-32" x="16.32" y="0">t</tspan><tspan x="21.07" y="0">h </tspan><tspan class="cls-14" x="33.12" y="0">P</tspan><tspan x="41.11" y="0">e</tspan><tspan class="cls-17" x="48.88" y="0">r</tspan><tspan x="54.53" y="0">cen</tspan><tspan class="cls-36" x="76.14" y="0">t</tspan><tspan x="80.78" y="0">ile Income</tspan></text>
  </g>
  <g pointer-events="none">
    <line class="cls-28" x1="115.34" y1="95.5" x2="110.34" y2="95.5"/>
    <line class="cls-28" x1="115.34" y1="122.5" x2="110.34" y2="122.5"/>
    <line class="cls-28" x1="115.34" y1="148.5" x2="110.34" y2="148.5"/>
    <line class="cls-28" x1="115.34" y1="175.5" x2="110.34" y2="175.5"/>
    <line class="cls-28" x1="115.34" y1="202.5" x2="110.34" y2="202.5"/>
    <line class="cls-28" x1="115.34" y1="228.5" x2="110.34" y2="228.5"/>
    <line class="cls-28" x1="115.34" y1="255.5" x2="110.34" y2="255.5"/>
    <line class="cls-28" x1="115.34" y1="282.5" x2="110.34" y2="282.5"/>
    <line class="cls-28" x1="115.34" y1="308.5" x2="110.34" y2="308.5"/>
    <line class="cls-28" x1="115.34" y1="335.5" x2="110.34" y2="335.5"/>
    <line class="cls-28" x1="115.34" y1="362.5" x2="110.34" y2="362.5"/>
    <line class="cls-28" x1="115.34" y1="388.5" x2="110.34" y2="388.5"/>
    <line class="cls-28" x1="115.34" y1="415.5" x2="110.34" y2="415.5"/>
    <line class="cls-28" x1="115.34" y1="442.5" x2="110.34" y2="442.5"/>
    <line class="cls-28" x1="115.34" y1="468.5" x2="110.34" y2="468.5"/>
  </g>
  <g pointer-events="none">
    <text class="cls-20" transform="translate(86.09 98.33)"><tspan x="0" y="0">2005</tspan></text>
    <text class="cls-20" transform="translate(86.09 125)"><tspan x="0" y="0">2006</tspan></text>
    <text class="cls-20" transform="translate(86.09 151.67)"><tspan x="0" y="0">20</tspan><tspan class="cls-39" x="12.34" y="0">0</tspan><tspan x="18.19" y="0">7</tspan></text>
    <text class="cls-20" transform="translate(86.09 178.33)"><tspan x="0" y="0">2008</tspan></text>
    <text class="cls-20" transform="translate(86.09 205)"><tspan x="0" y="0">2009</tspan></text>
    <text class="cls-20" transform="translate(86.09 231.67)"><tspan x="0" y="0">2</tspan><tspan class="cls-38" x="6.17" y="0">0</tspan><tspan class="cls-11" x="11.57" y="0">1</tspan><tspan x="17.14" y="0">0</tspan></text>
    <text class="cls-20" transform="translate(86.83 258.33)"><tspan x="0" y="0">2</tspan><tspan class="cls-38" x="6.17" y="0">0</tspan><tspan class="cls-4" x="11.57" y="0">1</tspan><tspan x="16.28" y="0">1</tspan></text>
    <text class="cls-20" transform="translate(86.09 285)"><tspan x="0" y="0">2</tspan><tspan class="cls-38" x="6.17" y="0">0</tspan><tspan class="cls-2" x="11.57" y="0">1</tspan><tspan x="16.95" y="0">2</tspan></text>
    <text class="cls-20" transform="translate(86.09 311.67)"><tspan x="0" y="0">2</tspan><tspan class="cls-38" x="6.17" y="0">0</tspan><tspan class="cls-1" x="11.57" y="0">1</tspan><tspan x="17.03" y="0">3</tspan></text>
    <text class="cls-20" transform="translate(86.09 338.33)"><tspan x="0" y="0">2</tspan><tspan class="cls-38" x="6.17" y="0">0</tspan><tspan class="cls-2" x="11.57" y="0">1</tspan><tspan x="16.95" y="0">4</tspan></text>
    <text class="cls-20" transform="translate(86.09 365)"><tspan x="0" y="0">2</tspan><tspan class="cls-38" x="6.17" y="0">0</tspan><tspan class="cls-2" x="11.57" y="0">1</tspan><tspan x="16.95" y="0">5</tspan></text>
    <text class="cls-20" transform="translate(86.09 391.67)"><tspan x="0" y="0">2</tspan><tspan class="cls-38" x="6.17" y="0">0</tspan><tspan class="cls-13" x="11.57" y="0">1</tspan><tspan x="16.87" y="0">6</tspan></text>
    <text class="cls-20" transform="translate(86.09 418.33)"><tspan x="0" y="0">2</tspan><tspan class="cls-38" x="6.17" y="0">0</tspan><tspan class="cls-3" x="11.57" y="0">1</tspan><tspan x="16.82" y="0">7</tspan></text>
    <text class="cls-20" transform="translate(86.09 445)"><tspan x="0" y="0">2</tspan><tspan class="cls-38" x="6.17" y="0">0</tspan><tspan class="cls-24" x="11.57" y="0">1</tspan><tspan x="16.99" y="0">8</tspan></text>
    <text class="cls-20" transform="translate(86.09 471.67)"><tspan x="0" y="0">2</tspan><tspan class="cls-38" x="6.17" y="0">0</tspan><tspan class="cls-5" x="11.57" y="0">1</tspan><tspan x="16.93" y="0">9</tspan></text>
  </g>
  <g pointer-events="none">
    <line class="cls-28" x1="115.34" y1="82.5" x2="115.34" y2="482.5"/>
  </g>
  <g pointer-events="none">
    <text class="cls-21" transform="translate(73.09 294.12) rotate(-90)"><tspan class="cls-8" x="0" y="0">Y</tspan><tspan x="7.7" y="0">ear</tspan></text>
  </g>
  <g>
    <path class="cls-19" d="m732.83,95.33c0,1.51-1.23,2.74-2.74,2.74s-2.74-1.23-2.74-2.74,1.23-2.74,2.74-2.74,2.74,1.23,2.74,2.74"/>
    <path class="cls-19" d="m711.7,95.33c0,1.51-1.23,2.74-2.74,2.74s-2.74-1.23-2.74-2.74,1.23-2.74,2.74-2.74,2.74,1.23,2.74,2.74"/>
    <path class="cls-19" d="m765.08,122c0,1.51-1.23,2.74-2.74,2.74s-2.74-1.23-2.74-2.74,1.23-2.74,2.74-2.74,2.74,1.23,2.74,2.74"/>
    <path class="cls-19" d="m738.7,122c0,1.51-1.23,2.74-2.74,2.74s-2.74-1.23-2.74-2.74,1.23-2.74,2.74-2.74,2.74,1.23,2.74,2.74"/>
    <path class="cls-19" d="m805.08,148.67c0,1.51-1.23,2.74-2.74,2.74s-2.74-1.23-2.74-2.74,1.23-2.74,2.74-2.74,2.74,1.23,2.74,2.74"/>
    <path class="cls-19" d="m763.2,148.67c0,1.51-1.23,2.74-2.74,2.74s-2.74-1.23-2.74-2.74,1.23-2.74,2.74-2.74,2.74,1.23,2.74,2.74"/>
    <path class="cls-19" d="m836.33,175.33c0,1.51-1.23,2.74-2.74,2.74s-2.74-1.23-2.74-2.74,1.23-2.74,2.74-2.74,2.74,1.23,2.74,2.74"/>
    <path class="cls-19" d="m788.2,175.33c0,1.51-1.23,2.74-2.74,2.74s-2.74-1.23-2.74-2.74,1.23-2.74,2.74-2.74,2.74,1.23,2.74,2.74"/>
    <path class="cls-19" d="m859.45,202c0,1.51-1.23,2.74-2.74,2.74s-2.74-1.23-2.74-2.74,1.23-2.74,2.74-2.74,2.74,1.23,2.74,2.74"/>
    <path class="cls-19" d="m787.58,202c0,1.51-1.23,2.74-2.74,2.74s-2.74-1.23-2.74-2.74,1.23-2.74,2.74-2.74,2.74,1.23,2.74,2.74"/>
    <path class="cls-19" d="m885.7,228.67c0,1.51-1.23,2.74-2.74,2.74s-2.74-1.23-2.74-2.74,1.23-2.74,2.74-2.74,2.74,1.23,2.74,2.74"/>
    <path class="cls-19" d="m801.33,228.67c0,1.51-1.23,2.74-2.74,2.74s-2.74-1.23-2.74-2.74,1.23-2.74,2.74-2.74,2.74,1.23,2.74,2.74"/>
    <path class="cls-19" d="m905.08,255.33c0,1.51-1.23,2.74-2.74,2.74s-2.74-1.23-2.74-2.74,1.23-2.74,2.74-2.74,2.74,1.23,2.74,2.74"/>
    <path class="cls-19" d="m820.7,255.33c0,1.51-1.23,2.74-2.74,2.74s-2.74-1.23-2.74-2.74,1.23-2.74,2.74-2.74,2.74,1.23,2.74,2.74"/>
    <path class="cls-19" d="m920.7,282c0,1.51-1.23,2.74-2.74,2.74s-2.74-1.23-2.74-2.74,1.23-2.74,2.74-2.74,2.74,1.23,2.74,2.74"/>
    <path class="cls-19" d="m930.7,308.67c0,1.51-1.23,2.74-2.74,2.74s-2.74-1.23-2.74-2.74,1.23-2.74,2.74-2.74,2.74,1.23,2.74,2.74"/>
    <path class="cls-19" d="m955.08,335.33c0,1.51-1.23,2.74-2.74,2.74s-2.74-1.23-2.74-2.74,1.23-2.74,2.74-2.74,2.74,1.23,2.74,2.74"/>
    <path class="cls-19" d="m980.08,362c0,1.51-1.23,2.74-2.74,2.74s-2.74-1.23-2.74-2.74,1.23-2.74,2.74-2.74,2.74,1.23,2.74,2.74"/>
    <path class="cls-19" d="m999.45,388.67c0,1.51-1.23,2.74-2.74,2.74s-2.74-1.23-2.74-2.74,1.23-2.74,2.74-2.74,2.74,1.23,2.74,2.74"/>
    <path class="cls-19" d="m910.7,388.67c0,1.51-1.23,2.74-2.74,2.74s-2.74-1.23-2.74-2.74,1.23-2.74,2.74-2.74,2.74,1.23,2.74,2.74"/>
    <path class="cls-19" d="m1031.95,415.33c0,1.51-1.23,2.74-2.74,2.74s-2.74-1.23-2.74-2.74,1.23-2.74,2.74-2.74,2.74,1.23,2.74,2.74"/>
    <path class="cls-19" d="m929.45,415.33c0,1.51-1.23,2.74-2.74,2.74s-2.74-1.23-2.74-2.74,1.23-2.74,2.74-2.74,2.74,1.23,2.74,2.74"/>
    <path class="cls-19" d="m1076.33,442c0,1.51-1.23,2.74-2.74,2.74s-2.74-1.23-2.74-2.74,1.23-2.74,2.74-2.74,2.74,1.23,2.74,2.74"/>
    <path class="cls-19" d="m954.45,442c0,1.51-1.23,2.74-2.74,2.74s-2.74-1.23-2.74-2.74,1.23-2.74,2.74-2.74,2.74,1.23,2.74,2.74"/>
    <path class="cls-19" d="m1108.83,468.67c0,1.51-1.23,2.74-2.74,2.74s-2.74-1.23-2.74-2.74,1.23-2.74,2.74-2.74,2.74,1.23,2.74,2.74"/>
    <path class="cls-19" d="m980.7,468.67c0,1.51-1.23,2.74-2.74,2.74s-2.74-1.23-2.74-2.74,1.23-2.74,2.74-2.74,2.74,1.23,2.74,2.74"/>
  </g>
  <g>
    <line class="cls-27" x1="432.59" y1="95.33" x2="488.37" y2="95.33"/>
    <line class="cls-27" x1="446.09" y1="122" x2="501.93" y2="122"/>
    <line class="cls-27" x1="459.96" y1="148.67" x2="516.9" y2="148.67"/>
    <line class="cls-27" x1="473.84" y1="175.33" x2="533.31" y2="175.33"/>
    <line class="cls-27" x1="476.9" y1="202" x2="535.75" y2="202"/>
    <line class="cls-27" x1="482.96" y1="228.67" x2="545.96" y2="228.67"/>
    <line class="cls-27" x1="494.03" y1="255.33" x2="560.53" y2="255.33"/>
    <line class="cls-27" x1="506.71" y1="282" x2="573.46" y2="282"/>
    <line class="cls-27" x1="519.03" y1="308.67" x2="582.4" y2="308.67"/>
    <line class="cls-27" x1="533.46" y1="335.33" x2="596.21" y2="335.33"/>
    <line class="cls-27" x1="548.96" y1="362" x2="609.18" y2="362"/>
    <line class="cls-27" x1="554.96" y1="388.67" x2="612.5" y2="388.67"/>
    <line class="cls-27" x1="565.84" y1="415.33" x2="626.46" y2="415.33"/>
    <line class="cls-27" x1="580.53" y1="442" x2="643.71" y2="442"/>
    <line class="cls-27" x1="591.84" y1="468.67" x2="659.25" y2="468.67"/>
  </g>
  <g>
    <line class="cls-27" x1="572.31" y1="95.33" x2="674.9" y2="95.33"/>
    <line class="cls-27" x1="587.81" y1="122" x2="695.96" y2="122"/>
    <line class="cls-27" x1="606.65" y1="148.67" x2="722.09" y2="148.67"/>
    <line class="cls-27" x1="629" y1="175.33" x2="744.21" y2="175.33"/>
    <line class="cls-27" x1="633.87" y1="202" x2="759.21" y2="202"/>
    <line class="cls-27" x1="643.46" y1="228.67" x2="774.84" y2="228.67"/>
    <line class="cls-27" x1="663.06" y1="255.33" x2="786.71" y2="255.33"/>
    <line class="cls-27" x1="682.53" y1="282" x2="831.09" y2="282"/>
    <line class="cls-27" x1="697.43" y1="308.67" x2="846.71" y2="308.67"/>
    <line class="cls-27" x1="717.28" y1="335.33" x2="867.96" y2="335.33"/>
    <line class="cls-27" x1="731.81" y1="362" x2="892.34" y2="362"/>
    <line class="cls-27" x1="727.46" y1="388.67" x2="873.59" y2="388.67"/>
    <line class="cls-27" x1="740.03" y1="415.33" x2="901.09" y2="415.33"/>
    <line class="cls-27" x1="763.59" y1="442" x2="927.34" y2="442"/>
    <line class="cls-27" x1="783.59" y1="468.67" x2="964.84" y2="468.67"/>
  </g>
  <g>
    <path class="cls-9" d="m488.37,88.33h83.94v14h-83.94v-14Z"/>
    <path class="cls-9" d="m501.93,115h85.88v14h-85.88v-14Z"/>
    <path class="cls-9" d="m516.9,141.67h89.75v14h-89.75v-14Z"/>
    <path class="cls-9" d="m533.31,168.33h95.69v14h-95.69v-14Z"/>
    <path class="cls-9" d="m535.75,195h98.12v14h-98.12v-14Z"/>
    <path class="cls-9" d="m545.96,221.67h97.5v14h-97.5v-14Z"/>
    <path class="cls-9" d="m560.53,248.33h102.53v14h-102.53v-14Z"/>
    <path class="cls-9" d="m573.46,275h109.06v14h-109.06v-14Z"/>
    <path class="cls-9" d="m582.4,301.67h115.03v14h-115.03v-14Z"/>
    <path class="cls-9" d="m596.21,328.33h121.06v14h-121.06v-14Z"/>
    <path class="cls-9" d="m609.18,355h122.62v14h-122.62v-14Z"/>
    <path class="cls-9" d="m612.5,381.67h114.97v14h-114.97v-14Z"/>
    <path class="cls-9" d="m626.46,408.33h113.56v14h-113.56v-14Z"/>
    <path class="cls-9" d="m643.71,435h119.88v14h-119.88v-14Z"/>
    <path class="cls-9" d="m659.25,461.67h124.34v14h-124.34v-14Z"/>
  </g>
  <g>
    <path class="cls-18" d="m522.21,88.33h1v14h-1v-14Z"/>
    <path class="cls-18" d="m539.28,115h1v14h-1v-14Z"/>
    <path class="cls-18" d="m557.84,141.67h1v14h-1v-14Z"/>
    <path class="cls-18" d="m574.03,168.33h1v14h-1v-14Z"/>
    <path class="cls-18" d="m577.46,195h1v14h-1v-14Z"/>
    <path class="cls-18" d="m583.34,221.67h1v14h-1v-14Z"/>
    <path class="cls-18" d="m596.65,248.33h1v14h-1v-14Z"/>
    <path class="cls-18" d="m607.9,275h1v14h-1v-14Z"/>
    <path class="cls-18" d="m619.53,301.67h1v14h-1v-14Z"/>
    <path class="cls-18" d="m638.53,328.33h1v14h-1v-14Z"/>
    <path class="cls-18" d="m649.84,355h1v14h-1v-14Z"/>
    <path class="cls-18" d="m648.9,381.67h1v14h-1v-14Z"/>
    <path class="cls-18" d="m669.03,408.33h1v14h-1v-14Z"/>
    <path class="cls-18" d="m686.28,435h1v14h-1v-14Z"/>
    <path class="cls-18" d="m706.34,461.67h1v14h-1v-14Z"/>
  </g>
  <g pointer-events="none">
    <text class="cls-23" transform="translate(296.86 51)"><tspan class="cls-15" x="0" y="0">B</tspan><tspan class="cls-35" x="13.03" y="0">O</tspan><tspan x="29.89" y="0">XP</tspan><tspan class="cls-37" x="58.04" y="0">L</tspan><tspan class="cls-26" x="67.87" y="0">O</tspan><tspan x="85.29" y="0">T OF </tspan><tspan class="cls-31" x="136.36" y="0">S</tspan><tspan class="cls-41" x="148.73" y="0">T</tspan><tspan class="cls-40" x="158.21" y="0">A</tspan><tspan class="cls-7" x="172.82" y="0">TES&apos; 90TH PE</tspan><tspan class="cls-25" x="299.32" y="0">R</tspan><tspan x="312.53" y="0">CENTILE I</tspan><tspan class="cls-12" x="404.33" y="0">N</tspan><tspan class="cls-6" x="421.83" y="0">C</tspan><tspan class="cls-16" x="434.72" y="0">OMES </tspan><tspan class="cls-34" x="501.52" y="0">B</tspan><tspan class="cls-16" x="513.81" y="0">Y YEAR</tspan></text>
  </g>
</svg>