<?xml version="1.0" encoding="UTF-8"?>
<svg id="Layer_1" data-name="Layer 1" xmlns="http://www.w3.org/2000/svg" xmlns:xlink="http://www.w3.org/1999/xlink" viewBox="0 0 1297 547">
  <defs>
    <style>
      .cls-1 {
        fill: none;
      }

      .cls-2 {
        letter-spacing: -.04em;
      }

      .cls-2, .cls-3, .cls-4, .cls-5, .cls-6, .cls-7, .cls-8, .cls-9, .cls-10, .cls-11, .cls-12 {
        isolation: isolate;
      }

      .cls-2, .cls-3, .cls-4, .cls-5, .cls-7, .cls-8, .cls-10, .cls-11, .cls-12 {
        font-family: Futura-Bold, Futura;
        font-weight: 700;
      }

      .cls-2, .cls-3, .cls-5, .cls-10, .cls-11, .cls-12 {
        font-size: 19px;
      }

      .cls-3 {
        letter-spacing: -.01em;
      }

      .cls-13 {
        fill: url(#linear-gradient);
      }

      .cls-4 {
        letter-spacing: -.04em;
      }

      .cls-4, .cls-7, .cls-8 {
        font-size: 16px;
      }

      .cls-14 {
        fill: #00521d;
      }

      .cls-15 {
        fill: #ebf7de;
      }

      .cls-16 {
        fill: #fff;
      }

      .cls-17 {
        fill: #e2f3f5;
      }

      .cls-18 {
        fill: #6ac3a3;
      }

      .cls-19 {
        fill: #7bcbb2;
      }

      .cls-20 {
        fill: #97d7c6;
      }

      .cls-21 {
        fill: #96d6c5;
      }

      .cls-22 {
        fill: #91d4c2;
      }

      .cls-23 {
        fill: #b8e4db;
      }

      .cls-24 {
        fill: #c1e8e0;
      }

      .cls-25 {
        fill: #8fd3c0;
      }

      .cls-26 {
        fill: #309b5c;
      }

      .cls-27 {
        fill: #329d5f;
      }

      .cls-28 {
        fill: #8cd2be;
      }

      .cls-29 {
        fill: #a4dccf;
      }

      .cls-30 {
        fill: #b1e1d7;
      }

      .cls-31 {
        fill: #aee0d5;
      }

      .cls-32 {
        fill: #b2e2d8;
      }

      .cls-33 {
        fill: #abdfd3;
      }

      .cls-34 {
        fill: #d7f0ee;
      }

      .cls-35 {
        fill: #aaded3;
      }

      .cls-36 {
        fill: #c8eae4;
      }

      .cls-37 {
        fill: #caebe6;
      }

      .cls-38 {
        fill: #dbf1f1;
      }

      .cls-39 {
        fill: #d8f0ef;
      }

      .cls-40 {
        fill: #def2f3;
      }

      .cls-41 {
        fill: #248e4c;
      }

      .cls-42 {
        fill: #0d7534;
      }

      .cls-43 {
        fill: #42ab74;
      }

      .cls-44 {
        fill: #42ab75;
      }

      .cls-45 {
        fill: #88d1bc;
      }

      .cls-46 {
        fill: #a2dbce;
      }

      .cls-47 {
        fill: #70c6a9;
      }

      .cls-48 {
        fill: #45ae79;
      }

      .cls-49 {
        fill: #99d8c8;
      }

      .cls-50 {
        fill: #6bc3a4;
      }

      .cls-51 {
        fill: #9ad8c8;
      }

      .cls-52 {
        fill: #2a9453;
      }

      .cls-53 {
        fill: #2f9a5a;
      }

      .cls-54 {
        fill: #56b98e;
      }

      .cls-55 {
        fill: #81ceb7;
      }

      .cls-56 {
        fill: #4ab17f;
      }

      .cls-57 {
        fill: #60be99;
      }

      .cls-58 {
        fill: #82ceb7;
      }

      .cls-59 {
        fill: #268f4d;
      }

      .cls-60 {
        fill: #4db382;
      }

      .cls-61 {
        fill: #53b68a;
      }

      .cls-5 {
        letter-spacing: -.05em;
      }

      .cls-6 {
        font-family: Futura-Medium, Futura;
        font-size: 12.22px;
        font-weight: 500;
      }

      .cls-7 {
        letter-spacing: .01em;
      }

      .cls-10 {
        letter-spacing: -.03em;
      }

      .cls-12 {
        letter-spacing: -.02em;
      }
    </style>
    <linearGradient id="linear-gradient" x1="1036.41" y1="-1.98" x2="1036.41" y2="-3.21" gradientTransform="translate(-15589 814) scale(16 200)" gradientUnits="userSpaceOnUse">
      <stop offset="0" stop-color="#d5efed"/>
      <stop offset=".1" stop-color="#c1e8e0"/>
      <stop offset=".2" stop-color="#a7ddd1"/>
      <stop offset=".3" stop-color="#8bd2be"/>
      <stop offset=".4" stop-color="#70c6a9"/>
      <stop offset=".5" stop-color="#58ba91"/>
      <stop offset=".6" stop-color="#44ad77"/>
      <stop offset=".7" stop-color="#319c5d"/>
      <stop offset=".8" stop-color="#208946"/>
      <stop offset=".9" stop-color="#0e7736"/>
      <stop offset="1" stop-color="#036429"/>
    </linearGradient>
  </defs>
  <rect class="cls-15" width="1297" height="547"/>
  <path class="cls-1" d="m45,102h1000v400H45V102Z"/>
  <g pointer-events="none">
    <g>
      <g class="cls-9">
        <text class="cls-11" transform="translate(303.27 64)"><tspan x="0" y="0">90/</tspan></text>
      </g>
      <g class="cls-9">
        <text class="cls-2" transform="translate(339.75 64)"><tspan x="0" y="0">1</tspan></text>
      </g>
      <g class="cls-9">
        <text class="cls-11" transform="translate(351.91 64)"><tspan x="0" y="0">0 PE</tspan></text>
      </g>
      <g class="cls-9">
        <text class="cls-3" transform="translate(395 64)"><tspan x="0" y="0">R</tspan></text>
      </g>
      <g class="cls-9">
        <text class="cls-11" transform="translate(408.21 64)"><tspan x="0" y="0">CENTILE R</tspan></text>
      </g>
      <g class="cls-9">
        <text class="cls-10" transform="translate(506.76 64)"><tspan x="0" y="0">A</tspan></text>
      </g>
      <g class="cls-9">
        <text class="cls-11" transform="translate(521.37 64)"><tspan x="0" y="0">TIO OF INDIVID</tspan></text>
      </g>
      <g class="cls-9">
        <text class="cls-12" transform="translate(679.12 64)"><tspan x="0" y="0">U</tspan></text>
      </g>
      <g class="cls-9">
        <text class="cls-11" transform="translate(694.13 64)"><tspan x="0" y="0">AL I</tspan></text>
      </g>
      <g class="cls-9">
        <text class="cls-11" transform="translate(732.67 64)"><tspan x="0" y="0">N</tspan></text>
      </g>
      <g class="cls-9">
        <text class="cls-11" transform="translate(750.16 64)"><tspan x="0" y="0">C</tspan></text>
      </g>
      <g class="cls-9">
        <text class="cls-11" transform="translate(763.05 64)"><tspan x="0" y="0">OME</tspan></text>
      </g>
      <g class="cls-9">
        <text class="cls-2" transform="translate(817.18 64)"><tspan x="0" y="0">B</tspan></text>
      </g>
      <g class="cls-9">
        <text class="cls-11" transform="translate(829.48 64)"><tspan x="0" y="0">Y</tspan></text>
      </g>
      <g class="cls-9">
        <text class="cls-11" transform="translate(849.67 64)"><tspan x="0" y="0">S</tspan></text>
      </g>
      <g class="cls-9">
        <text class="cls-10" transform="translate(862.04 64)"><tspan x="0" y="0">T</tspan></text>
      </g>
      <g class="cls-9">
        <text class="cls-10" transform="translate(871.52 64)"><tspan x="0" y="0">A</tspan></text>
      </g>
      <g class="cls-9">
        <text class="cls-11" transform="translate(886.13 64)"><tspan x="0" y="0">TE IN 2</tspan></text>
      </g>
      <g class="cls-9">
        <text class="cls-5" transform="translate(956.98 64)"><tspan x="0" y="0">0</tspan></text>
      </g>
      <g class="cls-9">
        <text class="cls-5" transform="translate(968.93 64)"><tspan x="0" y="0">1</tspan></text>
      </g>
      <g class="cls-9">
        <text class="cls-11" transform="translate(980.81 64)"><tspan x="0" y="0">9</tspan></text>
      </g>
    </g>
  </g>
  <g>
    <path class="cls-47" d="m181.76,496.93l-.51-1.37-.72-.74.06-.2.84.77.55,1.4-.22.14Zm14.57,3.46l.02-.74.45.11-.1.46-.37.18h0Zm.7,0l-.15-.37.3-.2-.15.57h0Zm.74-.18l-.37-.38h.39l-.02.38Zm-6.59-.95l-.48-.61.58-.07-.59-1.06.18-.14.76.22v.37l.76.48-.56-.04-.65.85Zm2.43.25l-.53-.33-1.01-.26,1.45.13.29-.1.22-.55.32.09-.58,1.1-.18-.08h.02,0Zm-12.95-6.29v-.45l.37.35-.37.1Zm13.57,7.2v-.4l.47-.16.02-.49.48.21.24-.85.73.11-.5.73.55.07-.06.6-.29-.18-.29.29-.9-.02.15-.44-.58.55-.02-.02h0Zm-10.21-5.6l-.3-.41.13-.31h.59l.27.41-.69.31Zm13.64,4.66l-.29-.63.58-.05-.3.68h0Zm-20.78-7.53l-.19-.49.71-.17.34.12.55-.55.29.2-.63.45-.16.35-.4-.29-.53.38h.02Zm29.03,9.89l-.53-.44-.51.03-.54-.59h.51l1.62.82.56.03.71.3-.64-.02-1.06-.24-.12.11h0Zm3.39-.25l-.25-.12.26-.45.47-.1.38.45-.86.21h0Zm-8.5-1.21l-.08-.18.9-.1.32.21.91-.03,1.1-.4-.34-.35.22-.29.61-.04.35.79-.37.3-.36-.15.15.64-1.02-.18-.18.3-.46-.31-.29.16-1.15-.43-.31.08v-.02h0Zm-33.57-16.35v-.23l-.73-.46h1.21l-.25.8-.22-.11h-.01Zm48.07,17.58l.05-.53.65-.16-.05.52-.65.17Zm3.71-.37l-.37-.38-.4.11v-.37l.94.06-.18.58h0Zm-52.94-20.22l-.25-.55.15-.3-.41-.15.18-.28-.49-.27.74-.08.79.64.5.14v.48l.38.16-.27.48-.43-.06-.24-.37-.65.16h0Zm55.01,20.39l1.33-1.1v-.4l.74-.47.79.25-.22-.41.18-.43.69-.47.75-.05.64.4-.31.65-1.51.46-.82.85-.97.4-1.3.31h.01Zm10.06-2.67l-.23-.49.67-.24-.07.42-.37.32h0Zm-5.04,1.54l-.42-.5.47-.3.31.13.43-.3.45.3.18-.36.73-.02-.19-.56h.53l-.08-.45,1.1.08-.91-.32-.37-.48.34-.47.65-.22.68-.02.21.36-.21.65,1.21-.59.2.32-1.45.9.9-.2.06.54-.76.05-.65.78-.38-.23-.77.15-2.25.74v.02h0Zm9.02-2.82l-.52-.22.9-.1-.39.32h.01Zm-2.65-.29l-.49-.15-.14-.45.51-.45.69.54.13.31-.69.2h0Zm1.06-.2l-.21-.9.64-.07-.26.4.39.09-.57.48h.01Zm9.39.01l-.63-.52.16-.21.55.28-.08.45h0Zm92.26-10.9l-.79-.71.62.08.16.63h.01Zm-91.01,8.57l-.3-.35.38-.49.26.15-.33.69h0Zm94.63-10.4l-.58-.32.61-.52.3.47-.32.37h0Zm-102.18,11.69l-.59-.24-.11-1.01.74-.22.63-1.06.44-.24.5.23,1.23-.55,1.12.08.42,1.71.44-.08.1.46-.91-.25v.33l-.56.18-.64-.25-.89-.05-.84.35-.34.49-.76.1.02.02h0Zm16.43-.98l.23-.54.17.36-.4.18h0Zm-6.98-1.31l-.4-.64.77.29-.36.35h-.01Zm88.37-8.68l-.43-.06.1-.37-.37-.27.12-.29.69.65-.12.34h0Zm-81.91,9.43l.25-.32-.02-.6.24.41-.48.51h0Zm82.51-7.79h-.35l-1.4-1.01-.43-.75-.18-.74.23-.17.91,1.11.12.38.72.37.37.81h0Zm2.77-2.8l-.21-.15.13-.7-.39-.57.93.26.16.68-.63.49h.01Zm-87.19,11.34l.6-1.14.08-.62.47.31-.31.52-.66.57-.17.36h-.01Zm81.73-10.73l-.32.05-.17-.59.28-.18.43.32-.22.4h0Zm-81.87,8.66l-.54-.46.57-.18-.03.64h0Zm-1.55.52l.06-1.19.38-.35.25.17.47,1.1-.24.28-.67-.42-.24.39v.02h0Zm88.19-10.35l-.34-.24-.48-1.15.75.32.07,1.08h0Zm-5.64,1.22l-.24-.22-.02-.72.48.1-.25.29.03.55h0Zm-80.37,7.91l-.51-.41.58.02-.07.39h0Zm80.3-8.96l-.28-.03.15-.48.41.31-.28.21h0Zm-.83.19l.17-.51.35-.21-.09.58-.43.14h0Zm1.31-.48l-.41-.34.28-.3.12.64h.01Zm-.88-1.11l-.63-.3.33-.4.75.12-.45.57h0Zm-65.96,9.22l-.45-.35.6-.42-.15.77h0Zm66.6-9.85l-.35-.22-.04-.46.33.18.06.5h0Zm-3.03.67l-.13-.55.45-.07-.32.62Zm9.95.29l-.45-.25-.42.08.24-.96-.14-.09-.41,1.06-1.1-.5.32-.98-.32-.06-.33-1.05.48-.14-.26-.29.85-.71.79.54.73.9.32,1.98-.3.5v-.03Zm-8.46-1.19l-.37-.19.26-.96.51-.46.41-.05.22.69-.26-.02-.78.99h0Zm3.91-1.34l-.55-.66-.58.23-.44-.77.3-.22v-.53l.51-.03.03.56.54-.1.57.32-.22.4.39.38-.55.43h0Zm-1.82,0h0l.13-.12.87.32.7.54.13.63.42-.04.36.48.6.29-1.1-.2-.4-.24.23.62.4-.21.97.5.36.46-.38.41.5-.06.08-.48.3.53-.14,1.06.37-.33.29.64.17,1.04-.85.17-.13-.61-.93-.64.07.38-.6-1.14-.27.24-.93-.42-.9.21-.06-.53h.66l-.23-.51-.39.06-.04-.91-.52.43-.39-.12-.02-.48.4-.76-.41-.27-.51-1.33-.95.14-.37-.47-.02-.42.54.02.67-.27.74.65.15.76.45-.02h-.02Zm-.21-1.17l-.73-.33.13-.72.6-.23.45.23.08.64-.53.42h0Zm2.03-.42l-.68-.33-.41-1.06.34.04.6.5.32-.17.56.67-.3.57-.43-.22h0Zm-64.27,8.93l-.05-.27.55-.1-.5.37Zm-9.33-.36l-.13-.33.5.04-.36.29h-.01Zm7.22.86l.21-.66.45-.35.21.43-.87.58h0Zm2.03-.96l-.25.41h-.54l.36-.57.42.16h.01Zm-45.56-5.15l-.41-.56.83.32-.42.25h0Zm108.4-5.24l-.3-.36.56-.06-.26.41h0Zm-.8.92l-.4.05-.11-.71-.46-.77.45-.1,1.15.81-.62.72h-.01Zm-3.38-.35l-.17-.28h.5l.09.98-.13.55.44.86-.12.37.17.97-.14.1-.5-.67.3,1.21-.39-.26-.62-1.41.14-.59.54.45-.39-.76-.72-.17.06-.25-.54-.51-.23-.57.42-.66.69.17.6.47h0Zm.49-.04l-.61-.77-.83-.48.34-.49,1.49.04.83-.26.47.29.58,1.31-.09.37-1.39-.91.67.87.4.06.21.47-.21.5-.75-.07.1.24-.6.29-.61-1.45h0Zm-56.89,7.62l-.25-.62.51-.56,1.01.29-.92.33-.35.55h0Zm-49.11-6.42l-.24-.51.94-.05-.7.56Zm99.64-.77l-.22-.51.22-.5-.3.04-.27-.82.44-.04.63.8.02.76-.51.29v-.02h-.01Zm2.55.7l-.45.17-.04-.48-.57.13-.2-.63.23-.57-.51-.23-.12-.81-.46.2-.61-.58.58-.08-.42-.18.23-.89.39.35.36-.18.71.3.43-.19.27.54-.35-.12.54.74,1.2,2.18.64,2.48.13.45-.53-.25-1.62-1.98.18-.36h0Zm-50.44,1.63l-.47-.19.26-.3.21.49Zm-2.41.51l-.87-.59.1-.37.54.39.23.57h0Zm-2.66,5.71l.2-.56.63-.64-.34.04.23-.87-.56.79-.19-.14.19-.67-.44-.22-.7.19.25.42.24-.33.56-.09-.03.92-.4.11-.78-.31v-1.04l-.26-.46-.35-.05-.16-.39.5-.87.78-.7,1.01-.03.05.52.59,1.24-.11-1.17.25-.08-.43-.42.55-.24-.6-.19-.11-.57.63-.39.41.28.06.6.21-.64.77.26-.08-.55.56.41-.66-.76.95.02.39.2-.28.46.48.06.27-.55.49.13.37.42-.41.51.07.65.9-.12-.52,1.07h-.43l-.74-.43-.4.11.79.44-.25.68-.32.06-.57-.39.2.48-.83.14-.64.62-.36.1-.18.42.29.12-1.04,1.22-.7.14v.04h0Zm49.96-12.54l-.4-.26-.16-.98.64.3-.08.95h0Zm-46.58,5.81l-.8-.36-.52-.04.43-.47.49.3.4.58h0Zm48.41-7.48l-.19.38h.37l.45-1.12.22.08,1.12.08.25.33-.09.51-.72-.15.98.55-.74.37-.54-.25-1.62-.39.47.32.59.05,1.21.66.26-.39.47-.15.48.77.15.71-.62.18-1.79-.79-.74-.17,1.04.68.23.6-.3.68-1.64-1.09-.3-.62-.34-.02-.18-.18-.12.04-.07.02-.04-.97,1.12.64v-.03l-.24-.09-1.32-1.05.32-.66.21.32.17-.43.49-.06.35-.53.7.22.28.56-.32.38h-.01Zm3.59-1.86l-.84.05-.39-.36.32-.28.92.58h-.01Zm-1.19.19l.12.33.33-.29.71.16h.02l.37-.29-.09.23,1.39,1.35.23.64-.23.02-.98-1.39-.63-.42.44.6-.3-.06,1.01,1.2.69.46.24.6-.56.08.89.54-.22.4-.68-.29.35.93-.67,1.1-.34.12-.38-1,.23-.47-.32-.37.38-.02-.49-.36-.81-1.16-.09-.58-.65-1.1.08-.24-.1-.5h0l.02.52-.71-.78-.23-.7.95.76.03-.02Zm-49.04,6.75l.33.45.65.04-.05.63-.24.3-.71-.48.16.65-.82.08-.61.28v.38l-.68-.26-.59-.62.16-.3.91.3-.72-.53.15-.22.75.1-.3-.67.64-.45.5.11.3.8.18-.59h-.01Zm-.98-.79l.86-.36-.36.89-.42-.13-.08-.4h0Zm-23.55-.9l.14-.81,1.05-.42-.64,1.12-.55.1h0Zm21.1-3.11v-.37l.49.15-.49.21h0Zm7.65-.02l.06-.7.22.25-.28.44h0Zm16.31-4.3l.4-.82.48-.38-.88,1.21h0Zm-9.29.29l.35-.73v.51l-.35.21h0Zm-.09-.54l-.26.18.43-.84.24.31-.4.35h0Zm-.56.2l-.1-.4.6-.54-.25.86-.24.08h-.01Zm1.19,1.24l-.07-.54,1.08-1.36.58-1.26.59-.06-.11.46-.48.49-.66,1.21.17.35-1.1.7h0Zm-49.31-2.16l-.53-.69-.5-.06-.85-.95-.31-.04-.68-1.4.94.07.62.31.14-.34,1.01-.47.24.23.71-.07.04.39h.55l.47.37-.23.66.13,1.44h-1.19l-.57.53v.02h0Zm52.37-.68l-.21-.22.53-.52-.61.18.21-.78.57-.07.14.35.73.07-.55.3-.8.69h-.01Zm-14.46.43l.36-.96.23.15-.59.8h0Zm11.07-.21l.37-1.36.34.39-.25,1.48-.46-.51h0Zm-64.2-6.11l-.73-.32-.65-1.1-.26-.17.42-.49v.53l.33.54.68.41.21.6h0Zm68.56,4.62l-.22-.33,1.24-.58-.03.25-.99.66h0Zm-4.6-.64l-.28-.35.48.12-.21.23h0Zm-.62.21l-.17-.69.28.08-.11.61h0Zm-43.77.18l-.54-.35-.35-.56.52-.51-.62.13-.46-.14,1.25-.97-.15-.37.54-.35.61-.07-.2.34,1.08.4.06.62-.94.58.21.32-.46.16.06.36-.6.42h0Zm44.05-1.07l-.27-.02.09-.75.47.52-.3.26h0Zm-42.13-11.35l-.06-.97.88.22-.82.75Zm2.17.93l-.4-1.04-1.09-.7-.66-.28.54-1.04.88.14.41.64.2.81-.04.7.16.77h0Zm-.26-2.21l-.52-.79-.5-.32.08-.37.64-.42.72-.03.74.4.4.55-.68.43-.38.61-.49-.07h0Zm4.17-2.88l-.31-.24.74-.24v.44l-.43.05h0Zm-17.41.06l-.37-1.24-.79-.43.18-.43-.66-.84-.56-.49-.96.11-.56.32-.63-.51-.09-.68.5-.81.18-.67.31,1.14.6.04.54.43,1.34-.41.43.18.35.49-.04.75.84.48.13.4,1.27.39.69.43-.56.68-1.03-.43-.77.54-.32.57h-.02,0Zm44.09-35.79l-.3-.38.52-.05-.23.43h.01Zm44.06,57.37l-.67-1.1-.43-.4.76-.6h-.58l-.12.38-.38-.73.22,1.17-.24.22-.78-.27-.3-.66-.16.5-.68-.19-.36.4.76-.06.79.24-.14.18,1.18.58.65.84v.48l-.72.46-.67-.19.22.46-.28.35-.75-.5-.61-.12-1.63-.73-1.18-.83-.2-.5-.83-.56-.91-.17.05-.46-.54.29-2.23-.88-.15.05-1.23-.51.39-.34.36-.59-.52-1.08.37-.49-.25-.39-.45,1.37-1.25.98-1.51.09-1.7-.48.39-.69-.52-.83-.31.31.51.41-.52.45-2.74-.18-.86.14-1.9.61-.6.31-1.1-.67.04-.2-.96.15-.33-.44-.66-.04.26-1.14-.12-.62-.45.52-.23.62-.52.53-.46-.38-.68-.22-.55.17.76-1.21-1.02.35.18-.52-.66.53-.21-.11.48-.51-.69-.1-.24.46-.62.04,1.19-.98-.18-.21-.26.43-.51.1-.55-.47.2-.96.97-.13-.23-.25-.82.25-.54.85-.58-.21-.32.13-.31.63-.39-.03-.03-.94-.18.04-.36,1.31-.87-.49.26-.82.38-.6.07-.51-.62,1.07-.15.48-.32-.58-.5.68.54-.43-.25.67-.02.64-.45.19-.39.46.03.32.36-.58.29-.08.07.55.24-.43.31.74-.34.48-.41-.2-.44.45v.22l.52-.51.51.25.44-.6.4.93-.67.41-.07.56.46.19-.48.54-.09-.25-.2,1.21-.33-.42-.27.59-1.22-.16.22-.42-.36.07-.25.68-.24-.87-.27-.22.1.74-.55.5-.28-.28v1.35l-.65-.38.17.68-.39.03.04.39-.84.68.27-1.02-.46,1.04-.38-.41.05.61-.37.02-.68,1.2-.12-.61-.16.58-.79-.13-.97.51-.64-.49.23-.93.64-.35.52.08.02-.38.71-.31-.08-.24.7-.88h-.37l-1.15.92-.9-.43-.11-.31.4-1.39.72-1,.06-.81.21-.13.06-.88-.42-.93.91-.4.88-.85.77-.57.34.41.57.2.74-.34.34.21,1.04.08.56.26-.44-.53-.42.12-1.01-.41-.91-.68.33-.3.51-.97,1.18-.62-.37-.15-.67.18-.55.57-.24.83-1.2.03-.57-.33-.11.33-.65.35-.42.73-.86.3-.79.83.27.7-.39-.1-.64.89-.54.48.22.6-.85.95-1.01-.1.7.41.3.61-.34.75-.28.2-1.11.1-.15.29.69-.13-.08.77-.42.32-.41-.32-.26-.55v.76l-.34.57-.57.1.19.51-1.03.51-.21,1.19.05.58.28-.3h1l.42.47.6.33.07.36h.15-.22l-.3.79-.62.52-.64.04-.18.64h-.35l.27.52-1.02.59.58-.17v.45l-.65.72-.66-.14.12.52h-1.3l-.23.85-.44-.07-.1.64-.3.22-.66-.4.07.68-.32.1-.1.49-.89-.1.03.67-.32-.18-.6.27-.65.72.56-.2v.87l-.79.6.19.32-.57-.08-.19.48-.24-.27-.61.7-.27-.22-.08.48-.49-.54-.29.18-.24.79.22.28-.64.05-.16-.37-.51.14-.67.58.83-.14-.06.47-.8-.3v.34l-.59-.16-1.01,1.11.95-.26.36.2-.53.31-.27,1.26-.23.06-.21-.57.16-.49-.41.34.08.66-.67-.15-.48.58-.19-.2-.85.19-.21.46-.08-.58-.3.1.11.62-.26.64-.43-.15.35-.8-.6-.29-.49.18-.29.6-1.08.42-.49.64-.17-.59-.23.63h-.36l-.21-.42-.44.43-.78.37-.82-.12.14-.67.43-.44-.14-.3h-.53l-.46.59.04.52-.7.9-.46-.12.12.74-.32.14-.31-.48-.08.5-.7.06-.29-.48.12-.74-.61-.1.27.5-.25.89-.44.33-.42-.16-.19-.75-.54-.33-.15.48.54.56-1.11.6.3-.85.03-.6.4-.38,1.04.05v-.47l.42-.09.36-.41.42.09-.06-.53,1.06-1.1,1.46-.88,1.51-.26.72.24.62-.25v.37l-.52.13.63,1,.09-.83.85.14.14.47.55.15.13-.38-.82-.64-.12-.36.84-1.48,1.63-1.22,1.54-.55,1.35-1.03v.05l-.03.37.79.29-.13-1.2,1.21-1.59.61-.32.55-.63.64-.45.45.57-.08-.85-.27.05v-.6l.46-2.13.52-.25-.38-.6.25-1.07.64-.67.64-.58.21-.89-.1-.37-.39.5-1.11.52-1.69.65-.47-.23-.07-.41-.58-.45.18-.27.1-.97-.37.64-.42.12-.13.78-.78-.6.46.47.31,1.08.16.41-.3.43-.71-.1-.81-1.93-.67-.49.2-.27-.45-.21-.18.63-.32.14-.35-.62-.53-.08.04-.52-.31-.39-1.39.88-.55.09-.11.08-.79.39-.19.41-1.09.45.16-.33-.97-.14-.27-.19.96-.06.31-.66v-.82l.74-.73-.7-.13-.27.18-.25-.82.31-.81.73-.56-.33-.76-.16-.92-.29-.51-.25-1.15.18-.33-.63-.89.41-.32.4-1.05-.09-.2-.54.99-.49.44v.55l.25.18-.28,1.02-.69-.06-.05.27-1.24.39-.97.08-.99-.16-.43-.22-.2-.67.27-.09-.62-.66-.56-1.29.38-.77.41-.12-.19-.38.43-.02.32-.41.39-.04.61-.57.34.36-.2.56.27.29.85-.7-.29-.5-.94-.38.37-.16.35.22.35-.17-.62-.26-.48.34.02-1.02-.51.46.14.41-1.19-.02-.23-.51-.46.13-.07-.28h-.72l-.1-.33.66-.13.53-.36-.57-.08-.09.27-.68-.75-.17.46-.47-.13-.09-.77.16-.27-.64-.32v-.54l.46-.27-.35-.47-.46.04-.04-.56.93-.08-.51-.35-.14-.46h1.27l-.22-.61.32-1,1.34-1.44.57-.43.49.12.96-.88.71.24.73,1.39-.15-.96.11-.49-.33-.58.07-.34.76-.07.15-.48.7-.42.35.48.74-.07.59-.67.65-.3.67-.9.16-.45.68.39-.37.26,1.07-.06.45.11.93-.17,1.04-1.34v-.45l-.25-1.1.02-1.01-.58-.87-.55-.15.39-.69.65.3.74-.61.07-.52-.21-.6-.43-.36.24-.25-.37-.02-.52.75-.43.15-.29-.25-.54.35-.64.05-.17.3-.77.39-.34.78-.38.25v-.93l-.69-.92-.42.29.47.5-.03.51-1.01-.98-1.75-.23-.76.24-.03-.16-.82.32-.67-.41-1.87-.82-.42-.48-.02-.82.3-.43-.58-.66-.18-.75.6.08.59-.65.68.28.35.91.35.23.6-.36-.26-.29-.65-.17-.16.18-.23-.62-.55-.42-1.08-.54-1.2-.38-.6-.68-.69-.55.76-.56.45.09.09-.45.8-.42.16.37.74-.35.6-.67,1.04-.34.34.41.91.13.28-.18-.72-.55.34-.4.75-.33.96.09.74-.59.66-.09,1.1.1.24.26-.39.86.02.59-.26.28.26.85h.56l.86.22.77-.03.78.42.54-.21.42.29.07.41.88-1.4,1.23.18-.25-.56-.82-.45-.83.11.14-.83-.55-1.06-.63-.3-.16-.61.34-.48.34.03.54.96-.19.7.28.59.65.64.91-.43.73.99,1.18.02.14-.72-.26-.49-.65.04-.31-.39h-.69l-.42.61-.4-.07-.72-1.1.28-.86.36-.37.37.02-.65-.56-1.41.19-.53-.45-.44.07-1.48-.61-.16-1.71-.3-1-.76-.82-1.42-1.9-1.11-.81-.53-.91-.91-.52.98-.05.65-1.94v-.51l1.7.39,2.09-.04.67-.21.97-.7.85-1.07.42-.86-.14-.31.45-.49-.21-.22,1.24-1.2.07-.32.61-.5.65-.75.34.41-.42-.04.02.42-.41-.03.39.09.48-.44.38.08,1.32-.58,1.24-1.1.4.11-.05.58-.46.8.46-.26.18-.54-.13-.72-.36-.04.91-.85.92-.27-.37.26.63.26,1.62-.2.62-.23.99-.88.83-1.2.34-.28.39.4.57.15-.09.43.68-.16.4.61-.41.51-.58.1.08.68.93.04-.02-.61,1.24-.77.45.52-.18.57.88.62.45-.59,1.42-.23.7.31.3-.13.65.29-.44.77.1.39.67.13-.99.22,1.66-.09-.32.65.57-.06.68.39.14-.42.85-.12-.03.59,1.07-.53.4-.45,1.3.04.62.44.66.1.06.28.45-.22.84.55,1.16.3,1.18-.31,1.02.17.26-.21,1.21.77,1.19-.05.2-.29,2.28-.86.91.23.82.45.31.39,1.08.22.74.61.26-.32.42.13,1.19,5.99,2.76,13.95,4.13,20.86,1.59,8.01.09.45,1.35.2.06-.5,1.39.4.57-.97,1.58-.45v1.47l.49.4,1.02.25.38.68,3.37,2.1.62,1.28.04.43,1.53-1.81.64-.2.11-.56-.26-1.08.46-.12.02-.54-.35-.13.96-.61.51-.52.52-.54.8.34.73.53v.77l.31.37.3.28.73-.04.13.28.62.16.65.74.37.48,1.33.33.55.49,1.17.66-.16.29,1.17.96.53.69.81.65,1.45,1.47.77.58.57.6-.12.72.97-.07.07.95.83.1.46,1.02.69-.31,1.81.55.87-.1.63.35.48-.04.3.47.59.04.36-.29.5.47.19.51-.17.88.41.88,1.02,1.37-.19.59-.08,1.29-.52,1.23-.4.29-.34-.32.02.45-.35-.08-.26-.63-.91-1.21.4-.81-.82-2-1.44-1.17-.4.41-.15-.21-.74,1-.41.18.48.19-.02,1.77-.77-.24-.48-.69.11-.05.14-1.29.21-.15-.38-1.02.5-.36h-.55l-.39-.51-.32.03-.99-.62.06-.78-.56.17-.23-.34-.94-.21-.76-.62.45-.22-1.28-.07-.12-.44-.26.47-.67-.18-.1-.64.92-.38-.84.08v-.37l-.5-.22.05-.67-.33.25-.35-.23.09-.61,1.35.39-.93-.53-.48-.06-.18-.62.05-.18.05-.09-.18.55-.11.3h-.09l-.58-.67-.82-.58-.32-.92.22-.29-.25-.39-.2.59.21.27-.25.32-1.05-.54-.6.08-.33-.58-.69-.74-.47-1.6h-.03l.24.64-.05.66-.53-.54-.24-.59-1.02-1.77-.1-.04.02.74-.33-.05.69.61.15.71.7.85.32.71.83,1.38.07.61-.5.16-.44-.38-.54-.83.16.64-.42-.17-.71.46.02-.62-.05-.02h0Z"/>
    <path class="cls-16" d="m417.04,501.44l-1.68-1.51-1.26-.4-.58-1.14.45-3.64-2.38-6.5,1.77-1.51,1.45-2.5-1-1.39.36-2.16,1.62.42,2.51,1.79,1.88.3,2.51,1.2,2.99,2.62-.09,1.82,1.2-.12.38,1.51,2.52,1.81-2.59,2.73-2.45,1.16-2.04.06-3.12,2.07-1.81,2.94-.63.43h-.01Zm-14.42-24.34l-.1-.86,1.35-.69.52,1.36-1.77.19Zm-4.26-3.53l-1.09-2.91,1.97.11,1.4,1.5-.42.83-1.87.47h.01Zm8.47,2.4l-.99-.45-.27-2.65-2.44-.53-.89-2.08.73-1.15,1.25.19,1.51,1.75,2.96-.61,1.72,1.52,1.87.67.26,1-.98,1.15-4.73,1.19h0Zm-9.2-9.27l1.4.21,2.96.12-.47.81-2.02.94-2.8-.86-3.37.05.83-1.91,3.47.65h0Zm-11.51-1.15l-1.34-1.15-2.96.49-2.47-4.25,2.33-.1,1.87-1.99,2.21,3.1.98.76,1.7,2.38-2.33.75h0Zm-34.47-8.23l-.34-1.64,2.5-1.58-.28,1.47-1.09.39-.79,1.36Zm10.93-1.27l-2.32-.5-2.21-1.22-.35-1.34.74-1.07,2.23-1.31,2.58-.1,1.23.74.25,1.18-.54,2.25-1.62,1.36h.01Z"/>
    <path class="cls-18" d="m656.53,351.24l.62-.06,5.8-.58h.05l5.58-.55,3.22-.29.52,1.89.98,3.59.15.53.29.97,1.04,3.61.89,3.1.47,1.77.24.95,1.07,3.77.7,2.57.23.83,1.25,4.51.08.33,1.06,3.59.81,1.83.98,2.05,1.19,1.39.61,2-.37.81,1.64.8-.4.58-1.58,1.69.17,1.08v1.12l-.67,1.61.1,1.73.22.26,1.13,2.04.33,1.61-.14,3.26.07,2.26,1.09,1.23.46,1.11-6.33.77h-.14l-6.99.83-2.02.2-2.63.27-3.9.37-1.27.09-4.98.45-5.69.54-.29,2.06,1.54,1.81,1.74.86-.11,2.95.1,1.06-.93,1.86-1.83.96-2.34.56,1.15-1.05-2.29-1.68-.79-4.82-.59.27-.52-.48-.03-.35.21-.32-1,4.55-.04,2.41-3.21-.69-.45.3-.67-5.33-.47-4.04-.24-1.78-.67-4.91-.46-4.04-.38-3.01.15-5.18.04-1.27.08-4.19.07-5.45v-.97l.1-4.61.06-3.82.1-3.3.1-4.88v-.43l.12-3.66.04-2.22-.02-1.85.18-4.85-1.43-1.49,2.62-.38,4.78-.38,4.74-.36.18-.02,4.7-.32.03-.03h0Z"/>
    <path class="cls-24" d="m565.69,333.11l2.59-.05,3.43-.08,3.3-.08.26-.02,5.41-.16,1.01-.03,2.95-.11,4.66-.18h.35l5.49-.27,2.73-.1h.53l3.42-.2,4.17-.23,2.55-.14,4.39-.25.79-.05,1.02,1.45.27,1.54-1.45,1.64-2.1,3.32,1.1-.07,4.02-.3,3.13-.24.85,1.46-1.47.64.8.74-2.98,1.47,1.26,1.58-1.12.59.59.87-1.09-.29-.61.92.19,1.67-.13.12-.49-1.37-.67.74.89.72-1.03,1.43,1.23,1.08-.04,1.54-1.11.14-.4,1.45-1.18.55.88,1.24-.71.85-1.28.49-.77-.85.22,3.07-1.44.88.24,1.8.05,1.72-2.22.83.23.96-1.32,1.61-1.11-.37-.13,1.8h0l.76,1.43-2.35,1.09.95.67-.63.96,1.15,1.05-1.99.35-.87,1.71,1.15,1-1.21.56.25.5-.2,1.39,1.26,1.37.9,3.1-1.33.13.89,1.15-.51.84v.11l-1.24.05-2.21.11h-.32l-7.77.32-8.42.23-3.41.06-3.17.08-3.22.09h-.41l-3.64.09h-.14l-2.9.07-.08-3.91-.14-4.34-2.43-.54-1.91.75-1.3-1.44.06-4.68h0l.03-3.87v-4.93l.04-3.43.04-3.18.07-6.91v-.29l-.56-3.74-.3-1.87-.79-5.3-.15-.94-.78-5.23,6.64-.1.04-.03Z"/>
    <path class="cls-34" d="m372.33,313.07l11.51,1.62-2.12,15.34-2.21,16.04-.81,5.85-1.79,12.28-1.21,8.74-.91,6.62-.74,5.39-2.32,16.76-18.23-2.66-7.99-1.25-3.53-2.03-23.63-13.73-17.47-10.52.49-1.5,1.37-1.68,2.56-.09,1.24-2.23-.29-1.84-1.79-.46-.46-.98.86-1.98-.48-1.36.35-1.49,1.35-.24,1.6-1.49.79-2.14.2-3.58,1.55-1.31.22-.91,2.44-.89,1.85-1.68-2.05-2.73-.82-4.27-1.58-2.9.43-1.91,1.16-1.93.31-2.92-.53-2.83.66-1.73-.34-1.46,1.03-2.43-.65-1.93.19-1.64,1.72-.47,2.62.42,1.73,2.45,1.07.05,1.76-2.35,1.82-9.94.46-2.4,13.79,2.56,4.3.76,13.53,2.28,7.99,1.25,9.01,1.47h-.01Z"/>
    <path class="cls-27" d="m256.43,356.83l-.72-.97-.5-3.03,2.07,3.61-.85.38h0Zm3.09-7.15l-1.73-.84-.35-2.46,1.93,1.56.15,1.74h0Zm-19.89-14.46l-1.05-2.11,2.48.21.12,1.54-1.55.36h0Zm4.52.12l-1.27-.72-.16-1.56,4.13,2.36-2.7-.08Zm3.27-128.56l9.18,2.74,6.2,1.73,9.66,2.51-3.14,12.18-5.67,21.98-1.1,4.11-.55,1.98-.54,2.27-.2.79-.18.68-.23,1.04.82,1.26,2.9,4.33,2.24,3.35,1.54,2.32,6.57,9.91,5.4,8.17,6.17,9.29,12.02,18.07,2.29,3.51,9.9,14.85-.43,1.91,1.58,2.9.82,4.27,2.05,2.73-1.85,1.68-2.44.89-.22.91-1.55,1.31-.2,3.58-.79,2.14-1.6,1.49-1.35.24-.35,1.49.48,1.36-.86,1.98.46.98,1.79.46.29,1.84-1.24,2.23-2.56.09-17.79-2.11-13.12-1.55.47-2.09-1.24-.99-.15-2.03.51-.38-.03-3.39-1.6-4.31-.89-1.02-2.84-4.15-.04-.05-.42-.23v.02l-1.94-2.53.02-.1-.11-.12v.06l-1.12-.46-.75.39-1.79-1.13.73-.9-.48-2.3-.67-1.11-3.02-.48-1.94-.85-2.93-2.32-.26-1.95-2.04-2.28-.94-.89-3.85-.84-1.37-1.22-3.46-1.07-2.3-.33-.12-1.12-1.48-1.29,1.06-1.88.53-4.09.77-2.01-2.67-2.86,1.17-1.1-.49-1.96-1.16-.51-1.26-3.2-1.31-.77-.11-2.13-1.05-1.71-.09-2.02-.65-.46-.96-3-1.71-2.25.21-4.36,2.15-.67,1.04-2.91-.53-1.67-2.59-.8-1.54-2.91-.95-2.4.77-1.74-.07-1.96-.59-.77.98-2.8.16-1.04,1.27-.2-.23,1.58-.08,1.84,1.08.63,1.22,2.07,1.49.47-1.29-1.01.14-2.59-1.39-2.55.63-1.42-.76-1.1,2.19-1.09.89.81,1.59-.1,2.72,1.46,2.39-.72v.97l.36-1-1.27-.1.62-1.27-2.11,1.34-1.34-.17-1.35-1.72-1.25,1.1-1.17-.78-.22-1.43-.12-.04.3,1.3-1.46-1.61-.07-.06-1.23.38-.38-.85.52.99-1.01,2.58.58.95-1.3.62-2.57-3.55-1.22-1.07-.91.19,1.06-1.46.2-2.82-.73-2.7-1.16-1.35-2.11-4.78-1.51-3.41.89-.9-.09-5.29,1.48-2.58.41-4.71-1.16-3.12-.5-1.8-2.09-3.19.3-2.82,2.7-3.4,1.8-1.22-.98.51,1.94-2.51.15-1.91,1.35-2.16,1.46-3.39.26-4.24-.87-1.07,1.46-3.08,4.24,1.34,3.31.9,3.18.91,10.28,2.89v.06h0Z"/>
    <path class="cls-45" d="m423.48,256.99l1.48.17,10.49,1.08,3.83.37,10.22.87,5.48.44,2.23.18,8.33.62.41.03,6.52.44-.25,3.92-.05.8-.25,3.99-.09,1.41-.34,5.36-.38,6.65v.09l-.39,6.75-.08,1.34-.35,5.41-.08,1.28-.34,5.36v.1l-.48,8.13-.09,1.46-.25,3.96-.39,6.13-11.63-.9-1.05-.08-11.2-.82-13.88-1.25-.83-.08-6-.61-3.52-.36-5.65-.59-11.45-1.43-.74-.09-10.84-1.35-8.01-1.08,1.03-7.47.89-6.09.58-4.19.52-5.37,1.93-13.33.28-2.02.35-2.5,1.2-8.64.92-6.63.74-5.33,12.95,1.69,6.85.82,5.25.63,6.16.74h-.03Z"/>
    <path class="cls-41" d="m800.01,216.01l.52-.11,5.51-1.3,4.12-1h0l.36-.07,3.39-.54,1.27,4.21.33,1.27.17.64.55,2.77-.18,1.43-5.1,2.15-1.72-1.91,1.48,2-2.23.77.09.03.1.04-4.24.51-1.77,2.31-.26-.89-.56,1.18-4.7,3.94v-.02l-1.15-1.4,2.31-2.41-1.24-2.15-.42-2.45-.39-2.14-1.04-5.86,4.79-1h0Z"/>
    <path class="cls-48" d="m766.08,275l-1.22-1.31-.33-.36,1.24-.75,1.31.91-1,1.51h0Z"/>
    <path class="cls-54" d="m781.27,255.96l-1.59,3.38.74.63v1.58l1.25,1.37,1.03.53.97,1.67.31,2.02,1.42,1.52,1.95,1.91,1.2-.1.47,1.53-.93.16,1.46,1.44.57,1.96-.21.05-.21.05-2.97.65-4.12.78-.42-1.51-.33-1.12-.8-2.9-1.36-4.7-.42-1.55-.21-.76-.31-1.22-1.42-5.17,1.84-2.23h0l.2-.07,1.87.1h.02,0Z"/>
    <path class="cls-30" d="m761.46,489.98l-.16.26-.04.07v.02l-.19.39-.11.24-.24-.49.39-.75v-.02h0l-.02-.14,1.53-2.5-1.15,2.93h-.01Zm-28.2-15.97l2.34.16-1.13.52-1.21-.68Zm13.5-38.9l-2.27-2.21.07-.46,2.19,2.67h.01Zm-59.52-3.73l-1.38-.62,1.7-.3-.33.92h.01Zm56.82.65l-.49-.61-2.63-4.24-1.22-1.89-.45-.7-.33-.84v-.05l-.14-.24v-.02l-.07-.08.25.34,2.05,3.47,3.02,4.87h.01Zm-5.35-8.85l-1.4-2.12.25-.89,1.15,3h0Zm-3.28-8.01l1.57,4.17-.99-1.69-.02-.1-1.22-2.23v-.62l-.1-.35-.28-.58.46-.75.57,2.15h0Zm27.51,63.17l-.47,2.06-.75.99-.67,3.91.34,2.05-1,1.67.7.53.02.14v.02l-.78-.68-.74.48,1.13.96-1.12-.91v.02l-.93-.39-1.21,1.4-2.87.29-.51.66-2.49.75-1.51-1.44.06-1.56.83-.23.06.05.42.72.02.14.02.11.12.13v.05l.88.34,1.3-.5-1.03-1.35-1.02.34-.66-.31-.1.02-.22-.09-1.85-1.99,1.08-1.23v.03l.11.04.02.13.94.13v-.07l-1.01-.52-.43.16-1.03.58-.74-2.15.45-.4.04-.04v-.02l-1,.13-.96-.97-2.48-.9v-.08l-1.05.15-.26-.36-.06-.03-.21-.08h0l-.03.14v.07l-.55-.37-1.93-1.36-.04-.24-.06-.05-.31-.35v.02l-1.17-3.47-.64-1.92-1.75-.27.67-1.24-1.38.86-.9-2.03.06-1.62-.25-1.66-1.03-1.19-.35.71-1.55-1.02v.1l1.65,1.94-1.12.9-1.77-1.84-1.89-2.38-.06-.09v-.02l-.61-1.1-.5-.71-.78-1.99-1.85-1.1,1.68-2.17-.19-.65,1.72-2.52-.2-1.35-1.29-.39.4,1.43-1.09-.32.13-1.17-1.84-1.14-.74,1.39,1.85.85-.47,2.6-1.28-.6-1.69-1.48.56-3.08-.34-1.76.99-4.18-.08-4.05-.59-1.03-.93-1.39.86-.52v.05l.16.07.04-.05-.69-.37-1.09-1.16-.04.03.08-.45-1.43-1.85-3.1.12-.28-.61-.65-1.56-.87.04-1.03-1.47-2.41-.99-.17-2.34-1.23-.14-1.45-1.05-.99-1.65-5.11-2.6-1.14.08-3.67,1.01.27,1.42-1.29.11,1.56.93-2.58.17-4.32,3.41.3-1.15-1.66,1.04-.83-.51-.04.05.99.63-3.08.9-1.23.24-.07-1.88-1.34-1.65-4.28-2.64,1.67.34,1.41,1.04.97-.33v-.11l-.04-.24-1.2.43-.64-1.48-.97.39-1.9-.73-.43.43-3.18-1.48-5.48-1.14-.03-.29,1.89-.66,1.78.58-1.3-1.46-2.46.68-.84-.78-1.77,1.85-2.61.19-5.03,1.37,3.25-2.04-1.29-.56-.53.92-1.37-1.91-.23.58h-.05l.3,1.7-1.15,1.47-2.51.77.35-1.45.92-.33-1.13-.93.11-2.95-1.74-.86-1.54-1.81.29-2.06,5.69-.54,4.98-.45,1.27-.09,3.9-.37,2.63-.27,2.02-.2,6.99-.81h.14l6.33-.78,2.35,4.21,6.39-.43,1.28-.08,2.6-.18,1.04-.07,3.46-.24,1.75-.12,3.36-.23h.19l.43-.02,2.28-.16,5.93-.41,1.38-.09,1.66-.13.52-.03,2.71-.18.52,2.58,2.1.24.11-3.15-.77-1.29.03-2.1,1.45-.85,4.14,1.1.04-.03.3.08,1.08-.16h.96l.24,2.82-2.16-.31h0l.86.58.08.19.04-.02.28-.03.05.02h0l.04-.07.05.03v-.54l.58.59.09,1.23-2.07.59.18,1.17-.97.62.46,1.45.06,2.33,1.65,1.33.23,1.51.66,1.77-.89.85.82.91-1.07.33.71,3.4.6,1.38,1.28,1.04.06.09-.06-.09.14-1.61-.69-.66-1.2-.55-.6-2.99.96-.41-.68-1.29,1.19-1.1-1.16-1.86.06-1.21-1.44-.87.83-1.52-.96.02.29-1.59-.76-1.18.58-1.22,2.29.21.28.58.1.35v.62l1.22,2.23.02.1,1.37,3.84,1.14,1.71.22.15.06.08v.02l.09.24.05.04-.1-.03-.26.22.69.66.45.7,1.22,1.89,2.63,4.24,3.21,4.73,2.29,1.68-1.67-1.79.1-.02,2.61,2.75.99,1.83-.96.75-.19-2.38-.63,3.38-.63-.21-.55-3.09-.83-.27.22-1.67-1.42-.86-.19.03.83,2.43,1.79,3.74,4.48,7.09-.02.46,2.08,2.38.5,1.5,2.44,4.16-.6.6.05.32v.05l2.01.9h0l1.27,2.19-.29.05h-.05l-.2.04h0l-.1.02.9.28,1.41,5.37.12,4.01.29,5.3.09,1.15.03-.02h0Z"/>
    <path class="cls-26" d="m732.83,407.09l-.62-1.26,1.13-1.64.21,1.07-.72,1.83h0Zm.71-8.07l.09-.03.91.64-1.42,2.18-.63-.98.39-1.81h.67-.01Zm.52-1.2l-.88-1.4,1.84-.97-.96,2.37Zm.52-4.29v-.02l.6-.68-.19,2.08-.41-1.37h0Zm.47-1.24l-.35-1.95,1.41.23-1.05,1.71h-.01Zm1.16-5.48l.1.03h0l.22.23-.3,1.38-.74-1.13.72-.52h0Zm-2.3,5.49l.45.75-1.92.74,2.11.46-.86.85-.47,1.58.66,2.07-2.24-.04-.03.13v.04l.03-.17.4.12-.03.11.14-.05.71.63-.46,1.92.38,1.21.08.2-1.65.1,1.15.69.6,1.13-.8.98.57,2.46-1.34.35-.04.03-4.14-1.1-1.45.85-.03,2.1.77,1.29-.11,3.15-2.1-.24-.52-2.58-2.71.18-.52.03-1.66.13-1.38.09-5.93.41-2.28.16-.43.02h-.19l-3.36.24-1.75.12-3.46.24-1.04.07-2.6.18-1.28.08-6.39.43-2.35-4.21-.46-1.11-1.09-1.23-.07-2.26.14-3.26-.33-1.61-1.13-2.04-.22-.26-.1-1.73.66-1.61v-1.12l-.16-1.08,1.58-1.69.4-.58-1.64-.8.37-.81-.61-2-1.19-1.39-.98-2.05-.81-1.83-1.06-3.59-.08-.33-1.25-4.51-.23-.83-.7-2.57-1.07-3.77-.24-.95-.47-1.77-.89-3.1-1.04-3.61-.29-.97-.15-.53-.98-3.59-.52-1.89,1.65-.16,1.34-.16,1.25-.17,3.56-.44,2.05-.24.45-.06,1.96-.24,3.7-.45,2.36-.28,1.56-.2.85-.11,4.8-.71.84-.11,4.61-.75.09.97-1.48,1.13-1.04,2.7.24.41-.04.05,3.26,1.87.76.58.78.07,1.62.16,1.48,2.43.58,1.18,2.26,2.73.48.82.05.02,3.63,1.88,1.1,1.55,1.71,1.26,1.2.64.21.17,1.24.87.14,1.87,1.31,1.32,1.34.57v.64l2.01.67,1.07.61,2,3,.44,1.34.54,2.27,1.46.37h0l1.42,1.28,1.08,1.77.04,1.72.63,1.61,1.54.47-.42.65.96,2.45-2.15-.73-.86.85,1.24.4.07,1.95-2.27-.92,1.43.95-.05.02h0Z"/>
    <path class="cls-32" d="m595.25,223.34l.18,1.21-.04.89,1.8,1.57-1.18,2.81.31,1.41,1.32,3.79,1.78.9h0l2.25.53.79,1.9.04.61,1.98,1.25,1.03,2.32.88.46,1.77.97.25,1.42.14,1.59-.21,1.87-.71.46-.77.89-.16,2.1-1.33,1.17-3.63,1.3-2.89.69-.3,1.33v.02l-.38,1.46,1.42,1.16.61,1.34v.02l-.04,2.26-1.41,1.64-.15,1.99-.83.96-1.89.57-.04,3.36-.53.23-3.61-3.26h-2.62l-2.74.2-1.99.13-3.32.21-.87.06-4.45.23-3.2.15-2.12.06-2.53.1-2.78.12-2.49.08-2.79.07h-5.12l-3.33-.03h-2l-4.53-.06-1.42-2.11.62-.98.2-1.82-.75-2.36-.04-.05.04-1.61-.49-.47.58-1.52-.74-1.59-.7-1.8-1.11-.47-.33-2.27.66-1.83-.82-1,.08-1.68-1.63-1.13.08-1.02-1.01-1.58v-.96l-.68-1.1.41-1.42-.72-.79-.6-1.09-1.43-3.27,1.02-2.13.33-2.18.65-.52-.19-2-.92-.72.33-2.08-.79-1.66h1.59l4.47.02h2.11l4.51-.03h.76l5.26-.04.64-.02,4.59-.06,2.19-.04,3.07-.04,3.55-.08,1.72-.04,4.98-.14h.24l5.22-.2,1.2-.04,4.1-.17,3.86-.17,1.32-.06,4.38-.21.04.02h0Z"/>
    <path class="cls-19" d="m338.7,118.74l-1.59,7.42-.95,4.26-.76,3.53,1.52,3.82.92,1.07v1.63l-.83.5,1.13,1.36-1.54.57,1.88,1.47.51,1.22,1.62.73-.03,1.06,1.01,1.11.92,2.71.82.73-.11,1.14,2.46,2.4.55,1.72,2.8.14-3.58,9.69.71,1.76-2.24,1.41.57,1.11-1.18,2.16,1.01.09,1.02,1.83,5.01-2.72,1.07,1.61-.19,3.07.47,2.35,1.99,3.97-.78,1.19,1.19,2.79,1.1-.39,1.28,1.69.48,3.28-.17,1.17,1.81,1.48.68-1.59,3.32.66.85.64.53-1.19,1.19-.42,1.49,1.04,2.67-.23.36.92,2.31-.25h1.2l.79-2.16,1.11-.48,1.38,2.25-.22.64,1.72,1.92-1.19,7.47-1.14,7.38-.45,2.82-.72,4.52-1.28,7.75-1.25,7.82-5.16-.8-6.76-1.09-.64-.13-9.31-1.65-11.63-2.09-2.68-.52-8.43-1.72-8.1-1.68-13.85-3.05-.11-.05,5.71-25.38h0l.54-2.41.6-.49.9-1.49-.22-1.03,1.16-1.37-1.87-2.46-1.08-.58.59-2.76.83-.45,1.97-3.04,1.89-1.08,2.02-3.32,1.66-2.62,2.16-3.29,1.29-1.2-.33-2.28-2.33-2.32-.77-2.36-.38-1.62.86-1.04-.82-2.98.49-1.12h0l.39-1.73,1.97-8.75.44-1.97.36-1.6,2.05-9.11.23-1.02,2.71-11.9.51-2.26,9.9,2.15v.02h-.01Z"/>
    <path class="cls-59" d="m604.92,238.21l5.66-.33.97-.06,4.93-.25.4-.02,4.77-.27,1.86-.09.77-.08,4.52-.37,1.21-.11,4.44-.33-.08,3.28,1.02,1.93.95,1.04,1.18,3.6,1.12,2h0l.33,3.72.23,2.61.18,2.03.22,2.42.38,4.22.34,3.8.02.22.41,5.1.32,4.1.42,4.27.18,2.01.18,2-.72,1.44-.16,1.61h-.17l.99,1.55.72,2.28h0l.03.78.27,2.57-1.33,1.96.17.93-1.15.57.13.97-2.46,2.98-.28-.29.12.4.95.99-1.84,4.37h.04l.85,1.37-1.38,2.18.42,1.4.95,1.01-.22.51-2.35.5-.89.83-.67-.26v.03l-.7.55-.27,2.06,1.18,1.67-.68,1.3-.97-.12-4.52-1.93-.08.03-.99.26-1.66,2.43.49,1.27-1.54-1.27-.68.97-.82-.4-1.58-3.2v-1.3h0l.67-1.03-1.39-2.51v-.08l-.09-1.92-1.83-.75-.14-.8-2.22-1.44-1.05.53-.78-1.32-2.66-1.78-.55-.57-1.43-1.51.11-2.46.77-2.16.04-.14.82-2.06.11-1.75.52-.54.09-.65-2.07-1.07-2.12-.55-.94,1.43-1.54-.78-.97-4.45-.57-1.11-2.07-1.47-1.18-.65-1.81-2.29-1.58-1.25-.77-1.13-.86-1.27-.08-1.58-.69-1.21-.3-2.71.05-.75.82-2.05.53-.23.04-3.36,1.89-.57.83-.96.15-1.99,1.41-1.64.04-2.26v-.02l-.61-1.34-1.42-1.16.38-1.46v-.02l.3-1.33,2.89-.69,3.63-1.3,1.33-1.17.16-2.1.77-.89.71-.46.21-1.87-.14-1.59-.25-1.42-1.77-.97-.88-.46-1.03-2.32-1.98-1.25-.04-.61,2.42-.12v-.05h-.01Z"/>
    <path class="cls-21" d="m658.29,245.4l1.42-.15,4.19-.47,1.06-.12,4.23-.49.32.96.3,2.56.23,1.6.28,2.39.03.27.48,4.06.12,1.04.35,2.99.28,2.4.4,3.38.08.66.47,4.71.12,1.36.35,2.93.29,2.45.04.71.35,3.36.36,3.07-.54,1.22h0l.32,2,.97.57-.05,1.06-2.49.74-1.95,1.33-1.65-.52-1.21.28.37,2.16.02.97-1.86,1.48-.32,1.01-1.05,1.89-.59-.27-1.14,1.85-.28,2.71-.59.17-3.21-.45-1.02-1.94-1.49,1.1-.22,1.2-.03,1.84-.94.18-.69,1.32-2.13-2.22-1.87,1.24-.89,2.06-2.52-.94-.41-.26-1.87-.5-.6.56-1.25-.89.02,2.21-1.08-.95h0l-2.71.18.38,1.37-1.49.33-.85-1.35h-.04l1.84-4.38-.95-.99-.12-.4.28.29,2.46-2.98-.13-.97,1.15-.57-.17-.93,1.33-1.96-.27-2.57-.03-.77h0l-.72-2.29-.99-1.54h.17l.16-1.62.72-1.44-.18-2-.18-2.01-.42-4.27-.32-4.1-.41-5.1-.02-.22-.34-3.8-.38-4.22-.22-2.42-.18-2.03-.23-2.61-.33-3.72h0l1.19.85,2.4.12,3.18-1.64,1.15-.9,3.38-.32,3.38-.35,1.87-.2,3.13-.32v-.03h0Z"/>
    <path class="cls-58" d="m478.96,277.11l1.01.05,6.61.36h.21l6.36.32h.17l6.45.27,5.24.18,1.3.04,3.98.12,2.6.07,2.68.06,3.98.1,1.3.03,5.28.1,5.28.06h1.3l3.98.05,2.64.02h5.24l5.24-.02h.34l1.27,1.46,1.94.61.54-.51,1.36,1.19-2.03,3.08-.58,1.41,1.62,1.76.91,1.99,1.42,1.4,2.04.59-.07.71.02,1.08.04,3.06.03,1.69.02,4.06.02,1.38.08,5.11-.04.36.04,5.66v.3l.11,4.5-.04.39.06,4.38v.89l-4.7.06h-.79l-4.11.04h-1.4l-3.19.02h-9l-2.75-.04-4.81-.05-3.85-.04-4.15-.07-3.76-.06-2.88-.07-2.4-.08-5.55-.17-5.55-.19-1-.04-5.63-.26-1.05-.05-6.59-.27-3.8-.17-1.48-.06-5.93-.3-5.76-.31-.17-.03.39-6.13.25-3.96.09-1.46.48-8.13v-.1l.35-5.36.08-1.28.35-5.41.08-1.34.39-6.75v-.09l.39-6.65,7.49.47v-.03h.01Z"/>
    <path class="cls-46" d="m676.43,285.28l1.35-.49,2.33.87,1.29,2.14.09.72,2.22.6,1.74-.17,2.63,1.71h0l.72-.09,1.27-1.18,3.22.88v-.02l1.31-.15,1.26-1.86h0l1.59-.67,1.28,2.7,1.88.75,1.03,1.18.3,2.7h0l-.2,1.68,2.32,2.54-.23.24,1.18,1.26,1.24,1.6.64,1.06,2.32,1.48,1.88-.06-3.55,4.26-.04.03-2.68,1.89-.16.12-1.54,1.29-.03,1.35-1.58,1.29.04,1.27-2.26.91-.51,1.79-3.79,1.76-2.48,1.33-3.07.61-.96.09-2.66.3-.39.05-6.3.59h-.09l-2.33.1-3.68.25-.22.03-1.73.31-4.28.42-2.24.14-2.86.12-2.51.08-1.81.44h-2.47l-3.66.44-.61.07-2.71.28-3.71.38-.66.07-4.6-.25.41,2.78-5.31.38-.35.02-3.64.26h-.13l-.09.02-6.27.45-.87.14.95-2.15,1.04.99.78-1.43-.38-.99.89-1.11-.68-.28.76-2.2-.43-.55-.49-1.27,1.66-2.43.99-.26.08-.03,4.52,1.93.97.12.68-1.3-1.18-1.67.27-2.06.7-.55v-.03l.67.26.89-.83,2.35-.5.22-.51-.95-1.01-.42-1.4,1.38-2.18,1.49-.33-.38-1.37,2.71-.18h0l1.08.94-.02-2.21,1.25.89.6-.56,1.87.5.41.26,2.52.94.89-2.06,1.87-1.24,2.13,2.22.69-1.32.94-.18.03-1.84.22-1.2,1.49-1.1,1.02,1.94,3.21.45.59-.17.28-2.71,1.14-1.85.59.27,1.05-1.89.32-1.01,1.86-1.48-.02-.97-.37-2.16,1.21-.28,1.65.52,1.95-1.33,2.49-.74.05-1.06-.97-.57-.32-1.99h0l.54-1.23.68-.72,1.69.92.02.06h0Z"/>
    <path class="cls-53" d="m607.45,444.39l-1.9-.41-.91-.91.97-.85,1.28.49.57,1.67h-.01Zm19.67-2.25l-2.1-.29,2.24-1.12-.15,1.41h.01Zm-29.05-1.3l-2.85-1.33,1.35-1.08,2.93,1.15-1.43,1.26h0Zm31.63-8.92l.28.56,1.08.4-1.23.97,1.03.31-1.25.67-.08.98-1.08-1.06-1.62.25,1.14,1.25h.05l.3.17-.15-.09h-.05l-1.09.21-.02.4-.88.54.35.93,2.2,1.19.4.94,1.43-.26,2.17,1.29,1.51.14.53,1.98.86.48-1.35.72-.21,1.08-1.14-.95-1.87,2.37,1.32-2.65-.32-1.82-1.84.61-.82-2.1-1.56-.88-2.35.25-.42-.51-.8-.42-1.45-.09-2.65-1.47.73-.61-.89-1.2.25,1.7-.83.65.63.89,1.87.55.05,1.63-.41.41.33,1.4-.3.64-1.71,1.35-.63-.78-.65-1.96-.98-.31-.37,1.14v-.21l-.02-.09.04-.2v-.06l.09-.08-2.64-.62.25,1.08-.41.51-.4-.18-.89,1.46-1.69.02-1.47-.35,1.77-1.2-2.34-.33-.9,1.23-1.03-.38-.09-1.81-1.86-1.62.47-2.22-.71,1.14-3.38-.28-.4-1.32-1.07-.31-.06-1.38-3.01.23.32-1.42-1.92.02-2.13,1.76-1.07-.35,2.22,2.5-3.43.88-4.06-.55-4.82-1.91-3.58-.89-5.83.62-2.18.92-1.19-1.86.94-.8,1.7-2.91.12-2.98-.84-1.3.35-1.12.56-.57-.61-1.58.79-.82,1.5-4.3-.24-2.17.84-.33-.78-1.02.11-1.36-.61.15-.22-1.31-.96-.6.15-1.46-2.18-2.88.47-1.8-1.17-2.17-1.82-2.06-.4-3.33-.06-3.03-.1-4.65-.06-2.91-.04-2.14,2.9-.06h.14l3.64-.08h.41l3.22-.1,3.17-.08,3.41-.06,8.42-.23,7.77-.31h.32l2.21-.12,1.24-.05-.06,1.61,1.04-1.29.43,1.09-1,1.24.03,1.4,1.12.18-1.09,1.38,1.44.93-.31.23-.54,1.21,1.99.71-.46.96,1.23.45-.8.69-.1,1.55-1.73-.11-.45,1.24,1.45.05.23.04v.1l-.47,1.53-1.4.93-.72,1.46-1.2.33.4,1.56-.78.28-.2,1.78-1.54.15,1.44.71-1.38.61.11,1.27-.81.69.89,1.97-1.77.46.89.87-.46,1.18.88.73-.9,1.08,6.04-.27,1.55-.08,3.06-.18,3.35-.19.28-.02,2.64-.16,1.13-.07,5.61-.38,1.41-.09-1.17,5.26,1.1,2.25,1.1.81.79,2.6,1.73,1.56-1.35.47-1.29,2.13-1.65.41v.02l-.04.08h0l.54.88,2.51,1.01.74-.45v-1.59l1.13-.87,1.02,1.52h0Z"/>
    <path class="cls-44" d="m836.73,219.21l-2.37.09,2.16-1.47.21,1.38Zm-8.68,1.38l.29-2.21.96-.99,2,1.54-3.04,1.06-.22.6h0Zm2.88-5.97l-.64,1.25-2.03.99-.33-3.38-1.15.44.41.87-1.23,1.1-.59,1.58-1.93,1.21-.77-2.4-.78-.04-.51-.48-1.24-.68-1.54-2.94-1.39-.15-3.32,1.01-3.39.54-.36.08h0l-4.12.99-5.51,1.3-.52.11-4.79,1-.12.03-.23-.44.13-6.87.12-3.78,2.64-.57,1.02-.23,5.17-1.1,1.94-.41,3.9-.86.32-.07,6.65-1.51.24-.66v-.02l.08-.13,1.69-1.48.14-.86,2.28-.84,1.54,3.22,1.25-1.11.59.79-.86,1.12-1.83,1.12.55.34-1.25,1.57-.55.77-.26.11.2.28-.04.02.62,1.22,1.36.19,1.07-.56.57.23,2.19,1.85-.46,1.42,2.22.7.48,1.74,1.52.61,1.58-.12,2.66-1.74-1.86-3.46,1.63.99,1.41,2.74-.58,1.42-4.02,1.91.03.03h0Z"/>
    <path class="cls-54" d="m773.55,273.05l.03-3.19,1.07,1.59-.82-.19-.28,1.79Zm16.1,3.46l-.03,2.43-1.04.49-.79,3.61-2.8.94v-.02l-.04.03-3.14.99.2-1.55.43-1.28-1.66.28,1.3-2.14-1.46.34.53-2.63-.95,2.71-1.03-1.55.08,2-1.7-.78-.93-.23-1.49-1.67.85-.96-.59-1.34,3.53-.26.16-1.49-.86-.77.52-1.04-.52,1.04.66.85-.52,1.65-4.22-1.98.56-1.47,1.38,1.16-.58-1.32.74-1.45-.83,1.03-.39-2.68,1.67-3.55-1.13,2.41-1.16,1.07-.79-1.26.52-2.86.67-.94,3.22-.72-2.4.31.22-2.82-1.22.53.11,1.72-1.89,1.47-.95-.23.22,1.03-.14,1.59-1.54.12-.52.64h.09l.49-.14,1.62,1.53-1.16.27,1.78.85-.55,1.72-.74.39.71,1.14-.06,1.61v.02l.66,2.71,2.1,2.3-.67.78-.68-.97-1.96-.81-1.06-2.82-.18-.05.18.05.2,1.82.14.69,3.07,2.16,1.14-.02,1.61,3.68-2.71-.75-1.01-1.08-2.59-.04-1.18-1.91.76,1.77-1.87-.81-1.06-1.37-1.68,1.65-1.11-1.62.19-1.24,1.42-2.47.34-1.96,1-1.51-1.31-.91-1.24.75-2.79-1.37-1.64.03-.92-.71.52-1.55-1.49-1.01-1.34-.04-.45.15-1.76-2.39-.94-.85.53-.82-2.24.18-2-.83-.86,1.37-.79-.11-1.19,2.12-2.29.14-1.88-1.11-1.43,3.23-1.24-.43-1.96,2.75-2.17,2.31-1.26-7.9.95-.17,5.34-.98,1.41-.26,4.93-.9.46-.09,2.81-.53,7.24-1.38.13-.02,2.81-.56,2.47-.51,2.43-.5,2.51-.53,3.79-.79h.04l1.15-.25,3.95-.85,1.42,5.17.31,1.22.21.76.42,1.55,1.36,4.7.8,2.9.33,1.12.42,1.51,4.12-.78,2.97-.65-.07.86-.06-.06h0Z"/>
    <path class="cls-17" d="m838.66,171.79l-.47-1.99.85.36-.38,1.64h0Zm3.3-2.21l-1.38-1.05.22-1.88,1.17-.47,1.26,1.32-1.27,2.09h0Zm-13.15,11.17l-.11.03-1.4-3.77.05-1.86h-.04l-.79,3.75.49-.6.5-.12,1.27,2.89-1.07-.12-.63-1.81.3,1.23-.87,1.15-.78-1.45-1.49,1.88-.29,2.23,1.1.85-1.54.87.46,1.23-.65,1.71-1.15.94.23,1.45-.38,2.43-2.01-.37-.14-1.42-2.56-1.8-.38-2.47-1.27-3.65h0v-.04l-2.21-7.27-2.29-7.3-2.59-7.69.59-.79,2.15.52-.23-2.34,1.94-.12-1.51-1.4,1.13-2.74,1.47-1.5-.57-.78,1.21-1.83-1.1-1.81.29-2.11-.71-.41.36-2.71,1.09-1.35-.29-2.44-.25-1.74,4.61-13.61,1.94-.04.7,2.54,1.86.6,2.69-2.47,2.03-.58-.03-1.13,1.2-.33,3.56,1.49,2.19,1.37,5.12,16.47.89,3.95,3.6.41.44,1.41,1.3,1.3-.2,1.58,2.16,1.97.49-1.18,1.37.2,2.1,2.92-1.22.16.4,1.03,2.07.33-1.18,2.78-1.1.96-.45-1.16-1.12,2.07-1.31-.25.38,1.64-1.14-.25-.39,1.26-1.48-.96.14,3.02-1.42-1.29.74,1.47-.57,1.12-1.1-1.74-1.33-.45-.1.91-1.82,1.62-.38-1.4-1.02,1.79,1.1,1.91-2.73-.47-.74.68-.39-1.45.24-2.38-1.35-.71.02-1.03-.03.03.53,3.06-1.33,1.32.83.87-.37,1.82-.06,2.77.55-.38-1.53,3.24-1.41-1.16-.74.99-.19,2.23-.93-.66-.33,1.73-1.01-2.7-.4.63-.34.84,1.02.82-.39,1.09.03.03h0Z"/>
    <path class="cls-43" d="m650.46,195l-.74-1.45.91.12-.17,1.33Zm3.89-8.44l-.67-.11.32-2.75h.7l.39,2.11-.73.75h-.01Zm8.52-4.32l2.89,1.68,1.63-.32,1.41.42,1.19,1.7,2.23.05.79.69,5.29,1.83.05.99,1.13,2.25-1.45.34.42,1.7,1.35.93.84,2.15-.13,3.15.24,2.64-.94,1.29-1.11.31-.13,1.44.03,1.76-.94,1.08-1.82.15-.54,1.36-.22,2.36.78,1.37,2.36.89,1.76-2.5.53.05.57-2.91,1.16-1.17,2.03-.68,1.46-1.27,2.21.93,1.83,3.04.27,1.35,1.3,3.77.98,4.05,1.22,2.27-.39,6.36-2.05-.92-1.13.96.5.97-.9.83.19,1.1-.08.93-1.96,1.52-.82,3.34.07,1.12-1.17,1.72-1.41,3.34-3.15.55-1.33.22-5.41.89-.45.07-4.57.7-.32-.96-4.23.49-1.06.12-4.19.47-1.42.15-3.13.32-1.87.2-3.38.35-3.38.32,1.97-2.08,1.45-3.98,1.03-1.9.73-2.82.17-5.44-.35-2.64-.88-2.69-1.8-3.07-.86-2.15-1.1-2.15.88-3.22-.36-1.97-.9-1.4,1.17-2.2,1.07-2.7.08-2.68-.41-2.8,1.75-1.38-.16-1.9,1.52-1.19,1.24.18,1.66-3.85.75,1.87-.58,2.92.24,1.51.56.04.1-1.99.81-1.56-.17,3.81.74-1.83.46-3.27-.47-2.13.05-.95,1.58-1.57,1.22-.26,1.75-1.08-1.3-.07-1.06-2.08,1.66-2.47,2.11-1.21.02.05h0Zm3.45.62l-1.83-1.31,2.38.44-.55.87Zm8.67-4.22l-.72-.46-2.34.22,1.73-1.33-.59-.96,1.52.09,1.25,1.25-.85,1.19h0Zm-6.67-5.59l-.56.13-1.25-2.3,1.29-.73-.38,1.87.9,1.03Zm-27.18,1.31l-.52-1.41.89.09-.37,1.32Zm-21.6-10l.11.38.09,1.14,1.15.14.03,1.38.9.38-.13.8.21,2.68,2.02-2.76,2.1.13,1.55-.08,2.92,1.25.65,1.25,3.24,3.33,1.97-.25.97-.7,2.31,1.27.21-.63,1.7.86,1.68-2.36,3.22-2.18,2.85-.56,3.8-.21,2.7-1.52,2.91-.61-.62,1.22.38,3.27,2.53.28,1.67-.79.51,1.03,2.53-1.67.39.33.08.06.09.08,1.59,3.15-.29,1.38,2.15.2-.37.71,2,1.43-2.25.28-1.07.08-.19.02-4.63-.49-.67,1.83.03,1.56-3.14-2.32-4.39-.89-1.3.49-.99,1.85-2.26.22-.58.72-2.97-.27-1.15.81-.37,2.09-.95.54-1.62,1.62-1.01.02,1.76-3.02-2.7.14-.45,2.2-1.27.93-.62-2.46-.26,1.4-1.34,1.39-.8,1.78-.48,1.97-2.65,4.75.25.57-.28-.07-1.49-1.36.82-2.22-2.61-.06.85-2.37-.55-.96.44-1.65-.76-.7-2.34-.7h0l-.9-.56.1-1.55-4.3-1.13-1.87.19-2.75-.7-.64-.32-1.12-.56-9.07-1.86v.19-.19l-2.1-.44-1.15-2.47-2.19-.84,4.04-1.93,1.35-1.48.97-.87,3.84-.61,1.82-1.09,1.22-1.48,1.92-.71.45-1.14,2.57-2.05v.07h0Zm7.79-4.47l1.55.96-2.57.45.25.73-2.83,2.37-.15.99-1.78,2.39-.13-1.58-1.92-.36-.12-1.1-.11-.38,1.09-1.03h.04l1.33-1.75,1.54-1,3.79-.69h.02Zm-9.13-9.34l2.27-1.01-2.42,2.93-3.23,1.77.88.23-2.46,1.18-.74-.38.5-1.32,3.51-2.02,1.69-1.38h0Z"/>
    <path class="cls-29" d="m558.26,144.69l1.25-.15.86.91,3.92.21.56,1.71,3.35-.54.02-.7,2.6-.83,1.26.18,3.7,1.23.99-.08-.77,1.24,2.12.16,1.46,3.24,1.14-.3v-1.62l2.12-.16.58,1.42,2.19.86,1.24,1.19,1.31.14-.07.98,3.28-.77,2.15-1.72,2-.79.89,2.04,6.41-.61,2.91,1.75,1.08-.63,2.03.23-1.88,1.58-2.64,1.49-5.27,2.08-1.95,1.28-2.9,2.63-3.26,4.07-4.45,4.35-3.05,2.39.26.63.6.64h0l-.6-.64h-.34l-.66.52h-.04l-.3.18v.75h-.96l.15,3.77.15,3.98-.53,2.21-3.77,1.97-1.34,2.61-.42,1.33.03,1.03,1.2.1,1.38,1.68-.92,2.49-.07,1.33.03,5.36-.29,1.78.8.48,2,2.16,2.65.35.8,1.3,1.8.64h.04l1.78,1.08.8,2.13,3.43,2.43,1.49.57,1.65,2.04.41,1.83v.03l-.07,1.69.69,1.76-4.38.21-1.32.06-3.86.17-4.1.17-1.2.04-5.22.19h-.24l-4.98.15-1.72.04-3.55.08-3.07.04-2.19.04-4.59.06-.64.02-5.26.05h-.76l-4.51.02h-6.58l.03-5.41h0l.03-5.37.03-5.35.05-1.36v-9.82s-.18-.89-.18-.89l-2.28-1.32-1.61-2.71-.11-.85,1.9-1.44,1.01-1.46.12-1.6-.11-1.33.2-1.28-.44-3.47-1.43-2.38-.48-2.23h-.15v-2.88l.46-1.5-.78-1.4-.06-2.21.09-1.33-.19-4.01-.39-2.67-1.64-4.18-.89-3.47.04-.29.26-3.45-.38-1.89.65-2.13-.9-2-.37-2.85,8.4.08h12.77l-.05-5.87,2.04.2,1.36,1.13,1.39,5.69.03,2.14,1.6,1.12h1.14v.03h0Z"/>
    <path class="cls-22" d="m591.74,268.53l3.61,3.26-.82,2.05-.05.75.3,2.71.69,1.21.08,1.58.86,1.27.77,1.13,1.58,1.25,1.81,2.29,1.18.65,2.07,1.47.57,1.11.97,4.45,1.54.78.94-1.43,2.12.55,2.07,1.07-.09.65-.52.54-.11,1.75-.82,2.06-.04.14-.77,2.16-.11,2.46,1.43,1.51.55.57,2.66,1.78.78,1.32,1.05-.53,2.22,1.44.14.8,1.83.75.09,1.92v.08l1.4,2.51-.67,1.03h0v1.31l1.58,3.2.82.4.68-.97,1.54,1.27.43.55-.76,2.2.68.28-.89,1.11.38.99-.78,1.43-1.04-.99-.95,2.15-.79.06-.7.04.13,2.51-.81.46,1.03.8-1.98.16.86,1,.5.84-1.01.75-.22,1.3-3.13.24-4.02.3-1.1.07,2.1-3.32,1.45-1.64-.27-1.54-1.02-1.45-.79.05-4.39.25-2.55.14-4.17.23-3.42.19h-.53l-2.73.11-5.49.25h-.35l-4.66.19-2.95.11-1.01.03-5.41.16-.26.02-3.3.08-3.43.08-2.59.05-6.64.1-.04-2.61-.02-1.54-.05-3.61v-.89l-.08-4.38.04-.39-.11-4.5v-.3l-.04-5.66.04-.36-.08-5.11-.02-1.38-.02-4.06-.03-1.69-.04-3.06-.02-1.08.07-.71-2.04-.59-1.42-1.4-.91-1.99-1.62-1.76.58-1.41,2.03-3.08-1.36-1.19-.54.51-1.94-.61-1.27-1.46-1.18-.57.24-1.17-1.9-2.3-.04-.05-1.81-4.01-.63-.96,4.53.05h2l3.33.04,3.29.02h1.83l2.79-.09,2.49-.08,2.78-.12,2.53-.1,2.12-.06,3.2-.15,4.45-.23.87-.06,3.32-.21,1.99-.13,2.74-.2h2.62l-.02.05h0Z"/>
    <path class="cls-51" d="m637.49,352.86l2.01-.16,1.43,1.49-.18,4.85.02,1.85-.04,2.22-.11,3.66v.43l-.11,4.88-.1,3.3-.06,3.82-.09,4.61v.97l-.09,5.45-.08,4.19-.04,1.27-.15,5.18.38,3.01.46,4.04.67,4.91.24,1.78.47,4.04.67,5.33-1.01,1.14-1.2-.69-2.44.5-1.84-1.06.37.54-2.69.45-2.91,1.3-.74-1.03v.02l.22,1.06-2.43,2.09-1.73-1.56-.79-2.6-1.1-.81-1.1-2.25,1.17-5.26-1.41.09-5.61.38-1.13.07-2.64.16-.28.02-3.35.19-3.06.18-1.55.08-6.04.27.9-1.08-.88-.73.46-1.18-.89-.87,1.77-.46-.89-1.97.81-.69-.11-1.27,1.38-.61-1.44-.71,1.54-.15.2-1.78.78-.28-.4-1.56,1.2-.33.72-1.46,1.4-.93.48-1.53v-.1l-.24-.04-1.45-.05.45-1.24,1.73.11.1-1.55.8-.69-1.23-.45.46-.96-1.99-.71.54-1.21.31-.23-1.44-.93,1.09-1.38-1.12-.18-.03-1.4,1-1.24-.43-1.09-1.04,1.29.06-1.61v-.11l.5-.84-.89-1.15,1.33-.13-.9-3.1-1.26-1.37.2-1.39-.25-.5,1.21-.56-1.15-1,.87-1.71,1.99-.35-1.15-1.05.63-.96-.95-.67,2.35-1.09-.76-1.42h0l.13-1.81,1.11.37,1.32-1.61-.23-.96,2.22-.83-.05-1.72-.24-1.8,1.44-.88-.22-3.07.77.85,1.28-.49.71-.85-.88-1.24,7.3-.44.98-.08,3.58-.22,1.92-.15,2.33-.17,2.41-.2.45-.03,5.05-.4.22-.02h.02,0Z"/>
    <path class="cls-22" d="m358.51,122.79l3.6.71,15.28,2.74,9.3,1.57,5.33.83,12.67,1.87,12.69,1.74,10.74,1.31,10.83,1.23,10.73,1.09,10.27.91-.47,5.54-.32,3.72-.47,5.98-.77,9.12-.09,1.02-.89,10.52-.13,1.54-.34,3.99-.43,5.11-.08.97-.83,10.26-.48,3.29-10.6-1.01-.54-.05-10.14-.92-2.56-.27-8.91-1.05-8.86-1.15-3.64-.43-4.02-.55-12.67-1.8-9.78-1.32-3.6-.72-.97,5.08-.35,2.96-1.72-1.92.22-.64-1.38-2.25-1.11.48-.79,2.15h-1.2l-2.31.26-.36-.92-2.67.23-1.49-1.04-1.19.42-.53,1.19-.85-.64-3.32-.66-.68,1.59-1.81-1.48.17-1.17-.48-3.28-1.28-1.69-1.1.39-1.19-2.79.78-1.19-1.99-3.97-.47-2.35.19-3.07-1.07-1.61-5.01,2.72-1.02-1.83-1.01-.09,1.18-2.16-.57-1.11,2.24-1.41-.71-1.76,3.58-9.69-2.8-.14-.55-1.72-2.46-2.4.11-1.14-.82-.73-.92-2.71-1.01-1.11.03-1.06-1.62-.73-.51-1.22-1.88-1.47,1.54-.57-1.13-1.36.83-.5v-1.63l-.92-1.07-1.52-3.82.76-3.53.95-4.26,1.59-7.42,13.19,2.73,6.62,1.32h-.03,0Z"/>
    <path class="cls-57" d="m794.38,318.87l.48,1.15.44,5.75-2.59,1.16-.02-.09,2.56-1.9-.32-3.98-.55-2.1h0Zm-2.14-1.66l-1.66-1.56,1.02.1.64,1.47h0Zm-5.68-10.62l.3-.06,2.16,4.6,3.14,4.47-2.09-1.68-1.1-2.77-.45-.21-1.81-3.99-.17-.36h.02Zm-1.46.31l.39-.08.22-.05.52-.11.22,1.02-1.34-.78h0Zm1.7,4.15l-1.07-.99.96.68-.55,1.65-2.32-1.56v-.02l-.65-.28-.16-.34.16.34.65.28v.02l-.35.43,1.97,1.2.35.79-1.67.43-1.21-1.02,1.48,1.45-3.53,1.07.54.86-1.39.51-1.52-.56-.77-1.99.16-1.62-1.12-.65-2.31-.32,2.04.3,1.06,1.63-.09,1.56,1.36,2.22v1.04l3.45-1.65.55.69,2.18-1.46,1.36-.21.66.76-.23,1.66.58,2.29-1.31.02h1.91l-.41-3.39,2-1.45,1.33,1.77.61,3.02-1.4.92-.52-.73.29.93-1.1,1.27-.55,2.35-1.74.85-2.34-.91-1.1.62-1.55-1.34,1.44-.31-.5-.88-1.29.77.87,2.23-5.19-.46-1.58-.86-.11.15,2.06,1.4,4.41.6.34.96v-.86l1.66.96-1.84,1.7,1.5-.06-.58,1.41-2.09,2.06-2-.84-.04-.66-2.32.72.18-.04.84-.58,2.21,1.88,2.8.26.04-1.35,1.89-.84.59-.89.11,1.87,2.13-.79-2.11,3.94.05.04v.02l-.83.4-.66-1.21-.06,1.72-.9-1.47-.24,1.27-2.17.42-2.04,1.26-1.17-1.24h0l.68,1.11-1.66,2.28-2.18-.32,1.55,1.08-1.88,1.7-2.32,2.76v.02l.27-.06.05.04-1.38,2.63-.45,1.5-.9-2.06.61,3.2-.74,1.47-4.06.59-2.34,1.11-.21-.11-.06-.05-1.12-.81-6.21-4.45-.05-.02-5.54-4.07-.16-.11-3.26-2.18-2.98.47-4.85.71-3.03.45-2.94.43-.07-1.82-.87-.87-.98-1.02-1.65.76-.12-1.61-3.66.33-.49.07-4.99.51-1.29.14-1.2.13-3.03.3-1.72.32-2.65,1.1-2.14,1.51-1.62.42-1.32.62-1.19.58-4.61.75-.84.11-4.8.71-.85.11-1.56.2-2.36.28-.06-3.4.68-1.03,1.64.1.8-.8-.14-1.84.65-.91.1.04,2.01-1.85,1.35-.29,2-.17,2.73-2.43-.04-.32,2-1.42,1.45-.22.46-2.48.97.23.66-1.37,1.76-.81.07,1.13,1.25-.36.89-1.59v-.02l2.17-1.64,1.83.57.61-.39.85-2.36.12-.36.87-1.06,1.59-.11-.39-.78.15-3.12,3.94-.4,5.5-.66.79-.08,2.74-.42,2.06-.23,4.7-.66.3-.05,3.82-.64,2.43-.41.52-.09,1.51-.28,1.52-.27.95-.17,4.11-.74.78-.14,3.33-.63,1.59-.32,3.33-.63,1.77-.35,1.59-.32,5.65-1.1,1.59-.34,2.98-.57-.03-.12,4.53-.9.6-.13,2.11-.44,2.28-.48,1.07-.23.02.75,1.98,1.89,2.4,4.03-2.45-2.57h.04Z"/>
    <path class="cls-23" d="m529.57,140.19l.37,2.85.9,2-.65,2.13.38,1.89-.26,3.45-.04.29.89,3.47,1.64,4.18.39,2.67.19,4.01-.09,1.33.06,2.21.78,1.4-.47,1.5v2.87h.17l.48,2.23,1.43,2.38.44,3.47-.2,1.28.11,1.33-7.11-.07-8.04-.14h-.31l-7.69-.25-3-.11-7.69-.28-1.69-.08-6.8-.33-15.86-.89-10.09-.69-.58-.05-11.19-.89.43-5.11.34-3.99.13-1.54.89-10.52.09-1.02.77-9.12.47-5.98.32-3.72.47-5.54,11.27.91,9.41.64,5.35.32,13.38.68,6.75.27,5.39.17,10.71.27,7.37.12h-.01Z"/>
    <path class="cls-39" d="m483.65,230.85l11.52.56,7.43.31,3.09.11,8.47.25,2.08,1.85,1.76.72v-.02l1.3,1.21,1.09-.17,1.16-1.42,2.25.32,1.69.05,1.98-.25,1.64,1.07,1.6.61,2.37.91,1.16.84.75,1.96,2.1.54.72.79-.41,1.42.68,1.1v.96l1.01,1.58-.08,1.02,1.63,1.13-.08,1.68.82,1-.66,1.83.33,2.27,1.11.47.7,1.8.74,1.59-.58,1.52.49.47-.04,1.61.04.05.75,2.36-.2,1.82-.62.98,1.42,2.11.63.96,1.81,4.01.04.05,1.9,2.3-.24,1.17,1.18.57h-.34l-5.24.02h-5.24l-2.64-.02-3.98-.04h-1.3l-5.28-.07-5.28-.1-1.3-.03-3.98-.1-2.68-.06-2.6-.07-3.98-.12-1.3-.04-5.24-.18-6.45-.26h-.17l-6.36-.32h-.21l-6.61-.37-1.01-.05-7.49-.47.34-5.36.09-1.41.25-3.99.05-.8.25-3.92-6.52-.44-.41-.03-8.33-.62-2.23-.18-5.48-.44.52-6.05.22-2.65.18-2.07.4-4.69.8-9.41.52-6.06,6.12.57,5.61.43,2.32.17,7.94.55,9.54.59-.03.02h0Z"/>
    <path class="cls-55" d="m813.47,176.69l2.2,7.27v.04h.01l1.27,3.65.38,2.47,2.56,1.8.14,1.42-.41.94h-.04l.71-.73,1.38.8-.47,2.88-2.28.84-.14.86-1.69,1.48-.09.13v.02l-.24.66-6.65,1.51-.32.07-3.9.86-1.94.41-1.21-.99-.32-2.4.65-.87-.7-2.28-.08-1.13-.7-5.21.43-.57-.09-1.63.78-1.27.12-3.68.55-1.37-.38-1.17-.56-2.49,1.96-.93.57-1.07,1.6-1.95.1-1.33-1.66-2.3.82-2.72-.48-1.49.37-3.63.62-1.16,1.84.42.38-1.14,2.59,7.69,2.29,7.3h.03,0Z"/>
    <path class="cls-14" d="m783.48,262.83l-.58-.46-.09-.02-.05-.05-1.81-1.33h.04l.28-1.28-.86-.36-.12-.34,1.01-2.67,3.03-2.27.54-1.8-.05-.03.71-1.04,2.56-2.14h0l-3.15-2.38-1.56-.85-.55-1.88-1.55-.43-.14-.23-.29-2.64,1.06-1.72-1.09-1.29,1.27-2.29-.28.1.65-.87.44-2.34,1.3-1.51,4.27,1.48,1.68.51.23.09,3.98,1.23-.3,3.22-.53,2.46-.65-1.12-.32.84-.2,1.5-.38.75.73,1.47,2.9.12.42,1.61.03,3.03-.55.23-.22-.37.22.37.38,2.73-.39,2.93.52.38-1.53,2.72-.85.27v-.03.03l-.04.02.7,1.71-.59.81-.52.93-1.39,1.14.03.11,1.09-.38-1.06,2.59-.52,2.49-1.84,1.52.22-2.9-.48-.96-2.35-.02-3.42-1.35v-.04h.01Z"/>
    <path class="cls-50" d="m456.99,322.42l-.62,7.75-.48-.04-.47,6.89-.36,4.89-.14,1.82-.55,6.79-.26,3.54-.24,3.21-.5,6.72v.17l-.61,7.37-.38,3.93-.26,2.82-.58,6.61-.5,6.74-.5,6.71-.1,1.35-3.39-.26-5.11-.41-3.35-.28-.56-.05-10.68-.95-.88-.08-13.96-1.43-4.91-.51-3.11-.32-.55,1.52,1.33,1.93-9.94-1.15-11.78-1.46-.89,6.91-10.95-1.45,2.32-16.76.74-5.39.91-6.62,1.21-8.74,1.79-12.28.81-5.85,2.21-16.04,2.12-15.34,8.01,1.08,10.84,1.35.74.09,11.45,1.43,5.65.59,3.52.36,6,.61.83.08,13.88,1.25,11.2.82,1.05.08h0Z"/>
    <path class="cls-38" d="m335.79,228.11l2.68.52-2.91,15.14-2.67,13.45-.62,3.21-1.07,5.54-2.54,13.21-.35,1.58-1.2,6.48-1.64,8.29-1.77,9.22-.46,2.4-1.82,9.94-1.76,2.35-1.07-.05-1.73-2.45-2.62-.42-1.72.47-.19,1.64.65,1.93-1.03,2.43.34,1.46-.66,1.73.53,2.83-.31,2.92-1.16,1.93-9.9-14.85-2.29-3.51-12.02-18.07-6.17-9.29-5.4-8.17-6.57-9.91-1.54-2.32-2.24-3.35-2.9-4.33-.82-1.26.23-1.04.18-.68.2-.79.54-2.27.55-1.98,1.1-4.11,5.67-21.98,3.14-12.18,7.03,1.81.4.1,12.45,2.99,12.96,2.95.11.05,13.85,3.05,8.1,1.68,8.43,1.72h.01Z"/>
    <path class="cls-52" d="m792.25,242.49l.21-2.39,1.65.3-1.86,2.09h0Zm20.26-13.39l-1.12-.06.13-.99.99,1.05Zm-11.53,8.74l-2.68,1.28-.6.51-.41-.3.18-.32-1.3.1-.02.98-1.23.6-.73-.56.5-2.05.37-.95,1.86-.26.04-1.45,1.49-1.08,1.37.56-.59-.85,1.6-.09-.55-.7,2.11.26.46-1.08,4.39-1.05,1.86-.93,2.53-2.98-1.18,2.73-1.47,1.45,1.51.05,1.13-1.94,1.94-1.27,1.1.61,1.21-1.59,1.03.03-5.13,4.3-1.23.04-1.28,1.71h-1.03l-1.04,1.32-4.12,1.5-2.05,1.42h-.04Zm-69.03-21.84l-.73-1.53,1.27.46-.54,1.08h0Zm65.25,17.65l-1.2,1.75.2,1.03-1.3.61-.75,1.72.41-2.94.03-.59-.43-3.8-1.82-2.15-.04.02h0l1.52,2.49.55,2.16-3.98-1.23-.23-.09-1.68-.51-4.27-1.48-.84-.91-2.8-.28-1.33-1.61-.79-3.18-.85-.43-1.35.15-1.62-1.83-1.31.31-6.94,1.47-.44.09-4.59.96-4.11.84-.44.09-7.15,1.43-1.55.35-5.09.93-1.12.21-6.84,1.32-1.57.23-6.13,1.14-1.73.27-.71-4.13,2.54-2.22,1.79-2.2,1.85-1.37v-.02l.62-2.01,1.91-1.88-1.09-2.41.08-1.13-2.09-.51-.54-2.78,2.63-1.42,3.64-1.42,5.16-.88,3.18.04,1.95.98,1.88-1,2.44-.67,1.81.07,2.71-1.75-.02-.07.93-1.41,1.89-2.06,1.96-.56.04-2.32-.12.02h-.08l-.71-1.83-.88-.32,1.68-1.27-1.14-1.16.46-1.45-1.36,1.22-1.6-1.27,2.02-3.08,2.84-2.54.6-1.89,3.88-5.93,3.09-3,2.55-.76,7.41-1.73,7.19-1.96.19,2.59,1.25,4.15.29.19.9,1.52.4,2.66-.55,1.27.43,2.6,1.09,3.14.35.78-.27,1.94.59.92.79-1.13.85.96.8,3.6,1.17,5.63.84,2.95-.12,3.78-.13,6.87.23.44.12-.03,1.04,5.86.39,2.14.42,2.45,1.24,2.15-2.31,2.41,1.14,1.4v.22l.06.02v.06h0Z"/>
    <path class="cls-25" d="m717.51,235.93l.88,5.36.03.16.9,5.45.02.13.57,3.45.16.73.49,3.26-1.54,1.14,1.08,1.43-.16,1.36.54,1.25-.64,2.07-.18.48-.02,1.95.06,1.93-.64,1.07.19,1.99-1.01,1.94-.92,1.2-.76,1.4-.89,1.18-1.76,1.06-.86-.89-1.3,1.28v1.14l-1.27.09-.41.95-.25.6.28,1.27.2,2.71-1.58.92v-.86l-1.44-1.28-.98,1.19-.2,1.84-.78.88.94,2.86-.47.31-.83.26-.16,2.18-2.05.82h-1.08l-1.03-1.18-1.88-.75-1.28-2.7-1.59.68h0l-1.26,1.85-1.32.15v.02l-3.22-.88-1.27,1.18-.72.09h0l-2.63-1.71-1.74.17-2.22-.6-.09-.72-1.29-2.14-2.33-.87-1.35.49-1.69-.92-.68.72-.36-3.07-.35-3.36-.04-.71-.29-2.45-.35-2.93-.12-1.36-.47-4.71-.08-.66-.4-3.38-.28-2.4-.35-2.99-.12-1.04-.48-4.06-.03-.27-.28-2.39-.23-1.6-.3-2.56,4.57-.7.45-.07,5.41-.89,1.33-.22,3.15-.55h0l.12-.02h.08l.12-.04,3.47,1.25,2.45,1.29,1.6-1,.05.09h0l1.11.79-3.44,1.18-.2.03h-.04l1.89.17,2.21-.83,2.29.95,1.78-.95,3.58-1.91.55.08,2.56-.09,2.54-2.66,2-2.33,2.97-1.92,5.09-2.78.32,1.95-.05-.02h0Z"/>
    <path class="cls-50" d="m492.37,324.45l1.05.05,5.63.26,1,.04,5.55.19,5.55.17,2.4.08,2.88.07,3.76.06,4.15.07,3.85.04,4.81.05,2.75.03h13.59s4.11-.05,4.11-.05h.79l4.72-.07.05,3.61.02,1.54.04,2.61.78,5.23.15.94.79,5.3.3,1.87.55,3.74v.29l-.07,6.91-.04,3.18-.03,3.43v4.93l-.04,3.86h0l-.06,4.69-3.3-.96-1.51-.63-1.34-1.77-1.05-.04-1.38-1.12-.78-.39-1.17,1.32-3.05-.15-.14-.67-2.5.92-1.09.53-3.01-.17-1.51,1.53-2.24.39-3.18-1.86.51-.78-.82-.29-1.51,1.21-1.23-.34-.8-1.55-.14.09-.97,1.58-.87.09.03,1.44-1.36-.22-.15-2.41-2.11,1.44-1.04-.19-.34-1.32-1.01.23-1.57-1.37-2.31,2.09-1.4-.66.44-1.46-1.72-.31-.63-2.2-.42.43-2.43-.71-.8,1.12-.73.31-1.59-1.51-1.87.45-2.41-1.44-3.03-.14-.16-1.9-2.01-1.96-.41,1.31-.89-.37h0l-1.25-.4-1.51.56-1.77-2.05-1.04-1.14-.87.21h0l.08-2.88.19-4.42.1-2.35.16-3.72.13-3.04.17-4.07.11-2.71.25-6.9-6.64-.3-5.05-.25-1.54-.08-6.59-.37-5-.32-1.62-.1-10.27-.71.62-7.75,11.63.9.17.03,5.76.31,5.93.3,1.48.06,3.8.17,6.59.27-.05.04h0Z"/>
    <path class="cls-31" d="m250.86,140.78l1.6-.53,1.35,1.92h1.72l.94.06,1.84,2.18.22,3.79-.34,1.87-.17,1.27.98.92,3.77,2.01,3.77-.56,1.46-.5,3.05.55.67.62,2.3,1.11.43,1.07,1.29-.46,1.28.6,3.07-.71,1.62,1.1,2.91.3,2.58-.74h1.47l2.13.22,1.23-.78,1.46.49,3.19.57,1.74-.63,10.31,2.47.19.04,3.92.94,1.27.31,5.87,1.38.77,2.36,2.33,2.32.33,2.28-1.29,1.2-2.16,3.29-1.66,2.62-2.02,3.32-1.89,1.08-1.97,3.04-.83.45-.59,2.76,1.08.58,1.87,2.46-1.16,1.37.22,1.03-.9,1.49-.6.49-.54,2.41h0l-5.71,25.38-12.96-2.95-12.45-2.99-.4-.1-7.03-1.81-9.66-2.51-6.2-1.73-9.18-2.74-10.28-2.89-3.18-.91-3.31-.9-4.24-1.34-1.05-1.99.15-3.51,1.75-4.98-.83-3.06,1.48-1.51,2.46-4.31-.06-.63,2.12-1.19.61,1.13v-.02l.08-.08v-.11s-.03-.08-.03-.08l-.18-1.05-1.63.82,2.39-3.3,1.6-1.54-1.07.51,1.19-2.54.81-1.7.78.42.02-.06-.64-.89,1.35-3.74,2.41-5.61.43-1.94,1.85-3.41h0l.91-1.78.63-2.62,2.12-5.38.02-.99,1.54-3.87.14-2.43,1.13,1.16,1.13-.43.86.75.02.02h0Z"/>
    <path class="cls-61" d="m727.34,231.95l6.13-1.14,1.57-.23,6.84-1.32,1.12-.21,5.09-.93,1.55-.35,7.15-1.43.44-.09,4.11-.84,4.59-.96.44-.09,6.94-1.47,1.31-.31,1.62,1.83,1.35-.15.85.43.79,3.18,1.33,1.61,2.8.28.84.91-1.3,1.51-.44,2.34-.65.87.28-.1-1.27,2.29,1.09,1.29-1.06,1.72.29,2.64.14.23,1.55.43.55,1.88,1.56.85,3.15,2.37h0l-2.56,2.15-.71,1.04-1.39,2.27-2.17,1.49-1.87-.1-.2.07h0l-1.84,2.23-3.95.85-1.15.24h-.04l-3.79.8-2.51.53-2.43.5-2.47.51-2.81.56-.13.02-7.24,1.38-2.81.53-.46.09-4.93.9-1.41.26-5.34.98-.95.17-3.31.59-1.78.31-5.82.96-1.16.19-.61-3.69-.09-.84-.4-2.19-.56-3.67-.24-1.19-.41-2.48-.49-3.26-.16-.73-.57-3.45-.02-.13-.9-5.45-.03-.16-.88-5.36-.32-1.95,1.91-1.2,5.81-4.68.71,4.13,1.73-.27h0Z"/>
    <path class="cls-40" d="m821.15,219.13l.5-1.96.58,2.17-1.08-.21h0Zm2.3-.46l-.7.42-.85-2.86.78.04.77,2.4h0Zm-4.83-6.54l1.54,2.94,1.24.68-.08,1.15-1.43-1.39-.52-.04.05,1.8.82,2.93-.76,1.46-3.42,2.05-.02-.4.18-1.43-.55-2.77-.17-.64-.33-1.27-1.27-4.21,3.32-1.01,1.39.15h.01Z"/>
    <path class="cls-28" d="m738.16,385.74l.84-2.68.86.66-1.7,2.02Zm2.07-2.63l-1.21-3.67,1.58-.07,1.49,1.04-1.86,2.71h0Zm-.61-.57l-1.49-1.09-.74-1.37,1.54-.94.69,3.4Zm10.18-10.36l.18.51-1.2.94-.74-1.32,1.08-1.37-1.04,1.82-.85-1.11.64,2.11.69.18-.86,1.53-.2.73-2.22,1.28-1.23-1.18-.38.79,1.38.38-.65.62-1.1.72-1.23-1.49.35,1.54-2.21-.61-.23.35.56.57-2.52-.21-.71.86-.42-1.14.28,1.72.06.68.1.06-.07.17-.22.36,1.4,1.11-.05,1.44-1.11-.16,1.1.39-1.34.73v.02l.11.06.02.1-.22.07-.17.13-.26.11.26-.11-.05.85-2-.15-.34-.06-.63-1.61-.04-1.72-1.08-1.77-1.42-1.27h0l-1.46-.38-.54-2.27-.44-1.34-2-3-1.07-.61-2.01-.67v-.64l-1.34-.57-1.31-1.32-.14-1.87-1.24-.87-.21-.17-1.2-.64-1.71-1.26-1.1-1.55-3.63-1.88-.05-.02-.48-.82-2.26-2.73-.58-1.18-1.48-2.43-1.62-.16-.78-.07-.76-.58-3.26-1.87.04-.05-.24-.41,1.04-2.7,1.48-1.13-.09-.97,1.19-.58,1.32-.62,1.62-.42,2.14-1.51,2.65-1.1,1.72-.32,3.03-.3,1.2-.13,1.29-.14,4.99-.51.49-.07,3.66-.33.12,1.61,1.65-.76.98,1.02.87.87.07,1.82,2.94-.43,3.03-.45,4.85-.71,2.98-.47,3.26,2.18.16.11,5.54,4.07.05.02,6.21,4.45,1.12.81.36.45-3.09,2.35-1.75,2.88-1.22,2.78-.16,1.97-1.27-.04,1.44,1.52-.56.81-2.18-.2h0l1.67.48-1.56,2.02-1.49.05-.7,1.62-1.58,1.71h-.02,0Z"/>
    <path class="cls-37" d="m477.9,184.97l15.86.89,6.8.33,1.69.08,7.69.28,3,.11,7.69.24h.31l8.04.15,7.11.07-.12,1.6-1.01,1.46-1.9,1.44.11.85,1.61,2.71,2.28,1.32.19.89-.02,4.49.03,2.64v2.69l-.06,1.36-.03,5.35-.03,5.37h0l-.03,5.4h-1.59l.79,1.65-.33,2.08.92.72.19,2-.65.52-.33,2.18-1.02,2.13,1.43,3.27.6,1.09-2.1-.54-.75-1.96-1.16-.84-2.37-.91-1.6-.61-1.64-1.07-1.98.25-1.69-.05-2.25-.32-1.16,1.42-1.09.17-1.3-1.21v.02l-1.76-.72-2.08-1.85-8.47-.25-3.09-.11-7.43-.31-11.52-.56-9.54-.59-7.94-.55-2.32-.17-5.61-.43-6.12-.57.58-7.3.03-.4.46-5.39.38-4.42.05-.61.51-6.01.52-6.56.48-3.29.83-10.26.08-.97,11.19.89.58.05,10.09.69-.03-.02h0Z"/>
    <path class="cls-45" d="m643.58,326.76l.66-.07,3.71-.38,2.71-.28.61-.07,3.66-.43h2.47l1.81-.45,2.51-.08,2.86-.12,2.24-.14,4.28-.42,1.73-.31.22-.03,3.68-.25,2.33-.09h.09l6.3-.6.39-.05,2.66-.3.96-.09,3.07-.61,2.49-.27,5.88-.74,1.87-.27,2.7-.38,3.82-.57.61-.09,1.18-.16,3.82-.88,2.18-.29-.29.42-.15,3.12.39.78-1.59.11-.87,1.06-.12.36-.85,2.36-.61.39-1.83-.57-2.17,1.64v.02l-.89,1.59-1.25.36-.07-1.13-1.76.81-.66,1.37-.97-.23-.46,2.48-1.45.22-2,1.42.04.32-2.73,2.43-2,.17-1.35.29-2.01,1.85-.1-.04-.65.91.14,1.84-.8.8-1.64-.1-.68,1.03.06,3.4-3.7.45-1.96.24-.45.06-2.05.24-3.56.44-1.25.17-1.34.16-1.65.16-3.22.29-5.58.54h-.05l-5.8.58-.62.06-4.7.32-.18.02-4.74.36-4.78.38-2.62.38-2.01.16-.22.02-5.05.4-.45.03-2.41.2-2.33.17-1.92.15-3.58.22-.98.08-7.3.44,1.18-.55.4-1.45,1.11-.14.04-1.54-1.23-1.08,1.03-1.43-.89-.72.67-.74.49,1.37.13-.12-.19-1.67.61-.92,1.09.29-.59-.87,1.12-.59-1.26-1.58,2.98-1.47-.8-.74,1.47-.64-.85-1.46.22-1.3,1.01-.75-.5-.84-.86-1,1.98-.16-1.03-.8.81-.46-.13-2.51.7-.04.79-.06.87-.14,6.27-.45h.09l.13-.02,3.64-.26.35-.02,5.31-.38-.41-2.78,4.6.25h-.03,0Z"/>
    <path class="cls-56" d="m524.01,485.26l.29.77.43,1.42-.15-.11-.94-.72.36-.6-.33-1.15.34.39h0Zm0,0l-.68-1.14-.26-2.5.15-.14.79,3.79h0Zm-.79-3.81l-.3-.19.32-5.12.16-.52.02-1.32,1.62-3.3.34.09-1.79,4.54-.37,1.82v4.01h0Zm2.92-12.64l1.09-1-1.55,2.67.46-1.67h0Zm1.69-1.77l.16-1.08,2.13-2.43.34.18-2.63,3.33Zm6.17-6.76l2.1-.83-5.55,4.17.1-.37.1-.3.55-1.17,1.17-.14,1.52-1.36h.01Zm19.93-12.34l3.3-3.17,2.02-.68-5.31,3.84h-.01Zm2.91-3.29l-2.06,1.55-1.25.57-.99,2.33,1.39-.9-3.65,3.17-1.5.64-2.08,1.22h-1.75l-1.99.77-.34,1.09,3.44-1.57-2.18,1.37-2.38.83.92-1.09-2.53.76-.92-.51.68-1.15-1.95,1.08-.92-.49-.48-.51-.1,1.66-1.55-.65-.33-.92.05-.07-.05.07-1.07-.3h-.05l-.05-.02.05.31.52,1.87,1.26.4,1.6,1.5-3.23,2-1.89-1.89-1.03.55.91,1.42-.1.67v.77l-.15.07-.44.5-1.28.98-1.11-1.23-3.1,2.11,1.12.24-.36,1.12v.07l2.03-2.25.13,1.3-1.49,1.98v-.02.02l-.1.13-.6,1.06-2.1-.93-2.07.64,1.52.06.66,1.85,1.03.33-1.01,2.07-1.18,3.6-1.39.74.52-1.88-1.9,1.7-1.55-1.72.81,1.69-1.38.07-.2-.06.2.06,3,.82,1.69-.49-.43,2.24-.42,1.79-1.05.36-.18,2.04,1.32,1.41.31,2.3.23,1.3-.02,1.12-.36.47h.85l1.38,4.8,1.04.54-.62,1.43,1.36-.6.14.83-1.85.02-1.36.69.04,1.02-2.94-1.47-.83-1.46h-1.65l-1.34-.7-2.91.31-2.54-.48-.58-.74-3.99-2.19-1.11.31-1.89-2.09-1.3.2-1.02-.77-1.55.02-1.11-2.71-1.2-4.19-2.38-2.81.38-2.3-.34-1.43-.65-1.13.43-2.3-1.49-2.37-1.75-.42-2.33-3.18-.32-1.82-.68-.14-1.31-2.48-1.67-.84-1.07-1.29-1.19-4.78-1.31-1.19-.04-1.26-1.83-3.2-.14-2.19-1.33-1.41-.19-1.08-2.88-2.17-.51-1.34-2.59-1.09.14-1.63-2.54-2.64-1.17.38-2.95-.52-4.72-.47-.81-.89-1.88-.61-.93,1.75-1.7-.46-2.2.5-3.21,5.83-.15,2.13-1.53.37-2.31,3.01-3.67-1.42-1.6-1.86-1.16-.08-1.84-1.78-3.1-1.08-1.68-1.3-1.13-1.99-1.04-.2-2.5-2.75-.2-1.48-1.25-2.16-.16-2.39.4-1.74-.82-1.99-1.15-1.45.03-1.88-1.25-1.94-2.85-3.01-2.33-.91.06-.6-1.96-1.77-.42-1.49-2.12-1.51-1.02-2.01-1.53-1.68-2.58-1.48-1.79-4.33-1.86-1.03-1.33-1.93.55-1.52,3.11.32,4.91.51,13.96,1.43.88.08,10.68.95.56.05,3.35.28,5.11.41,3.39.26.1-1.35.5-6.71.5-6.74.58-6.61.26-2.82.38-3.93.59-7.37v-.17l.51-6.72.24-3.21.26-3.54.55-6.79.14-1.82.36-4.89.47-6.89.48.04,10.27.71,1.62.1,5,.32,6.59.37,1.54.08,5.05.25,6.64.3-.25,6.9-.11,2.71-.17,4.07-.13,3.04-.16,3.72-.1,2.35-.19,4.42-.08,2.88h0l.87-.21,1.04,1.14,1.77,2.05,1.51-.56,1.25.39h0l.89.38.41-1.31,2.01,1.96.16,1.9,3.03.14,2.41,1.44,1.87-.45,1.59,1.51.73-.31.8-1.12,2.43.71.42-.43.63,2.2,1.72.31-.44,1.46,1.4.66,2.31-2.09,1.57,1.37,1.01-.23.34,1.32,1.04.19,2.11-1.44.15,2.41,1.36.22-.03-1.44.87-.09.97-1.58.14-.09.8,1.55,1.23.34,1.51-1.21.82.29-.51.78,3.18,1.86,2.24-.39,1.51-1.53,3.01.17,1.09-.53,2.5-.92.14.67,3.05.15,1.17-1.32.78.39,1.38,1.12,1.05.04,1.34,1.77,1.51.63,3.3.96,1.3,1.44,1.91-.75,2.43.54.14,4.34.08,3.91.04,2.14.06,2.91.1,4.65.06,3.03.4,3.33,1.82,2.06,1.17,2.17-.47,1.8,2.18,2.88-.15,1.46.96.6.22,1.31.61-.15-.11,1.36.78,1.02-.84.33.24,2.17-1.5,4.3-.79.82.61,1.58-.56.57-.35,1.12.84,1.3-.12,2.98-1.7,2.91-.94.8,1.19,1.86-2.73.34-4.09,1.81-.24.1-5.39,2.83,1.28-1.48,2.82-1.36-1.01-.21-2.82.77.77-3.41-1.49-.24-.85,1.33-.77-.07-2.32-1.57,1.6,1.64-.46,2,1.45.78.13,3.03v-.03h0Z"/>
    <path class="cls-60" d="m371.97,234.39l-.99,6.47-.84,5.01-.62,3.88,11.36,1.77.57.09,10.81,1.5-.74,5.33-.92,6.63-1.2,8.64-.35,2.5-.28,2.02-1.93,13.33-.52,5.37-.58,4.19-.89,6.09-1.03,7.47-11.51-1.62-9.01-1.47-7.99-1.25-13.53-2.28-4.3-.76-13.79-2.56,1.77-9.22,1.64-8.29,1.2-6.48.35-1.58,2.54-13.21,1.07-5.54.62-3.21,2.67-13.45,2.91-15.14,11.63,2.09,9.31,1.65.64.13,6.76,1.09,5.16.8h0Z"/>
    <path class="cls-42" d="m787.18,285.02l.05.22-.86,5.18-.44.83-1.33.65-.11.53-.64,1.97.21,3.47-1.43-1.7.2-4.69,1.05-.29-1.2.21,1.05-3.57.9-.55.34-3.3h.04l2.8-.95-.62,1.99h-.01Zm-9.54,6.45l-1.98.07-1.75-2.25-.39.24-3.52-2.35-.7-1.3-1.73-.95-.04.03.6,1.03h1.28l.28,1.4,1.83,1,1.7,1.63,2.28,2.04,2.92.2-1.29,1.04-1.66-.53,1.5.59.86-.33,1.53.96-.33,1.81-1.96-1.49,1.23,2.7-1.31.54-3.02-2.57-1.5-1.92-1.85.68-.12-.18.12.18h1.68l1.01,1.22.05.02,1.21,1.16h0l1.4,1.2,2.08.39.35,1.25.57-.49-.09.82,1.4.07-1.09,1.81-3.26-1.5.08-.67-.63-.69-1.24.7-1.48-.5-.48-1.9.34,1.68-.7.47-1.08-.96-3.03.4.04-.92-.82.11.24,1.19.77.1,1.87-.62,1.21.94,2.56-.09,1.7.69.57,1.48,2.27.82-.31.86,1.45-.12.39.81-.09.42,1.28-.53.55-.15.25-.09h.14l-1.5-.32-.28-1.36,1.89.26,2.22-.48,2.75,5.32-.3.06-1.15-2.41.07,2.64-.39.08-.26.05-1.07.23-2.28.48-2.11.44-.6.13-4.53.9.03.12-2.98.57-1.59.34-5.65,1.1-1.59.32-1.77.35-3.33.63-1.59.32-3.33.63-.78.14-4.11.74-.95.17-1.52.27-1.51.28-.52.09-2.43.41-3.82.64-.3.05-4.7.66-2.06.23-2.74.42-.79.08-5.5.66-3.94.4.29-.42-2.18.29-3.82.88-1.18.16-.61.09-3.82.57-2.7.38-1.87.27-5.88.74-2.49.27,2.48-1.33,3.79-1.76.51-1.79,2.26-.91-.04-1.27,1.58-1.29.03-1.35,1.54-1.29.16-.12,2.68-1.89.04-.03,3.55-4.26.53.32-.71.55,1.06,1.83,2.51,1.5,2.23.15,2.1-2.38,1.88,1.33,2.78-1.37,1.41-1.07-.29-1.25v.02l1.21.68,2.77-2.19.62.83,1.88-1.65-.49-.81,1.12-1.19-1.06-.84,1.07-3.02,1.07-1.43.85-1.92.39-2.08,1.03-1.34-.27-.56,1.1-2.18.04-2.53,1.42.41.96,1.28,2.02.36.88-1.19,1.2-4.71.47-1.48,1.71,1.06.62-2.07.75-.41,1.62-2.7.33-.57.99-1.42-.43-1.4.24-3.29,1.59.89,2.61,1.5,2.76,1.58.73-3.13.45-.15,1.34.04,1.49,1.01-.52,1.55.92.71,1.64-.03,2.79,1.37.33.36.42.14v.07s.01.02.01.02l.05.03h0v.05h.09v.02l.1.04.11.53v-.02.02l.11.79.3,1.05-1.57,1.92-.62-.69-.17,2.65.63,2.28-.41.34,3.53-1.37.17,1.72.71.9,3.46-.05,2.21.89-.32,1.01.77-.31,3.28,1.14.41,1.12-1.35.1h.04l1.14,2.08-.6.1.26,1.22h.05,0Z"/>
    <path class="cls-36" d="m794.34,170.14l6.92-1.77,4.13-1.17.48,1.49-.82,2.72,1.66,2.3-.1,1.33-1.6,1.95-.57,1.07-1.96.93.56,2.49.38,1.17-.55,1.37-.12,3.68-.78,1.27.09,1.63-.43.57.7,5.21.08,1.13.7,2.28-.65.87.32,2.4,1.21.99-5.17,1.1-1.02.23-2.64.57-.84-2.95-1.17-5.63-.8-3.6-.85-.96-.79,1.13-.59-.92.27-1.94-.35-.78-1.09-3.14-.43-2.6.55-1.27-.4-2.66-.9-1.52-.29-.19-1.25-4.15-.19-2.59,1.58-.43,6.76-1.59-.04-.02h0Z"/>
    <path class="cls-20" d="m263.18,128.6l.06-1.82.85-.1-.91,1.93h0Zm4.51-1.39l1.01-2.58.49,2.12-1.5.46Zm.85-3.64l-.39-1.51.68-.74-.3,2.26h.01Zm2.75-4.48l-1.76-2.52.53-1.85-1.28-1.34,1.62-1.88,1.27,1.47-2.52.3,1.18.74-.2,2.99.52-1.14,1.24,1.34-.61,1.89h.01Zm-2.83-8.97l-.38-.7,1.13-1.23-.75,1.93Zm-.6-2.03l-.75,1-.91-1.89.94-.7.73,1.59h-.01Zm1.29-.47l-1.24-1.03,1.25-.88,1.74,1.27-1.76.63h.01Zm1.55,3.3l.97-1.5,1.13,1.17.52-2.64.02-2.07-1.28.59.32-.99-.98-2.04.81-1.47,10.15,2.95,8.58,2.3,7.59,2.01,12.39,3.1,6.35,1.53,7.61,1.77,3.93.92-.51,2.26-2.71,11.9-.23,1.02-2.05,9.11-.36,1.6-.44,1.97-1.97,8.75-.39,1.72h0l-.49,1.12.82,2.98-.86,1.04.38,1.62-5.87-1.38-1.27-.31-3.92-.94-.19-.04-10.31-2.47-1.74.63-3.19-.57-1.46-.49-1.23.78-2.13-.21h-1.47l-2.58.73-2.91-.3-1.62-1.1-3.07.71-1.28-.6-1.29.46-.43-1.07-2.3-1.11-.67-.62-3.05-.55-1.46.5-3.77.56-3.77-2.01-.98-.92.17-1.27.34-1.87-.22-3.79-1.84-2.18-.94-.05v-.05l-1.03.03-1.18-2.23-2.56-1.06-1.73.3-1.29-2.46.92-3.42.36.39-.79,2.99,1.35-.49.61-1.62-.35-1.09,1.68-1.21-2.5-1.07.22-.85.1-1.75.82.44,2.61-.24-2.97-2.08.24-4.16-.52-1.12.48-2.71.21-3.36-1.22-2.5-.23-1.41.25-3.06,1.51-2.22-.44-.97.95.2,4.97,4.92,3.67,1.36,2.44,1.44,2.97.32,1.46,1.77,1.35.02.91,3.44-2.87.93-.6,1.27-1.36.9-1.86,1.8-.43,1.2,1.6-1.84,1.42-1.12,1.91-.26,1.24-1.72,2.06-1.22-.16,2.59-1.88,1,.67,2.41-1.03,1.41-.98,2.06-.81-.72,1.04-1.57-.11-.03-2.67,1.79.82-1.62-.42.23-.04.13-1.14.43-.46,1.18-1.8,1.06,1.61-.68,1.24.34.95,1.47,2.49-2.23,1.25-.26,1.06-.14v-3.62l.68.27.07.03-.55-1.62.92-1.58,1.58-2.27,1.38-.9-1.18-1.84.11-1.62-1.54,1.07.26-1.72,1.3.31h0l.41-.62-1.06-2.63-1.17.19-.07.03h0Z"/>
    <path class="cls-33" d="m640.67,191.69l-.96-.67,1.25-.35-.29,1.02Zm-43.34-18.59l1.64-1.98.51.35-2.15,1.63h0Zm-1.38,2.63l2.33-1.35,1.67,1.15,1.42.19h0l2.19.85,1.15,2.47,2.1.44v.19-.19l9.07,1.86,1.12.56.64.32,2.75.7,1.87-.19,4.3,1.13-.1,1.55.9.56h0l2.34.7.76.7-.44,1.65.55.96-.85,2.37,2.61.06-.82,2.22,1.49,1.36.04,1.79-1.45.43-1.29,2.26-.78,2.38-.03.07.03-.07h-.04v.07l-.32,1.74.79.45,2.08-1.96.27-.52,1.11-2.57,2.26-1.5,2.96-6.04.59.86-.33,2.72-1.08,1.48-.02,1.49-1.03,1.23-.56,2.01-.87,2.11-.48,3.4.27,2.61-.96.76-.76,3.51.6,3.19-.8,2.24-.72,2.78.07,2.73,1.18,5.34.84.82-.37,1.84.27,2.71-4.44.33-1.21.11-4.52.37-.77.08-1.86.09-4.77.27-.4.02-4.93.25-.97.06-5.66.33-2.42.12-.79-1.9-2.25-.52h0l-1.78-.9-1.32-3.79-.31-1.41,1.18-2.81-1.8-1.57.04-.89-.18-1.21-.69-1.76.08-1.69v-.03l-.41-1.83-1.65-2.04-1.49-.57-3.43-2.43-.8-2.13-1.78-1.07h-.04l-1.8-.65-.8-1.3-2.65-.35-2-2.16-.8-.48.29-1.78-.03-5.36.07-1.33.92-2.49-1.38-1.68-1.2-.1-.03-1.03.42-1.33,1.34-2.61,3.77-1.97.53-2.21-.15-3.98-.15-3.78h.95l.24-.5.84-.83.91.9,2.08-.19,2.76-1.13,1.94-.69,1.42-1.15,1.26.05,1.37-1.39,1.16-.36,1.19.97-1.32,2.26.39.91-.67,1.68-.02-.04h0Z"/>
    <path class="cls-35" d="m720.96,256.94l.24,1.19.56,3.67.4,2.19.09.84.61,3.69,1.16-.19,5.82-.96,1.78-.31,3.31-.59,1.26,7.9,2.17-2.31,1.96-2.75,1.24.43,1.43-3.23,1.88,1.11,2.29-.14,1.19-2.12.79.11.86-1.37,2,.83,2.24-.18-.53.82.94.85,1.76,2.39-.73,3.13-2.76-1.58-2.61-1.5-1.59-.89-.24,3.29.43,1.4-.99,1.42-.33.57-1.62,2.7-.75.41-.62,2.07-1.71-1.06-.47,1.48-1.2,4.71-.88,1.19-2.02-.36-.96-1.28-1.42-.41-.04,2.53-1.1,2.18.27.56-1.03,1.34-.39,2.08-.85,1.92-1.07,1.43-1.07,3.02,1.06.84-1.12,1.19.49.81-1.88,1.65-.62-.83-2.77,2.19-1.21-.68v-.02l.28,1.25-1.41,1.07-2.78,1.37-1.88-1.33-2.1,2.38-2.23-.15-2.51-1.5-1.06-1.83.71-.55-.53-.32-1.88.06-2.32-1.48-.64-1.06-1.24-1.6-1.18-1.26.23-.24-2.32-2.54.2-1.68h0l-.3-2.7h1.08l2.05-.83.16-2.18.83-.26.47-.31-.94-2.86.78-.88.2-1.84.98-1.19,1.44,1.28v.86l1.58-.92-.2-2.71-.28-1.27.25-.6.41-.95,1.27-.09v-1.14l1.3-1.28.86.89,1.76-1.06.89-1.18.76-1.4.92-1.2,1.01-1.94-.19-1.99.64-1.07-.06-1.93.02-1.95.18-.48.64-2.07-.54-1.25.16-1.36-1.08-1.43,1.54-1.14.41,2.48h.01Z"/>
    <path class="cls-49" d="m405.37,192.43l4.02.55,3.64.43,8.86,1.15,8.91,1.05,2.56.27,10.14.92.54.05,10.6,1.01-.52,6.56-.51,6.01-.05.61-.38,4.42-.46,5.39-.03.4-.58,7.3-.52,6.06-.8,9.41-.4,4.69-.18,2.07-.22,2.65-.52,6.05-10.22-.87-3.83-.37-10.49-1.08-1.48-.17-6.16-.74-5.25-.63-6.85-.82-12.95-1.69-10.81-1.5-.57-.09-11.36-1.77.62-3.88.84-5.01.99-6.47,1.25-7.82,1.28-7.75.72-4.52.45-2.82,1.14-7.38,1.19-7.47.35-2.96.97-5.08,3.6.72,9.78,1.32,12.67,1.8h.02,0Z"/>
  </g>
  <g>
    <path class="cls-1" d="m983.72,155.05h67.2v245.9h-67.2v-245.9h0Z" pointer-events="none"/>
    <g>
      <g pointer-events="none">
        <path class="cls-13" d="m983.72,173.42h19.54v244.43h-19.54v-244.43h0Z"/>
      </g>
      <g pointer-events="none">
        <g class="cls-9">
          <text class="cls-6" transform="translate(1005.72 415.35)"><tspan x="0" y="0">20</tspan></text>
        </g>
        <g class="cls-9">
          <text class="cls-6" transform="translate(1005.72 372.57)"><tspan x="0" y="0">22</tspan></text>
        </g>
        <g>
          <g class="cls-9">
            <text class="cls-6" transform="translate(1005.72 323.69)"><tspan x="0" y="0">2</tspan></text>
          </g>
          <g class="cls-9">
            <text class="cls-6" transform="translate(1013.18 323.69)"><tspan x="0" y="0">4</tspan></text>
          </g>
        </g>
        <g class="cls-9">
          <text class="cls-6" transform="translate(1005.72 274.8)"><tspan x="0" y="0">26</tspan></text>
        </g>
        <g class="cls-9">
          <text class="cls-6" transform="translate(1005.72 225.92)"><tspan x="0" y="0">28</tspan></text>
        </g>
        <g class="cls-9">
          <text class="cls-6" transform="translate(1005.72 183.14)"><tspan x="0" y="0">30</tspan></text>
        </g>
      </g>
    </g>
    <g pointer-events="none">
      <g>
        <g class="cls-9">
          <text class="cls-8" transform="translate(983.72 160.33)"><tspan x="0" y="0">90/</tspan></text>
        </g>
        <g class="cls-9">
          <text class="cls-4" transform="translate(1014.44 160.33)"><tspan x="0" y="0">1</tspan></text>
        </g>
        <g class="cls-9">
          <text class="cls-8" transform="translate(1024.68 160.33)"><tspan x="0" y="0">0</tspan></text>
        </g>
        <g class="cls-9">
          <text class="cls-8" transform="translate(1041 160.33)"><tspan x="0" y="0">R</tspan></text>
        </g>
        <g class="cls-9">
          <text class="cls-8" transform="translate(1052.15 160.33)"><tspan x="0" y="0">a</tspan></text>
        </g>
        <g class="cls-9">
          <text class="cls-7" transform="translate(1063.37 160.33)"><tspan x="0" y="0">t</tspan></text>
        </g>
        <g class="cls-9">
          <text class="cls-8" transform="translate(1069.56 160.33)"><tspan x="0" y="0">io</tspan></text>
        </g>
      </g>
    </g>
  </g>
</svg>