<?xml version="1.0" encoding="utf-8"?>
<!-- Generator: Adobe Illustrator 27.2.0, SVG Export Plug-In . SVG Version: 6.00 Build 0)  -->
<svg version="1.1" id="Layer_1" xmlns="http://www.w3.org/2000/svg" xmlns:xlink="http://www.w3.org/1999/xlink" x="0px" y="0px"
	 viewBox="0 0 1263.3 577" style="enable-background:new 0 0 1263.3 577;" xml:space="preserve">
<style type="text/css">
	.st0{fill:#EBF7DE;}
	.st1{fill:none;stroke:#000000;stroke-width:0.5;stroke-miterlimit:10;}
	.st2{fill:none;stroke:#888888;stroke-miterlimit:10;}
	.st3{font-family:'Futura-Medium';}
	.st4{font-size:10px;}
	.st5{letter-spacing:-1;}
	.st6{font-family:'Futura-Bold';}
	.st7{font-size:12px;}
	.st8{font-size:11px;}
	.st9{fill:none;stroke:#B6E3DA;stroke-width:3.5;stroke-miterlimit:10;}
	.st10{fill:none;stroke:#8FD4C1;stroke-width:3.5;stroke-miterlimit:10;}
	.st11{fill:none;stroke:#69C3A2;stroke-width:3.5;stroke-miterlimit:10;}
	.st12{fill:none;stroke:#4AB17E;stroke-width:3.5;stroke-miterlimit:10;}
	.st13{fill:none;stroke:#2F995A;stroke-width:3.5;stroke-miterlimit:10;}
	.st14{fill:none;stroke:#167F3D;stroke-width:3.5;stroke-miterlimit:10;}
	.st15{enable-background:new    ;}
</style>
<rect class="st0" width="1263.3" height="577"/>
<line class="st1" x1="132.4" y1="487.5" x2="1132.4" y2="487.5"/>
<g pointer-events="none">
	<line class="st2" x1="165.4" y1="487.5" x2="165.4" y2="492.5"/>
	<line class="st2" x1="232.4" y1="487.5" x2="232.4" y2="492.5"/>
	<line class="st2" x1="299.4" y1="487.5" x2="299.4" y2="492.5"/>
	<line class="st2" x1="365.4" y1="487.5" x2="365.4" y2="492.5"/>
	<line class="st2" x1="432.4" y1="487.5" x2="432.4" y2="492.5"/>
	<line class="st2" x1="499.4" y1="487.5" x2="499.4" y2="492.5"/>
	<line class="st2" x1="565.4" y1="487.5" x2="565.4" y2="492.5"/>
	<line class="st2" x1="632.4" y1="487.5" x2="632.4" y2="492.5"/>
	<line class="st2" x1="699.4" y1="487.5" x2="699.4" y2="492.5"/>
	<line class="st2" x1="765.4" y1="487.5" x2="765.4" y2="492.5"/>
	<line class="st2" x1="832.4" y1="487.5" x2="832.4" y2="492.5"/>
	<line class="st2" x1="899.4" y1="487.5" x2="899.4" y2="492.5"/>
	<line class="st2" x1="965.4" y1="487.5" x2="965.4" y2="492.5"/>
	<line class="st2" x1="1032.4" y1="487.5" x2="1032.4" y2="492.5"/>
	<line class="st2" x1="1099.4" y1="487.5" x2="1099.4" y2="492.5"/>
</g>
<g pointer-events="none">
	<text transform="matrix(6.123234e-17 -1 1 6.123234e-17 168.73 516.75)" class="st3 st4">2005</text>
	<text transform="matrix(6.123234e-17 -1 1 6.123234e-17 235.4 516.75)" class="st3 st4">2006</text>
	<text transform="matrix(6.123234e-17 -1 1 6.123234e-17 302.06 516.75)" class="st3 st4">20</text>
	<text transform="matrix(6.123234e-17 -1 1 6.123234e-17 302.06 504.4102)" class="st3 st4">0</text>
	<text transform="matrix(6.123234e-17 -1 1 6.123234e-17 302.06 498.5605)" class="st3 st4">7</text>
	<text transform="matrix(6.123234e-17 -1 1 6.123234e-17 368.73 516.75)" class="st3 st4">2008</text>
	<text transform="matrix(6.123234e-17 -1 1 6.123234e-17 435.4 516.75)" class="st3 st4">2009</text>
	<text transform="matrix(6.123234e-17 -1 1 6.123234e-17 502.06 516.75)" class="st3 st4">2</text>
	<text transform="matrix(6.123234e-17 -1 1 6.123234e-17 502.06 510.5801)" class="st3 st4">0</text>
	<text transform="matrix(6.123234e-17 -1 1 6.123234e-17 502.06 505.1797)" class="st3 st4">1</text>
	<text transform="matrix(6.123234e-17 -1 1 6.123234e-17 502.06 499.6094)" class="st3 st4">0</text>
	<text transform="matrix(6.123234e-17 -1 1 6.123234e-17 568.73 516.0098)" class="st3 st4">2</text>
	<text transform="matrix(6.123234e-17 -1 1 6.123234e-17 568.73 509.8398)" class="st3 st4">0</text>
	<text transform="matrix(6.123234e-17 -1 1 6.123234e-17 568.73 504.4395)" class="st3 st4 st5">1</text>
	<text transform="matrix(6.123234e-17 -1 1 6.123234e-17 568.73 499.7305)" class="st3 st4">1</text>
	<text transform="matrix(6.123234e-17 -1 1 6.123234e-17 635.4 516.75)" class="st3 st4">2</text>
	<text transform="matrix(6.123234e-17 -1 1 6.123234e-17 635.4 510.5801)" class="st3 st4">0</text>
	<text transform="matrix(6.123234e-17 -1 1 6.123234e-17 635.4 505.1797)" class="st3 st4">1</text>
	<text transform="matrix(6.123234e-17 -1 1 6.123234e-17 635.4 499.8008)" class="st3 st4">2</text>
	<text transform="matrix(6.123234e-17 -1 1 6.123234e-17 702.06 516.75)" class="st3 st4">2</text>
	<text transform="matrix(6.123234e-17 -1 1 6.123234e-17 702.06 510.5801)" class="st3 st4">0</text>
	<text transform="matrix(6.123234e-17 -1 1 6.123234e-17 702.06 505.1797)" class="st3 st4">1</text>
	<text transform="matrix(6.123234e-17 -1 1 6.123234e-17 702.06 499.7207)" class="st3 st4">3</text>
	<text transform="matrix(6.123234e-17 -1 1 6.123234e-17 768.73 516.75)" class="st3 st4">2</text>
	<text transform="matrix(6.123234e-17 -1 1 6.123234e-17 768.73 510.5801)" class="st3 st4">0</text>
	<text transform="matrix(6.123234e-17 -1 1 6.123234e-17 768.73 505.1797)" class="st3 st4">1</text>
	<text transform="matrix(6.123234e-17 -1 1 6.123234e-17 768.73 499.8008)" class="st3 st4">4</text>
	<text transform="matrix(6.123234e-17 -1 1 6.123234e-17 835.4 516.75)" class="st3 st4">2</text>
	<text transform="matrix(6.123234e-17 -1 1 6.123234e-17 835.4 510.5801)" class="st3 st4">0</text>
	<text transform="matrix(6.123234e-17 -1 1 6.123234e-17 835.4 505.1797)" class="st3 st4">1</text>
	<text transform="matrix(6.123234e-17 -1 1 6.123234e-17 835.4 499.8008)" class="st3 st4">5</text>
	<text transform="matrix(6.123234e-17 -1 1 6.123234e-17 902.06 516.75)" class="st3 st4">2</text>
	<text transform="matrix(6.123234e-17 -1 1 6.123234e-17 902.06 510.5801)" class="st3 st4">0</text>
	<text transform="matrix(6.123234e-17 -1 1 6.123234e-17 902.06 505.1797)" class="st3 st4">1</text>
	<text transform="matrix(6.123234e-17 -1 1 6.123234e-17 902.06 499.8809)" class="st3 st4">6</text>
	<text transform="matrix(6.123234e-17 -1 1 6.123234e-17 968.73 516.75)" class="st3 st4">2</text>
	<text transform="matrix(6.123234e-17 -1 1 6.123234e-17 968.73 510.5801)" class="st3 st4">0</text>
	<text transform="matrix(6.123234e-17 -1 1 6.123234e-17 968.73 505.1797)" class="st3 st4">1</text>
	<text transform="matrix(6.123234e-17 -1 1 6.123234e-17 968.73 499.9297)" class="st3 st4">7</text>
	<text transform="matrix(6.123234e-17 -1 1 6.123234e-17 1035.4 516.75)" class="st3 st4">2</text>
	<text transform="matrix(6.123234e-17 -1 1 6.123234e-17 1035.4 510.5801)" class="st3 st4">0</text>
	<text transform="matrix(6.123234e-17 -1 1 6.123234e-17 1035.4 505.1797)" class="st3 st4">1</text>
	<text transform="matrix(6.123234e-17 -1 1 6.123234e-17 1035.4 499.7598)" class="st3 st4">8</text>
	<text transform="matrix(6.123234e-17 -1 1 6.123234e-17 1102.0601 516.75)" class="st3 st4">2</text>
	<text transform="matrix(6.123234e-17 -1 1 6.123234e-17 1102.0601 510.5801)" class="st3 st4">0</text>
	<text transform="matrix(6.123234e-17 -1 1 6.123234e-17 1102.0601 505.1797)" class="st3 st4">1</text>
	<text transform="matrix(6.123234e-17 -1 1 6.123234e-17 1102.0601 499.8203)" class="st3 st4">9</text>
</g>
<g pointer-events="none">
	<line class="st2" x1="132.4" y1="487.5" x2="1132.4" y2="487.5"/>
</g>
<g pointer-events="none">
	<text transform="matrix(1 0 0 1 620.77 538.75)" class="st6 st7">Y</text>
	<text transform="matrix(1 0 0 1 628.47 538.75)" class="st6 st7">ear</text>
</g>
<g pointer-events="none">
	<line class="st2" x1="132.4" y1="487.5" x2="127.4" y2="487.5"/>
	<line class="st2" x1="132.4" y1="437.5" x2="127.4" y2="437.5"/>
	<line class="st2" x1="132.4" y1="387.5" x2="127.4" y2="387.5"/>
	<line class="st2" x1="132.4" y1="337.5" x2="127.4" y2="337.5"/>
	<line class="st2" x1="132.4" y1="287.5" x2="127.4" y2="287.5"/>
	<line class="st2" x1="132.4" y1="237.5" x2="127.4" y2="237.5"/>
	<line class="st2" x1="132.4" y1="187.5" x2="127.4" y2="187.5"/>
	<line class="st2" x1="132.4" y1="137.5" x2="127.4" y2="137.5"/>
	<line class="st2" x1="132.4" y1="87.5" x2="127.4" y2="87.5"/>
</g>
<g pointer-events="none">
	<text transform="matrix(1 0 0 1 119.84 490.5)" class="st3 st4">0</text>
	<text transform="matrix(1 0 0 1 94.81 440.5)" class="st3 st4">20,000</text>
	<text transform="matrix(1 0 0 1 94.81 390.5)" class="st3 st4">40,000</text>
	<text transform="matrix(1 0 0 1 94.81 340.5)" class="st3 st4">60,000</text>
	<text transform="matrix(1 0 0 1 94.81 290.5)" class="st3 st4">80,000</text>
	<text transform="matrix(1 0 0 1 89.25 240.5)" class="st3 st4">1</text>
	<text transform="matrix(1 0 0 1 94.82 240.5)" class="st3 st4">00,000</text>
	<text transform="matrix(1 0 0 1 89.25 190.5)" class="st3 st4">1</text>
	<text transform="matrix(1 0 0 1 94.63 190.5)" class="st3 st4">20,000</text>
	<text transform="matrix(1 0 0 1 89.25 140.5)" class="st3 st4">1</text>
	<text transform="matrix(1 0 0 1 94.63 140.5)" class="st3 st4">40,000</text>
	<text transform="matrix(1 0 0 1 89.25 90.5)" class="st3 st4">1</text>
	<text transform="matrix(1 0 0 1 94.54 90.5)" class="st3 st4">60,000</text>
</g>
<g pointer-events="none">
	<line class="st2" x1="132.4" y1="487.5" x2="132.4" y2="87.5"/>
</g>
<g pointer-events="none">
	<text transform="matrix(6.123234e-17 -1 1 6.123234e-17 76.25 323.5605)" class="st6 st8">Income (USD)</text>
</g>
<path class="st9" d="M165.2,480.5l66.7-0.2l66.7-0.2l66.7-0.2l66.7,0.3h66.7l66.7-0.3l66.7-0.3l66.7-0.3l66.7-0.5l66.7-0.6l66.7-0.3
	l66.7-0.5l66.7-0.5l66.7-0.6"/>
<path class="st10" d="M165.2,462.9l66.7-0.9l66.7-0.7l66.7-0.8l66.7,0.8h66.7l66.7-1l66.7-1l66.7-0.8l66.7-1.2l66.7-1.6l66.7-1
	l66.7-1.6l66.7-1.9l66.7-2"/>
<path class="st11" d="M165.2,425l66.7-2.3l66.7-2l66.7-1.9l66.7,0.8l66.7-0.3l66.7-1.5l66.7-1.7l66.7-1.6l66.7-2.3l66.7-2.9
	l66.7-1.5l66.7-3.1l66.7-3.4l66.7-3.5"/>
<path class="st12" d="M165.2,374l66.7-4.4l66.7-4.1l66.7-3.9H432l66.7-1.6l66.7-2.9l66.7-2.7l66.7-2.6l66.7-3.9l66.7-4.6l66.7-1.8
	l66.7-4.6l66.7-5.3l66.7-5.2"/>
<path class="st13" d="M165.2,305l66.7-7.8l66.7-7.5l66.7-7.1l66.7-0.8l66.7-3.7l66.7-6.3l66.7-5.1l66.7-4.8l66.7-6.8l66.7-7.7
	l66.7-3.1l66.7-7.4l66.7-8.8l66.7-8.5"/>
<path class="st14" d="M165.2,241.7l66.7-11.2l66.7-11.2l66.7-9.5L432,209l66.7-6.8l66.7-10l66.7-7.2l66.7-7.2l66.7-10l66.7-11
	l66.7-4.8l66.7-10.2l66.7-12.2l66.7-12.2"/>
<g pointer-events="none">
	<g class="st15">
		<path d="M210.5,38.7V53h-3.7V38.7H210.5z"/>
		<path d="M213.5,53V38.7h3.7l6.9,8.8v-8.8h3.7V53h-3.7l-6.9-8.8V53H213.5z"/>
		<path d="M230.8,38.7h5.5c1,0,1.9,0.2,2.7,0.6c0.9,0.4,1.6,0.9,2.2,1.6c0.6,0.7,1.1,1.4,1.5,2.3c0.4,0.9,0.6,1.8,0.6,2.7
			c0,0.9-0.2,1.8-0.5,2.7c-0.4,0.9-0.9,1.6-1.5,2.3c-0.6,0.7-1.4,1.2-2.2,1.6c-0.9,0.4-1.8,0.6-2.8,0.6h-5.5V38.7z M234.5,49.8h0.9
			c0.6,0,1.2-0.1,1.7-0.3c0.5-0.2,0.9-0.5,1.3-0.8c0.3-0.4,0.6-0.8,0.8-1.3c0.2-0.5,0.3-1,0.3-1.6c0-0.6-0.1-1.1-0.3-1.6
			c-0.2-0.5-0.5-0.9-0.8-1.3c-0.3-0.4-0.8-0.6-1.3-0.8c-0.5-0.2-1.1-0.3-1.7-0.3h-0.9V49.8z"/>
		<path d="M249.5,38.7V53h-3.7V38.7H249.5z"/>
		<path d="M255,38.7l3.5,8.7l3.5-8.7h4l-6,14.3h-3l-6-14.3H255z"/>
		<path d="M271.2,38.7V53h-3.7V38.7H271.2z"/>
		<path d="M274.2,38.7h5.5c1,0,1.9,0.2,2.7,0.6c0.9,0.4,1.6,0.9,2.2,1.6c0.6,0.7,1.1,1.4,1.5,2.3c0.4,0.9,0.6,1.8,0.6,2.7
			c0,0.9-0.2,1.8-0.5,2.7c-0.4,0.9-0.9,1.6-1.5,2.3c-0.6,0.7-1.4,1.2-2.2,1.6c-0.9,0.4-1.8,0.6-2.8,0.6h-5.5V38.7z M277.9,49.8h0.9
			c0.6,0,1.2-0.1,1.7-0.3c0.5-0.2,0.9-0.5,1.3-0.8c0.3-0.4,0.6-0.8,0.8-1.3c0.2-0.5,0.3-1,0.3-1.6c0-0.6-0.1-1.1-0.3-1.6
			c-0.2-0.5-0.5-0.9-0.8-1.3c-0.3-0.4-0.8-0.6-1.3-0.8c-0.5-0.2-1.1-0.3-1.7-0.3h-0.9V49.8z"/>
	</g>
	<g class="st15">
		<path d="M292.9,38.7v7.8c0,0.4,0,0.8,0,1.3c0,0.4,0.1,0.8,0.3,1.2c0.2,0.4,0.4,0.6,0.8,0.9c0.3,0.2,0.8,0.3,1.4,0.3
			s1.1-0.1,1.4-0.3c0.3-0.2,0.6-0.5,0.8-0.9c0.2-0.4,0.3-0.8,0.3-1.2c0-0.4,0-0.9,0-1.3v-7.8h3.7V47c0,2.2-0.5,3.9-1.5,4.9
			c-1,1-2.6,1.5-4.7,1.5c-2.1,0-3.7-0.5-4.7-1.5c-1-1-1.5-2.7-1.5-4.9v-8.3H292.9z"/>
	</g>
	<g class="st15">
		<path d="M312.9,50.5h-5.3l-0.9,2.5h-4l5.5-14.3h4.1l5.5,14.3h-4L312.9,50.5z M311.9,47.7l-1.7-4.8l-1.7,4.8H311.9z"/>
		<path d="M323.1,38.7v11.2h4.5V53h-8.2V38.7H323.1z"/>
		<path d="M339.7,38.7V53H336V38.7H339.7z"/>
	</g>
	<g class="st15">
		<path d="M342.7,53V38.7h3.7l6.9,8.8v-8.8h3.7V53h-3.7l-6.9-8.8V53H342.7z"/>
	</g>
	<g class="st15">
		<path d="M370.5,43.5c-0.9-1.1-1.9-1.6-3.2-1.6c-0.6,0-1.1,0.1-1.5,0.3c-0.5,0.2-0.9,0.5-1.2,0.8c-0.3,0.3-0.6,0.8-0.8,1.2
			s-0.3,1-0.3,1.6c0,0.6,0.1,1.1,0.3,1.6c0.2,0.5,0.5,0.9,0.8,1.3c0.3,0.4,0.8,0.6,1.2,0.8c0.5,0.2,1,0.3,1.5,0.3
			c1.2,0,2.3-0.5,3.2-1.5v4.4l-0.4,0.1c-0.6,0.2-1.1,0.4-1.6,0.4c-0.5,0.1-1,0.1-1.5,0.1c-1,0-1.9-0.2-2.8-0.6
			c-0.9-0.4-1.7-0.9-2.4-1.6s-1.2-1.5-1.7-2.4s-0.6-1.9-0.6-3c0-1.1,0.2-2.1,0.6-3c0.4-0.9,1-1.7,1.7-2.4s1.5-1.2,2.4-1.6
			c0.9-0.4,1.9-0.6,2.9-0.6c0.6,0,1.1,0.1,1.7,0.2c0.6,0.1,1.1,0.3,1.7,0.6V43.5z"/>
	</g>
	<g class="st15">
		<path d="M372.4,45.8c0-1.1,0.2-2.1,0.6-3c0.4-0.9,0.9-1.7,1.6-2.4c0.7-0.7,1.5-1.2,2.5-1.6c1-0.4,2-0.6,3.2-0.6
			c1.2,0,2.2,0.2,3.2,0.6c1,0.4,1.8,0.9,2.5,1.6c0.7,0.7,1.3,1.5,1.6,2.4c0.4,0.9,0.6,1.9,0.6,3c0,1.1-0.2,2.1-0.6,3
			c-0.4,0.9-0.9,1.7-1.6,2.4c-0.7,0.7-1.5,1.2-2.5,1.6c-1,0.4-2,0.6-3.2,0.6c-1.2,0-2.2-0.2-3.2-0.6c-1-0.4-1.8-0.9-2.5-1.6
			c-0.7-0.7-1.2-1.5-1.6-2.4C372.6,47.9,372.4,46.9,372.4,45.8z M376.3,45.8c0,0.6,0.1,1.1,0.3,1.6c0.2,0.5,0.5,0.9,0.9,1.3
			c0.4,0.4,0.8,0.6,1.3,0.8c0.5,0.2,1,0.3,1.5,0.3s1.1-0.1,1.5-0.3c0.5-0.2,0.9-0.5,1.3-0.8c0.4-0.4,0.7-0.8,0.9-1.3s0.3-1,0.3-1.6
			s-0.1-1.1-0.3-1.6s-0.5-0.9-0.9-1.3c-0.4-0.4-0.8-0.6-1.3-0.8c-0.5-0.2-1-0.3-1.5-0.3s-1.1,0.1-1.5,0.3c-0.5,0.2-0.9,0.5-1.3,0.8
			c-0.4,0.4-0.7,0.8-0.9,1.3C376.4,44.7,376.3,45.3,376.3,45.8z"/>
		<path d="M390,53l2.4-14.3h3.7l2.9,7.6l2.9-7.6h3.7l2.4,14.3h-3.7l-1.2-8.2l-3.4,8.2h-1.5l-3.2-8.2l-1.2,8.2H390z"/>
		<path d="M418.5,41.8H414v2.4h4.2v3.2H414v2.5h4.4V53h-8.2V38.7h8.2V41.8z"/>
	</g>
	<g class="st15">
		<path d="M426.9,45.8c0-1.1,0.2-2.1,0.6-3c0.4-0.9,0.9-1.7,1.6-2.4c0.7-0.7,1.5-1.2,2.5-1.6c1-0.4,2-0.6,3.2-0.6
			c1.2,0,2.2,0.2,3.2,0.6c1,0.4,1.8,0.9,2.5,1.6c0.7,0.7,1.3,1.5,1.6,2.4c0.4,0.9,0.6,1.9,0.6,3c0,1.1-0.2,2.1-0.6,3
			c-0.4,0.9-0.9,1.7-1.6,2.4c-0.7,0.7-1.5,1.2-2.5,1.6c-1,0.4-2,0.6-3.2,0.6c-1.2,0-2.2-0.2-3.2-0.6c-1-0.4-1.8-0.9-2.5-1.6
			c-0.7-0.7-1.2-1.5-1.6-2.4C427.1,47.9,426.9,46.9,426.9,45.8z M430.8,45.8c0,0.6,0.1,1.1,0.3,1.6c0.2,0.5,0.5,0.9,0.9,1.3
			c0.4,0.4,0.8,0.6,1.3,0.8c0.5,0.2,1,0.3,1.5,0.3s1.1-0.1,1.5-0.3c0.5-0.2,0.9-0.5,1.3-0.8c0.4-0.4,0.7-0.8,0.9-1.3s0.3-1,0.3-1.6
			s-0.1-1.1-0.3-1.6s-0.5-0.9-0.9-1.3c-0.4-0.4-0.8-0.6-1.3-0.8c-0.5-0.2-1-0.3-1.5-0.3s-1.1,0.1-1.5,0.3c-0.5,0.2-0.9,0.5-1.3,0.8
			c-0.4,0.4-0.7,0.8-0.9,1.3C430.9,44.7,430.8,45.3,430.8,45.8z"/>
	</g>
	<g class="st15">
		<path d="M447,38.7l3.5,8.7l3.5-8.7h4L452,53h-3l-6-14.3H447z"/>
		<path d="M467.7,41.8h-4.4v2.4h4.2v3.2h-4.2v2.5h4.4V53h-8.2V38.7h8.2V41.8z"/>
		<path d="M482.3,53h-4.6l-3.6-5.5V53h-3.7V38.7h5.8c0.8,0,1.5,0.1,2.1,0.4c0.6,0.2,1.1,0.6,1.5,1s0.7,0.9,0.9,1.4
			c0.2,0.5,0.3,1.1,0.3,1.7c0,1.1-0.3,2-0.8,2.7c-0.5,0.7-1.3,1.1-2.3,1.4L482.3,53z M474.1,45.1h0.7c0.7,0,1.3-0.2,1.7-0.5
			c0.4-0.3,0.6-0.7,0.6-1.3c0-0.6-0.2-1-0.6-1.3c-0.4-0.3-1-0.5-1.7-0.5h-0.7V45.1z"/>
		<path d="M495.7,41.8V53H492V41.8h-3.1v-3.2h9.8v3.2H495.7z"/>
		<path d="M504.2,38.7V53h-3.7V38.7H504.2z"/>
		<path d="M506.5,53l2.4-14.3h3.7l2.9,7.6l2.9-7.6h3.7l2.4,14.3h-3.7l-1.2-8.2l-3.4,8.2h-1.5l-3.2-8.2l-1.2,8.2H506.5z"/>
		<path d="M535,41.8h-4.4v2.4h4.2v3.2h-4.2v2.5h4.4V53h-8.2V38.7h8.2V41.8z"/>
	</g>
	<g class="st15">
		<path d="M552.3,41.8h-4.5v2.4h4.1v3.2h-4.1V53h-3.7V38.7h8.2V41.8z"/>
	</g>
	<g class="st15">
		<path d="M553.9,45.8c0-1.1,0.2-2.1,0.6-3c0.4-0.9,0.9-1.7,1.6-2.4c0.7-0.7,1.5-1.2,2.5-1.6c1-0.4,2-0.6,3.2-0.6
			c1.2,0,2.2,0.2,3.2,0.6c1,0.4,1.8,0.9,2.5,1.6s1.3,1.5,1.6,2.4c0.4,0.9,0.6,1.9,0.6,3c0,1.1-0.2,2.1-0.6,3
			c-0.4,0.9-0.9,1.7-1.6,2.4c-0.7,0.7-1.5,1.2-2.5,1.6c-1,0.4-2,0.6-3.2,0.6c-1.2,0-2.2-0.2-3.2-0.6c-1-0.4-1.8-0.9-2.5-1.6
			c-0.7-0.7-1.2-1.5-1.6-2.4C554.1,47.9,553.9,46.9,553.9,45.8z M557.8,45.8c0,0.6,0.1,1.1,0.3,1.6c0.2,0.5,0.5,0.9,0.9,1.3
			c0.4,0.4,0.8,0.6,1.3,0.8c0.5,0.2,1,0.3,1.5,0.3c0.5,0,1.1-0.1,1.5-0.3c0.5-0.2,0.9-0.5,1.3-0.8s0.7-0.8,0.9-1.3
			c0.2-0.5,0.3-1,0.3-1.6s-0.1-1.1-0.3-1.6c-0.2-0.5-0.5-0.9-0.9-1.3s-0.8-0.6-1.3-0.8s-1-0.3-1.5-0.3c-0.5,0-1.1,0.1-1.5,0.3
			c-0.5,0.2-0.9,0.5-1.3,0.8c-0.4,0.4-0.7,0.8-0.9,1.3C557.9,44.7,557.8,45.3,557.8,45.8z"/>
		<path d="M584,53h-4.6l-3.6-5.5V53h-3.7V38.7h5.8c0.8,0,1.5,0.1,2.1,0.4c0.6,0.2,1.1,0.6,1.5,1c0.4,0.4,0.7,0.9,0.9,1.4
			c0.2,0.5,0.3,1.1,0.3,1.7c0,1.1-0.3,2-0.8,2.7c-0.5,0.7-1.3,1.1-2.3,1.4L584,53z M575.8,45.1h0.7c0.7,0,1.3-0.2,1.7-0.5
			s0.6-0.7,0.6-1.3c0-0.6-0.2-1-0.6-1.3s-1-0.5-1.7-0.5h-0.7V45.1z"/>
	</g>
	<g class="st15">
		<path d="M594.6,38.7l3.5,8.7l3.5-8.7h4l-6,14.3h-3l-6-14.3H594.6z"/>
	</g>
	<g class="st15">
		<path d="M614.7,50.5h-5.3l-0.9,2.5h-4l5.5-14.3h4.1l5.5,14.3h-4L614.7,50.5z M613.7,47.7l-1.7-4.8l-1.7,4.8H613.7z"/>
		<path d="M633.1,53h-4.6l-3.6-5.5V53h-3.7V38.7h5.8c0.8,0,1.5,0.1,2.1,0.4c0.6,0.2,1.1,0.6,1.5,1s0.7,0.9,0.9,1.4
			c0.2,0.5,0.3,1.1,0.3,1.7c0,1.1-0.3,2-0.8,2.7c-0.5,0.7-1.3,1.1-2.3,1.4L633.1,53z M624.9,45.1h0.7c0.7,0,1.3-0.2,1.7-0.5
			c0.4-0.3,0.6-0.7,0.6-1.3c0-0.6-0.2-1-0.6-1.3c-0.4-0.3-1-0.5-1.7-0.5h-0.7V45.1z"/>
		<path d="M638.4,38.7V53h-3.7V38.7H638.4z"/>
		<path d="M640.7,45.8c0-1.1,0.2-2.1,0.6-3c0.4-0.9,0.9-1.7,1.6-2.4s1.5-1.2,2.5-1.6c1-0.4,2-0.6,3.2-0.6c1.2,0,2.2,0.2,3.2,0.6
			c1,0.4,1.8,0.9,2.5,1.6c0.7,0.7,1.3,1.5,1.6,2.4c0.4,0.9,0.6,1.9,0.6,3c0,1.1-0.2,2.1-0.6,3c-0.4,0.9-0.9,1.7-1.6,2.4
			c-0.7,0.7-1.5,1.2-2.5,1.6c-1,0.4-2,0.6-3.2,0.6c-1.2,0-2.2-0.2-3.2-0.6c-1-0.4-1.8-0.9-2.5-1.6c-0.7-0.7-1.2-1.5-1.6-2.4
			C640.9,47.9,640.7,46.9,640.7,45.8z M644.6,45.8c0,0.6,0.1,1.1,0.3,1.6c0.2,0.5,0.5,0.9,0.9,1.3s0.8,0.6,1.3,0.8
			c0.5,0.2,1,0.3,1.5,0.3c0.5,0,1.1-0.1,1.5-0.3c0.5-0.2,0.9-0.5,1.3-0.8c0.4-0.4,0.7-0.8,0.9-1.3c0.2-0.5,0.3-1,0.3-1.6
			s-0.1-1.1-0.3-1.6c-0.2-0.5-0.5-0.9-0.9-1.3c-0.4-0.4-0.8-0.6-1.3-0.8c-0.5-0.2-1-0.3-1.5-0.3c-0.5,0-1.1,0.1-1.5,0.3
			s-0.9,0.5-1.3,0.8s-0.7,0.8-0.9,1.3C644.7,44.7,644.6,45.3,644.6,45.8z"/>
		<path d="M662.7,38.7v7.8c0,0.4,0,0.8,0,1.3c0,0.4,0.1,0.8,0.3,1.2c0.2,0.4,0.4,0.6,0.8,0.9s0.8,0.3,1.4,0.3c0.6,0,1.1-0.1,1.4-0.3
			c0.3-0.2,0.6-0.5,0.8-0.9c0.2-0.4,0.3-0.8,0.3-1.2c0-0.4,0-0.9,0-1.3v-7.8h3.7V47c0,2.2-0.5,3.9-1.5,4.9c-1,1-2.6,1.5-4.7,1.5
			c-2.1,0-3.7-0.5-4.7-1.5c-1-1-1.5-2.7-1.5-4.9v-8.3H662.7z"/>
		<path d="M682.3,42.3c-0.4-0.3-0.8-0.6-1.2-0.7s-0.8-0.2-1.2-0.2c-0.5,0-0.9,0.1-1.2,0.3c-0.3,0.2-0.5,0.5-0.5,0.9
			c0,0.3,0.1,0.5,0.2,0.6c0.2,0.2,0.4,0.3,0.6,0.4c0.2,0.1,0.5,0.2,0.8,0.3c0.3,0.1,0.6,0.2,0.9,0.3c1.2,0.4,2.1,0.9,2.7,1.6
			s0.8,1.6,0.8,2.7c0,0.7-0.1,1.4-0.4,2s-0.6,1.1-1.1,1.5c-0.5,0.4-1.1,0.8-1.7,1c-0.7,0.2-1.5,0.4-2.3,0.4c-1.8,0-3.5-0.5-5-1.6
			l1.6-3c0.6,0.5,1.1,0.9,1.7,1.1c0.5,0.2,1.1,0.4,1.6,0.4c0.6,0,1.1-0.1,1.4-0.4c0.3-0.3,0.4-0.6,0.4-1c0-0.2,0-0.4-0.1-0.6
			s-0.2-0.3-0.4-0.4c-0.2-0.1-0.4-0.3-0.7-0.4s-0.6-0.2-1-0.4c-0.5-0.2-1-0.3-1.4-0.5c-0.5-0.2-0.9-0.4-1.2-0.7
			c-0.4-0.3-0.7-0.7-0.9-1.1c-0.2-0.5-0.3-1-0.3-1.8c0-0.7,0.1-1.4,0.4-1.9s0.6-1.1,1-1.5c0.4-0.4,0.9-0.7,1.6-1
			c0.6-0.2,1.3-0.3,2.1-0.3c0.7,0,1.5,0.1,2.2,0.3s1.5,0.5,2.2,0.9L682.3,42.3z"/>
		<path d="M696.9,53h-3.7V38.7h5.9c1.6,0,2.8,0.4,3.7,1.3c0.9,0.8,1.3,2,1.3,3.5c0,1.5-0.4,2.7-1.3,3.5c-0.9,0.8-2.1,1.3-3.7,1.3
			h-2.2V53z M696.9,45.2h1.2c1.4,0,2.1-0.6,2.1-1.8s-0.7-1.8-2.1-1.8h-1.2V45.2z"/>
		<path d="M714.2,41.8h-4.4v2.4h4.2v3.2h-4.2v2.5h4.4V53H706V38.7h8.2V41.8z"/>
	</g>
	<g class="st15">
		<path d="M728.8,53h-4.6l-3.6-5.5V53h-3.7V38.7h5.8c0.8,0,1.5,0.1,2.1,0.4s1.1,0.6,1.5,1c0.4,0.4,0.7,0.9,0.9,1.4
			c0.2,0.5,0.3,1.1,0.3,1.7c0,1.1-0.3,2-0.8,2.7s-1.3,1.1-2.3,1.4L728.8,53z M720.6,45.1h0.7c0.7,0,1.3-0.2,1.7-0.5
			c0.4-0.3,0.6-0.7,0.6-1.3c0-0.6-0.2-1-0.6-1.3c-0.4-0.3-1-0.5-1.7-0.5h-0.7V45.1z"/>
	</g>
	<g class="st15">
		<path d="M740.4,43.5c-0.9-1.1-1.9-1.6-3.2-1.6c-0.6,0-1.1,0.1-1.5,0.3c-0.5,0.2-0.9,0.5-1.2,0.8s-0.6,0.8-0.8,1.2s-0.3,1-0.3,1.6
			c0,0.6,0.1,1.1,0.3,1.6c0.2,0.5,0.5,0.9,0.8,1.3s0.8,0.6,1.2,0.8c0.5,0.2,1,0.3,1.5,0.3c1.2,0,2.3-0.5,3.2-1.5v4.4l-0.4,0.1
			c-0.6,0.2-1.1,0.4-1.6,0.4c-0.5,0.1-1,0.1-1.5,0.1c-1,0-1.9-0.2-2.8-0.6c-0.9-0.4-1.7-0.9-2.4-1.6s-1.2-1.5-1.7-2.4
			s-0.6-1.9-0.6-3c0-1.1,0.2-2.1,0.6-3c0.4-0.9,1-1.7,1.7-2.4s1.5-1.2,2.4-1.6c0.9-0.4,1.9-0.6,2.9-0.6c0.6,0,1.1,0.1,1.7,0.2
			c0.6,0.1,1.1,0.3,1.7,0.6V43.5z"/>
		<path d="M750.9,41.8h-4.4v2.4h4.2v3.2h-4.2v2.5h4.4V53h-8.2V38.7h8.2V41.8z"/>
		<path d="M753.6,53V38.7h3.7l6.9,8.8v-8.8h3.7V53h-3.7l-6.9-8.8V53H753.6z"/>
		<path d="M776.3,41.8V53h-3.7V41.8h-3.1v-3.2h9.8v3.2H776.3z"/>
		<path d="M784.8,38.7V53H781V38.7H784.8z"/>
		<path d="M791.5,38.7v11.2h4.5V53h-8.2V38.7H791.5z"/>
		<path d="M806,41.8h-4.4v2.4h4.2v3.2h-4.2v2.5h4.4V53h-8.2V38.7h8.2V41.8z"/>
		<path d="M816.6,42.3c-0.4-0.3-0.8-0.6-1.2-0.7s-0.8-0.2-1.2-0.2c-0.5,0-0.9,0.1-1.2,0.3c-0.3,0.2-0.5,0.5-0.5,0.9
			c0,0.3,0.1,0.5,0.2,0.6c0.2,0.2,0.4,0.3,0.6,0.4c0.2,0.1,0.5,0.2,0.8,0.3c0.3,0.1,0.6,0.2,0.9,0.3c1.2,0.4,2.1,0.9,2.7,1.6
			s0.8,1.6,0.8,2.7c0,0.7-0.1,1.4-0.4,2s-0.6,1.1-1.1,1.5c-0.5,0.4-1.1,0.8-1.7,1c-0.7,0.2-1.5,0.4-2.3,0.4c-1.8,0-3.5-0.5-5-1.6
			l1.6-3c0.6,0.5,1.1,0.9,1.7,1.1c0.5,0.2,1.1,0.4,1.6,0.4c0.6,0,1.1-0.1,1.4-0.4s0.4-0.6,0.4-1c0-0.2,0-0.4-0.1-0.6
			c-0.1-0.2-0.2-0.3-0.4-0.4c-0.2-0.1-0.4-0.3-0.7-0.4s-0.6-0.2-1-0.4c-0.5-0.2-1-0.3-1.4-0.5c-0.5-0.2-0.9-0.4-1.2-0.7
			c-0.4-0.3-0.7-0.7-0.9-1.1c-0.2-0.5-0.3-1-0.3-1.8c0-0.7,0.1-1.4,0.4-1.9s0.6-1.1,1-1.5c0.4-0.4,0.9-0.7,1.6-1
			c0.6-0.2,1.3-0.3,2.1-0.3c0.7,0,1.5,0.1,2.2,0.3c0.8,0.2,1.5,0.5,2.2,0.9L816.6,42.3z"/>
		<path d="M832.2,37.8c-1.5,2.5-2.2,5.4-2.2,8.9c0,0.8,0.1,1.7,0.2,2.5c0.1,0.9,0.3,1.7,0.4,2.5c0.2,0.8,0.4,1.5,0.7,2.2
			c0.3,0.7,0.6,1.3,0.9,1.8l-2.1,1.2c-0.9-1.3-1.6-2.8-2-4.6s-0.7-3.7-0.7-5.7c0-0.9,0.1-1.8,0.2-2.7s0.3-1.8,0.5-2.7
			c0.2-0.9,0.5-1.7,0.9-2.4s0.7-1.5,1.2-2.1L832.2,37.8z"/>
	</g>
	<g class="st15">
		<path d="M834.7,53V38.7h3.7l6.9,8.8v-8.8h3.7V53h-3.7l-6.9-8.8V53H834.7z"/>
	</g>
	<g class="st15">
		<path d="M851.5,45.8c0-1.1,0.2-2.1,0.6-3c0.4-0.9,0.9-1.7,1.6-2.4c0.7-0.7,1.5-1.2,2.5-1.6c1-0.4,2-0.6,3.2-0.6
			c1.2,0,2.2,0.2,3.2,0.6c1,0.4,1.8,0.9,2.5,1.6s1.3,1.5,1.6,2.4c0.4,0.9,0.6,1.9,0.6,3c0,1.1-0.2,2.1-0.6,3
			c-0.4,0.9-0.9,1.7-1.6,2.4c-0.7,0.7-1.5,1.2-2.5,1.6c-1,0.4-2,0.6-3.2,0.6c-1.2,0-2.2-0.2-3.2-0.6c-1-0.4-1.8-0.9-2.5-1.6
			c-0.7-0.7-1.2-1.5-1.6-2.4C851.7,47.9,851.5,46.9,851.5,45.8z M855.4,45.8c0,0.6,0.1,1.1,0.3,1.6c0.2,0.5,0.5,0.9,0.9,1.3
			c0.4,0.4,0.8,0.6,1.3,0.8c0.5,0.2,1,0.3,1.5,0.3c0.5,0,1.1-0.1,1.5-0.3c0.5-0.2,0.9-0.5,1.3-0.8s0.7-0.8,0.9-1.3
			c0.2-0.5,0.3-1,0.3-1.6s-0.1-1.1-0.3-1.6c-0.2-0.5-0.5-0.9-0.9-1.3s-0.8-0.6-1.3-0.8s-1-0.3-1.5-0.3c-0.5,0-1.1,0.1-1.5,0.3
			c-0.5,0.2-0.9,0.5-1.3,0.8c-0.4,0.4-0.7,0.8-0.9,1.3C855.5,44.7,855.4,45.3,855.4,45.8z"/>
		<path d="M869.1,53l2.4-14.3h3.7l2.9,7.6l2.9-7.6h3.7L887,53h-3.7l-1.2-8.2l-3.4,8.2h-1.5l-3.2-8.2l-1.2,8.2H869.1z"/>
		<path d="M893.1,38.7V53h-3.7V38.7H893.1z"/>
	</g>
	<g class="st15">
		<path d="M896.1,53V38.7h3.7l6.9,8.8v-8.8h3.7V53h-3.7l-6.9-8.8V53H896.1z"/>
	</g>
	<g class="st15">
		<path d="M922.3,50.5h-5.3l-0.9,2.5h-4l5.5-14.3h4.1l5.5,14.3h-4L922.3,50.5z M921.3,47.7l-1.7-4.8l-1.7,4.8H921.3z"/>
		<path d="M932.4,38.7v11.2h4.5V53h-8.2V38.7H932.4z"/>
		<path d="M949,38.7v7.8c0,0.4,0,0.8,0,1.3c0,0.4,0.1,0.8,0.3,1.2c0.2,0.4,0.4,0.6,0.8,0.9s0.8,0.3,1.4,0.3c0.6,0,1.1-0.1,1.4-0.3
			c0.3-0.2,0.6-0.5,0.8-0.9c0.2-0.4,0.3-0.8,0.3-1.2c0-0.4,0-0.9,0-1.3v-7.8h3.7V47c0,2.2-0.5,3.9-1.5,4.9c-1,1-2.6,1.5-4.7,1.5
			s-3.7-0.5-4.7-1.5c-1-1-1.5-2.7-1.5-4.9v-8.3H949z"/>
		<path d="M968.6,42.3c-0.4-0.3-0.8-0.6-1.2-0.7c-0.4-0.2-0.8-0.2-1.2-0.2c-0.5,0-0.9,0.1-1.2,0.3c-0.3,0.2-0.5,0.5-0.5,0.9
			c0,0.3,0.1,0.5,0.2,0.6c0.2,0.2,0.4,0.3,0.6,0.4c0.2,0.1,0.5,0.2,0.8,0.3c0.3,0.1,0.6,0.2,0.9,0.3c1.2,0.4,2.1,0.9,2.7,1.6
			c0.6,0.7,0.8,1.6,0.8,2.7c0,0.7-0.1,1.4-0.4,2s-0.6,1.1-1.1,1.5c-0.5,0.4-1.1,0.8-1.7,1c-0.7,0.2-1.5,0.4-2.3,0.4
			c-1.8,0-3.5-0.5-5-1.6l1.6-3c0.6,0.5,1.1,0.9,1.7,1.1c0.5,0.2,1.1,0.4,1.6,0.4c0.6,0,1.1-0.1,1.4-0.4c0.3-0.3,0.4-0.6,0.4-1
			c0-0.2,0-0.4-0.1-0.6c-0.1-0.2-0.2-0.3-0.4-0.4c-0.2-0.1-0.4-0.3-0.7-0.4s-0.6-0.2-1-0.4c-0.5-0.2-1-0.3-1.4-0.5
			c-0.5-0.2-0.9-0.4-1.2-0.7c-0.4-0.3-0.7-0.7-0.9-1.1c-0.2-0.5-0.3-1-0.3-1.8c0-0.7,0.1-1.4,0.4-1.9s0.6-1.1,1-1.5
			c0.4-0.4,0.9-0.7,1.6-1c0.6-0.2,1.3-0.3,2.1-0.3c0.7,0,1.4,0.1,2.2,0.3c0.8,0.2,1.5,0.5,2.2,0.9L968.6,42.3z"/>
		<path d="M973,38.7h5.5c1,0,1.9,0.2,2.7,0.6c0.9,0.4,1.6,0.9,2.2,1.6c0.6,0.7,1.1,1.4,1.5,2.3c0.4,0.9,0.6,1.8,0.6,2.7
			c0,0.9-0.2,1.8-0.5,2.7c-0.4,0.9-0.9,1.6-1.5,2.3c-0.6,0.7-1.4,1.2-2.2,1.6c-0.9,0.4-1.8,0.6-2.8,0.6H973V38.7z M976.8,49.8h0.9
			c0.6,0,1.2-0.1,1.7-0.3c0.5-0.2,0.9-0.5,1.3-0.8s0.6-0.8,0.8-1.3c0.2-0.5,0.3-1,0.3-1.6c0-0.6-0.1-1.1-0.3-1.6
			c-0.2-0.5-0.5-0.9-0.8-1.3c-0.3-0.4-0.8-0.6-1.3-0.8c-0.5-0.2-1.1-0.3-1.7-0.3h-0.9V49.8z"/>
		<path d="M987.5,55.7c1.5-2.5,2.2-5.5,2.2-8.9c0-0.8-0.1-1.6-0.2-2.5c-0.1-0.9-0.3-1.7-0.5-2.5c-0.2-0.8-0.4-1.5-0.7-2.2
			c-0.3-0.7-0.6-1.3-0.9-1.8l2.1-1.2c0.9,1.3,1.6,2.8,2,4.6c0.5,1.7,0.7,3.7,0.7,5.7c0,0.9-0.1,1.8-0.2,2.7
			c-0.1,0.9-0.3,1.8-0.5,2.6c-0.2,0.8-0.5,1.7-0.9,2.4s-0.7,1.5-1.2,2.1L987.5,55.7z"/>
	</g>
</g>
<g class="st15">
	<path d="M1117.7,117.6l-1.1-0.8l2.4-3.3c-0.1,0-0.2,0-0.3,0c-0.1,0-0.2,0-0.2,0c-0.8,0-1.5-0.3-2.1-0.9c-0.6-0.6-0.9-1.4-0.9-2.2
		c0-0.9,0.3-1.7,1-2.4c0.7-0.7,1.5-1,2.4-1c0.9,0,1.7,0.3,2.4,1c0.7,0.6,1,1.4,1,2.3c0,0.8-0.3,1.6-1,2.5L1117.7,117.6z
		 M1116.9,110.3c0,0.5,0.2,1,0.6,1.4c0.4,0.4,0.8,0.6,1.4,0.6c0.5,0,1-0.2,1.3-0.6c0.4-0.4,0.6-0.8,0.6-1.4s-0.2-1-0.6-1.4
		c-0.4-0.4-0.8-0.6-1.4-0.6c-0.5,0-1,0.2-1.3,0.6C1117.1,109.3,1116.9,109.8,1116.9,110.3z"/>
	<path d="M1129.9,108.6h-3.1l-0.5,1.7c0.1,0,0.1,0,0.2,0c0.1,0,0.1,0,0.2,0c1,0,1.8,0.3,2.4,1c0.6,0.7,0.9,1.5,0.9,2.5
		c0,1.1-0.4,1.9-1.1,2.6c-0.7,0.7-1.6,1-2.7,1c-1.3,0-2.4-0.6-3.2-1.9l1.1-1c0.3,0.5,0.6,0.9,1,1.1c0.3,0.2,0.7,0.3,1.2,0.3
		c0.6,0,1.1-0.2,1.5-0.6c0.4-0.4,0.6-1,0.6-1.6c0-0.6-0.2-1.2-0.6-1.6c-0.4-0.4-0.9-0.6-1.5-0.6c-0.7,0-1.3,0.3-1.8,0.9h-0.5
		l1.6-5.3h4.2V108.6z"/>
	<path d="M1133.6,112.3v5h-1.5v-5h-0.6v-1.4h0.6v-2.3h1.5v2.3h1.1v1.4H1133.6z"/>
	<path d="M1136,106.2h1.5v5.2c0.5-0.5,1.1-0.7,1.7-0.7c0.7,0,1.3,0.2,1.7,0.7c0.4,0.4,0.5,1.1,0.5,1.9v3.9h-1.5v-3.8
		c0-0.5-0.1-0.9-0.3-1.1c-0.2-0.2-0.5-0.3-0.9-0.3c-0.5,0-0.9,0.2-1.1,0.5c-0.2,0.3-0.3,0.9-0.3,1.7v3.1h-1.5V106.2z"/>
</g>
<g class="st15">
	<path d="M1117.7,224.6l-1.1-0.8l2.4-3.3c-0.1,0-0.2,0-0.3,0c-0.1,0-0.2,0-0.2,0c-0.8,0-1.5-0.3-2.1-0.9c-0.6-0.6-0.9-1.4-0.9-2.2
		c0-0.9,0.3-1.7,1-2.4c0.7-0.7,1.5-1,2.4-1c0.9,0,1.7,0.3,2.4,1c0.7,0.6,1,1.4,1,2.3c0,0.8-0.3,1.6-1,2.5L1117.7,224.6z
		 M1116.9,217.2c0,0.5,0.2,1,0.6,1.4c0.4,0.4,0.8,0.6,1.4,0.6c0.5,0,1-0.2,1.3-0.6c0.4-0.4,0.6-0.8,0.6-1.4s-0.2-1-0.6-1.4
		c-0.4-0.4-0.8-0.6-1.4-0.6c-0.5,0-1,0.2-1.3,0.6C1117.1,216.3,1116.9,216.7,1116.9,217.2z"/>
	<path d="M1123.5,219.1c0-1.6,0.4-2.9,1.1-3.8c0.7-0.9,1.5-1.3,2.4-1.3s1.8,0.4,2.4,1.3c0.7,1,1.1,2.3,1.1,3.9
		c0,1.6-0.4,2.9-1.1,3.9c-0.7,0.9-1.5,1.3-2.4,1.3s-1.8-0.4-2.4-1.3C1123.8,222.1,1123.5,220.8,1123.5,219.1z M1125,219.1
		c0,1.1,0.2,2,0.6,2.8c0.4,0.7,0.9,1.1,1.5,1.1c0.6,0,1.1-0.4,1.5-1.1c0.4-0.7,0.6-1.6,0.6-2.7s-0.2-2-0.6-2.7
		c-0.4-0.7-0.9-1.1-1.5-1.1c-0.6,0-1.1,0.4-1.5,1.1C1125.2,217.1,1125,218,1125,219.1z"/>
	<path d="M1133.6,219.2v5h-1.5v-5h-0.6v-1.4h0.6v-2.3h1.5v2.3h1.1v1.4H1133.6z"/>
	<path d="M1136,213.2h1.5v5.2c0.5-0.5,1.1-0.7,1.7-0.7c0.7,0,1.3,0.2,1.7,0.7c0.4,0.4,0.5,1.1,0.5,1.9v3.9h-1.5v-3.8
		c0-0.5-0.1-0.9-0.3-1.1c-0.2-0.2-0.5-0.3-0.9-0.3c-0.5,0-0.9,0.2-1.1,0.5c-0.2,0.3-0.3,0.9-0.3,1.7v3.1h-1.5V213.2z"/>
</g>
<g class="st15">
	<path d="M1120.3,322.3h-5v-1.4h7.5l-6.4,10.4l-1.2-0.8L1120.3,322.3z"/>
	<path d="M1129.9,322.3h-3.1l-0.5,1.7c0.1,0,0.1,0,0.2,0c0.1,0,0.1,0,0.2,0c1,0,1.8,0.3,2.4,1c0.6,0.7,0.9,1.5,0.9,2.5
		c0,1.1-0.4,1.9-1.1,2.6c-0.7,0.7-1.6,1-2.7,1c-1.3,0-2.4-0.6-3.2-1.9l1.1-1c0.3,0.5,0.6,0.9,1,1.1c0.3,0.2,0.7,0.3,1.2,0.3
		c0.6,0,1.1-0.2,1.5-0.6c0.4-0.4,0.6-1,0.6-1.6c0-0.6-0.2-1.2-0.6-1.6c-0.4-0.4-0.9-0.6-1.5-0.6c-0.7,0-1.3,0.3-1.8,0.9h-0.5
		l1.6-5.3h4.2V322.3z"/>
	<path d="M1133.6,326v5h-1.5v-5h-0.6v-1.4h0.6v-2.3h1.5v2.3h1.1v1.4H1133.6z"/>
	<path d="M1136,319.9h1.5v5.2c0.5-0.5,1.1-0.7,1.7-0.7c0.7,0,1.3,0.2,1.7,0.7c0.4,0.4,0.5,1.1,0.5,1.9v3.9h-1.5v-3.8
		c0-0.5-0.1-0.9-0.3-1.1c-0.2-0.2-0.5-0.3-0.9-0.3c-0.5,0-0.9,0.2-1.1,0.5c-0.2,0.3-0.3,0.9-0.3,1.7v3.1h-1.5V319.9z"/>
</g>
<g class="st15">
	<path d="M1121.7,389.3h-3.1l-0.5,1.7c0.1,0,0.1,0,0.2,0c0.1,0,0.1,0,0.2,0c1,0,1.8,0.3,2.4,1c0.6,0.7,0.9,1.5,0.9,2.5
		c0,1.1-0.4,1.9-1.1,2.6s-1.6,1-2.7,1c-1.3,0-2.4-0.6-3.2-1.9l1.1-1c0.3,0.5,0.6,0.9,1,1.1c0.3,0.2,0.7,0.3,1.2,0.3
		c0.6,0,1.1-0.2,1.5-0.6c0.4-0.4,0.6-1,0.6-1.6c0-0.6-0.2-1.2-0.6-1.6c-0.4-0.4-0.9-0.6-1.5-0.6c-0.7,0-1.3,0.3-1.8,0.9h-0.5
		l1.6-5.3h4.2V389.3z"/>
	<path d="M1123.5,392.8c0-1.6,0.4-2.9,1.1-3.8c0.7-0.9,1.5-1.3,2.4-1.3c1,0,1.8,0.4,2.4,1.3c0.7,1,1.1,2.3,1.1,3.9
		c0,1.6-0.4,2.9-1.1,3.9c-0.7,0.9-1.5,1.3-2.4,1.3s-1.8-0.4-2.4-1.3C1123.8,395.9,1123.5,394.5,1123.5,392.8z M1125,392.9
		c0,1.1,0.2,2,0.6,2.8c0.4,0.7,0.9,1.1,1.5,1.1c0.6,0,1.1-0.4,1.5-1.1c0.4-0.7,0.6-1.6,0.6-2.7s-0.2-2-0.6-2.7
		c-0.4-0.7-0.9-1.1-1.5-1.1c-0.6,0-1.1,0.4-1.5,1.1C1125.2,390.9,1125,391.8,1125,392.9z"/>
	<path d="M1133.6,393v5h-1.5v-5h-0.6v-1.4h0.6v-2.3h1.5v2.3h1.1v1.4H1133.6z"/>
	<path d="M1136,386.9h1.5v5.2c0.5-0.5,1.1-0.7,1.7-0.7c0.7,0,1.3,0.2,1.7,0.7c0.4,0.4,0.5,1.1,0.5,1.9v3.9h-1.5v-3.8
		c0-0.5-0.1-0.9-0.3-1.1c-0.2-0.2-0.5-0.3-0.9-0.3c-0.5,0-0.9,0.2-1.1,0.5c-0.2,0.3-0.3,0.9-0.3,1.7v3.1h-1.5V386.9z"/>
</g>
<g class="st15">
	<path d="M1118,447.9h3.8v1.4h-6.8l3.5-4.2c0.3-0.4,0.6-0.8,0.9-1.1c0.2-0.3,0.4-0.6,0.5-0.8c0.2-0.4,0.4-0.8,0.4-1.1
		c0-0.5-0.2-0.9-0.5-1.2s-0.7-0.5-1.2-0.5c-1,0-1.6,0.6-1.8,1.8h-1.5c0.2-2.1,1.3-3.2,3.2-3.2c0.9,0,1.7,0.3,2.3,0.9
		c0.6,0.6,0.9,1.3,0.9,2.2c0,0.5-0.1,1.1-0.4,1.6c-0.1,0.3-0.4,0.6-0.6,1c-0.3,0.4-0.6,0.8-1.1,1.3L1118,447.9z"/>
	<path d="M1129.9,440.6h-3.1l-0.5,1.7c0.1,0,0.1,0,0.2,0c0.1,0,0.1,0,0.2,0c1,0,1.8,0.3,2.4,1c0.6,0.7,0.9,1.5,0.9,2.5
		c0,1.1-0.4,1.9-1.1,2.6s-1.6,1-2.7,1c-1.3,0-2.4-0.6-3.2-1.9l1.1-1c0.3,0.5,0.6,0.9,1,1.1c0.3,0.2,0.7,0.3,1.2,0.3
		c0.6,0,1.1-0.2,1.5-0.6c0.4-0.4,0.6-1,0.6-1.6c0-0.6-0.2-1.2-0.6-1.6c-0.4-0.4-0.9-0.6-1.5-0.6c-0.7,0-1.3,0.3-1.8,0.9h-0.5
		l1.6-5.3h4.2V440.6z"/>
	<path d="M1133.6,444.3v5h-1.5v-5h-0.6v-1.4h0.6v-2.3h1.5v2.3h1.1v1.4H1133.6z"/>
	<path d="M1136,438.3h1.5v5.2c0.5-0.5,1.1-0.7,1.7-0.7c0.7,0,1.3,0.2,1.7,0.7c0.4,0.4,0.5,1.1,0.5,1.9v3.9h-1.5v-3.8
		c0-0.5-0.1-0.9-0.3-1.1c-0.2-0.2-0.5-0.3-0.9-0.3c-0.5,0-0.9,0.2-1.1,0.5c-0.2,0.3-0.3,0.9-0.3,1.7v3.1h-1.5V438.3z"/>
</g>
<g class="st15">
	<path d="M1118.3,470.7h-1.7l0.8-1.4h2.4v10.1h-1.5V470.7z"/>
	<path d="M1122.7,474.2c0-1.6,0.4-2.9,1.1-3.8c0.7-0.9,1.5-1.3,2.4-1.3c1,0,1.8,0.4,2.4,1.3c0.7,1,1.1,2.3,1.1,3.9
		c0,1.6-0.4,2.9-1.1,3.9c-0.7,0.9-1.5,1.3-2.4,1.3c-0.9,0-1.8-0.4-2.4-1.3C1123,477.2,1122.7,475.9,1122.7,474.2z M1124.2,474.2
		c0,1.1,0.2,2,0.6,2.8c0.4,0.7,0.9,1.1,1.5,1.1c0.6,0,1.1-0.4,1.5-1.1c0.4-0.7,0.6-1.6,0.6-2.7s-0.2-2-0.6-2.7
		c-0.4-0.7-0.9-1.1-1.5-1.1c-0.6,0-1.1,0.4-1.5,1.1C1124.4,472.3,1124.2,473.2,1124.2,474.2z"/>
	<path d="M1132.8,474.3v5h-1.5v-5h-0.6V473h0.6v-2.3h1.5v2.3h1.1v1.4H1132.8z"/>
	<path d="M1135.2,468.3h1.5v5.2c0.5-0.5,1.1-0.7,1.7-0.7c0.7,0,1.3,0.2,1.7,0.7c0.4,0.4,0.5,1.1,0.5,1.9v3.9h-1.5v-3.8
		c0-0.5-0.1-0.9-0.3-1.1c-0.2-0.2-0.5-0.3-0.9-0.3c-0.5,0-0.9,0.2-1.1,0.5c-0.2,0.3-0.3,0.9-0.3,1.7v3.1h-1.5V468.3z"/>
</g>
</svg>
