<?xml version="1.0" encoding="utf-8"?>
<!-- Generator: Adobe Illustrator 27.2.0, SVG Export Plug-In . SVG Version: 6.00 Build 0)  -->
<svg version="1.1" id="Layer_1" xmlns="http://www.w3.org/2000/svg" xmlns:xlink="http://www.w3.org/1999/xlink" x="0px" y="0px"
	 viewBox="0 0 1284.5 660" style="enable-background:new 0 0 1284.5 660;" xml:space="preserve">
<style type="text/css">
	.st0{fill:#EBF7DE;}
	.st1{font-family:'Futura-Bold';}
	.st2{font-size:12px;}
	.st3{fill:none;}
	.st4{fill:#37A266;}
	.st5{fill:#82CEB7;}
	.st6{enable-background:new    ;}
	.st7{fill:none;stroke:#DDDDDD;stroke-miterlimit:10;}
	.st8{fill:none;stroke:#000000;stroke-miterlimit:10;}
	.st9{fill:none;stroke:#888888;stroke-miterlimit:10;}
	.st10{font-family:'Futura-Medium';}
	.st11{font-size:10px;}
</style>
<rect class="st0" width="1284.5" height="660"/>
<text transform="matrix(1 0 0 1 545.17 620.5)" class="st1 st2">Sum of p</text>
<text transform="matrix(1 0 0 1 602.52 620.5)" class="st1 st2">r</text>
<text transform="matrix(1 0 0 1 608.16 620.5)" class="st1 st2">opo</text>
<text transform="matrix(1 0 0 1 633.37 620.5)" class="st1 st2">r</text>
<text transform="matrix(1 0 0 1 639.19 620.5)" class="st1 st2">t</text>
<text transform="matrix(1 0 0 1 643.83 620.5)" class="st1 st2">ion</text>
<text transform="matrix(6.123234e-17 -1 1 6.123234e-17 78.11 346.9492)" class="st1 st2">St</text>
<text transform="matrix(6.123234e-17 -1 1 6.123234e-17 78.11 334.4805)" class="st1 st2">a</text>
<text transform="matrix(6.123234e-17 -1 1 6.123234e-17 78.11 326.0703)" class="st1 st2">t</text>
<text transform="matrix(6.123234e-17 -1 1 6.123234e-17 78.11 321.4707)" class="st1 st2">e</text>
<g>
	<path pointer-events="none" class="st3" d="M1140.7,107.6h75.2v16.8h-75.2V107.6z"/>
</g>
<g>
	<path class="st4" d="M1142.2,108.5h15.2v15.2h-15.2V108.5z"/>
</g>
<g>
	<path pointer-events="none" class="st3" d="M1140.7,127.4h75.2v16.8h-75.2V127.4z"/>
</g>
<g>
	<path class="st5" d="M1142.2,129.8h15.2V145h-15.2V129.8z"/>
</g>
<g class="st6">
	<path d="M1165.7,140.3l1.6-8.1l2.6,5.9l2.7-5.9l1.4,8.1h-1.2l-0.7-4.6l-2.2,4.9l-2.2-4.9l-0.8,4.6H1165.7z"/>
	<path d="M1178.9,135.6h1.1v4.8h-1.1v-0.5c-0.5,0.4-0.9,0.6-1.5,0.6c-0.7,0-1.2-0.2-1.6-0.7c-0.4-0.5-0.6-1.1-0.6-1.8
		c0-0.7,0.2-1.3,0.6-1.8c0.4-0.5,1-0.7,1.6-0.7c0.6,0,1,0.2,1.5,0.7V135.6z M1176.3,137.9c0,0.5,0.1,0.8,0.4,1.1
		c0.3,0.3,0.6,0.4,0.9,0.4c0.4,0,0.7-0.1,1-0.4c0.3-0.3,0.4-0.7,0.4-1.1s-0.1-0.8-0.4-1.1c-0.2-0.3-0.6-0.4-1-0.4
		c-0.4,0-0.7,0.1-0.9,0.4C1176.4,137.2,1176.3,137.5,1176.3,137.9z"/>
	<path d="M1182.5,132.1v8.2h-1.1v-8.2H1182.5z"/>
	<path d="M1188.2,138.2h-3.4c0,0.4,0.2,0.7,0.4,0.9c0.2,0.2,0.5,0.3,0.9,0.3c0.3,0,0.5-0.1,0.7-0.2c0.2-0.1,0.4-0.4,0.6-0.7l0.9,0.5
		c-0.1,0.2-0.3,0.5-0.5,0.6c-0.2,0.2-0.3,0.3-0.5,0.4c-0.2,0.1-0.4,0.2-0.6,0.2c-0.2,0.1-0.4,0.1-0.7,0.1c-0.7,0-1.3-0.2-1.7-0.7
		c-0.4-0.5-0.6-1.1-0.6-1.8c0-0.8,0.2-1.4,0.6-1.8c0.4-0.5,1-0.7,1.7-0.7c0.7,0,1.3,0.2,1.7,0.7c0.4,0.4,0.6,1.1,0.6,1.8
		L1188.2,138.2z M1187.1,137.3c-0.2-0.6-0.5-0.9-1.1-0.9c-0.1,0-0.3,0-0.4,0.1c-0.1,0-0.2,0.1-0.3,0.2c-0.1,0.1-0.2,0.2-0.2,0.3
		s-0.1,0.2-0.2,0.4H1187.1z"/>
</g>
<path class="st7" d="M115.3,83.5h1000v500h-1000L115.3,83.5L115.3,83.5z"/>
<line class="st8" x1="115.3" y1="583.5" x2="115.3" y2="83.5"/>
<line class="st8" x1="165.3" y1="583.5" x2="165.3" y2="83.5"/>
<line class="st8" x1="215.3" y1="583.5" x2="215.3" y2="83.5"/>
<line class="st8" x1="265.3" y1="583.5" x2="265.3" y2="83.5"/>
<line class="st8" x1="315.3" y1="583.5" x2="315.3" y2="83.5"/>
<line class="st8" x1="365.3" y1="583.5" x2="365.3" y2="83.5"/>
<line class="st8" x1="415.3" y1="583.5" x2="415.3" y2="83.5"/>
<line class="st8" x1="465.3" y1="583.5" x2="465.3" y2="83.5"/>
<line class="st8" x1="515.3" y1="583.5" x2="515.3" y2="83.5"/>
<line class="st8" x1="565.3" y1="583.5" x2="565.3" y2="83.5"/>
<line class="st8" x1="615.3" y1="583.5" x2="615.3" y2="83.5"/>
<line class="st8" x1="665.3" y1="583.5" x2="665.3" y2="83.5"/>
<line class="st8" x1="715.3" y1="583.5" x2="715.3" y2="83.5"/>
<line class="st8" x1="765.3" y1="583.5" x2="765.3" y2="83.5"/>
<line class="st8" x1="815.3" y1="583.5" x2="815.3" y2="83.5"/>
<line class="st8" x1="865.3" y1="583.5" x2="865.3" y2="83.5"/>
<line class="st8" x1="915.3" y1="583.5" x2="915.3" y2="83.5"/>
<line class="st8" x1="965.3" y1="583.5" x2="965.3" y2="83.5"/>
<line class="st8" x1="1015.3" y1="583.5" x2="1015.3" y2="83.5"/>
<line class="st8" x1="1065.3" y1="583.5" x2="1065.3" y2="83.5"/>
<line class="st8" x1="1115.3" y1="583.5" x2="1115.3" y2="83.5"/>
<line class="st9" x1="115.3" y1="583.5" x2="115.3" y2="588.5"/>
<line class="st9" x1="165.3" y1="583.5" x2="165.3" y2="588.5"/>
<line class="st9" x1="215.3" y1="583.5" x2="215.3" y2="588.5"/>
<line class="st9" x1="265.3" y1="583.5" x2="265.3" y2="588.5"/>
<line class="st9" x1="315.3" y1="583.5" x2="315.3" y2="588.5"/>
<line class="st9" x1="365.3" y1="583.5" x2="365.3" y2="588.5"/>
<line class="st9" x1="415.3" y1="583.5" x2="415.3" y2="588.5"/>
<line class="st9" x1="465.3" y1="583.5" x2="465.3" y2="588.5"/>
<line class="st9" x1="515.3" y1="583.5" x2="515.3" y2="588.5"/>
<line class="st9" x1="565.3" y1="583.5" x2="565.3" y2="588.5"/>
<line class="st9" x1="615.3" y1="583.5" x2="615.3" y2="588.5"/>
<line class="st9" x1="665.3" y1="583.5" x2="665.3" y2="588.5"/>
<line class="st9" x1="715.3" y1="583.5" x2="715.3" y2="588.5"/>
<line class="st9" x1="765.3" y1="583.5" x2="765.3" y2="588.5"/>
<line class="st9" x1="815.3" y1="583.5" x2="815.3" y2="588.5"/>
<line class="st9" x1="865.3" y1="583.5" x2="865.3" y2="588.5"/>
<line class="st9" x1="915.3" y1="583.5" x2="915.3" y2="588.5"/>
<line class="st9" x1="965.3" y1="583.5" x2="965.3" y2="588.5"/>
<line class="st9" x1="1015.3" y1="583.5" x2="1015.3" y2="588.5"/>
<line class="st9" x1="1065.3" y1="583.5" x2="1065.3" y2="588.5"/>
<line class="st9" x1="1115.3" y1="583.5" x2="1115.3" y2="588.5"/>
<text transform="matrix(1 0 0 1 115.32 598.5)" class="st10 st11">0%</text>
<text transform="matrix(1 0 0 1 158.09 598.5)" class="st10 st11">5%</text>
<text transform="matrix(1 0 0 1 205.31 598.5)" class="st10 st11">1</text>
<text transform="matrix(1 0 0 1 210.88 598.5)" class="st10 st11">0%</text>
<text transform="matrix(1 0 0 1 255.31 598.5)" class="st10 st11">1</text>
<text transform="matrix(1 0 0 1 260.69 598.5)" class="st10 st11">5%</text>
<text transform="matrix(1 0 0 1 305.31 598.5)" class="st10 st11">20%</text>
<text transform="matrix(1 0 0 1 355.31 598.5)" class="st10 st11">25%</text>
<text transform="matrix(1 0 0 1 405.31 598.5)" class="st10 st11">30%</text>
<text transform="matrix(1 0 0 1 455.31 598.5)" class="st10 st11">35%</text>
<text transform="matrix(1 0 0 1 505.31 598.5)" class="st10 st11">40%</text>
<text transform="matrix(1 0 0 1 555.31 598.5)" class="st10 st11">45%</text>
<text transform="matrix(1 0 0 1 605.31 598.5)" class="st10 st11">50%</text>
<text transform="matrix(1 0 0 1 655.31 598.5)" class="st10 st11">55%</text>
<text transform="matrix(1 0 0 1 705.31 598.5)" class="st10 st11">60%</text>
<text transform="matrix(1 0 0 1 755.31 598.5)" class="st10 st11">65%</text>
<text transform="matrix(1 0 0 1 805.31 598.5)" class="st10 st11">70%</text>
<text transform="matrix(1 0 0 1 855.31 598.5)" class="st10 st11">75%</text>
<text transform="matrix(1 0 0 1 905.31 598.5)" class="st10 st11">80%</text>
<text transform="matrix(1 0 0 1 955.31 598.5)" class="st10 st11">85%</text>
<text transform="matrix(1 0 0 1 1005.31 598.5)" class="st10 st11">90%</text>
<text transform="matrix(1 0 0 1 1055.3101 598.5)" class="st10 st11">95%</text>
<text transform="matrix(1 0 0 1 1089.74 598.5)" class="st10 st11">1</text>
<text transform="matrix(1 0 0 1 1095.3099 598.5)" class="st10 st11">00%</text>
<line class="st9" x1="115.3" y1="583.5" x2="1115.3" y2="583.5"/>
<line class="st9" x1="115.3" y1="87.5" x2="110.3" y2="87.5"/>
<line class="st9" x1="115.3" y1="97.5" x2="110.3" y2="97.5"/>
<line class="st9" x1="115.3" y1="107.5" x2="110.3" y2="107.5"/>
<line class="st9" x1="115.3" y1="117.5" x2="110.3" y2="117.5"/>
<line class="st9" x1="115.3" y1="127.5" x2="110.3" y2="127.5"/>
<line class="st9" x1="115.3" y1="136.5" x2="110.3" y2="136.5"/>
<line class="st9" x1="115.3" y1="146.5" x2="110.3" y2="146.5"/>
<line class="st9" x1="115.3" y1="156.5" x2="110.3" y2="156.5"/>
<line class="st9" x1="115.3" y1="166.5" x2="110.3" y2="166.5"/>
<line class="st9" x1="115.3" y1="176.5" x2="110.3" y2="176.5"/>
<line class="st9" x1="115.3" y1="185.5" x2="110.3" y2="185.5"/>
<line class="st9" x1="115.3" y1="195.5" x2="110.3" y2="195.5"/>
<line class="st9" x1="115.3" y1="205.5" x2="110.3" y2="205.5"/>
<line class="st9" x1="115.3" y1="215.5" x2="110.3" y2="215.5"/>
<line class="st9" x1="115.3" y1="225.5" x2="110.3" y2="225.5"/>
<line class="st9" x1="115.3" y1="234.5" x2="110.3" y2="234.5"/>
<line class="st9" x1="115.3" y1="244.5" x2="110.3" y2="244.5"/>
<line class="st9" x1="115.3" y1="254.5" x2="110.3" y2="254.5"/>
<line class="st9" x1="115.3" y1="264.5" x2="110.3" y2="264.5"/>
<line class="st9" x1="115.3" y1="274.5" x2="110.3" y2="274.5"/>
<line class="st9" x1="115.3" y1="283.5" x2="110.3" y2="283.5"/>
<line class="st9" x1="115.3" y1="293.5" x2="110.3" y2="293.5"/>
<line class="st9" x1="115.3" y1="303.5" x2="110.3" y2="303.5"/>
<line class="st9" x1="115.3" y1="313.5" x2="110.3" y2="313.5"/>
<line class="st9" x1="115.3" y1="323.5" x2="110.3" y2="323.5"/>
<line class="st9" x1="115.3" y1="333.5" x2="110.3" y2="333.5"/>
<line class="st9" x1="115.3" y1="342.5" x2="110.3" y2="342.5"/>
<line class="st9" x1="115.3" y1="352.5" x2="110.3" y2="352.5"/>
<line class="st9" x1="115.3" y1="362.5" x2="110.3" y2="362.5"/>
<line class="st9" x1="115.3" y1="372.5" x2="110.3" y2="372.5"/>
<line class="st9" x1="115.3" y1="382.5" x2="110.3" y2="382.5"/>
<line class="st9" x1="115.3" y1="391.5" x2="110.3" y2="391.5"/>
<line class="st9" x1="115.3" y1="401.5" x2="110.3" y2="401.5"/>
<line class="st9" x1="115.3" y1="411.5" x2="110.3" y2="411.5"/>
<line class="st9" x1="115.3" y1="421.5" x2="110.3" y2="421.5"/>
<line class="st9" x1="115.3" y1="431.5" x2="110.3" y2="431.5"/>
<line class="st9" x1="115.3" y1="440.5" x2="110.3" y2="440.5"/>
<line class="st9" x1="115.3" y1="450.5" x2="110.3" y2="450.5"/>
<line class="st9" x1="115.3" y1="460.5" x2="110.3" y2="460.5"/>
<line class="st9" x1="115.3" y1="470.5" x2="110.3" y2="470.5"/>
<line class="st9" x1="115.3" y1="480.5" x2="110.3" y2="480.5"/>
<line class="st9" x1="115.3" y1="489.5" x2="110.3" y2="489.5"/>
<line class="st9" x1="115.3" y1="499.5" x2="110.3" y2="499.5"/>
<line class="st9" x1="115.3" y1="509.5" x2="110.3" y2="509.5"/>
<line class="st9" x1="115.3" y1="519.5" x2="110.3" y2="519.5"/>
<line class="st9" x1="115.3" y1="529.5" x2="110.3" y2="529.5"/>
<line class="st9" x1="115.3" y1="538.5" x2="110.3" y2="538.5"/>
<line class="st9" x1="115.3" y1="548.5" x2="110.3" y2="548.5"/>
<line class="st9" x1="115.3" y1="558.5" x2="110.3" y2="558.5"/>
<line class="st9" x1="115.3" y1="568.5" x2="110.3" y2="568.5"/>
<line class="st9" x1="115.3" y1="578.5" x2="110.3" y2="578.5"/>
<line class="st9" x1="115.3" y1="83.5" x2="115.3" y2="583.5"/>
<path class="st4" d="M114.8,93.3H328v8.8H114.8V93.3z"/>
<path class="st5" d="M328,93.3h786.8v8.8H328V93.3z"/>
<path class="st4" d="M114.8,83.5h233v8.8h-233L114.8,83.5L114.8,83.5z"/>
<path class="st5" d="M347.8,83.5h767v8.8h-767L347.8,83.5L347.8,83.5z"/>
<path class="st4" d="M114.8,112.9h258.4v8.8H114.8V112.9z"/>
<path class="st5" d="M373.2,112.9h741.6v8.8H373.2V112.9z"/>
<path class="st4" d="M114.8,103.1h261.7v8.8H114.8V103.1z"/>
<path class="st5" d="M376.5,103.1h738.3v8.8H376.5V103.1z"/>
<path class="st4" d="M114.8,122.7h287.9v8.8H114.8V122.7z"/>
<path class="st5" d="M402.7,122.7h712.1v8.8H402.7V122.7z"/>
<path class="st4" d="M114.8,132.5h249.9v8.8H114.8V132.5L114.8,132.5z"/>
<path class="st5" d="M364.7,132.5h750.1v8.8H364.7V132.5L364.7,132.5z"/>
<path class="st4" d="M114.8,142.3h254.4v8.8H114.8V142.3z"/>
<path class="st5" d="M369.2,142.3h745.6v8.8H369.2V142.3z"/>
<path class="st4" d="M114.8,161.9h308.3v8.8H114.8V161.9L114.8,161.9z"/>
<path class="st5" d="M423.1,161.9h691.7v8.8H423.1V161.9L423.1,161.9z"/>
<path class="st4" d="M114.8,152.1h396.1v8.8H114.8V152.1z"/>
<path class="st5" d="M510.9,152.1h603.9v8.8H510.9V152.1z"/>
<path class="st4" d="M114.8,171.7h264.6v8.8H114.8V171.7L114.8,171.7z"/>
<path class="st5" d="M379.4,171.7h735.4v8.8H379.4V171.7L379.4,171.7z"/>
<path class="st4" d="M114.8,181.5h262.3v8.8H114.8V181.5z"/>
<path class="st5" d="M377.1,181.5h737.7v8.8H377.1V181.5z"/>
<path class="st4" d="M114.8,191.3h304.3v8.8H114.8V191.3L114.8,191.3z"/>
<path class="st5" d="M419.1,191.3h695.7v8.8H419.1V191.3L419.1,191.3z"/>
<path class="st4" d="M114.8,210.9H323v8.8H114.8V210.9z"/>
<path class="st5" d="M323,210.9h791.8v8.8H323V210.9z"/>
<path class="st4" d="M114.8,220.8h273.9v8.8H114.8V220.8z"/>
<path class="st5" d="M388.7,220.8h726.1v8.8H388.7V220.8z"/>
<path class="st4" d="M114.8,230.6h239.6v8.8H114.8V230.6L114.8,230.6z"/>
<path class="st5" d="M354.4,230.6h760.4v8.8H354.4V230.6L354.4,230.6z"/>
<path class="st4" d="M114.8,201.1h265.5v8.8H114.8V201.1L114.8,201.1z"/>
<path class="st5" d="M380.3,201.1h734.5v8.8H380.3V201.1L380.3,201.1z"/>
<path class="st4" d="M114.8,240.4h240.3v8.8H114.8V240.4z"/>
<path class="st5" d="M355.1,240.4h759.7v8.8H355.1V240.4z"/>
<path class="st4" d="M114.8,250.2h261.8v8.8H114.8V250.2z"/>
<path class="st5" d="M376.6,250.2h738.2v8.8H376.6V250.2z"/>
<path class="st4" d="M114.8,260h185.6v8.8H114.8V260z"/>
<path class="st5" d="M300.4,260h814.4v8.8H300.4V260z"/>
<path class="st4" d="M114.8,289.4h301.3v8.8H114.8V289.4z"/>
<path class="st5" d="M416.1,289.4h698.7v8.8H416.1V289.4z"/>
<path class="st4" d="M114.8,279.6h295.7v8.8H114.8V279.6z"/>
<path class="st5" d="M410.5,279.6h704.3v8.8H410.5V279.6z"/>
<path class="st4" d="M114.8,269.8h278.5v8.8H114.8V269.8z"/>
<path class="st5" d="M393.3,269.8h721.5v8.8H393.3V269.8z"/>
<path class="st4" d="M114.8,299.2h232.7v8.8H114.8V299.2z"/>
<path class="st5" d="M347.5,299.2h767.3v8.8H347.5V299.2z"/>
<path class="st4" d="M114.8,309h290.3v8.8H114.8V309z"/>
<path class="st5" d="M405.1,309h709.7v8.8H405.1V309z"/>
<path class="st4" d="M114.8,328.6h227.7v8.8H114.8V328.6z"/>
<path class="st5" d="M342.5,328.6h772.3v8.8H342.5V328.6z"/>
<path class="st4" d="M114.8,318.8h268.6v8.8H114.8V318.8z"/>
<path class="st5" d="M383.4,318.8h731.4v8.8H383.4V318.8z"/>
<path class="st4" d="M114.8,338.4h226.3v8.8H114.8V338.4z"/>
<path class="st5" d="M341.1,338.4h773.7v8.8H341.1V338.4z"/>
<path class="st4" d="M114.8,367.8h259.5v8.8H114.8V367.8z"/>
<path class="st5" d="M374.3,367.8h740.5v8.8H374.3V367.8z"/>
<path class="st4" d="M114.8,407h260.6v8.8H114.8V407z"/>
<path class="st5" d="M375.4,407h739.4v8.8H375.4V407z"/>
<path class="st4" d="M114.8,377.6H343v8.8H114.8V377.6z"/>
<path class="st5" d="M343,377.6h771.8v8.8H343V377.6z"/>
<path class="st4" d="M114.8,387.4h257.3v8.8H114.8V387.4z"/>
<path class="st5" d="M372.1,387.4h742.7v8.8H372.1V387.4z"/>
<path class="st4" d="M114.8,397.2h252v8.8h-252L114.8,397.2L114.8,397.2z"/>
<path class="st5" d="M366.8,397.2h748v8.8h-748L366.8,397.2L366.8,397.2z"/>
<path class="st4" d="M114.8,416.8h310.3v8.8H114.8V416.8z"/>
<path class="st5" d="M425.1,416.8h689.7v8.8H425.1V416.8z"/>
<path class="st4" d="M114.8,348.2h271.5v8.8H114.8V348.2z"/>
<path class="st5" d="M386.3,348.2h728.5v8.8H386.3V348.2z"/>
<path class="st4" d="M114.8,358h178.4v8.8H114.8V358z"/>
<path class="st5" d="M293.2,358h821.6v8.8H293.2V358z"/>
<path class="st4" d="M114.8,426.6h257.1v8.8H114.8V426.6z"/>
<path class="st5" d="M371.9,426.6h742.9v8.8H371.9V426.6z"/>
<path class="st4" d="M114.8,436.4h229.9v8.8H114.8V436.4z"/>
<path class="st5" d="M344.7,436.4h770.1v8.8H344.7V436.4z"/>
<path class="st4" d="M114.8,446.2h281.6v8.8H114.8V446.2z"/>
<path class="st5" d="M396.4,446.2h718.4v8.8H396.4V446.2z"/>
<path class="st4" d="M114.8,456h269.8v8.8H114.8V456z"/>
<path class="st5" d="M384.6,456h730.2v8.8H384.6V456z"/>
<path class="st4" d="M114.8,465.8h285.3v8.8H114.8V465.8z"/>
<path class="st5" d="M400.1,465.8h714.7v8.8H400.1V465.8z"/>
<path class="st4" d="M114.8,475.6h244.9v8.8H114.8V475.6z"/>
<path class="st5" d="M359.7,475.6h755.1v8.8H359.7V475.6z"/>
<path class="st4" d="M114.8,485.5h260.1v8.8H114.8V485.5z"/>
<path class="st5" d="M374.9,485.5h739.9v8.8H374.9V485.5z"/>
<path class="st4" d="M114.8,495.2h257.1v8.8H114.8V495.2z"/>
<path class="st5" d="M371.9,495.2h742.9v8.8H371.9V495.2z"/>
<path class="st4" d="M114.8,505.1h227v8.8h-227L114.8,505.1L114.8,505.1z"/>
<path class="st5" d="M341.8,505.1h773v8.8h-773L341.8,505.1L341.8,505.1z"/>
<path class="st4" d="M114.8,514.9H271v8.8H114.8V514.9z"/>
<path class="st5" d="M271,514.9h843.8v8.8H271V514.9z"/>
<path class="st4" d="M114.8,534.5h304.8v8.8H114.8V534.5z"/>
<path class="st5" d="M419.6,534.5h695.2v8.8H419.6V534.5z"/>
<path class="st4" d="M114.8,524.7h270.4v8.8H114.8V524.7z"/>
<path class="st5" d="M385.2,524.7h729.6v8.8H385.2V524.7z"/>
<path class="st4" d="M114.8,544.3h245.3v8.8H114.8V544.3z"/>
<path class="st5" d="M360.1,544.3h754.7v8.8H360.1V544.3z"/>
<path class="st4" d="M114.8,563.9h233.3v8.8H114.8V563.9z"/>
<path class="st5" d="M348.1,563.9h766.7v8.8H348.1V563.9z"/>
<path class="st4" d="M114.8,554.1h269.3v8.8H114.8V554.1z"/>
<path class="st5" d="M384.1,554.1h730.7v8.8H384.1V554.1z"/>
<path class="st4" d="M114.8,573.7H268v8.8H114.8V573.7z"/>
<path class="st5" d="M268,573.7h846.8v8.8H268V573.7z"/>
<g pointer-events="none">
	<g class="st6">
		<path d="M233.8,53h-3.7V38.6h5.9c1.6,0,2.8,0.4,3.7,1.3s1.3,2,1.3,3.5c0,1.5-0.4,2.7-1.3,3.5s-2.1,1.3-3.7,1.3h-2.2V53z
			 M233.8,45.2h1.2c1.4,0,2.1-0.6,2.1-1.8s-0.7-1.8-2.1-1.8h-1.2V45.2z"/>
	</g>
	<g class="st6">
		<path d="M254.8,53h-4.6l-3.6-5.5V53h-3.7V38.6h5.8c0.8,0,1.5,0.1,2.1,0.4c0.6,0.2,1.1,0.6,1.5,1s0.7,0.9,0.9,1.4
			c0.2,0.5,0.3,1.1,0.3,1.7c0,1.1-0.3,2-0.8,2.7c-0.5,0.7-1.3,1.1-2.3,1.4L254.8,53z M246.7,45h0.7c0.7,0,1.3-0.2,1.7-0.5
			c0.4-0.3,0.6-0.7,0.6-1.3c0-0.6-0.2-1-0.6-1.3c-0.4-0.3-1-0.5-1.7-0.5h-0.7V45z"/>
	</g>
	<g class="st6">
		<path d="M255.5,45.8c0-1.1,0.2-2.1,0.6-3c0.4-0.9,0.9-1.7,1.6-2.4c0.7-0.7,1.5-1.2,2.5-1.6c1-0.4,2-0.6,3.2-0.6
			c1.2,0,2.2,0.2,3.2,0.6c1,0.4,1.8,0.9,2.5,1.6c0.7,0.7,1.3,1.5,1.6,2.4c0.4,0.9,0.6,1.9,0.6,3c0,1.1-0.2,2.1-0.6,3
			c-0.4,0.9-0.9,1.7-1.6,2.4c-0.7,0.7-1.5,1.2-2.5,1.6c-1,0.4-2,0.6-3.2,0.6c-1.2,0-2.2-0.2-3.2-0.6c-1-0.4-1.8-0.9-2.5-1.6
			c-0.7-0.7-1.2-1.5-1.6-2.4C255.7,47.8,255.5,46.9,255.5,45.8z M259.4,45.8c0,0.6,0.1,1.1,0.3,1.6c0.2,0.5,0.5,0.9,0.9,1.3
			c0.4,0.4,0.8,0.6,1.3,0.8c0.5,0.2,1,0.3,1.5,0.3s1.1-0.1,1.5-0.3c0.5-0.2,0.9-0.5,1.3-0.8c0.4-0.4,0.7-0.8,0.9-1.3s0.3-1,0.3-1.6
			s-0.1-1.1-0.3-1.6s-0.5-0.9-0.9-1.3c-0.4-0.4-0.8-0.6-1.3-0.8c-0.5-0.2-1-0.3-1.5-0.3s-1.1,0.1-1.5,0.3c-0.5,0.2-0.9,0.5-1.3,0.8
			c-0.4,0.4-0.7,0.8-0.9,1.3C259.5,44.7,259.4,45.2,259.4,45.8z"/>
		<path d="M277.4,53h-3.7V38.6h5.9c1.6,0,2.8,0.4,3.7,1.3s1.3,2,1.3,3.5c0,1.5-0.4,2.7-1.3,3.5s-2.1,1.3-3.7,1.3h-2.2V53z
			 M277.4,45.2h1.2c1.4,0,2.1-0.6,2.1-1.8s-0.7-1.8-2.1-1.8h-1.2V45.2z"/>
		<path d="M286,45.8c0-1.1,0.2-2.1,0.6-3c0.4-0.9,0.9-1.7,1.6-2.4c0.7-0.7,1.5-1.2,2.5-1.6c1-0.4,2-0.6,3.2-0.6
			c1.2,0,2.2,0.2,3.2,0.6c1,0.4,1.8,0.9,2.5,1.6c0.7,0.7,1.3,1.5,1.6,2.4c0.4,0.9,0.6,1.9,0.6,3c0,1.1-0.2,2.1-0.6,3
			c-0.4,0.9-0.9,1.7-1.6,2.4c-0.7,0.7-1.5,1.2-2.5,1.6c-1,0.4-2,0.6-3.2,0.6c-1.2,0-2.2-0.2-3.2-0.6c-1-0.4-1.8-0.9-2.5-1.6
			c-0.7-0.7-1.2-1.5-1.6-2.4C286.1,47.8,286,46.9,286,45.8z M289.8,45.8c0,0.6,0.1,1.1,0.3,1.6c0.2,0.5,0.5,0.9,0.9,1.3
			c0.4,0.4,0.8,0.6,1.3,0.8c0.5,0.2,1,0.3,1.5,0.3s1.1-0.1,1.5-0.3c0.5-0.2,0.9-0.5,1.3-0.8c0.4-0.4,0.7-0.8,0.9-1.3s0.3-1,0.3-1.6
			s-0.1-1.1-0.3-1.6s-0.5-0.9-0.9-1.3c-0.4-0.4-0.8-0.6-1.3-0.8c-0.5-0.2-1-0.3-1.5-0.3s-1.1,0.1-1.5,0.3c-0.5,0.2-0.9,0.5-1.3,0.8
			c-0.4,0.4-0.7,0.8-0.9,1.3C290,44.7,289.8,45.2,289.8,45.8z"/>
	</g>
	<g class="st6">
		<path d="M316.1,53h-4.6l-3.6-5.5V53h-3.7V38.6h5.8c0.8,0,1.5,0.1,2.1,0.4c0.6,0.2,1.1,0.6,1.5,1s0.7,0.9,0.9,1.4
			c0.2,0.5,0.3,1.1,0.3,1.7c0,1.1-0.3,2-0.8,2.7c-0.5,0.7-1.3,1.1-2.3,1.4L316.1,53z M307.9,45h0.7c0.7,0,1.3-0.2,1.7-0.5
			c0.4-0.3,0.6-0.7,0.6-1.3c0-0.6-0.2-1-0.6-1.3c-0.4-0.3-1-0.5-1.7-0.5h-0.7V45z"/>
	</g>
	<g class="st6">
		<path d="M323.1,41.8V53h-3.7V41.8h-3.1v-3.2h9.8v3.2H323.1z"/>
		<path d="M331.5,38.6V53h-3.7V38.6H331.5z"/>
		<path d="M333.9,45.8c0-1.1,0.2-2.1,0.6-3c0.4-0.9,0.9-1.7,1.6-2.4c0.7-0.7,1.5-1.2,2.5-1.6c1-0.4,2-0.6,3.2-0.6
			c1.2,0,2.2,0.2,3.2,0.6c1,0.4,1.8,0.9,2.5,1.6c0.7,0.7,1.3,1.5,1.6,2.4c0.4,0.9,0.6,1.9,0.6,3c0,1.1-0.2,2.1-0.6,3
			c-0.4,0.9-0.9,1.7-1.6,2.4c-0.7,0.7-1.5,1.2-2.5,1.6c-1,0.4-2,0.6-3.2,0.6c-1.2,0-2.2-0.2-3.2-0.6c-1-0.4-1.8-0.9-2.5-1.6
			c-0.7-0.7-1.2-1.5-1.6-2.4C334.1,47.8,333.9,46.9,333.9,45.8z M337.8,45.8c0,0.6,0.1,1.1,0.3,1.6c0.2,0.5,0.5,0.9,0.9,1.3
			c0.4,0.4,0.8,0.6,1.3,0.8c0.5,0.2,1,0.3,1.5,0.3s1.1-0.1,1.5-0.3c0.5-0.2,0.9-0.5,1.3-0.8c0.4-0.4,0.7-0.8,0.9-1.3s0.3-1,0.3-1.6
			s-0.1-1.1-0.3-1.6s-0.5-0.9-0.9-1.3c-0.4-0.4-0.8-0.6-1.3-0.8c-0.5-0.2-1-0.3-1.5-0.3s-1.1,0.1-1.5,0.3c-0.5,0.2-0.9,0.5-1.3,0.8
			c-0.4,0.4-0.7,0.8-0.9,1.3C337.9,44.7,337.8,45.2,337.8,45.8z"/>
		<path d="M352.1,53V38.6h3.7l6.9,8.8v-8.8h3.7V53h-3.7l-6.9-8.8V53H352.1z"/>
		<path d="M375.2,45.8c0-1.1,0.2-2.1,0.6-3c0.4-0.9,0.9-1.7,1.6-2.4c0.7-0.7,1.5-1.2,2.5-1.6c1-0.4,2-0.6,3.2-0.6
			c1.2,0,2.2,0.2,3.2,0.6c1,0.4,1.8,0.9,2.5,1.6c0.7,0.7,1.3,1.5,1.6,2.4c0.4,0.9,0.6,1.9,0.6,3c0,1.1-0.2,2.1-0.6,3
			c-0.4,0.9-0.9,1.7-1.6,2.4c-0.7,0.7-1.5,1.2-2.5,1.6c-1,0.4-2,0.6-3.2,0.6c-1.2,0-2.2-0.2-3.2-0.6c-1-0.4-1.8-0.9-2.5-1.6
			c-0.7-0.7-1.2-1.5-1.6-2.4C375.4,47.8,375.2,46.9,375.2,45.8z M379.1,45.8c0,0.6,0.1,1.1,0.3,1.6c0.2,0.5,0.5,0.9,0.9,1.3
			c0.4,0.4,0.8,0.6,1.3,0.8c0.5,0.2,1,0.3,1.5,0.3s1.1-0.1,1.5-0.3c0.5-0.2,0.9-0.5,1.3-0.8c0.4-0.4,0.7-0.8,0.9-1.3s0.3-1,0.3-1.6
			s-0.1-1.1-0.3-1.6s-0.5-0.9-0.9-1.3c-0.4-0.4-0.8-0.6-1.3-0.8c-0.5-0.2-1-0.3-1.5-0.3s-1.1,0.1-1.5,0.3c-0.5,0.2-0.9,0.5-1.3,0.8
			c-0.4,0.4-0.7,0.8-0.9,1.3C379.2,44.7,379.1,45.2,379.1,45.8z"/>
		<path d="M401.7,41.8h-4.5v2.4h4.1v3.2h-4.1V53h-3.7V38.6h8.2V41.8z"/>
		<path d="M411.5,53l4.1-4.7h-0.1c-0.4,0.2-0.6,0.3-0.9,0.4c-0.2,0-0.4,0.1-0.6,0.1c-0.7,0-1.3-0.1-1.9-0.4
			c-0.6-0.3-1.1-0.6-1.5-1.1c-0.4-0.5-0.8-1-1-1.6c-0.2-0.6-0.4-1.3-0.4-2c0-0.8,0.1-1.5,0.4-2.1s0.7-1.2,1.2-1.7
			c0.5-0.5,1.2-0.9,1.9-1.1c0.7-0.3,1.6-0.4,2.5-0.4c1,0,1.8,0.1,2.5,0.4c0.7,0.3,1.4,0.7,1.9,1.1s0.9,1,1.2,1.7
			c0.3,0.6,0.4,1.3,0.4,2c0,0.8-0.2,1.7-0.5,2.6s-0.9,1.9-1.7,2.8l-3.3,4H411.5z M417.7,43.5c0-0.3-0.1-0.6-0.2-0.9
			s-0.3-0.5-0.5-0.8c-0.2-0.2-0.5-0.4-0.8-0.5c-0.3-0.1-0.6-0.2-0.9-0.2c-0.3,0-0.6,0.1-0.9,0.2s-0.5,0.3-0.8,0.5
			c-0.2,0.2-0.4,0.5-0.5,0.8s-0.2,0.6-0.2,0.9c0,0.3,0.1,0.6,0.2,0.9s0.3,0.5,0.5,0.8c0.2,0.2,0.5,0.4,0.8,0.5s0.6,0.2,0.9,0.2
			c0.3,0,0.6-0.1,0.9-0.2c0.3-0.1,0.5-0.3,0.8-0.5c0.2-0.2,0.4-0.5,0.5-0.8S417.7,43.9,417.7,43.5z"/>
		<path d="M432.4,41.8h-5l-0.2,1.6c0.2,0,0.4,0,0.6-0.1c0.2,0,0.4,0,0.6,0c0.7,0,1.4,0.1,2,0.4c0.6,0.3,1.2,0.6,1.6,1s0.8,1,1,1.6
			c0.3,0.6,0.4,1.3,0.4,2c0,0.8-0.1,1.5-0.4,2.1c-0.3,0.6-0.7,1.1-1.2,1.6c-0.5,0.4-1.2,0.8-1.9,1c-0.7,0.2-1.6,0.4-2.5,0.4
			c-0.9,0-1.7-0.1-2.5-0.3c-0.8-0.2-1.5-0.5-2.2-1l0.6-3.5c0.6,0.5,1.3,1,1.9,1.2c0.7,0.3,1.3,0.4,1.9,0.4c0.8,0,1.4-0.2,1.8-0.6
			c0.4-0.4,0.7-0.9,0.7-1.5c0-0.7-0.3-1.3-0.9-1.7c-0.6-0.4-1.4-0.7-2.3-0.7c-0.4,0-0.9,0-1.3,0.1c-0.5,0.1-0.9,0.2-1.3,0.4l1.2-7.7
			h7.5V41.8z"/>
		<path d="M441.6,41.8V53h-3.7V41.8h-3.1v-3.2h9.8v3.2H441.6z"/>
		<path d="M450.1,44.2h5.4v-5.5h3.7V53h-3.7V47h-5.4V53h-3.7V38.6h3.7V44.2z"/>
		<path d="M472.3,53h-3.7V38.6h5.9c1.6,0,2.8,0.4,3.7,1.3c0.9,0.8,1.3,2,1.3,3.5c0,1.5-0.4,2.7-1.3,3.5c-0.9,0.8-2.1,1.3-3.7,1.3
			h-2.2V53z M472.3,45.2h1.2c1.4,0,2.1-0.6,2.1-1.8s-0.7-1.8-2.1-1.8h-1.2V45.2z"/>
		<path d="M489.6,41.8h-4.4v2.4h4.2v3.2h-4.2v2.5h4.4V53h-8.2V38.6h8.2V41.8z"/>
	</g>
	<g class="st6">
		<path d="M504.2,53h-4.6l-3.6-5.5V53h-3.7V38.6h5.8c0.8,0,1.5,0.1,2.1,0.4c0.6,0.2,1.1,0.6,1.5,1s0.7,0.9,0.9,1.4
			c0.2,0.5,0.3,1.1,0.3,1.7c0,1.1-0.3,2-0.8,2.7c-0.5,0.7-1.3,1.1-2.3,1.4L504.2,53z M496,45h0.7c0.7,0,1.3-0.2,1.7-0.5
			c0.4-0.3,0.6-0.7,0.6-1.3c0-0.6-0.2-1-0.6-1.3c-0.4-0.3-1-0.5-1.7-0.5H496V45z"/>
	</g>
	<g class="st6">
		<path d="M515.8,43.4c-0.9-1.1-1.9-1.6-3.2-1.6c-0.6,0-1.1,0.1-1.5,0.3c-0.5,0.2-0.9,0.5-1.2,0.8c-0.3,0.3-0.6,0.8-0.8,1.2
			s-0.3,1-0.3,1.6c0,0.6,0.1,1.1,0.3,1.6c0.2,0.5,0.5,0.9,0.8,1.3c0.3,0.4,0.8,0.6,1.2,0.8c0.5,0.2,1,0.3,1.5,0.3
			c1.2,0,2.3-0.5,3.2-1.5v4.4l-0.4,0.1c-0.6,0.2-1.1,0.4-1.6,0.4c-0.5,0.1-1,0.1-1.5,0.1c-1,0-1.9-0.2-2.8-0.6
			c-0.9-0.4-1.7-0.9-2.4-1.6s-1.2-1.5-1.7-2.4s-0.6-1.9-0.6-3c0-1.1,0.2-2.1,0.6-3c0.4-0.9,1-1.7,1.7-2.4s1.5-1.2,2.4-1.6
			c0.9-0.4,1.9-0.6,2.9-0.6c0.6,0,1.1,0.1,1.7,0.2c0.6,0.1,1.1,0.3,1.7,0.6V43.4z"/>
		<path d="M526.4,41.8h-4.4v2.4h4.2v3.2h-4.2v2.5h4.4V53h-8.2V38.6h8.2V41.8z"/>
		<path d="M529,53V38.6h3.7l6.9,8.8v-8.8h3.7V53h-3.7l-6.9-8.8V53H529z"/>
		<path d="M551.8,41.8V53h-3.7V41.8H545v-3.2h9.8v3.2H551.8z"/>
		<path d="M560.2,38.6V53h-3.7V38.6H560.2z"/>
		<path d="M566.9,38.6v11.2h4.5V53h-8.2V38.6H566.9z"/>
		<path d="M581.5,41.8H577v2.4h4.2v3.2H577v2.5h4.4V53h-8.2V38.6h8.2V41.8z"/>
		<path d="M594.3,38.6V53h-3.7V38.6H594.3z"/>
	</g>
	<g class="st6">
		<path d="M597.3,53V38.6h3.7l6.9,8.8v-8.8h3.7V53h-3.7l-6.9-8.8V53H597.3z"/>
	</g>
	<g class="st6">
		<path d="M625.1,43.4c-0.9-1.1-1.9-1.6-3.2-1.6c-0.6,0-1.1,0.1-1.5,0.3c-0.5,0.2-0.9,0.5-1.2,0.8c-0.3,0.3-0.6,0.8-0.8,1.2
			s-0.3,1-0.3,1.6c0,0.6,0.1,1.1,0.3,1.6c0.2,0.5,0.5,0.9,0.8,1.3c0.3,0.4,0.8,0.6,1.2,0.8c0.5,0.2,1,0.3,1.5,0.3
			c1.2,0,2.3-0.5,3.2-1.5v4.4l-0.4,0.1c-0.6,0.2-1.1,0.4-1.6,0.4c-0.5,0.1-1,0.1-1.5,0.1c-1,0-1.9-0.2-2.8-0.6
			c-0.9-0.4-1.7-0.9-2.4-1.6s-1.2-1.5-1.7-2.4s-0.6-1.9-0.6-3c0-1.1,0.2-2.1,0.6-3c0.4-0.9,1-1.7,1.7-2.4s1.5-1.2,2.4-1.6
			c0.9-0.4,1.9-0.6,2.9-0.6c0.6,0,1.1,0.1,1.7,0.2c0.6,0.1,1.1,0.3,1.7,0.6V43.4z"/>
	</g>
	<g class="st6">
		<path d="M627.1,45.8c0-1.1,0.2-2.1,0.6-3c0.4-0.9,0.9-1.7,1.6-2.4s1.5-1.2,2.5-1.6c1-0.4,2-0.6,3.2-0.6c1.2,0,2.2,0.2,3.2,0.6
			c1,0.4,1.8,0.9,2.5,1.6c0.7,0.7,1.3,1.5,1.6,2.4c0.4,0.9,0.6,1.9,0.6,3c0,1.1-0.2,2.1-0.6,3c-0.4,0.9-0.9,1.7-1.6,2.4
			c-0.7,0.7-1.5,1.2-2.5,1.6c-1,0.4-2,0.6-3.2,0.6c-1.2,0-2.2-0.2-3.2-0.6c-1-0.4-1.8-0.9-2.5-1.6c-0.7-0.7-1.2-1.5-1.6-2.4
			C627.3,47.8,627.1,46.9,627.1,45.8z M631,45.8c0,0.6,0.1,1.1,0.3,1.6c0.2,0.5,0.5,0.9,0.9,1.3s0.8,0.6,1.3,0.8
			c0.5,0.2,1,0.3,1.5,0.3c0.5,0,1.1-0.1,1.5-0.3c0.5-0.2,0.9-0.5,1.3-0.8c0.4-0.4,0.7-0.8,0.9-1.3c0.2-0.5,0.3-1,0.3-1.6
			s-0.1-1.1-0.3-1.6c-0.2-0.5-0.5-0.9-0.9-1.3c-0.4-0.4-0.8-0.6-1.3-0.8c-0.5-0.2-1-0.3-1.5-0.3c-0.5,0-1.1,0.1-1.5,0.3
			s-0.9,0.5-1.3,0.8s-0.7,0.8-0.9,1.3C631.1,44.7,631,45.2,631,45.8z"/>
		<path d="M644.6,53l2.4-14.3h3.7l2.9,7.6l2.8-7.6h3.7l2.4,14.3h-3.7l-1.2-8.2l-3.4,8.2h-1.5l-3.2-8.2l-1.2,8.2H644.6z"/>
		<path d="M673.1,41.8h-4.4v2.4h4.2v3.2h-4.2v2.5h4.4V53H665V38.6h8.2V41.8z"/>
		<path d="M690.4,41.8H686v2.4h4.2v3.2H686v2.5h4.4V53h-8.2V38.6h8.2V41.8z"/>
		<path d="M701.9,50.5h-5.3l-0.9,2.5h-4l5.5-14.3h4.1l5.5,14.3h-4L701.9,50.5z M700.9,47.6l-1.7-4.8l-1.7,4.8H700.9z"/>
		<path d="M720.2,53h-4.6l-3.6-5.5V53h-3.7V38.6h5.8c0.8,0,1.5,0.1,2.1,0.4c0.6,0.2,1.1,0.6,1.5,1c0.4,0.4,0.7,0.9,0.9,1.4
			c0.2,0.5,0.3,1.1,0.3,1.7c0,1.1-0.3,2-0.8,2.7c-0.5,0.7-1.3,1.1-2.3,1.4L720.2,53z M712,45h0.7c0.7,0,1.3-0.2,1.7-0.5
			s0.6-0.7,0.6-1.3c0-0.6-0.2-1-0.6-1.3s-1-0.5-1.7-0.5H712V45z"/>
		<path d="M721.8,53V38.6h3.7l6.9,8.8v-8.8h3.7V53h-3.7l-6.9-8.8V53H721.8z"/>
		<path d="M747.2,41.8h-4.4v2.4h4.2v3.2h-4.2v2.5h4.4V53h-8.2V38.6h8.2V41.8z"/>
		<path d="M761.8,53h-4.6l-3.6-5.5V53h-3.7V38.6h5.8c0.8,0,1.5,0.1,2.1,0.4s1.1,0.6,1.5,1s0.7,0.9,0.9,1.4c0.2,0.5,0.3,1.1,0.3,1.7
			c0,1.1-0.3,2-0.8,2.7s-1.3,1.1-2.3,1.4L761.8,53z M753.7,45h0.7c0.7,0,1.3-0.2,1.7-0.5s0.6-0.7,0.6-1.3c0-0.6-0.2-1-0.6-1.3
			s-1-0.5-1.7-0.5h-0.7V45z"/>
		<path d="M771.3,42.3c-0.4-0.3-0.8-0.6-1.2-0.7c-0.4-0.2-0.8-0.2-1.2-0.2c-0.5,0-0.9,0.1-1.2,0.3c-0.3,0.2-0.5,0.5-0.5,0.9
			c0,0.3,0.1,0.5,0.2,0.6c0.2,0.2,0.4,0.3,0.6,0.4c0.2,0.1,0.5,0.2,0.8,0.3c0.3,0.1,0.6,0.2,0.9,0.3c1.2,0.4,2.1,0.9,2.7,1.6
			c0.6,0.7,0.8,1.6,0.8,2.7c0,0.7-0.1,1.4-0.4,2s-0.6,1.1-1.1,1.5c-0.5,0.4-1.1,0.8-1.7,1c-0.7,0.2-1.5,0.4-2.3,0.4
			c-1.8,0-3.5-0.5-5-1.6l1.6-3c0.6,0.5,1.1,0.9,1.7,1.1c0.5,0.2,1.1,0.4,1.6,0.4c0.6,0,1.1-0.1,1.4-0.4s0.4-0.6,0.4-1
			c0-0.2,0-0.4-0.1-0.6s-0.2-0.3-0.4-0.4c-0.2-0.1-0.4-0.3-0.7-0.4c-0.3-0.1-0.6-0.2-1-0.4c-0.5-0.2-1-0.3-1.4-0.5
			c-0.5-0.2-0.9-0.4-1.2-0.7c-0.4-0.3-0.7-0.7-0.9-1.1c-0.2-0.5-0.3-1-0.3-1.8c0-0.7,0.1-1.4,0.4-1.9c0.2-0.6,0.6-1.1,1-1.5
			c0.4-0.4,0.9-0.7,1.6-1c0.6-0.2,1.3-0.3,2.1-0.3c0.7,0,1.5,0.1,2.2,0.3s1.5,0.5,2.2,0.9L771.3,42.3z"/>
	</g>
	<g class="st6">
		<path d="M782.1,38.6h5.5c1.3,0,2.3,0.3,3,1c0.7,0.6,1,1.5,1,2.7c0,0.7-0.1,1.3-0.4,1.8c-0.3,0.5-0.7,0.9-1.2,1.2
			c0.5,0.1,1,0.3,1.4,0.5c0.4,0.2,0.7,0.5,0.9,0.8c0.2,0.3,0.4,0.6,0.5,1c0.1,0.4,0.2,0.8,0.2,1.2c0,0.7-0.1,1.3-0.4,1.8
			c-0.2,0.5-0.6,1-1,1.3c-0.4,0.4-0.9,0.6-1.5,0.8c-0.6,0.2-1.3,0.3-2.1,0.3h-6V38.6z M785.9,44.2h0.7c1.2,0,1.7-0.5,1.7-1.4
			s-0.6-1.4-1.7-1.4h-0.7V44.2z M785.9,50.1h0.8c0.9,0,1.6-0.1,2-0.4c0.4-0.2,0.6-0.6,0.6-1.2s-0.2-0.9-0.6-1.2
			c-0.4-0.2-1.1-0.4-2-0.4h-0.8V50.1z"/>
	</g>
	<g class="st6">
		<path d="M797.9,46.1l-5.2-7.4h4.4l2.7,3.9l2.6-3.9h4.4l-5.2,7.4V53h-3.7V46.1z"/>
	</g>
	<g class="st6">
		<path d="M822.5,42.3c-0.4-0.3-0.8-0.6-1.2-0.7s-0.8-0.2-1.2-0.2c-0.5,0-0.9,0.1-1.2,0.3c-0.3,0.2-0.5,0.5-0.5,0.9
			c0,0.3,0.1,0.5,0.2,0.6c0.2,0.2,0.4,0.3,0.6,0.4c0.2,0.1,0.5,0.2,0.8,0.3c0.3,0.1,0.6,0.2,0.9,0.3c1.2,0.4,2.1,0.9,2.7,1.6
			s0.8,1.6,0.8,2.7c0,0.7-0.1,1.4-0.4,2s-0.6,1.1-1.1,1.5c-0.5,0.4-1.1,0.8-1.7,1c-0.7,0.2-1.5,0.4-2.3,0.4c-1.8,0-3.5-0.5-5-1.6
			l1.6-3c0.6,0.5,1.1,0.9,1.7,1.1c0.5,0.2,1.1,0.4,1.6,0.4c0.6,0,1.1-0.1,1.4-0.4s0.4-0.6,0.4-1c0-0.2,0-0.4-0.1-0.6
			c-0.1-0.2-0.2-0.3-0.4-0.4c-0.2-0.1-0.4-0.3-0.7-0.4s-0.6-0.2-1-0.4c-0.5-0.2-1-0.3-1.4-0.5c-0.5-0.2-0.9-0.4-1.2-0.7
			c-0.4-0.3-0.7-0.7-0.9-1.1c-0.2-0.5-0.3-1-0.3-1.8c0-0.7,0.1-1.4,0.4-1.9s0.6-1.1,1-1.5c0.4-0.4,0.9-0.7,1.6-1
			c0.6-0.2,1.3-0.3,2.1-0.3c0.7,0,1.5,0.1,2.2,0.3c0.8,0.2,1.5,0.5,2.2,0.9L822.5,42.3z"/>
	</g>
	<g class="st6">
		<path d="M832.4,41.8V53h-3.7V41.8h-3.1v-3.2h9.8v3.2H832.4z"/>
	</g>
	<g class="st6">
		<path d="M845.2,50.5h-5.3l-0.9,2.5h-4l5.5-14.3h4.1l5.5,14.3h-4L845.2,50.5z M844.3,47.6l-1.7-4.8l-1.7,4.8H844.3z"/>
	</g>
	<g class="st6">
		<path d="M856.5,41.8V53h-3.7V41.8h-3.1v-3.2h9.8v3.2H856.5z"/>
		<path d="M869.4,41.8H865v2.4h4.2v3.2H865v2.5h4.4V53h-8.2V38.6h8.2V41.8z"/>
		<path d="M887.3,50.5H882l-0.9,2.5h-4l5.5-14.3h4.1l5.5,14.3h-4L887.3,50.5z M886.3,47.6l-1.7-4.8l-1.7,4.8H886.3z"/>
		<path d="M893.8,53V38.6h3.7l6.9,8.8v-8.8h3.7V53h-3.7l-6.9-8.8V53H893.8z"/>
		<path d="M911.1,38.6h5.5c1,0,1.9,0.2,2.7,0.6c0.9,0.4,1.6,0.9,2.2,1.6c0.6,0.7,1.1,1.4,1.5,2.3c0.4,0.9,0.6,1.8,0.6,2.7
			c0,0.9-0.2,1.8-0.5,2.7c-0.4,0.9-0.9,1.6-1.5,2.3c-0.6,0.7-1.4,1.2-2.2,1.6c-0.9,0.4-1.8,0.6-2.8,0.6h-5.5V38.6z M914.8,49.8h0.9
			c0.6,0,1.2-0.1,1.7-0.3c0.5-0.2,0.9-0.5,1.3-0.8c0.3-0.4,0.6-0.8,0.8-1.3c0.2-0.5,0.3-1,0.3-1.6c0-0.6-0.1-1.1-0.3-1.6
			c-0.2-0.5-0.5-0.9-0.8-1.3c-0.3-0.4-0.8-0.6-1.3-0.8c-0.5-0.2-1.1-0.3-1.7-0.3h-0.9V49.8z"/>
		<path d="M940.3,42.3c-0.4-0.3-0.8-0.6-1.2-0.7s-0.8-0.2-1.2-0.2c-0.5,0-0.9,0.1-1.2,0.3c-0.3,0.2-0.5,0.5-0.5,0.9
			c0,0.3,0.1,0.5,0.2,0.6c0.2,0.2,0.4,0.3,0.6,0.4c0.2,0.1,0.5,0.2,0.8,0.3c0.3,0.1,0.6,0.2,0.9,0.3c1.2,0.4,2.1,0.9,2.7,1.6
			s0.8,1.6,0.8,2.7c0,0.7-0.1,1.4-0.4,2s-0.6,1.1-1.1,1.5c-0.5,0.4-1.1,0.8-1.7,1c-0.7,0.2-1.5,0.4-2.3,0.4c-1.8,0-3.5-0.5-5-1.6
			l1.6-3c0.6,0.5,1.1,0.9,1.7,1.1c0.5,0.2,1.1,0.4,1.6,0.4c0.6,0,1.1-0.1,1.4-0.4s0.4-0.6,0.4-1c0-0.2,0-0.4-0.1-0.6
			c-0.1-0.2-0.2-0.3-0.4-0.4c-0.2-0.1-0.4-0.3-0.7-0.4s-0.6-0.2-1-0.4c-0.5-0.2-1-0.3-1.4-0.5c-0.5-0.2-0.9-0.4-1.2-0.7
			c-0.4-0.3-0.7-0.7-0.9-1.1c-0.2-0.5-0.3-1-0.3-1.8c0-0.7,0.1-1.4,0.4-1.9s0.6-1.1,1-1.5c0.4-0.4,0.9-0.7,1.6-1
			c0.6-0.2,1.3-0.3,2.1-0.3c0.7,0,1.5,0.1,2.2,0.3c0.8,0.2,1.5,0.5,2.2,0.9L940.3,42.3z"/>
		<path d="M952.9,41.8h-4.4v2.4h4.2v3.2h-4.2v2.5h4.4V53h-8.2V38.6h8.2V41.8z"/>
		<path d="M959.7,45.3l-4.5-6.7h4.6l1.9,3.7l2.4-3.7h4.6l-4.7,6.7l5.3,7.6h-4.5l-2.9-4.7l-3.4,4.7h-4.5L959.7,45.3z"/>
		<path d="M981,38.6V53h-3.7V38.6H981z"/>
		<path d="M984,53V38.6h3.7l6.9,8.8v-8.8h3.7V53h-3.7l-6.9-8.8V53H984z"/>
		<path d="M1018.4,53h-11.5l3.6-3.7c0.9-1,1.7-1.8,2.2-2.5s0.9-1.3,1.2-1.7s0.4-0.8,0.5-1.1c0.1-0.3,0.1-0.5,0.1-0.7
			c0-0.2,0-0.4-0.1-0.6c-0.1-0.2-0.2-0.4-0.3-0.5s-0.3-0.3-0.5-0.4c-0.2-0.1-0.4-0.1-0.7-0.1c-0.5,0-0.9,0.2-1.2,0.5
			c-0.3,0.3-0.4,0.7-0.4,1.2c0,0.1,0,0.3,0.1,0.6h-4.1c0-0.8,0.1-1.6,0.4-2.3c0.3-0.7,0.7-1.3,1.1-1.8s1.1-0.9,1.8-1.1
			c0.7-0.3,1.4-0.4,2.2-0.4c0.8,0,1.5,0.1,2.2,0.4c0.7,0.3,1.3,0.6,1.8,1.1s0.9,1,1.2,1.6c0.3,0.6,0.4,1.3,0.4,2
			c0,0.8-0.2,1.5-0.5,2.2c-0.3,0.7-0.9,1.3-1.6,2l-2.4,2.2h4.6V53z"/>
	</g>
	<g class="st6">
		<path d="M1019.6,45.8c0-1.1,0.1-2.2,0.4-3.1c0.3-0.9,0.7-1.7,1.3-2.4c0.5-0.7,1.2-1.2,1.9-1.5c0.7-0.4,1.6-0.5,2.5-0.5
			c0.9,0,1.7,0.2,2.5,0.5c0.7,0.4,1.4,0.9,1.9,1.5s0.9,1.5,1.2,2.4c0.3,0.9,0.4,2,0.4,3.1c0,1.1-0.1,2.2-0.4,3.1
			c-0.3,0.9-0.7,1.7-1.2,2.4s-1.2,1.2-1.9,1.5s-1.6,0.5-2.5,0.5c-0.9,0-1.7-0.2-2.5-0.5s-1.4-0.9-1.9-1.5c-0.5-0.7-1-1.5-1.3-2.4
			C1019.7,47.9,1019.6,46.9,1019.6,45.8z M1023.3,45.8c0,0.6,0.1,1.2,0.2,1.7s0.3,1,0.5,1.3c0.2,0.4,0.5,0.7,0.8,0.9
			c0.3,0.2,0.6,0.3,1,0.3c0.4,0,0.7-0.1,1-0.3s0.5-0.5,0.8-0.9c0.2-0.4,0.4-0.8,0.5-1.3s0.2-1.1,0.2-1.7c0-0.6-0.1-1.2-0.2-1.7
			s-0.3-1-0.5-1.3c-0.2-0.4-0.5-0.7-0.8-0.9c-0.3-0.2-0.6-0.3-1-0.3c-0.4,0-0.7,0.1-1,0.3c-0.3,0.2-0.5,0.5-0.8,0.9
			c-0.2,0.4-0.4,0.8-0.5,1.3S1023.3,45.1,1023.3,45.8z"/>
	</g>
	<g class="st6">
		<path d="M1036.2,41.8h-2.1v-3.2h5.8V53h-3.7V41.8z"/>
	</g>
	<g class="st6">
		<path d="M1045.7,53l4.1-4.7h-0.1c-0.4,0.2-0.6,0.3-0.9,0.4c-0.2,0-0.4,0.1-0.6,0.1c-0.7,0-1.3-0.1-1.9-0.4
			c-0.6-0.3-1.1-0.6-1.5-1.1c-0.4-0.5-0.8-1-1-1.6c-0.2-0.6-0.4-1.3-0.4-2c0-0.8,0.1-1.5,0.4-2.1c0.3-0.7,0.7-1.2,1.2-1.7
			s1.2-0.9,1.9-1.1c0.7-0.3,1.6-0.4,2.5-0.4c1,0,1.8,0.1,2.5,0.4c0.7,0.3,1.4,0.7,1.9,1.1c0.5,0.5,0.9,1,1.2,1.7s0.4,1.3,0.4,2
			c0,0.8-0.2,1.7-0.5,2.6c-0.4,0.9-0.9,1.9-1.7,2.8l-3.3,4H1045.7z M1051.9,43.5c0-0.3-0.1-0.6-0.2-0.9s-0.3-0.5-0.5-0.8
			c-0.2-0.2-0.5-0.4-0.8-0.5c-0.3-0.1-0.6-0.2-0.9-0.2c-0.3,0-0.6,0.1-0.9,0.2s-0.5,0.3-0.8,0.5c-0.2,0.2-0.4,0.5-0.5,0.8
			c-0.1,0.3-0.2,0.6-0.2,0.9c0,0.3,0.1,0.6,0.2,0.9c0.1,0.3,0.3,0.5,0.5,0.8c0.2,0.2,0.5,0.4,0.8,0.5s0.6,0.2,0.9,0.2
			c0.3,0,0.6-0.1,0.9-0.2c0.3-0.1,0.5-0.3,0.8-0.5c0.2-0.2,0.4-0.5,0.5-0.8S1051.9,43.9,1051.9,43.5z"/>
	</g>
</g>
<g class="st6">
	<path d="M1148.2,93.4c-0.3-0.2-0.5-0.4-0.8-0.5c-0.3-0.1-0.5-0.1-0.7-0.1c-0.3,0-0.6,0.1-0.7,0.2c-0.2,0.1-0.3,0.3-0.3,0.6
		c0,0.2,0,0.3,0.1,0.4c0.1,0.1,0.2,0.2,0.4,0.3c0.2,0.1,0.3,0.1,0.5,0.2c0.2,0.1,0.4,0.1,0.6,0.2c0.8,0.3,1.3,0.6,1.7,1
		c0.4,0.4,0.5,1,0.5,1.7c0,0.5-0.1,0.9-0.2,1.3s-0.4,0.7-0.7,1c-0.3,0.3-0.7,0.5-1.1,0.6c-0.4,0.1-0.9,0.2-1.5,0.2
		c-1.1,0-2.2-0.3-3.2-1l1-1.9c0.4,0.3,0.7,0.5,1,0.7c0.3,0.2,0.7,0.2,1,0.2c0.4,0,0.7-0.1,0.9-0.3c0.2-0.2,0.3-0.4,0.3-0.6
		c0-0.1,0-0.3-0.1-0.4c0-0.1-0.1-0.2-0.2-0.3c-0.1-0.1-0.3-0.2-0.4-0.2c-0.2-0.1-0.4-0.2-0.7-0.2c-0.3-0.1-0.6-0.2-0.9-0.3
		c-0.3-0.1-0.6-0.3-0.8-0.5c-0.2-0.2-0.4-0.4-0.6-0.7s-0.2-0.7-0.2-1.1c0-0.4,0.1-0.9,0.2-1.2s0.4-0.7,0.6-0.9
		c0.3-0.3,0.6-0.5,1-0.6c0.4-0.1,0.8-0.2,1.3-0.2c0.4,0,0.9,0.1,1.4,0.2c0.5,0.1,1,0.3,1.4,0.5L1148.2,93.4z"/>
	<path d="M1152.7,97.4c0,0.9,0.4,1.4,1.3,1.4c0.5,0,0.8-0.2,1.1-0.6h2.1c-0.4,1.4-1.5,2.1-3.2,2.1c-0.5,0-1-0.1-1.4-0.2
		s-0.8-0.4-1.1-0.7c-0.3-0.3-0.5-0.6-0.7-1c-0.2-0.4-0.3-0.8-0.3-1.3c0-0.5,0.1-1,0.2-1.4s0.4-0.8,0.7-1.1s0.7-0.5,1.1-0.7
		c0.4-0.2,0.9-0.2,1.4-0.2c0.5,0,1,0.1,1.4,0.2c0.4,0.2,0.8,0.4,1.1,0.7s0.5,0.7,0.7,1.1s0.2,0.9,0.2,1.4v0.2H1152.7z M1155.2,96.1
		c-0.1-0.3-0.2-0.5-0.4-0.7c-0.2-0.2-0.5-0.3-0.8-0.3c-0.3,0-0.6,0.1-0.8,0.3c-0.2,0.2-0.3,0.4-0.4,0.7H1155.2z"/>
	<path d="M1160.5,96.8l-2.5-2.8h2.8l1.1,1.3l1.1-1.3h2.8l-2.6,2.8l3.1,3.3h-2.9l-1.6-1.8l-1.6,1.8h-2.9L1160.5,96.8z"/>
</g>
<g class="st6">
	<path d="M1169.8,112.6h-2.6v1.8h2.5v1.1h-2.5v3.6h-1.1v-7.5h3.8V112.6z"/>
	<path d="M1175.1,117h-3.4c0,0.4,0.2,0.7,0.4,0.9c0.2,0.2,0.5,0.3,0.9,0.3c0.3,0,0.5-0.1,0.7-0.2c0.2-0.1,0.4-0.4,0.6-0.7l0.9,0.5
		c-0.1,0.2-0.3,0.5-0.5,0.6c-0.2,0.2-0.3,0.3-0.5,0.4c-0.2,0.1-0.4,0.2-0.6,0.2s-0.4,0.1-0.7,0.1c-0.7,0-1.3-0.2-1.7-0.7
		c-0.4-0.5-0.6-1.1-0.6-1.8c0-0.8,0.2-1.4,0.6-1.8c0.4-0.5,1-0.7,1.7-0.7c0.7,0,1.3,0.2,1.7,0.7c0.4,0.4,0.6,1.1,0.6,1.8L1175.1,117
		z M1174,116.1c-0.2-0.6-0.5-0.9-1.1-0.9c-0.1,0-0.3,0-0.4,0.1c-0.1,0-0.2,0.1-0.3,0.2c-0.1,0.1-0.2,0.2-0.2,0.3s-0.1,0.2-0.2,0.4
		H1174z"/>
	<path d="M1176.3,114.3h1.1v0.4c0.2-0.2,0.4-0.4,0.5-0.4c0.2-0.1,0.4-0.1,0.6-0.1c0.5,0,1,0.2,1.3,0.7c0.3-0.5,0.8-0.7,1.4-0.7
		c1.1,0,1.6,0.6,1.6,1.9v2.9h-1.1v-2.6c0-0.5-0.1-0.8-0.2-1c-0.1-0.2-0.3-0.3-0.6-0.3c-0.3,0-0.5,0.1-0.7,0.3
		c-0.1,0.2-0.2,0.6-0.2,1.1v2.5h-1.1v-2.6c0-0.8-0.2-1.3-0.7-1.3c-0.3,0-0.5,0.1-0.7,0.3c-0.1,0.2-0.2,0.6-0.2,1.1v2.5h-1.1V114.3z"
		/>
	<path d="M1187.8,114.3h1.1v4.8h-1.1v-0.5c-0.5,0.4-0.9,0.6-1.5,0.6c-0.7,0-1.2-0.2-1.6-0.7c-0.4-0.5-0.6-1.1-0.6-1.8
		c0-0.7,0.2-1.3,0.6-1.8s1-0.7,1.6-0.7c0.6,0,1,0.2,1.5,0.7V114.3z M1185.1,116.7c0,0.5,0.1,0.8,0.4,1.1c0.3,0.3,0.6,0.4,0.9,0.4
		c0.4,0,0.7-0.1,1-0.4c0.3-0.3,0.4-0.7,0.4-1.1s-0.1-0.8-0.4-1.1c-0.3-0.3-0.6-0.4-1-0.4c-0.4,0-0.7,0.1-0.9,0.4
		C1185.3,115.9,1185.1,116.3,1185.1,116.7z"/>
	<path d="M1191.3,110.8v8.2h-1.1v-8.2H1191.3z"/>
	<path d="M1197.1,117h-3.4c0,0.4,0.2,0.7,0.4,0.9c0.2,0.2,0.5,0.3,0.9,0.3c0.3,0,0.5-0.1,0.7-0.2c0.2-0.1,0.4-0.4,0.6-0.7l0.9,0.5
		c-0.1,0.2-0.3,0.5-0.5,0.6c-0.2,0.2-0.3,0.3-0.5,0.4c-0.2,0.1-0.4,0.2-0.6,0.2s-0.4,0.1-0.7,0.1c-0.7,0-1.3-0.2-1.7-0.7
		c-0.4-0.5-0.6-1.1-0.6-1.8c0-0.8,0.2-1.4,0.6-1.8c0.4-0.5,1-0.7,1.7-0.7c0.7,0,1.3,0.2,1.7,0.7c0.4,0.4,0.6,1.1,0.6,1.8L1197.1,117
		z M1195.9,116.1c-0.2-0.6-0.5-0.9-1.1-0.9c-0.1,0-0.3,0-0.4,0.1c-0.1,0-0.2,0.1-0.3,0.2c-0.1,0.1-0.2,0.2-0.2,0.3s-0.1,0.2-0.2,0.4
		H1195.9z"/>
</g>
<text transform="matrix(1 0 0 1 92.8636 92.3151)" class="st10 st11">AK</text>
<text transform="matrix(1 0 0 1 95.0561 102.1151)" class="st10 st11">AL</text>
<text transform="matrix(1 0 0 1 93.4689 111.9151)" class="st10 st11">AR</text>
<text transform="matrix(1 0 0 1 93.2395 121.7251)" class="st10 st11">AZ</text>
<text transform="matrix(1 0 0 1 92.2994 131.5251)" class="st10 st11">C</text>
<text transform="matrix(1 0 0 1 99.4894 131.5251)" class="st10 st11">A</text>
<text transform="matrix(1 0 0 1 91.0009 141.3251)" class="st10 st11">C</text>
<text transform="matrix(1 0 0 1 97.961 141.3251)" class="st10 st11">O</text>
<text transform="matrix(1 0 0 1 95.0655 151.1351)" class="st10 st11">CT</text>
<text transform="matrix(1 0 0 1 92.6293 160.9351)" class="st10 st11">DC</text>
<text transform="matrix(1 0 0 1 93.9816 170.7451)" class="st10 st11">DE</text>
<text transform="matrix(1 0 0 1 97.3803 180.5451)" class="st10 st11">FL</text>
<text transform="matrix(1 0 0 1 91.4094 190.3451)" class="st10 st11">G</text>
<text transform="matrix(1 0 0 1 99.4893 190.3451)" class="st10 st11">A</text>
<text transform="matrix(1 0 0 1 96.6132 200.1551)" class="st10 st11">HI</text>
<text transform="matrix(1 0 0 1 96.5402 209.9551)" class="st10 st11">IA</text>
<text transform="matrix(1 0 0 1 96.6865 219.7651)" class="st10 st11">ID</text>
<text transform="matrix(1 0 0 1 99.514 229.5651)" class="st10 st11">IL</text>
<text transform="matrix(1 0 0 1 95.5048 239.3651)" class="st10 st11">IN</text>
<text transform="matrix(1 0 0 1 94.7166 249.1751)" class="st10 st11">K</text>
<text transform="matrix(1 0 0 1 101.0666 249.1751)" class="st10 st11">S</text>
<text transform="matrix(1 0 0 1 94.2356 258.9751)" class="st10 st11">KY</text>
<text transform="matrix(1 0 0 1 94.6396 268.7851)" class="st10 st11">L</text>
<text transform="matrix(1 0 0 1 99.4896 268.7851)" class="st10 st11">A</text>
<text transform="matrix(1 0 0 1 89.875 278.5851)" class="st10 st11">MA</text>
<text transform="matrix(1 0 0 1 90.0217 288.3851)" class="st10 st11">MD</text>
<text transform="matrix(1 0 0 1 91.6279 298.1951)" class="st10 st11">ME</text>
<text transform="matrix(1 0 0 1 94.3333 307.9951)" class="st10 st11">MI</text>
<text transform="matrix(1 0 0 1 88.8401 317.8051)" class="st10 st11">MN</text>
<text transform="matrix(1 0 0 1 88.347 327.6051)" class="st10 st11">MO</text>
<text transform="matrix(1 0 0 1 91.4521 337.4051)" class="st10 st11">MS</text>
<text transform="matrix(1 0 0 1 92.4584 347.2151)" class="st10 st11">MT</text>
<text transform="matrix(1 0 0 1 91.3798 357.0151)" class="st10 st11">N</text>
<text transform="matrix(1 0 0 1 99.8898 357.0151)" class="st10 st11">C</text>
<text transform="matrix(1 0 0 1 91.1937 366.8251)" class="st10 st11">ND</text>
<text transform="matrix(1 0 0 1 92.7999 376.6251)" class="st10 st11">NE</text>
<text transform="matrix(1 0 0 1 91.1205 386.4251)" class="st10 st11">NH</text>
<text transform="matrix(1 0 0 1 94.3527 396.2351)" class="st10 st11">NJ</text>
<text transform="matrix(1 0 0 1 88.8401 406.0351)" class="st10 st11">NM</text>
<text transform="matrix(1 0 0 1 91.6915 415.8351)" class="st10 st11">NV</text>
<text transform="matrix(1 0 0 1 92.4191 425.6451)" class="st10 st11">NY</text>
<text transform="matrix(1 0 0 1 90.6269 435.4451)" class="st10 st11">OH</text>
<text transform="matrix(1 0 0 1 91.3351 445.2551)" class="st10 st11">OK</text>
<text transform="matrix(1 0 0 1 91.9404 455.0551)" class="st10 st11">OR</text>
<text transform="matrix(1 0 0 1 94.6397 464.8551)" class="st10 st11">P</text>
<text transform="matrix(1 0 0 1 99.4897 464.8551)" class="st10 st11">A</text>
<text transform="matrix(1 0 0 1 97.9267 474.6651)" class="st10 st11">RI</text>
<text transform="matrix(1 0 0 1 94.0597 484.4651)" class="st10 st11">SC</text>
<text transform="matrix(1 0 0 1 93.8058 494.2751)" class="st10 st11">SD</text>
<text transform="matrix(1 0 0 1 93.6299 504.0751)" class="st10 st11">TN</text>
<text transform="matrix(1 0 0 1 95.8957 513.8751)" class="st10 st11">TX</text>
<text transform="matrix(1 0 0 1 94.6846 523.6851)" class="st10 st11">UT</text>
<text transform="matrix(1 0 0 1 93.3595 533.4851)" class="st10 st11">V</text>
<text transform="matrix(1 0 0 1 99.4894 533.4851)" class="st10 st11">A</text>
<text transform="matrix(1 0 0 1 94.8625 543.2951)" class="st10 st11">V</text>
<text transform="matrix(1 0 0 1 102.0725 543.2951)" class="st10 st11">T</text>
<text transform="matrix(1 0 0 1 89.5192 553.0951)" class="st10 st11">W</text>
<text transform="matrix(1 0 0 1 99.4892 553.0951)" class="st10 st11">A</text>
<text transform="matrix(1 0 0 1 93.3422 562.8951)" class="st10 st11">WI</text>
<text transform="matrix(1 0 0 1 89.5286 572.7051)" class="st10 st11">WV</text>
<text transform="matrix(1 0 0 1 90.2562 582.5051)" class="st10 st11">WY</text>
</svg>
