<?xml version="1.0" encoding="UTF-8"?>
<svg id="Layer_1" data-name="Layer 1" xmlns="http://www.w3.org/2000/svg" viewBox="0 0 1181 559">
  <defs>
    <style>
      .cls-1 {
        letter-spacing: -.07em;
      }

      .cls-2 {
        letter-spacing: -.08em;
      }

      .cls-3 {
        letter-spacing: -.09em;
      }

      .cls-4 {
        letter-spacing: -.05em;
      }

      .cls-5 {
        letter-spacing: -.15em;
      }

      .cls-6 {
        letter-spacing: -.08em;
      }

      .cls-7 {
        letter-spacing: -.04em;
      }

      .cls-8 {
        letter-spacing: -.04em;
      }

      .cls-9 {
        letter-spacing: 0em;
      }

      .cls-10 {
        letter-spacing: -.08em;
      }

      .cls-11 {
        fill: green;
      }

      .cls-12 {
        fill: #ebf7de;
      }

      .cls-13 {
        letter-spacing: -.06em;
      }

      .cls-14 {
        letter-spacing: .01em;
      }

      .cls-15 {
        letter-spacing: -.09em;
      }

      .cls-16 {
        letter-spacing: -.01em;
      }

      .cls-17 {
        letter-spacing: 0em;
      }

      .cls-18 {
        letter-spacing: 0em;
      }

      .cls-19 {
        letter-spacing: .01em;
      }

      .cls-20 {
        letter-spacing: 0em;
      }

      .cls-21 {
        fill: #fff;
      }

      .cls-21, .cls-22 {
        opacity: .7;
      }

      .cls-21, .cls-22, .cls-23, .cls-24, .cls-25 {
        isolation: isolate;
      }

      .cls-26 {
        letter-spacing: -.08em;
      }

      .cls-27 {
        letter-spacing: 0em;
      }

      .cls-28 {
        letter-spacing: -.01em;
      }

      .cls-29 {
        letter-spacing: 0em;
      }

      .cls-30, .cls-31, .cls-32, .cls-22, .cls-33 {
        fill: none;
        stroke-miterlimit: 10;
      }

      .cls-30, .cls-22 {
        stroke: green;
      }

      .cls-31 {
        stroke: #888;
      }

      .cls-32 {
        stroke: #ddd;
      }

      .cls-34 {
        letter-spacing: 0em;
      }

      .cls-35 {
        letter-spacing: .02em;
      }

      .cls-36 {
        letter-spacing: 0em;
      }

      .cls-37 {
        opacity: .43;
      }

      .cls-38 {
        letter-spacing: -.04em;
      }

      .cls-39 {
        letter-spacing: .01em;
      }

      .cls-40 {
        letter-spacing: -.04em;
      }

      .cls-41 {
        letter-spacing: -.02em;
      }

      .cls-42 {
        letter-spacing: -.08em;
      }

      .cls-22 {
        stroke-width: 2px;
      }

      .cls-43 {
        letter-spacing: -.03em;
      }

      .cls-23 {
        font-family: Futura-Medium, Futura;
        font-size: 10px;
        font-weight: 500;
      }

      .cls-44 {
        letter-spacing: -.03em;
      }

      .cls-24 {
        font-size: 12px;
      }

      .cls-24, .cls-25 {
        font-family: Futura-Bold, Futura;
        font-weight: 700;
      }

      .cls-45 {
        letter-spacing: -.03em;
      }

      .cls-25 {
        font-size: 19px;
      }

      .cls-33 {
        stroke: #000;
        stroke-width: .5px;
      }
    </style>
  </defs>
  <rect class="cls-12" width="1181" height="559"/>
  <g pointer-events="none">
    <text class="cls-24" transform="translate(531.33 520.5)"><tspan class="cls-8" x="0" y="0">1</tspan><tspan class="cls-27" x="7.68" y="0">0</tspan><tspan class="cls-35" x="15.84" y="0">t</tspan><tspan x="20.59" y="0">h </tspan><tspan class="cls-16" x="32.64" y="0">P</tspan><tspan class="cls-17" x="40.63" y="0">e</tspan><tspan class="cls-36" x="48.4" y="0">r</tspan><tspan x="54.05" y="0">cen</tspan><tspan class="cls-39" x="75.66" y="0">t</tspan><tspan class="cls-27" x="80.3" y="0">ile Income</tspan></text>
  </g>
  <g pointer-events="none">
    <text class="cls-24" transform="translate(72.76 294.12) rotate(-90)"><tspan class="cls-10" x="0" y="0">Y</tspan><tspan x="7.7" y="0">ear</tspan></text>
  </g>
  <g>
    <path class="cls-32" d="m118.77,82.5h1000v400H118.77V82.5Z"/>
    <g class="cls-37">
      <g pointer-events="none">
        <line class="cls-33" x1="118.77" y1="482.5" x2="118.77" y2="82.5"/>
        <line class="cls-33" x1="149.77" y1="482.5" x2="149.77" y2="82.5"/>
        <line class="cls-33" x1="180.77" y1="482.5" x2="180.77" y2="82.5"/>
        <line class="cls-33" x1="210.77" y1="482.5" x2="210.77" y2="82.5"/>
        <line class="cls-33" x1="241.77" y1="482.5" x2="241.77" y2="82.5"/>
        <line class="cls-33" x1="272.77" y1="482.5" x2="272.77" y2="82.5"/>
        <line class="cls-33" x1="303.77" y1="482.5" x2="303.77" y2="82.5"/>
        <line class="cls-33" x1="333.77" y1="482.5" x2="333.77" y2="82.5"/>
        <line class="cls-33" x1="364.77" y1="482.5" x2="364.77" y2="82.5"/>
        <line class="cls-33" x1="395.77" y1="482.5" x2="395.77" y2="82.5"/>
        <line class="cls-33" x1="426.77" y1="482.5" x2="426.77" y2="82.5"/>
        <line class="cls-33" x1="456.77" y1="482.5" x2="456.77" y2="82.5"/>
        <line class="cls-33" x1="487.77" y1="482.5" x2="487.77" y2="82.5"/>
        <line class="cls-33" x1="518.77" y1="482.5" x2="518.77" y2="82.5"/>
        <line class="cls-33" x1="549.77" y1="482.5" x2="549.77" y2="82.5"/>
        <line class="cls-33" x1="580.77" y1="482.5" x2="580.77" y2="82.5"/>
        <line class="cls-33" x1="610.77" y1="482.5" x2="610.77" y2="82.5"/>
        <line class="cls-33" x1="641.77" y1="482.5" x2="641.77" y2="82.5"/>
        <line class="cls-33" x1="672.77" y1="482.5" x2="672.77" y2="82.5"/>
        <line class="cls-33" x1="703.77" y1="482.5" x2="703.77" y2="82.5"/>
        <line class="cls-33" x1="733.77" y1="482.5" x2="733.77" y2="82.5"/>
        <line class="cls-33" x1="764.77" y1="482.5" x2="764.77" y2="82.5"/>
        <line class="cls-33" x1="795.77" y1="482.5" x2="795.77" y2="82.5"/>
        <line class="cls-33" x1="826.77" y1="482.5" x2="826.77" y2="82.5"/>
        <line class="cls-33" x1="856.77" y1="482.5" x2="856.77" y2="82.5"/>
        <line class="cls-33" x1="887.77" y1="482.5" x2="887.77" y2="82.5"/>
        <line class="cls-33" x1="918.77" y1="482.5" x2="918.77" y2="82.5"/>
        <line class="cls-33" x1="949.77" y1="482.5" x2="949.77" y2="82.5"/>
        <line class="cls-33" x1="980.77" y1="482.5" x2="980.77" y2="82.5"/>
        <line class="cls-33" x1="1010.77" y1="482.5" x2="1010.77" y2="82.5"/>
        <line class="cls-33" x1="1041.77" y1="482.5" x2="1041.77" y2="82.5"/>
        <line class="cls-33" x1="1072.77" y1="482.5" x2="1072.77" y2="82.5"/>
        <line class="cls-33" x1="1103.77" y1="482.5" x2="1103.77" y2="82.5"/>
      </g>
    </g>
    <g pointer-events="none">
      <line class="cls-31" x1="118.77" y1="482.5" x2="118.77" y2="487.5"/>
      <line class="cls-31" x1="149.77" y1="482.5" x2="149.77" y2="487.5"/>
      <line class="cls-31" x1="180.77" y1="482.5" x2="180.77" y2="487.5"/>
      <line class="cls-31" x1="210.77" y1="482.5" x2="210.77" y2="487.5"/>
      <line class="cls-31" x1="241.77" y1="482.5" x2="241.77" y2="487.5"/>
      <line class="cls-31" x1="272.77" y1="482.5" x2="272.77" y2="487.5"/>
      <line class="cls-31" x1="303.77" y1="482.5" x2="303.77" y2="487.5"/>
      <line class="cls-31" x1="333.77" y1="482.5" x2="333.77" y2="487.5"/>
      <line class="cls-31" x1="364.77" y1="482.5" x2="364.77" y2="487.5"/>
      <line class="cls-31" x1="395.77" y1="482.5" x2="395.77" y2="487.5"/>
      <line class="cls-31" x1="426.77" y1="482.5" x2="426.77" y2="487.5"/>
      <line class="cls-31" x1="456.77" y1="482.5" x2="456.77" y2="487.5"/>
      <line class="cls-31" x1="487.77" y1="482.5" x2="487.77" y2="487.5"/>
      <line class="cls-31" x1="518.77" y1="482.5" x2="518.77" y2="487.5"/>
      <line class="cls-31" x1="549.77" y1="482.5" x2="549.77" y2="487.5"/>
      <line class="cls-31" x1="580.77" y1="482.5" x2="580.77" y2="487.5"/>
      <line class="cls-31" x1="610.77" y1="482.5" x2="610.77" y2="487.5"/>
      <line class="cls-31" x1="641.77" y1="482.5" x2="641.77" y2="487.5"/>
      <line class="cls-31" x1="672.77" y1="482.5" x2="672.77" y2="487.5"/>
      <line class="cls-31" x1="703.77" y1="482.5" x2="703.77" y2="487.5"/>
      <line class="cls-31" x1="733.77" y1="482.5" x2="733.77" y2="487.5"/>
      <line class="cls-31" x1="764.77" y1="482.5" x2="764.77" y2="487.5"/>
      <line class="cls-31" x1="795.77" y1="482.5" x2="795.77" y2="487.5"/>
      <line class="cls-31" x1="826.77" y1="482.5" x2="826.77" y2="487.5"/>
      <line class="cls-31" x1="856.77" y1="482.5" x2="856.77" y2="487.5"/>
      <line class="cls-31" x1="887.77" y1="482.5" x2="887.77" y2="487.5"/>
      <line class="cls-31" x1="918.77" y1="482.5" x2="918.77" y2="487.5"/>
      <line class="cls-31" x1="949.77" y1="482.5" x2="949.77" y2="487.5"/>
      <line class="cls-31" x1="980.77" y1="482.5" x2="980.77" y2="487.5"/>
      <line class="cls-31" x1="1010.77" y1="482.5" x2="1010.77" y2="487.5"/>
      <line class="cls-31" x1="1041.77" y1="482.5" x2="1041.77" y2="487.5"/>
      <line class="cls-31" x1="1072.77" y1="482.5" x2="1072.77" y2="487.5"/>
      <line class="cls-31" x1="1103.77" y1="482.5" x2="1103.77" y2="487.5"/>
    </g>
    <g pointer-events="none">
      <text class="cls-23" transform="translate(118.77 497.5)"><tspan x="0" y="0">0</tspan></text>
      <text class="cls-23" transform="translate(141.19 497.5)"><tspan x="0" y="0">200</tspan></text>
      <text class="cls-23" transform="translate(171.96 497.5)"><tspan x="0" y="0">400</tspan></text>
      <text class="cls-23" transform="translate(202.73 497.5)"><tspan x="0" y="0">600</tspan></text>
      <text class="cls-23" transform="translate(233.5 497.5)"><tspan x="0" y="0">800</tspan></text>
      <text class="cls-23" transform="translate(260.1 497.5)"><tspan class="cls-4" x="0" y="0">1</tspan><tspan x="5.71" y="0">,000</tspan></text>
      <text class="cls-23" transform="translate(290.87 497.5)"><tspan class="cls-4" x="0" y="0">1</tspan><tspan x="5.71" y="0">,200</tspan></text>
      <text class="cls-23" transform="translate(321.64 497.5)"><tspan class="cls-4" x="0" y="0">1</tspan><tspan x="5.71" y="0">,400</tspan></text>
      <text class="cls-23" transform="translate(352.41 497.5)"><tspan class="cls-4" x="0" y="0">1</tspan><tspan x="5.71" y="0">,600</tspan></text>
      <text class="cls-23" transform="translate(383.18 497.5)"><tspan class="cls-4" x="0" y="0">1</tspan><tspan x="5.71" y="0">,800</tspan></text>
      <text class="cls-23" transform="translate(413.95 497.5)"><tspan x="0" y="0">2,000</tspan></text>
      <text class="cls-23" transform="translate(444.72 497.5)"><tspan x="0" y="0">2,200</tspan></text>
      <text class="cls-23" transform="translate(475.49 497.5)"><tspan x="0" y="0">2,400</tspan></text>
      <text class="cls-23" transform="translate(506.25 497.5)"><tspan x="0" y="0">2,600</tspan></text>
      <text class="cls-23" transform="translate(537.02 497.5)"><tspan x="0" y="0">2,800</tspan></text>
      <text class="cls-23" transform="translate(567.79 497.5)"><tspan x="0" y="0">3,000</tspan></text>
      <text class="cls-23" transform="translate(598.56 497.5)"><tspan x="0" y="0">3,200</tspan></text>
      <text class="cls-23" transform="translate(629.33 497.5)"><tspan x="0" y="0">3,400</tspan></text>
      <text class="cls-23" transform="translate(660.1 497.5)"><tspan x="0" y="0">3,600</tspan></text>
      <text class="cls-23" transform="translate(690.87 497.5)"><tspan x="0" y="0">3,800</tspan></text>
      <text class="cls-23" transform="translate(721.64 497.5)"><tspan x="0" y="0">4,000</tspan></text>
      <text class="cls-23" transform="translate(752.41 497.5)"><tspan x="0" y="0">4,200</tspan></text>
      <text class="cls-23" transform="translate(783.18 497.5)"><tspan x="0" y="0">4,400</tspan></text>
      <text class="cls-23" transform="translate(813.95 497.5)"><tspan x="0" y="0">4,600</tspan></text>
      <text class="cls-23" transform="translate(844.72 497.5)"><tspan x="0" y="0">4,800</tspan></text>
      <text class="cls-23" transform="translate(875.49 497.5)"><tspan x="0" y="0">5,000</tspan></text>
      <text class="cls-23" transform="translate(906.25 497.5)"><tspan x="0" y="0">5,200</tspan></text>
      <text class="cls-23" transform="translate(937.02 497.5)"><tspan x="0" y="0">5,400</tspan></text>
      <text class="cls-23" transform="translate(967.79 497.5)"><tspan x="0" y="0">5,600</tspan></text>
      <text class="cls-23" transform="translate(998.56 497.5)"><tspan x="0" y="0">5,800</tspan></text>
      <text class="cls-23" transform="translate(1029.33 497.5)"><tspan x="0" y="0">6,000</tspan></text>
      <text class="cls-23" transform="translate(1060.1 497.5)"><tspan x="0" y="0">6,200</tspan></text>
      <text class="cls-23" transform="translate(1090.87 497.5)"><tspan x="0" y="0">6,400</tspan></text>
    </g>
    <g pointer-events="none">
      <line class="cls-31" x1="118.77" y1="482.5" x2="1118.77" y2="482.5"/>
    </g>
    <g pointer-events="none">
      <line class="cls-31" x1="118.77" y1="95.5" x2="113.77" y2="95.5"/>
      <line class="cls-31" x1="118.77" y1="122.5" x2="113.77" y2="122.5"/>
      <line class="cls-31" x1="118.77" y1="148.5" x2="113.77" y2="148.5"/>
      <line class="cls-31" x1="118.77" y1="175.5" x2="113.77" y2="175.5"/>
      <line class="cls-31" x1="118.77" y1="202.5" x2="113.77" y2="202.5"/>
      <line class="cls-31" x1="118.77" y1="228.5" x2="113.77" y2="228.5"/>
      <line class="cls-31" x1="118.77" y1="255.5" x2="113.77" y2="255.5"/>
      <line class="cls-31" x1="118.77" y1="282.5" x2="113.77" y2="282.5"/>
      <line class="cls-31" x1="118.77" y1="308.5" x2="113.77" y2="308.5"/>
      <line class="cls-31" x1="118.77" y1="335.5" x2="113.77" y2="335.5"/>
      <line class="cls-31" x1="118.77" y1="362.5" x2="113.77" y2="362.5"/>
      <line class="cls-31" x1="118.77" y1="388.5" x2="113.77" y2="388.5"/>
      <line class="cls-31" x1="118.77" y1="415.5" x2="113.77" y2="415.5"/>
      <line class="cls-31" x1="118.77" y1="442.5" x2="113.77" y2="442.5"/>
      <line class="cls-31" x1="118.77" y1="468.5" x2="113.77" y2="468.5"/>
    </g>
    <g pointer-events="none">
      <text class="cls-23" transform="translate(89.52 98.33)"><tspan x="0" y="0">2005</tspan></text>
      <text class="cls-23" transform="translate(89.52 125)"><tspan x="0" y="0">2006</tspan></text>
      <text class="cls-23" transform="translate(89.52 151.67)"><tspan x="0" y="0">20</tspan><tspan class="cls-43" x="12.34" y="0">0</tspan><tspan x="18.19" y="0">7</tspan></text>
      <text class="cls-23" transform="translate(89.52 178.33)"><tspan x="0" y="0">2008</tspan></text>
      <text class="cls-23" transform="translate(89.52 205)"><tspan x="0" y="0">2009</tspan></text>
      <text class="cls-23" transform="translate(89.52 231.67)"><tspan x="0" y="0">2</tspan><tspan class="cls-42" x="6.17" y="0">0</tspan><tspan class="cls-13" x="11.57" y="0">1</tspan><tspan x="17.14" y="0">0</tspan></text>
      <text class="cls-23" transform="translate(90.26 258.33)"><tspan x="0" y="0">2</tspan><tspan class="cls-42" x="6.17" y="0">0</tspan><tspan class="cls-5" x="11.57" y="0">1</tspan><tspan x="16.28" y="0">1</tspan></text>
      <text class="cls-23" transform="translate(89.52 285)"><tspan x="0" y="0">2</tspan><tspan class="cls-42" x="6.17" y="0">0</tspan><tspan class="cls-2" x="11.57" y="0">1</tspan><tspan x="16.95" y="0">2</tspan></text>
      <text class="cls-23" transform="translate(89.52 311.67)"><tspan x="0" y="0">2</tspan><tspan class="cls-42" x="6.17" y="0">0</tspan><tspan class="cls-1" x="11.57" y="0">1</tspan><tspan x="17.03" y="0">3</tspan></text>
      <text class="cls-23" transform="translate(89.52 338.33)"><tspan x="0" y="0">2</tspan><tspan class="cls-42" x="6.17" y="0">0</tspan><tspan class="cls-2" x="11.57" y="0">1</tspan><tspan x="16.95" y="0">4</tspan></text>
      <text class="cls-23" transform="translate(89.52 365)"><tspan x="0" y="0">2</tspan><tspan class="cls-42" x="6.17" y="0">0</tspan><tspan class="cls-2" x="11.57" y="0">1</tspan><tspan x="16.95" y="0">5</tspan></text>
      <text class="cls-23" transform="translate(89.52 391.67)"><tspan x="0" y="0">2</tspan><tspan class="cls-42" x="6.17" y="0">0</tspan><tspan class="cls-15" x="11.57" y="0">1</tspan><tspan x="16.87" y="0">6</tspan></text>
      <text class="cls-23" transform="translate(89.52 418.33)"><tspan x="0" y="0">2</tspan><tspan class="cls-42" x="6.17" y="0">0</tspan><tspan class="cls-3" x="11.57" y="0">1</tspan><tspan x="16.82" y="0">7</tspan></text>
      <text class="cls-23" transform="translate(89.52 445)"><tspan x="0" y="0">2</tspan><tspan class="cls-42" x="6.17" y="0">0</tspan><tspan class="cls-26" x="11.57" y="0">1</tspan><tspan x="16.99" y="0">8</tspan></text>
      <text class="cls-23" transform="translate(89.52 471.67)"><tspan x="0" y="0">2</tspan><tspan class="cls-42" x="6.17" y="0">0</tspan><tspan class="cls-6" x="11.57" y="0">1</tspan><tspan x="16.93" y="0">9</tspan></text>
    </g>
    <g pointer-events="none">
      <line class="cls-31" x1="118.77" y1="82.5" x2="118.77" y2="482.5"/>
    </g>
    <g>
      <path class="cls-22" d="m701.16,122c0,1.51-1.23,2.74-2.74,2.74s-2.74-1.23-2.74-2.74,1.23-2.74,2.74-2.74,2.74,1.23,2.74,2.74"/>
      <path class="cls-22" d="m368.08,122c0,1.51-1.23,2.74-2.74,2.74s-2.74-1.23-2.74-2.74,1.23-2.74,2.74-2.74,2.74,1.23,2.74,2.74"/>
      <path class="cls-22" d="m358.7,175.33c0,1.51-1.23,2.74-2.74,2.74s-2.74-1.23-2.74-2.74,1.23-2.74,2.74-2.74,2.74,1.23,2.74,2.74"/>
      <path class="cls-22" d="m334.39,202c0,1.51-1.23,2.74-2.74,2.74s-2.74-1.23-2.74-2.74,1.23-2.74,2.74-2.74,2.74,1.23,2.74,2.74"/>
      <path class="cls-22" d="m343.77,228.67c0,1.51-1.23,2.74-2.74,2.74s-2.74-1.23-2.74-2.74,1.23-2.74,2.74-2.74,2.74,1.23,2.74,2.74"/>
      <path class="cls-22" d="m729.77,255.33c0,1.51-1.23,2.74-2.74,2.74s-2.74-1.23-2.74-2.74,1.23-2.74,2.74-2.74,2.74,1.23,2.74,2.74"/>
      <path class="cls-22" d="m360.85,255.33c0,1.51-1.23,2.74-2.74,2.74s-2.74-1.23-2.74-2.74,1.23-2.74,2.74-2.74,2.74,1.23,2.74,2.74"/>
      <path class="cls-22" d="m749.62,282c0,1.51-1.23,2.74-2.74,2.74s-2.74-1.23-2.74-2.74,1.23-2.74,2.74-2.74,2.74,1.23,2.74,2.74"/>
      <path class="cls-22" d="m376.39,282c0,1.51-1.23,2.74-2.74,2.74s-2.74-1.23-2.74-2.74,1.23-2.74,2.74-2.74,2.74,1.23,2.74,2.74"/>
      <path class="cls-22" d="m786.39,308.67c0,1.51-1.23,2.74-2.74,2.74s-2.74-1.23-2.74-2.74,1.23-2.74,2.74-2.74,2.74,1.23,2.74,2.74"/>
      <path class="cls-22" d="m404.85,308.67c0,1.51-1.23,2.74-2.74,2.74s-2.74-1.23-2.74-2.74,1.23-2.74,2.74-2.74,2.74,1.23,2.74,2.74"/>
      <path class="cls-22" d="m866.24,362c0,1.51-1.23,2.74-2.74,2.74s-2.74-1.23-2.74-2.74,1.23-2.74,2.74-2.74,2.74,1.23,2.74,2.74"/>
      <path class="cls-22" d="m922.39,388.67c0,1.51-1.23,2.74-2.74,2.74s-2.74-1.23-2.74-2.74,1.23-2.74,2.74-2.74,2.74,1.23,2.74,2.74"/>
      <path class="cls-22" d="m922.08,415.33c0,1.51-1.23,2.74-2.74,2.74s-2.74-1.23-2.74-2.74,1.23-2.74,2.74-2.74,2.74,1.23,2.74,2.74"/>
      <path class="cls-22" d="m964.85,415.33c0,1.51-1.23,2.74-2.74,2.74s-2.74-1.23-2.74-2.74,1.23-2.74,2.74-2.74,2.74,1.23,2.74,2.74"/>
      <path class="cls-22" d="m1006.54,442c0,1.51-1.23,2.74-2.74,2.74s-2.74-1.23-2.74-2.74,1.23-2.74,2.74-2.74,2.74,1.23,2.74,2.74"/>
      <path class="cls-22" d="m1020.39,442c0,1.51-1.23,2.74-2.74,2.74s-2.74-1.23-2.74-2.74,1.23-2.74,2.74-2.74,2.74,1.23,2.74,2.74"/>
      <path class="cls-22" d="m1062.08,468.67c0,1.51-1.23,2.74-2.74,2.74s-2.74-1.23-2.74-2.74,1.23-2.74,2.74-2.74,2.74,1.23,2.74,2.74"/>
      <path class="cls-22" d="m1038.24,468.67c0,1.51-1.23,2.74-2.74,2.74s-2.74-1.23-2.74-2.74,1.23-2.74,2.74-2.74,2.74,1.23,2.74,2.74"/>
    </g>
    <g>
      <line class="cls-30" x1="367.34" y1="95.33" x2="478.88" y2="95.33"/>
      <line class="cls-30" x1="436.11" y1="122" x2="490.19" y2="122"/>
      <line class="cls-30" x1="366.27" y1="148.67" x2="498.57" y2="148.67"/>
      <line class="cls-30" x1="479.19" y1="175.33" x2="509.57" y2="175.33"/>
      <line class="cls-30" x1="465.65" y1="202" x2="503.34" y2="202"/>
      <line class="cls-30" x1="475.5" y1="228.67" x2="501.88" y2="228.67"/>
      <line class="cls-30" x1="489.04" y1="255.33" x2="519.5" y2="255.33"/>
      <line class="cls-30" x1="508.73" y1="282" x2="540.27" y2="282"/>
      <line class="cls-30" x1="526.73" y1="308.67" x2="557.96" y2="308.67"/>
      <line class="cls-30" x1="516.27" y1="335.33" x2="578.81" y2="335.33"/>
      <line class="cls-30" x1="559.04" y1="362" x2="604.34" y2="362"/>
      <line class="cls-30" x1="572.42" y1="388.67" x2="619.42" y2="388.67"/>
      <line class="cls-30" x1="588.27" y1="415.33" x2="644.73" y2="415.33"/>
      <line class="cls-30" x1="620.11" y1="442" x2="672.42" y2="442"/>
      <line class="cls-30" x1="638.27" y1="468.67" x2="699.65" y2="468.67"/>
    </g>
    <g>
      <line class="cls-30" x1="572.73" y1="95.33" x2="682.11" y2="95.33"/>
      <line class="cls-30" x1="573.04" y1="122" x2="663.5" y2="122"/>
      <line class="cls-30" x1="592.04" y1="148.67" x2="709.04" y2="148.67"/>
      <line class="cls-30" x1="601.42" y1="175.33" x2="719.96" y2="175.33"/>
      <line class="cls-30" x1="578.34" y1="202" x2="690.57" y2="202"/>
      <line class="cls-30" x1="570.19" y1="228.67" x2="659.81" y2="228.67"/>
      <line class="cls-30" x1="594.65" y1="255.33" x2="653.04" y2="255.33"/>
      <line class="cls-30" x1="620.5" y1="282" x2="664.11" y2="282"/>
      <line class="cls-30" x1="643.42" y1="308.67" x2="692.73" y2="308.67"/>
      <line class="cls-30" x1="667.73" y1="335.33" x2="800.57" y2="335.33"/>
      <line class="cls-30" x1="705.88" y1="362" x2="773.19" y2="362"/>
      <line class="cls-30" x1="730.5" y1="388.67" x2="841.81" y2="388.67"/>
      <line class="cls-30" x1="749.88" y1="415.33" x2="873.81" y2="415.33"/>
      <line class="cls-30" x1="792.19" y1="442" x2="940.73" y2="442"/>
      <line class="cls-30" x1="827.65" y1="468.67" x2="971.5" y2="468.67"/>
    </g>
    <g>
      <path class="cls-11" d="m478.88,88.33h93.85v14h-93.85v-14Z"/>
      <path class="cls-11" d="m490.19,115h82.85v14h-82.85v-14Z"/>
      <path class="cls-11" d="m498.57,141.67h93.46v14h-93.46v-14Z"/>
      <path class="cls-11" d="m509.57,168.33h91.85v14h-91.85v-14Z"/>
      <path class="cls-11" d="m503.34,195h75v14h-75v-14Z"/>
      <path class="cls-11" d="m501.88,221.67h68.31v14h-68.31v-14Z"/>
      <path class="cls-11" d="m519.5,248.33h75.15v14h-75.15v-14Z"/>
      <path class="cls-11" d="m540.27,275h80.23v14h-80.23v-14Z"/>
      <path class="cls-11" d="m557.96,301.67h85.46v14h-85.46v-14Z"/>
      <path class="cls-11" d="m578.81,328.33h88.92v14h-88.92v-14Z"/>
      <path class="cls-11" d="m604.34,355h101.54v14h-101.54v-14Z"/>
      <path class="cls-11" d="m619.42,381.67h111.08v14h-111.08v-14Z"/>
      <path class="cls-11" d="m644.73,408.33h105.15v14h-105.15v-14Z"/>
      <path class="cls-11" d="m672.42,435h119.77v14h-119.77v-14Z"/>
      <path class="cls-11" d="m699.65,461.67h128v14h-128v-14Z"/>
    </g>
    <g>
      <path class="cls-21" d="m516.23,88.33h1v14h-1v-14Z"/>
      <path class="cls-21" d="m527,115h1v14h-1v-14Z"/>
      <path class="cls-21" d="m541,141.67h1v14h-1v-14Z"/>
      <path class="cls-21" d="m548.84,168.33h1v14h-1v-14Z"/>
      <path class="cls-21" d="m523.92,195h1v14h-1v-14Z"/>
      <path class="cls-21" d="m526.84,221.67h1v14h-1v-14Z"/>
      <path class="cls-21" d="m540.38,248.33h1v14h-1v-14Z"/>
      <path class="cls-21" d="m561.46,275h1v14h-1v-14Z"/>
      <path class="cls-21" d="m587.61,301.67h1v14h-1v-14Z"/>
      <path class="cls-21" d="m609.61,328.33h1v14h-1v-14Z"/>
      <path class="cls-21" d="m640.38,355h1v14h-1v-14Z"/>
      <path class="cls-21" d="m657.77,381.67h1v14h-1v-14Z"/>
      <path class="cls-21" d="m695.46,408.33h1v14h-1v-14Z"/>
      <path class="cls-21" d="m724.07,435h1v14h-1v-14Z"/>
      <path class="cls-21" d="m749.77,461.67h1v14h-1v-14Z"/>
    </g>
  </g>
  <g pointer-events="none">
    <text class="cls-25" transform="translate(297.24 51)"><tspan class="cls-18" x="0" y="0">B</tspan><tspan class="cls-40" x="13.03" y="0">O</tspan><tspan x="29.89" y="0">XP</tspan><tspan class="cls-41" x="58.04" y="0">L</tspan><tspan class="cls-29" x="67.87" y="0">O</tspan><tspan x="85.29" y="0">T OF </tspan><tspan class="cls-34" x="136.36" y="0">S</tspan><tspan class="cls-45" x="148.73" y="0">T</tspan><tspan class="cls-44" x="158.21" y="0">A</tspan><tspan class="cls-9" x="172.82" y="0">TES&apos; </tspan><tspan class="cls-7" x="217.34" y="0">1</tspan><tspan x="229.5" y="0">0TH PE</tspan><tspan class="cls-28" x="298.56" y="0">R</tspan><tspan x="311.77" y="0">CENTILE I</tspan><tspan class="cls-14" x="403.58" y="0">N</tspan><tspan class="cls-19" x="421.07" y="0">C</tspan><tspan x="433.96" y="0">OMES </tspan><tspan class="cls-38" x="500.76" y="0">B</tspan><tspan class="cls-20" x="513.05" y="0">Y YEAR</tspan></text>
  </g>
</svg>